<?xml version="1.0" encoding="utf-8" standalone="no"?>
<!DOCTYPE svg PUBLIC "-//W3C//DTD SVG 1.1//EN"
  "http://www.w3.org/Graphics/SVG/1.1/DTD/svg11.dtd">
<svg height="281.441562pt" version="1.1" viewBox="0 0 288.567926 281.441562" width="288.567926pt" xmlns="http://www.w3.org/2000/svg" xmlns:xlink="http://www.w3.org/1999/xlink">
 <metadata>
  <rdf:RDF xmlns:cc="http://creativecommons.org/ns#" xmlns:dc="http://purl.org/dc/elements/1.1/" xmlns:rdf="http://www.w3.org/1999/02/22-rdf-syntax-ns#">
   <cc:Work>
    <dc:type rdf:resource="http://purl.org/dc/dcmitype/StillImage"/>
    <dc:date>2024-09-24T16:43:55.709267</dc:date>
    <dc:format>image/svg+xml</dc:format>
    <dc:creator>
     <cc:Agent>
      <dc:title>Matplotlib v3.4.3, https://matplotlib.org/</dc:title>
     </cc:Agent>
    </dc:creator>
   </cc:Work>
  </rdf:RDF>
 </metadata>
 <defs>
  <style type="text/css">*{stroke-linecap:butt;stroke-linejoin:round;}</style>
 </defs>
 <g id="figure_1">
  <g id="patch_1">
   <path d="M 0 281.441562 
L 288.567926 281.441562 
L 288.567926 0 
L 0 0 
z
" style="fill:#ffffff;"/>
  </g>
  <g id="axes_1">
   <g id="patch_2">
    <path d="M 59.681562 224.64 
L 277.121562 224.64 
L 277.121562 7.2 
L 59.681562 7.2 
z
" style="fill:#ffffff;"/>
   </g>
   <g id="matplotlib.axis_1">
    <g id="xtick_1">
     <g id="line2d_1">
      <defs>
       <path d="M 0 0 
L 0 3.5 
" id="m18a2b36ccc" style="stroke:#000000;stroke-width:1.5;"/>
      </defs>
      <g>
       <use style="stroke:#000000;stroke-width:1.5;" x="69.565199" xlink:href="#m18a2b36ccc" y="224.64"/>
      </g>
     </g>
     <g id="text_1">
      <!-- $\mathdefault{10^{-3}}$ -->
      <g transform="translate(51.745199 250.2025)scale(0.18 -0.18)">
       <defs>
        <path d="M 2384 0 
L 1822 0 
L 1822 3584 
Q 1619 3391 1289 3197 
Q 959 3003 697 2906 
L 697 3450 
Q 1169 3672 1522 3987 
Q 1875 4303 2022 4600 
L 2384 4600 
L 2384 0 
z
" id="ArialMT-31" transform="scale(0.015625)"/>
        <path d="M 266 2259 
Q 266 3072 433 3567 
Q 600 4063 929 4331 
Q 1259 4600 1759 4600 
Q 2128 4600 2406 4451 
Q 2684 4303 2865 4023 
Q 3047 3744 3150 3342 
Q 3253 2941 3253 2259 
Q 3253 1453 3087 958 
Q 2922 463 2592 192 
Q 2263 -78 1759 -78 
Q 1097 -78 719 397 
Q 266 969 266 2259 
z
M 844 2259 
Q 844 1131 1108 757 
Q 1372 384 1759 384 
Q 2147 384 2411 759 
Q 2675 1134 2675 2259 
Q 2675 3391 2411 3762 
Q 2147 4134 1753 4134 
Q 1366 4134 1134 3806 
Q 844 3388 844 2259 
z
" id="ArialMT-30" transform="scale(0.015625)"/>
        <path d="M 3381 1997 
L 356 1997 
L 356 2522 
L 3381 2522 
L 3381 1997 
z
" id="ArialMT-2212" transform="scale(0.015625)"/>
        <path d="M 269 1209 
L 831 1284 
Q 928 806 1161 595 
Q 1394 384 1728 384 
Q 2125 384 2398 659 
Q 2672 934 2672 1341 
Q 2672 1728 2419 1979 
Q 2166 2231 1775 2231 
Q 1616 2231 1378 2169 
L 1441 2663 
Q 1497 2656 1531 2656 
Q 1891 2656 2178 2843 
Q 2466 3031 2466 3422 
Q 2466 3731 2256 3934 
Q 2047 4138 1716 4138 
Q 1388 4138 1169 3931 
Q 950 3725 888 3313 
L 325 3413 
Q 428 3978 793 4289 
Q 1159 4600 1703 4600 
Q 2078 4600 2393 4439 
Q 2709 4278 2876 4000 
Q 3044 3722 3044 3409 
Q 3044 3113 2884 2869 
Q 2725 2625 2413 2481 
Q 2819 2388 3044 2092 
Q 3269 1797 3269 1353 
Q 3269 753 2831 336 
Q 2394 -81 1725 -81 
Q 1122 -81 723 278 
Q 325 638 269 1209 
z
" id="ArialMT-33" transform="scale(0.015625)"/>
       </defs>
       <use transform="translate(0 0.99375)" xlink:href="#ArialMT-31"/>
       <use transform="translate(55.615234 0.99375)" xlink:href="#ArialMT-30"/>
       <use transform="translate(112.972813 70.6875)scale(0.7)" xlink:href="#ArialMT-2212"/>
       <use transform="translate(153.851719 70.6875)scale(0.7)" xlink:href="#ArialMT-33"/>
      </g>
     </g>
    </g>
    <g id="xtick_2">
     <g id="line2d_2">
      <g>
       <use style="stroke:#000000;stroke-width:1.5;" x="135.456108" xlink:href="#m18a2b36ccc" y="224.64"/>
      </g>
     </g>
     <g id="text_2">
      <!-- $\mathdefault{10^{-2}}$ -->
      <g transform="translate(117.636108 250.2025)scale(0.18 -0.18)">
       <defs>
        <path d="M 3222 541 
L 3222 0 
L 194 0 
Q 188 203 259 391 
Q 375 700 629 1000 
Q 884 1300 1366 1694 
Q 2113 2306 2375 2664 
Q 2638 3022 2638 3341 
Q 2638 3675 2398 3904 
Q 2159 4134 1775 4134 
Q 1369 4134 1125 3890 
Q 881 3647 878 3216 
L 300 3275 
Q 359 3922 746 4261 
Q 1134 4600 1788 4600 
Q 2447 4600 2831 4234 
Q 3216 3869 3216 3328 
Q 3216 3053 3103 2787 
Q 2991 2522 2730 2228 
Q 2469 1934 1863 1422 
Q 1356 997 1212 845 
Q 1069 694 975 541 
L 3222 541 
z
" id="ArialMT-32" transform="scale(0.015625)"/>
       </defs>
       <use transform="translate(0 0.99375)" xlink:href="#ArialMT-31"/>
       <use transform="translate(55.615234 0.99375)" xlink:href="#ArialMT-30"/>
       <use transform="translate(112.972813 70.6875)scale(0.7)" xlink:href="#ArialMT-2212"/>
       <use transform="translate(153.851719 70.6875)scale(0.7)" xlink:href="#ArialMT-32"/>
      </g>
     </g>
    </g>
    <g id="xtick_3">
     <g id="line2d_3">
      <g>
       <use style="stroke:#000000;stroke-width:1.5;" x="201.347017" xlink:href="#m18a2b36ccc" y="224.64"/>
      </g>
     </g>
     <g id="text_3">
      <!-- $\mathdefault{10^{-1}}$ -->
      <g transform="translate(183.527017 250.2025)scale(0.18 -0.18)">
       <use transform="translate(0 0.99375)" xlink:href="#ArialMT-31"/>
       <use transform="translate(55.615234 0.99375)" xlink:href="#ArialMT-30"/>
       <use transform="translate(112.972813 70.6875)scale(0.7)" xlink:href="#ArialMT-2212"/>
       <use transform="translate(153.851719 70.6875)scale(0.7)" xlink:href="#ArialMT-31"/>
      </g>
     </g>
    </g>
    <g id="xtick_4">
     <g id="line2d_4">
      <g>
       <use style="stroke:#000000;stroke-width:1.5;" x="267.237926" xlink:href="#m18a2b36ccc" y="224.64"/>
      </g>
     </g>
     <g id="text_4">
      <!-- $\mathdefault{10^{0}}$ -->
      <g transform="translate(253.107926 250.2025)scale(0.18 -0.18)">
       <use transform="translate(0 0.99375)" xlink:href="#ArialMT-31"/>
       <use transform="translate(55.615234 0.99375)" xlink:href="#ArialMT-30"/>
       <use transform="translate(112.972813 70.6875)scale(0.7)" xlink:href="#ArialMT-30"/>
      </g>
     </g>
    </g>
    <g id="text_5">
     <!-- α -->
     <g transform="translate(163.198438 270.664062)scale(0.18 -0.18)">
      <defs>
       <path d="M 2884 3319 
L 3459 3319 
Q 3241 2631 3056 1659 
Q 3275 453 3459 0 
L 2900 0 
Q 2766 313 2697 606 
Q 2438 -75 1613 -75 
Q 988 -75 606 394 
Q 225 863 225 1666 
Q 225 2491 608 2942 
Q 991 3394 1622 3394 
Q 2013 3394 2259 3236 
Q 2506 3078 2719 2756 
Q 2741 2866 2884 3319 
z
M 1716 2928 
Q 1313 2928 1078 2603 
Q 844 2278 844 1666 
Q 844 1069 1066 728 
Q 1288 388 1684 388 
Q 2072 388 2331 723 
Q 2591 1059 2591 1691 
Q 2591 2303 2348 2615 
Q 2106 2928 1716 2928 
z
" id="ArialMT-3b1" transform="scale(0.015625)"/>
      </defs>
      <use xlink:href="#ArialMT-3b1"/>
     </g>
    </g>
   </g>
   <g id="matplotlib.axis_2">
    <g id="ytick_1">
     <g id="line2d_5">
      <defs>
       <path d="M 0 0 
L -3.5 0 
" id="mbcf5a5d8e0" style="stroke:#000000;stroke-width:1.5;"/>
      </defs>
      <g>
       <use style="stroke:#000000;stroke-width:1.5;" x="59.681562" xlink:href="#mbcf5a5d8e0" y="177.369954"/>
      </g>
     </g>
     <g id="text_6">
      <!-- 1.0 -->
      <g transform="translate(27.661562 183.811986)scale(0.18 -0.18)">
       <defs>
        <path d="M 581 0 
L 581 641 
L 1222 641 
L 1222 0 
L 581 0 
z
" id="ArialMT-2e" transform="scale(0.015625)"/>
       </defs>
       <use xlink:href="#ArialMT-31"/>
       <use x="55.615234" xlink:href="#ArialMT-2e"/>
       <use x="83.398438" xlink:href="#ArialMT-30"/>
      </g>
     </g>
    </g>
    <g id="ytick_2">
     <g id="line2d_6">
      <g>
       <use style="stroke:#000000;stroke-width:1.5;" x="59.681562" xlink:href="#mbcf5a5d8e0" y="129.404996"/>
      </g>
     </g>
     <g id="text_7">
      <!-- 1.5 -->
      <g transform="translate(27.661562 135.847028)scale(0.18 -0.18)">
       <defs>
        <path d="M 266 1200 
L 856 1250 
Q 922 819 1161 601 
Q 1400 384 1738 384 
Q 2144 384 2425 690 
Q 2706 997 2706 1503 
Q 2706 1984 2436 2262 
Q 2166 2541 1728 2541 
Q 1456 2541 1237 2417 
Q 1019 2294 894 2097 
L 366 2166 
L 809 4519 
L 3088 4519 
L 3088 3981 
L 1259 3981 
L 1013 2750 
Q 1425 3038 1878 3038 
Q 2478 3038 2890 2622 
Q 3303 2206 3303 1553 
Q 3303 931 2941 478 
Q 2500 -78 1738 -78 
Q 1113 -78 717 272 
Q 322 622 266 1200 
z
" id="ArialMT-35" transform="scale(0.015625)"/>
       </defs>
       <use xlink:href="#ArialMT-31"/>
       <use x="55.615234" xlink:href="#ArialMT-2e"/>
       <use x="83.398438" xlink:href="#ArialMT-35"/>
      </g>
     </g>
    </g>
    <g id="ytick_3">
     <g id="line2d_7">
      <g>
       <use style="stroke:#000000;stroke-width:1.5;" x="59.681562" xlink:href="#mbcf5a5d8e0" y="81.440038"/>
      </g>
     </g>
     <g id="text_8">
      <!-- 2.0 -->
      <g transform="translate(27.661562 87.88207)scale(0.18 -0.18)">
       <use xlink:href="#ArialMT-32"/>
       <use x="55.615234" xlink:href="#ArialMT-2e"/>
       <use x="83.398438" xlink:href="#ArialMT-30"/>
      </g>
     </g>
    </g>
    <g id="ytick_4">
     <g id="line2d_8">
      <g>
       <use style="stroke:#000000;stroke-width:1.5;" x="59.681562" xlink:href="#mbcf5a5d8e0" y="33.47508"/>
      </g>
     </g>
     <g id="text_9">
      <!-- 2.5 -->
      <g transform="translate(27.661562 39.917112)scale(0.18 -0.18)">
       <use xlink:href="#ArialMT-32"/>
       <use x="55.615234" xlink:href="#ArialMT-2e"/>
       <use x="83.398438" xlink:href="#ArialMT-35"/>
      </g>
     </g>
    </g>
    <g id="text_10">
     <!-- RMSE -->
     <g transform="translate(20.084062 141.922969)rotate(-90)scale(0.18 -0.18)">
      <defs>
       <path d="M 503 0 
L 503 4581 
L 2534 4581 
Q 3147 4581 3465 4457 
Q 3784 4334 3975 4021 
Q 4166 3709 4166 3331 
Q 4166 2844 3850 2509 
Q 3534 2175 2875 2084 
Q 3116 1969 3241 1856 
Q 3506 1613 3744 1247 
L 4541 0 
L 3778 0 
L 3172 953 
Q 2906 1366 2734 1584 
Q 2563 1803 2427 1890 
Q 2291 1978 2150 2013 
Q 2047 2034 1813 2034 
L 1109 2034 
L 1109 0 
L 503 0 
z
M 1109 2559 
L 2413 2559 
Q 2828 2559 3062 2645 
Q 3297 2731 3419 2920 
Q 3541 3109 3541 3331 
Q 3541 3656 3305 3865 
Q 3069 4075 2559 4075 
L 1109 4075 
L 1109 2559 
z
" id="ArialMT-52" transform="scale(0.015625)"/>
       <path d="M 475 0 
L 475 4581 
L 1388 4581 
L 2472 1338 
Q 2622 884 2691 659 
Q 2769 909 2934 1394 
L 4031 4581 
L 4847 4581 
L 4847 0 
L 4263 0 
L 4263 3834 
L 2931 0 
L 2384 0 
L 1059 3900 
L 1059 0 
L 475 0 
z
" id="ArialMT-4d" transform="scale(0.015625)"/>
       <path d="M 288 1472 
L 859 1522 
Q 900 1178 1048 958 
Q 1197 738 1509 602 
Q 1822 466 2213 466 
Q 2559 466 2825 569 
Q 3091 672 3220 851 
Q 3350 1031 3350 1244 
Q 3350 1459 3225 1620 
Q 3100 1781 2813 1891 
Q 2628 1963 1997 2114 
Q 1366 2266 1113 2400 
Q 784 2572 623 2826 
Q 463 3081 463 3397 
Q 463 3744 659 4045 
Q 856 4347 1234 4503 
Q 1613 4659 2075 4659 
Q 2584 4659 2973 4495 
Q 3363 4331 3572 4012 
Q 3781 3694 3797 3291 
L 3216 3247 
Q 3169 3681 2898 3903 
Q 2628 4125 2100 4125 
Q 1550 4125 1298 3923 
Q 1047 3722 1047 3438 
Q 1047 3191 1225 3031 
Q 1400 2872 2139 2705 
Q 2878 2538 3153 2413 
Q 3553 2228 3743 1945 
Q 3934 1663 3934 1294 
Q 3934 928 3725 604 
Q 3516 281 3123 101 
Q 2731 -78 2241 -78 
Q 1619 -78 1198 103 
Q 778 284 539 648 
Q 300 1013 288 1472 
z
" id="ArialMT-53" transform="scale(0.015625)"/>
       <path d="M 506 0 
L 506 4581 
L 3819 4581 
L 3819 4041 
L 1113 4041 
L 1113 2638 
L 3647 2638 
L 3647 2100 
L 1113 2100 
L 1113 541 
L 3925 541 
L 3925 0 
L 506 0 
z
" id="ArialMT-45" transform="scale(0.015625)"/>
      </defs>
      <use xlink:href="#ArialMT-52"/>
      <use x="72.216797" xlink:href="#ArialMT-4d"/>
      <use x="155.517578" xlink:href="#ArialMT-53"/>
      <use x="222.216797" xlink:href="#ArialMT-45"/>
     </g>
    </g>
   </g>
   <g id="line2d_9">
    <path clip-path="url(#p90baf2cb54)" d="M 267.237926 76.725734 
L 265.241232 79.75316 
L 263.244538 82.449417 
L 261.247843 87.079057 
L 259.251149 91.635676 
L 257.254455 95.203672 
L 255.257761 97.18223 
L 253.261067 99.104613 
L 251.264372 102.457146 
L 249.267678 105.416266 
L 247.270984 107.986359 
L 245.27429 110.116642 
L 243.277596 111.876662 
L 241.280901 114.225864 
L 239.284207 118.176285 
L 237.287513 122.141928 
L 235.290819 126.582359 
L 233.294124 130.606052 
L 231.29743 134.247696 
L 229.300736 137.539701 
L 227.304042 140.512444 
L 225.307348 143.194528 
L 223.310653 145.611938 
L 221.313959 147.764499 
L 219.317265 149.607719 
L 217.320571 151.217035 
L 215.323877 152.683703 
L 213.327182 154.304427 
L 211.330488 155.788606 
L 209.333794 157.142114 
L 207.3371 158.2213 
L 205.340405 159.26707 
L 203.343711 160.417258 
L 201.347017 161.510139 
L 199.350323 162.483838 
L 197.353629 163.22879 
L 195.356934 163.89323 
L 193.36024 164.483365 
L 191.363546 165.007909 
L 189.366852 165.47441 
L 187.370158 166.23565 
L 185.373463 167.033392 
L 183.376769 167.562017 
L 181.380075 167.998253 
L 179.383381 168.334054 
L 177.386686 168.552697 
L 175.389992 168.648573 
L 173.393298 168.41476 
L 171.396604 168.041381 
L 169.39991 167.522205 
L 167.403215 167.269936 
L 165.406521 167.550834 
L 163.409827 168.363952 
L 161.413133 168.884605 
L 159.416439 169.443211 
L 157.419744 169.926185 
L 155.42305 170.365184 
L 153.426356 170.347415 
L 151.429662 170.481482 
L 149.432967 171.068015 
L 147.436273 172.057267 
L 145.439579 171.405816 
L 143.442885 170.623657 
L 141.446191 169.851575 
L 139.449496 168.947007 
L 137.452802 167.999035 
L 135.456108 167.591088 
L 133.459414 167.415075 
L 131.46272 167.473468 
L 129.466025 168.383893 
L 127.469331 169.083471 
L 125.472637 169.474175 
L 123.475943 169.844381 
L 121.479248 170.365248 
L 119.482554 170.94889 
L 117.48586 171.477149 
L 115.489166 172.263886 
L 113.492472 172.927923 
L 111.495777 173.417637 
L 109.499083 174.022856 
L 107.502389 174.626689 
L 105.505695 175.187257 
L 103.509001 175.702743 
L 101.512306 176.330598 
L 99.515612 176.711252 
L 97.518918 177.597293 
L 95.522224 178.353464 
L 93.525529 179.405371 
L 91.528835 180.278878 
L 89.532141 181.2812 
L 87.535447 182.311677 
L 85.538753 183.282871 
L 83.542058 184.213152 
L 81.545364 184.99181 
L 79.54867 185.570218 
L 77.551976 185.876928 
L 75.555282 185.919649 
L 73.558587 186.402354 
L 71.561893 186.8518 
L 69.565199 187.516902 
" style="fill:none;stroke:#1f77b4;stroke-dasharray:2,3.3;stroke-dashoffset:0;stroke-width:2;"/>
   </g>
   <g id="line2d_10">
    <path clip-path="url(#p90baf2cb54)" d="M 267.237926 73.26031 
L 265.241232 75.272092 
L 263.244538 77.306715 
L 261.247843 78.914669 
L 259.251149 80.156455 
L 257.254455 81.086371 
L 255.257761 81.751438 
L 253.261067 82.194356 
L 251.264372 82.452592 
L 249.267678 82.557286 
L 247.270984 82.835877 
L 245.27429 84.169047 
L 243.277596 85.101843 
L 241.280901 87.905822 
L 239.284207 92.821381 
L 237.287513 98.934377 
L 235.290819 106.036832 
L 233.294124 113.517026 
L 231.29743 120.446565 
L 229.300736 126.862861 
L 227.304042 132.801005 
L 225.307348 138.293933 
L 223.310653 142.837281 
L 221.313959 146.931446 
L 219.317265 150.677519 
L 217.320571 154.102357 
L 215.323877 157.231264 
L 213.327182 160.095931 
L 211.330488 162.930707 
L 209.333794 165.522818 
L 207.3371 167.89247 
L 205.340405 170.163042 
L 203.343711 172.841923 
L 201.347017 175.362529 
L 199.350323 177.63572 
L 197.353629 179.727099 
L 195.356934 181.75381 
L 193.36024 183.716296 
L 191.363546 185.544582 
L 189.366852 187.203229 
L 187.370158 188.570204 
L 185.373463 189.703114 
L 183.376769 190.721117 
L 181.380075 191.624624 
L 179.383381 192.411538 
L 177.386686 193.016304 
L 175.389992 193.52877 
L 173.393298 193.957085 
L 171.396604 194.411701 
L 169.39991 194.698349 
L 167.403215 195.327467 
L 165.406521 195.905893 
L 163.409827 196.455287 
L 161.413133 197.071744 
L 159.416439 197.71079 
L 157.419744 198.300021 
L 155.42305 198.825813 
L 153.426356 203.299468 
L 151.429662 200.725135 
L 149.432967 196.747286 
L 147.436273 191.02291 
L 145.439579 183.501331 
L 143.442885 174.80971 
L 141.446191 166.330579 
L 139.449496 155.949453 
L 137.452802 146.216061 
L 135.456108 132.947062 
L 133.459414 119.963531 
L 131.46272 108.89811 
L 129.466025 98.859922 
L 127.469331 86.461966 
L 125.472637 76.144085 
L 123.475943 65.868713 
L 121.479248 60.214366 
L 119.482554 53.843279 
L 117.48586 47.694111 
L 115.489166 41.928729 
L 113.492472 36.558934 
L 111.495777 33.697367 
L 109.499083 31.294152 
L 107.502389 29.697592 
L 105.505695 27.459179 
L 103.509001 25.307235 
L 101.512306 25.113657 
L 99.515612 25.224217 
L 97.518918 25.501336 
L 95.522224 26.996538 
L 93.525529 28.31514 
L 91.528835 27.64631 
L 89.532141 29.003777 
L 87.535447 30.593688 
L 85.538753 30.96156 
L 83.542058 29.955683 
L 81.545364 28.625184 
L 79.54867 26.446875 
L 77.551976 23.723211 
L 75.555282 21.157749 
L 73.558587 19.005822 
L 71.561893 17.083636 
L 69.565199 17.199723 
" style="fill:none;stroke:#ff7f0e;stroke-dasharray:2,3.3;stroke-dashoffset:0;stroke-width:2;"/>
   </g>
   <g id="line2d_11">
    <path clip-path="url(#p90baf2cb54)" d="M 267.237926 77.846158 
L 265.241232 80.885566 
L 263.244538 83.554683 
L 261.247843 85.883924 
L 259.251149 87.911771 
L 257.254455 89.673169 
L 255.257761 91.19963 
L 253.261067 93.569034 
L 251.264372 95.687965 
L 249.267678 97.751867 
L 247.270984 99.626971 
L 245.27429 102.001167 
L 243.277596 104.188082 
L 241.280901 106.750513 
L 239.284207 109.15931 
L 237.287513 114.821565 
L 235.290819 122.571825 
L 233.294124 129.595288 
L 231.29743 135.941948 
L 229.300736 141.656139 
L 227.304042 146.784976 
L 225.307348 151.370047 
L 223.310653 155.454785 
L 221.313959 158.826749 
L 219.317265 161.797695 
L 217.320571 164.32992 
L 215.323877 166.446837 
L 213.327182 168.274405 
L 211.330488 169.919464 
L 209.333794 171.562756 
L 207.3371 173.100893 
L 205.340405 174.440937 
L 203.343711 175.590794 
L 201.347017 176.720618 
L 199.350323 178.043526 
L 197.353629 179.202835 
L 195.356934 180.49713 
L 193.36024 181.508092 
L 191.363546 182.039345 
L 189.366852 182.488961 
L 187.370158 182.868233 
L 185.373463 183.086403 
L 183.376769 183.499793 
L 181.380075 183.963824 
L 179.383381 184.551299 
L 177.386686 185.005769 
L 175.389992 185.398391 
L 173.393298 185.737026 
L 171.396604 186.029315 
L 169.39991 186.280615 
L 167.403215 186.49615 
L 165.406521 187.155908 
L 163.409827 187.998027 
L 161.413133 189.052836 
L 159.416439 189.863616 
L 157.419744 190.634684 
L 155.42305 191.865393 
L 153.426356 193.098712 
L 151.429662 194.211578 
L 149.432967 195.466693 
L 147.436273 197.060693 
L 145.439579 198.350776 
L 143.442885 199.536835 
L 141.446191 200.766294 
L 139.449496 201.99773 
L 137.452802 204.025199 
L 135.456108 206.002797 
L 133.459414 207.345943 
L 131.46272 208.781407 
L 129.466025 209.703884 
L 127.469331 210.46241 
L 125.472637 210.724584 
L 123.475943 210.963041 
L 121.479248 211.173518 
L 119.482554 211.408698 
L 117.48586 211.616774 
L 115.489166 211.697085 
L 113.492472 211.704191 
L 111.495777 212.228974 
L 109.499083 212.739196 
L 107.502389 213.157316 
L 105.505695 213.184103 
L 103.509001 213.384253 
L 101.512306 213.790545 
L 99.515612 214.165907 
L 97.518918 214.506119 
L 95.522224 214.756364 
L 93.525529 214.420851 
L 91.528835 213.290227 
L 89.532141 211.729559 
L 87.535447 210.176194 
L 85.538753 209.732414 
L 83.542058 209.657718 
L 81.545364 209.508614 
L 79.54867 208.845592 
L 77.551976 207.825778 
L 75.555282 206.306126 
L 73.558587 204.643055 
L 71.561893 203.317547 
L 69.565199 202.247324 
" style="fill:none;stroke:#2ca02c;stroke-dasharray:2,3.3;stroke-dashoffset:0;stroke-width:2;"/>
   </g>
   <g id="line2d_12">
    <path clip-path="url(#p90baf2cb54)" d="M 267.237926 83.102593 
L 265.241232 88.454848 
L 263.244538 93.488052 
L 261.247843 100.82471 
L 259.251149 107.851552 
L 257.254455 114.348413 
L 255.257761 120.393673 
L 253.261067 125.851402 
L 251.264372 130.898382 
L 249.267678 135.900484 
L 247.270984 140.383055 
L 245.27429 144.42391 
L 243.277596 148.841206 
L 241.280901 153.528927 
L 239.284207 159.831116 
L 237.287513 166.555798 
L 235.290819 172.449323 
L 233.294124 177.555865 
L 231.29743 181.921583 
L 229.300736 185.597322 
L 227.304042 188.636204 
L 225.307348 191.092928 
L 223.310653 193.026043 
L 221.313959 194.494406 
L 219.317265 195.573209 
L 217.320571 196.311014 
L 215.323877 196.799028 
L 213.327182 197.060616 
L 211.330488 197.040224 
L 209.333794 196.814627 
L 207.3371 196.524805 
L 205.340405 196.206702 
L 203.343711 195.796749 
L 201.347017 195.238704 
L 199.350323 194.569999 
L 197.353629 193.820524 
L 195.356934 193.015096 
L 193.36024 192.565875 
L 191.363546 192.28084 
L 189.366852 191.961741 
L 187.370158 191.610051 
L 185.373463 191.279747 
L 183.376769 190.976252 
L 181.380075 190.394855 
L 179.383381 189.774341 
L 177.386686 188.658845 
L 175.389992 187.502568 
L 173.393298 185.727339 
L 171.396604 183.613626 
L 169.39991 181.805305 
L 167.403215 180.190568 
L 165.406521 179.131295 
L 163.409827 177.947414 
L 161.413133 176.766103 
L 159.416439 175.684413 
L 157.419744 174.662755 
L 155.42305 173.668495 
L 153.426356 172.712689 
L 151.429662 171.800057 
L 149.432967 170.931394 
L 147.436273 170.270973 
L 145.439579 169.665696 
L 143.442885 169.087449 
L 141.446191 168.637915 
L 139.449496 168.472312 
L 137.452802 169.178386 
L 135.456108 169.632864 
L 133.459414 170.041313 
L 131.46272 170.458242 
L 129.466025 171.01693 
L 127.469331 171.061749 
L 125.472637 171.621288 
L 123.475943 172.42114 
L 121.479248 173.22665 
L 119.482554 173.957115 
L 117.48586 175.144628 
L 115.489166 175.078677 
L 113.492472 175.034063 
L 111.495777 175.036335 
L 109.499083 175.772394 
L 107.502389 176.678238 
L 105.505695 177.384097 
L 103.509001 177.848983 
L 101.512306 178.294682 
L 99.515612 178.727156 
L 97.518918 179.1174 
L 95.522224 179.446905 
L 93.525529 179.725003 
L 91.528835 179.962069 
L 89.532141 179.705499 
L 87.535447 179.385942 
L 85.538753 179.012007 
L 83.542058 178.928805 
L 81.545364 178.969289 
L 79.54867 178.93761 
L 77.551976 178.957386 
L 75.555282 179.043803 
L 73.558587 179.118051 
L 71.561893 179.318033 
L 69.565199 179.816849 
" style="fill:none;stroke:#d62728;stroke-dasharray:2,3.3;stroke-dashoffset:0;stroke-width:2;"/>
   </g>
   <g id="line2d_13">
    <path clip-path="url(#p90baf2cb54)" d="M 267.237926 82.793755 
L 265.241232 87.820045 
L 263.244538 93.86375 
L 261.247843 99.578559 
L 259.251149 104.81453 
L 257.254455 109.609857 
L 255.257761 114.42348 
L 253.261067 118.230563 
L 251.264372 121.694736 
L 249.267678 124.845686 
L 247.270984 127.711543 
L 245.27429 130.531462 
L 243.277596 133.132101 
L 241.280901 136.860674 
L 239.284207 141.344974 
L 237.287513 145.44748 
L 235.290819 149.192777 
L 233.294124 152.608864 
L 231.29743 155.722088 
L 229.300736 158.557164 
L 227.304042 161.137214 
L 225.307348 163.484506 
L 223.310653 165.617817 
L 221.313959 167.508905 
L 219.317265 169.06835 
L 217.320571 170.537658 
L 215.323877 171.956839 
L 213.327182 173.215425 
L 211.330488 174.330203 
L 209.333794 175.305311 
L 207.3371 175.359703 
L 205.340405 174.954701 
L 203.343711 174.529125 
L 201.347017 174.083781 
L 199.350323 173.626629 
L 197.353629 173.277826 
L 195.356934 172.978047 
L 193.36024 172.655283 
L 191.363546 172.388102 
L 189.366852 172.172564 
L 187.370158 171.859932 
L 185.373463 171.480411 
L 183.376769 171.090002 
L 181.380075 170.714043 
L 179.383381 170.352304 
L 177.386686 170.035385 
L 175.389992 169.728247 
L 173.393298 169.427483 
L 171.396604 169.093913 
L 169.39991 168.794857 
L 167.403215 168.479241 
L 165.406521 168.173398 
L 163.409827 167.840259 
L 161.413133 167.523995 
L 159.416439 167.21723 
L 157.419744 166.920889 
L 155.42305 167.052423 
L 153.426356 166.823001 
L 151.429662 166.529506 
L 149.432967 166.244095 
L 147.436273 165.972841 
L 145.439579 165.713566 
L 143.442885 165.721807 
L 141.446191 166.651975 
L 139.449496 166.963973 
L 137.452802 167.584066 
L 135.456108 168.285923 
L 133.459414 169.116121 
L 131.46272 169.886659 
L 129.466025 170.564252 
L 127.469331 170.825504 
L 125.472637 171.459044 
L 123.475943 171.985456 
L 121.479248 172.551556 
L 119.482554 173.614828 
L 117.48586 174.628055 
L 115.489166 174.897138 
L 113.492472 175.971757 
L 111.495777 177.622334 
L 109.499083 178.855988 
L 107.502389 180.010742 
L 105.505695 181.079479 
L 103.509001 181.65706 
L 101.512306 181.984337 
L 99.515612 182.450162 
L 97.518918 183.137395 
L 95.522224 183.870657 
L 93.525529 184.636488 
L 91.528835 185.757547 
L 89.532141 186.5929 
L 87.535447 187.355695 
L 85.538753 188.051882 
L 83.542058 188.682449 
L 81.545364 189.239741 
L 79.54867 189.689853 
L 77.551976 189.883179 
L 75.555282 190.204065 
L 73.558587 190.358154 
L 71.561893 190.465554 
L 69.565199 190.762799 
" style="fill:none;stroke:#9467bd;stroke-dasharray:2,3.3;stroke-dashoffset:0;stroke-width:2;"/>
   </g>
   <g id="line2d_14">
    <path clip-path="url(#p90baf2cb54)" d="M 267.237926 76.532495 
L 265.241232 81.074688 
L 263.244538 85.838149 
L 261.247843 90.261094 
L 259.251149 94.266292 
L 257.254455 98.003392 
L 255.257761 101.480644 
L 253.261067 104.607934 
L 251.264372 107.574312 
L 249.267678 110.29588 
L 247.270984 112.633837 
L 245.27429 114.567022 
L 243.277596 116.232593 
L 241.280901 118.301557 
L 239.284207 123.004847 
L 237.287513 127.697366 
L 235.290819 131.991933 
L 233.294124 135.919461 
L 231.29743 139.508777 
L 229.300736 142.786965 
L 227.304042 145.779355 
L 225.307348 148.509591 
L 223.310653 150.999688 
L 221.313959 153.270096 
L 219.317265 155.339768 
L 217.320571 157.226096 
L 215.323877 158.945481 
L 213.327182 160.644429 
L 211.330488 162.261825 
L 209.333794 163.741435 
L 207.3371 165.096336 
L 205.340405 166.695902 
L 203.343711 168.953584 
L 201.347017 171.136527 
L 199.350323 173.106022 
L 197.353629 174.912123 
L 195.356934 176.518073 
L 193.36024 177.947086 
L 191.363546 179.921544 
L 189.366852 181.161674 
L 187.370158 182.305672 
L 185.373463 183.517769 
L 183.376769 184.462762 
L 181.380075 185.353762 
L 179.383381 186.444621 
L 177.386686 187.349359 
L 175.389992 188.183243 
L 173.393298 188.953551 
L 171.396604 189.728983 
L 169.39991 190.47592 
L 167.403215 191.122183 
L 165.406521 192.403946 
L 163.409827 193.743812 
L 161.413133 194.691196 
L 159.416439 195.241858 
L 157.419744 195.618164 
L 155.42305 195.828337 
L 153.426356 195.873036 
L 151.429662 195.796045 
L 149.432967 195.766975 
L 147.436273 195.745566 
L 145.439579 195.557814 
L 143.442885 196.15275 
L 141.446191 196.358826 
L 139.449496 196.232435 
L 137.452802 195.876895 
L 135.456108 195.68125 
L 133.459414 195.875104 
L 131.46272 195.716138 
L 129.466025 194.995228 
L 127.469331 194.068792 
L 125.472637 193.090954 
L 123.475943 191.976759 
L 121.479248 190.742191 
L 119.482554 190.65356 
L 117.48586 190.596264 
L 115.489166 190.809294 
L 113.492472 190.981515 
L 111.495777 191.125593 
L 109.499083 191.219838 
L 107.502389 191.432185 
L 105.505695 191.805545 
L 103.509001 192.107973 
L 101.512306 192.48138 
L 99.515612 192.463497 
L 97.518918 192.423723 
L 95.522224 191.997935 
L 93.525529 191.74117 
L 91.528835 191.419066 
L 89.532141 190.888797 
L 87.535447 190.209737 
L 85.538753 189.399434 
L 83.542058 188.018082 
L 81.545364 186.712364 
L 79.54867 185.43239 
L 77.551976 184.206964 
L 75.555282 183.041823 
L 73.558587 181.916903 
L 71.561893 181.123776 
L 69.565199 181.051972 
" style="fill:none;stroke:#8c564b;stroke-dasharray:2,3.3;stroke-dashoffset:0;stroke-width:2;"/>
   </g>
   <g id="line2d_15">
    <path clip-path="url(#p90baf2cb54)" d="M 267.237926 59.253672 
L 265.241232 62.155275 
L 263.244538 65.855345 
L 261.247843 69.465273 
L 259.251149 72.703543 
L 257.254455 75.759575 
L 255.257761 78.688797 
L 253.261067 81.49302 
L 251.264372 83.920742 
L 249.267678 86.015484 
L 247.270984 88.602929 
L 245.27429 91.12894 
L 243.277596 93.893116 
L 241.280901 97.079308 
L 239.284207 102.089206 
L 237.287513 107.061308 
L 235.290819 111.631073 
L 233.294124 115.833169 
L 231.29743 119.696517 
L 229.300736 123.246828 
L 227.304042 126.509338 
L 225.307348 129.506617 
L 223.310653 132.259924 
L 221.313959 134.788986 
L 219.317265 137.112166 
L 217.320571 139.354482 
L 215.323877 141.40809 
L 213.327182 143.288499 
L 211.330488 145.010594 
L 209.333794 146.737901 
L 207.3371 148.368401 
L 205.340405 149.871726 
L 203.343711 151.257001 
L 201.347017 152.547295 
L 199.350323 153.874444 
L 197.353629 155.411408 
L 195.356934 156.957265 
L 193.36024 158.382474 
L 191.363546 160.428123 
L 189.366852 161.771633 
L 187.370158 163.113982 
L 185.373463 164.152818 
L 183.376769 165.146945 
L 181.380075 166.009481 
L 179.383381 167.025097 
L 177.386686 167.97401 
L 175.389992 168.85291 
L 173.393298 169.666808 
L 171.396604 170.495839 
L 169.39991 171.24849 
L 167.403215 171.917491 
L 165.406521 172.774109 
L 163.409827 173.818539 
L 161.413133 175.065347 
L 159.416439 176.24753 
L 157.419744 177.392192 
L 155.42305 178.453273 
L 153.426356 179.431287 
L 151.429662 180.448379 
L 149.432967 181.515541 
L 147.436273 183.140316 
L 145.439579 184.510363 
L 143.442885 185.334869 
L 141.446191 185.673743 
L 139.449496 186.193316 
L 137.452802 186.661557 
L 135.456108 187.083939 
L 133.459414 187.46516 
L 131.46272 187.855945 
L 129.466025 188.520998 
L 127.469331 189.208151 
L 125.472637 189.854888 
L 123.475943 190.47948 
L 121.479248 191.509385 
L 119.482554 192.499957 
L 117.48586 193.62574 
L 115.489166 195.045071 
L 113.492472 196.286089 
L 111.495777 197.316258 
L 109.499083 198.16408 
L 107.502389 198.83076 
L 105.505695 199.553816 
L 103.509001 200.038856 
L 101.512306 200.510258 
L 99.515612 200.901139 
L 97.518918 201.349717 
L 95.522224 201.622475 
L 93.525529 201.778026 
L 91.528835 201.904084 
L 89.532141 202.008225 
L 87.535447 202.094699 
L 85.538753 202.166504 
L 83.542058 202.150704 
L 81.545364 202.074957 
L 79.54867 201.929877 
L 77.551976 201.828443 
L 75.555282 201.767548 
L 73.558587 201.699265 
L 71.561893 201.656361 
L 69.565199 201.729011 
" style="fill:none;stroke:#e377c2;stroke-dasharray:2,3.3;stroke-dashoffset:0;stroke-width:2;"/>
   </g>
   <g id="line2d_16">
    <path clip-path="url(#p90baf2cb54)" d="M 267.237926 101.903933 
L 265.241232 103.219868 
L 263.244538 104.432034 
L 261.247843 107.826482 
L 259.251149 111.459611 
L 257.254455 114.740123 
L 255.257761 117.699894 
L 253.261067 121.18343 
L 251.264372 124.639562 
L 249.267678 127.766144 
L 247.270984 130.932986 
L 245.27429 134.123236 
L 243.277596 136.789538 
L 241.280901 139.678206 
L 239.284207 142.291388 
L 237.287513 144.554105 
L 235.290819 146.504361 
L 233.294124 148.17763 
L 231.29743 149.60634 
L 229.300736 150.820105 
L 227.304042 151.845756 
L 225.307348 152.707448 
L 223.310653 153.426797 
L 221.313959 154.023042 
L 219.317265 154.513411 
L 217.320571 154.916521 
L 215.323877 155.239356 
L 213.327182 155.501901 
L 211.330488 155.712854 
L 209.333794 155.631218 
L 207.3371 155.76604 
L 205.340405 155.930194 
L 203.343711 156.940496 
L 201.347017 157.725558 
L 199.350323 158.158639 
L 197.353629 158.544046 
L 195.356934 158.887388 
L 193.36024 159.664083 
L 191.363546 160.224543 
L 189.366852 160.718409 
L 187.370158 161.150157 
L 185.373463 161.530577 
L 183.376769 161.862703 
L 181.380075 162.144245 
L 179.383381 162.062479 
L 177.386686 161.945214 
L 175.389992 161.820405 
L 173.393298 161.676622 
L 171.396604 161.575221 
L 169.39991 161.408177 
L 167.403215 161.100766 
L 165.406521 160.958532 
L 163.409827 161.407485 
L 161.413133 162.070422 
L 159.416439 162.590626 
L 157.419744 162.873612 
L 155.42305 163.156273 
L 153.426356 163.51779 
L 151.429662 163.914891 
L 149.432967 164.25238 
L 147.436273 164.825151 
L 145.439579 166.550311 
L 143.442885 168.097038 
L 141.446191 169.176332 
L 139.449496 170.145767 
L 137.452802 171.03666 
L 135.456108 171.862844 
L 133.459414 173.081668 
L 131.46272 174.668103 
L 129.466025 176.265655 
L 127.469331 177.677813 
L 125.472637 178.616325 
L 123.475943 179.976017 
L 121.479248 181.238546 
L 119.482554 182.393142 
L 117.48586 183.612927 
L 115.489166 184.975622 
L 113.492472 186.611089 
L 111.495777 187.839354 
L 109.499083 188.984245 
L 107.502389 189.753964 
L 105.505695 190.61473 
L 103.509001 191.526094 
L 101.512306 192.455591 
L 99.515612 193.41393 
L 97.518918 194.459657 
L 95.522224 196.156726 
L 93.525529 197.843213 
L 91.528835 199.368519 
L 89.532141 201.068523 
L 87.535447 202.712292 
L 85.538753 204.113841 
L 83.542058 205.462257 
L 81.545364 206.51284 
L 79.54867 207.506775 
L 77.551976 208.362029 
L 75.555282 209.123844 
L 73.558587 209.926436 
L 71.561893 210.600791 
L 69.565199 211.150824 
" style="fill:none;stroke:#7f7f7f;stroke-dasharray:2,3.3;stroke-dashoffset:0;stroke-width:2;"/>
   </g>
   <g id="line2d_17">
    <path clip-path="url(#p90baf2cb54)" d="M 267.237926 106.35546 
L 265.241232 109.463935 
L 263.244538 113.351806 
L 261.247843 117.357701 
L 259.251149 120.420858 
L 257.254455 123.016407 
L 255.257761 125.195982 
L 253.261067 127.010495 
L 251.264372 128.631228 
L 249.267678 130.071016 
L 247.270984 130.994542 
L 245.27429 131.484184 
L 243.277596 132.487818 
L 241.280901 133.594871 
L 239.284207 135.816287 
L 237.287513 142.093827 
L 235.290819 147.686816 
L 233.294124 152.916625 
L 231.29743 157.777331 
L 229.300736 162.022069 
L 227.304042 165.700103 
L 225.307348 168.860268 
L 223.310653 171.550665 
L 221.313959 173.818192 
L 219.317265 175.708052 
L 217.320571 177.38416 
L 215.323877 178.900784 
L 213.327182 180.157709 
L 211.330488 181.170012 
L 209.333794 181.970045 
L 207.3371 182.587666 
L 205.340405 183.143675 
L 203.343711 183.7846 
L 201.347017 184.3323 
L 199.350323 184.913018 
L 197.353629 185.693503 
L 195.356934 186.504993 
L 193.36024 187.205187 
L 191.363546 187.807682 
L 189.366852 187.89663 
L 187.370158 187.879695 
L 185.373463 187.805342 
L 183.376769 187.710211 
L 181.380075 187.599059 
L 179.383381 187.474884 
L 177.386686 186.593575 
L 175.389992 185.557972 
L 173.393298 184.646233 
L 171.396604 184.027152 
L 169.39991 183.300914 
L 167.403215 182.52237 
L 165.406521 181.73403 
L 163.409827 181.111889 
L 161.413133 181.811866 
L 159.416439 182.589232 
L 157.419744 183.271531 
L 155.42305 184.002635 
L 153.426356 184.646034 
L 151.429662 184.033066 
L 149.432967 182.99507 
L 147.436273 181.685771 
L 145.439579 180.485805 
L 143.442885 179.620409 
L 141.446191 178.49644 
L 139.449496 177.307066 
L 137.452802 176.040543 
L 135.456108 174.802134 
L 133.459414 173.620675 
L 131.46272 172.39193 
L 129.466025 171.375256 
L 127.469331 170.492442 
L 125.472637 169.53687 
L 123.475943 168.467926 
L 121.479248 167.401927 
L 119.482554 166.485261 
L 117.48586 165.721742 
L 115.489166 165.013034 
L 113.492472 164.325508 
L 111.495777 163.851088 
L 109.499083 163.863607 
L 107.502389 164.220822 
L 105.505695 164.572532 
L 103.509001 164.638848 
L 101.512306 164.504767 
L 99.515612 164.403916 
L 97.518918 163.786917 
L 95.522224 163.077005 
L 93.525529 162.296189 
L 91.528835 161.586968 
L 89.532141 161.244761 
L 87.535447 160.887581 
L 85.538753 160.5317 
L 83.542058 160.190894 
L 81.545364 159.923503 
L 79.54867 159.640388 
L 77.551976 158.99928 
L 75.555282 158.348692 
L 73.558587 157.653272 
L 71.561893 157.001881 
L 69.565199 156.388904 
" style="fill:none;stroke:#bcbd22;stroke-dasharray:2,3.3;stroke-dashoffset:0;stroke-width:2;"/>
   </g>
   <g id="line2d_18">
    <path clip-path="url(#p90baf2cb54)" d="M 267.237926 94.722854 
L 265.241232 96.571821 
L 263.244538 99.084088 
L 261.247843 101.240576 
L 259.251149 103.015164 
L 257.254455 104.457916 
L 255.257761 106.112618 
L 253.261067 107.427391 
L 251.264372 108.446347 
L 249.267678 109.213024 
L 247.270984 109.76613 
L 245.27429 110.13958 
L 243.277596 110.432428 
L 241.280901 110.881232 
L 239.284207 116.100299 
L 237.287513 125.25329 
L 235.290819 133.58452 
L 233.294124 141.126559 
L 231.29743 148.051301 
L 229.300736 154.530391 
L 227.304042 160.355968 
L 225.307348 165.572267 
L 223.310653 170.218631 
L 221.313959 174.036763 
L 219.317265 177.329006 
L 217.320571 180.198445 
L 215.323877 182.683744 
L 213.327182 184.84169 
L 211.330488 186.957412 
L 209.333794 189.053611 
L 207.3371 191.055723 
L 205.340405 192.715085 
L 203.343711 194.095213 
L 201.347017 195.229058 
L 199.350323 196.147271 
L 197.353629 196.947968 
L 195.356934 197.709979 
L 193.36024 198.14335 
L 191.363546 198.461067 
L 189.366852 198.771586 
L 187.370158 199.191507 
L 185.373463 199.499123 
L 183.376769 199.609137 
L 181.380075 199.673876 
L 179.383381 199.658813 
L 177.386686 199.229576 
L 175.389992 198.845559 
L 173.393298 198.588383 
L 171.396604 198.191115 
L 169.39991 197.790424 
L 167.403215 197.425185 
L 165.406521 197.491064 
L 163.409827 197.930277 
L 161.413133 197.951854 
L 159.416439 197.923478 
L 157.419744 197.837884 
L 155.42305 197.691906 
L 153.426356 197.525241 
L 151.429662 197.396064 
L 149.432967 197.525447 
L 147.436273 197.876253 
L 145.439579 198.696384 
L 143.442885 199.150125 
L 141.446191 199.571769 
L 139.449496 199.660928 
L 137.452802 199.485698 
L 135.456108 199.132023 
L 133.459414 198.712527 
L 131.46272 198.232855 
L 129.466025 198.170693 
L 127.469331 198.135612 
L 125.472637 197.906043 
L 123.475943 197.665631 
L 121.479248 197.546319 
L 119.482554 197.565694 
L 117.48586 197.655811 
L 115.489166 197.984441 
L 113.492472 198.283361 
L 111.495777 198.477508 
L 109.499083 198.492401 
L 107.502389 198.446953 
L 105.505695 198.337933 
L 103.509001 198.148059 
L 101.512306 197.957246 
L 99.515612 198.226568 
L 97.518918 198.362918 
L 95.522224 198.466811 
L 93.525529 198.532335 
L 91.528835 198.580639 
L 89.532141 198.63608 
L 87.535447 198.67148 
L 85.538753 198.679197 
L 83.542058 198.745874 
L 81.545364 198.722861 
L 79.54867 198.328313 
L 77.551976 197.826558 
L 75.555282 197.347846 
L 73.558587 197.341314 
L 71.561893 197.378693 
L 69.565199 197.443552 
" style="fill:none;stroke:#17becf;stroke-dasharray:2,3.3;stroke-dashoffset:0;stroke-width:2;"/>
   </g>
   <g id="line2d_19">
    <path clip-path="url(#p90baf2cb54)" d="M 267.237926 83.249696 
L 265.241232 86.46713 
L 263.244538 89.922404 
L 261.247843 93.843205 
L 259.251149 97.423545 
L 257.254455 100.58989 
L 255.257761 103.412839 
L 253.261067 106.067224 
L 251.264372 108.640301 
L 249.267678 110.983314 
L 247.270984 113.147423 
L 245.27429 115.268519 
L 243.277596 117.297539 
L 241.280901 119.880697 
L 239.284207 124.063509 
L 237.287513 129.456104 
L 235.290819 134.823182 
L 233.294124 139.785654 
L 231.29743 144.292015 
L 229.300736 148.361955 
L 227.304042 152.006236 
L 225.307348 155.259213 
L 223.310653 158.100357 
L 221.313959 160.546308 
L 219.317265 162.67269 
L 217.320571 164.557769 
L 215.323877 166.229512 
L 213.327182 167.738503 
L 211.330488 169.11219 
L 209.333794 170.348184 
L 207.3371 171.397334 
L 205.340405 172.338904 
L 203.343711 173.420674 
L 201.347017 174.388651 
L 199.350323 175.255911 
L 197.353629 176.076612 
L 195.356934 176.871501 
L 193.36024 177.627109 
L 191.363546 178.410374 
L 189.366852 178.962084 
L 187.370158 179.478508 
L 185.373463 179.90887 
L 183.376769 180.264094 
L 181.380075 180.547602 
L 179.383381 180.808943 
L 177.386686 180.836074 
L 175.389992 180.806664 
L 173.393298 180.679529 
L 171.396604 180.520825 
L 169.39991 180.332526 
L 167.403215 180.185136 
L 165.406521 180.327901 
L 163.409827 180.661694 
L 161.413133 181.088997 
L 159.416439 181.451199 
L 157.419744 181.743792 
L 155.42305 182.090973 
L 153.426356 182.727467 
L 151.429662 182.53362 
L 149.432967 182.25129 
L 147.436273 181.965774 
L 145.439579 181.443786 
L 143.442885 180.813465 
L 141.446191 180.151545 
L 139.449496 179.186999 
L 137.452802 178.41041 
L 135.456108 177.302192 
L 133.459414 176.263712 
L 131.46272 175.436286 
L 129.466025 174.785671 
L 127.469331 173.747791 
L 125.472637 172.842826 
L 123.475943 171.964854 
L 121.479248 171.596971 
L 119.482554 171.337043 
L 117.48586 171.17732 
L 115.489166 170.969298 
L 113.492472 170.868443 
L 111.495777 171.061245 
L 109.499083 171.340876 
L 107.502389 171.685526 
L 105.505695 171.917867 
L 103.509001 172.03601 
L 101.512306 172.342306 
L 99.515612 172.668775 
L 97.518918 173.024248 
L 95.522224 173.474488 
L 93.525529 173.869379 
L 91.528835 173.979431 
L 89.532141 174.215932 
L 87.535447 174.439898 
L 85.538753 174.593141 
L 83.542058 174.600562 
L 81.545364 174.528116 
L 79.54867 174.232789 
L 77.551976 173.748975 
L 75.555282 173.226114 
L 73.558587 172.806463 
L 71.561893 172.479807 
L 69.565199 172.530786 
" style="fill:none;stroke:#000000;stroke-linecap:square;stroke-width:2.5;"/>
   </g>
   <g id="line2d_20">
    <path clip-path="url(#p90baf2cb54)" d="M 153.426356 224.64 
L 153.426356 7.2 
" style="fill:none;stroke:#000000;stroke-dasharray:9.25,4;stroke-dashoffset:0;stroke-width:2.5;"/>
   </g>
   <g id="patch_3">
    <path d="M 59.681562 224.64 
L 59.681562 7.2 
" style="fill:none;stroke:#000000;stroke-linecap:square;stroke-linejoin:miter;stroke-width:0.8;"/>
   </g>
   <g id="patch_4">
    <path d="M 277.121562 224.64 
L 277.121562 7.2 
" style="fill:none;stroke:#000000;stroke-linecap:square;stroke-linejoin:miter;stroke-width:0.8;"/>
   </g>
   <g id="patch_5">
    <path d="M 59.681562 224.64 
L 277.121562 224.64 
" style="fill:none;stroke:#000000;stroke-linecap:square;stroke-linejoin:miter;stroke-width:0.8;"/>
   </g>
   <g id="patch_6">
    <path d="M 59.681562 7.2 
L 277.121562 7.2 
" style="fill:none;stroke:#000000;stroke-linecap:square;stroke-linejoin:miter;stroke-width:0.8;"/>
   </g>
  </g>
 </g>
 <defs>
  <clipPath id="p90baf2cb54">
   <rect height="217.44" width="217.44" x="59.681562" y="7.2"/>
  </clipPath>
 </defs>
</svg>
