<?xml version="1.0" encoding="utf-8" standalone="no"?>
<!DOCTYPE svg PUBLIC "-//W3C//DTD SVG 1.1//EN"
  "http://www.w3.org/Graphics/SVG/1.1/DTD/svg11.dtd">
<svg height="281.441562pt" version="1.1" viewBox="0 0 288.567926 281.441562" width="288.567926pt" xmlns="http://www.w3.org/2000/svg" xmlns:xlink="http://www.w3.org/1999/xlink">
 <metadata>
  <rdf:RDF xmlns:cc="http://creativecommons.org/ns#" xmlns:dc="http://purl.org/dc/elements/1.1/" xmlns:rdf="http://www.w3.org/1999/02/22-rdf-syntax-ns#">
   <cc:Work>
    <dc:type rdf:resource="http://purl.org/dc/dcmitype/StillImage"/>
    <dc:date>2024-09-24T17:03:02.252924</dc:date>
    <dc:format>image/svg+xml</dc:format>
    <dc:creator>
     <cc:Agent>
      <dc:title>Matplotlib v3.4.3, https://matplotlib.org/</dc:title>
     </cc:Agent>
    </dc:creator>
   </cc:Work>
  </rdf:RDF>
 </metadata>
 <defs>
  <style type="text/css">*{stroke-linecap:butt;stroke-linejoin:round;}</style>
 </defs>
 <g id="figure_1">
  <g id="patch_1">
   <path d="M 0 281.441562 
L 288.567926 281.441562 
L 288.567926 0 
L 0 0 
z
" style="fill:#ffffff;"/>
  </g>
  <g id="axes_1">
   <g id="patch_2">
    <path d="M 59.681562 224.64 
L 277.121562 224.64 
L 277.121562 7.2 
L 59.681562 7.2 
z
" style="fill:#ffffff;"/>
   </g>
   <g id="matplotlib.axis_1">
    <g id="xtick_1">
     <g id="line2d_1">
      <defs>
       <path d="M 0 0 
L 0 3.5 
" id="m7d2b1359b5" style="stroke:#000000;stroke-width:1.5;"/>
      </defs>
      <g>
       <use style="stroke:#000000;stroke-width:1.5;" x="69.565199" xlink:href="#m7d2b1359b5" y="224.64"/>
      </g>
     </g>
     <g id="text_1">
      <!-- $\mathdefault{10^{-3}}$ -->
      <g transform="translate(51.745199 250.2025)scale(0.18 -0.18)">
       <defs>
        <path d="M 2384 0 
L 1822 0 
L 1822 3584 
Q 1619 3391 1289 3197 
Q 959 3003 697 2906 
L 697 3450 
Q 1169 3672 1522 3987 
Q 1875 4303 2022 4600 
L 2384 4600 
L 2384 0 
z
" id="ArialMT-31" transform="scale(0.015625)"/>
        <path d="M 266 2259 
Q 266 3072 433 3567 
Q 600 4063 929 4331 
Q 1259 4600 1759 4600 
Q 2128 4600 2406 4451 
Q 2684 4303 2865 4023 
Q 3047 3744 3150 3342 
Q 3253 2941 3253 2259 
Q 3253 1453 3087 958 
Q 2922 463 2592 192 
Q 2263 -78 1759 -78 
Q 1097 -78 719 397 
Q 266 969 266 2259 
z
M 844 2259 
Q 844 1131 1108 757 
Q 1372 384 1759 384 
Q 2147 384 2411 759 
Q 2675 1134 2675 2259 
Q 2675 3391 2411 3762 
Q 2147 4134 1753 4134 
Q 1366 4134 1134 3806 
Q 844 3388 844 2259 
z
" id="ArialMT-30" transform="scale(0.015625)"/>
        <path d="M 3381 1997 
L 356 1997 
L 356 2522 
L 3381 2522 
L 3381 1997 
z
" id="ArialMT-2212" transform="scale(0.015625)"/>
        <path d="M 269 1209 
L 831 1284 
Q 928 806 1161 595 
Q 1394 384 1728 384 
Q 2125 384 2398 659 
Q 2672 934 2672 1341 
Q 2672 1728 2419 1979 
Q 2166 2231 1775 2231 
Q 1616 2231 1378 2169 
L 1441 2663 
Q 1497 2656 1531 2656 
Q 1891 2656 2178 2843 
Q 2466 3031 2466 3422 
Q 2466 3731 2256 3934 
Q 2047 4138 1716 4138 
Q 1388 4138 1169 3931 
Q 950 3725 888 3313 
L 325 3413 
Q 428 3978 793 4289 
Q 1159 4600 1703 4600 
Q 2078 4600 2393 4439 
Q 2709 4278 2876 4000 
Q 3044 3722 3044 3409 
Q 3044 3113 2884 2869 
Q 2725 2625 2413 2481 
Q 2819 2388 3044 2092 
Q 3269 1797 3269 1353 
Q 3269 753 2831 336 
Q 2394 -81 1725 -81 
Q 1122 -81 723 278 
Q 325 638 269 1209 
z
" id="ArialMT-33" transform="scale(0.015625)"/>
       </defs>
       <use transform="translate(0 0.99375)" xlink:href="#ArialMT-31"/>
       <use transform="translate(55.615234 0.99375)" xlink:href="#ArialMT-30"/>
       <use transform="translate(112.972813 70.6875)scale(0.7)" xlink:href="#ArialMT-2212"/>
       <use transform="translate(153.851719 70.6875)scale(0.7)" xlink:href="#ArialMT-33"/>
      </g>
     </g>
    </g>
    <g id="xtick_2">
     <g id="line2d_2">
      <g>
       <use style="stroke:#000000;stroke-width:1.5;" x="135.456108" xlink:href="#m7d2b1359b5" y="224.64"/>
      </g>
     </g>
     <g id="text_2">
      <!-- $\mathdefault{10^{-2}}$ -->
      <g transform="translate(117.636108 250.2025)scale(0.18 -0.18)">
       <defs>
        <path d="M 3222 541 
L 3222 0 
L 194 0 
Q 188 203 259 391 
Q 375 700 629 1000 
Q 884 1300 1366 1694 
Q 2113 2306 2375 2664 
Q 2638 3022 2638 3341 
Q 2638 3675 2398 3904 
Q 2159 4134 1775 4134 
Q 1369 4134 1125 3890 
Q 881 3647 878 3216 
L 300 3275 
Q 359 3922 746 4261 
Q 1134 4600 1788 4600 
Q 2447 4600 2831 4234 
Q 3216 3869 3216 3328 
Q 3216 3053 3103 2787 
Q 2991 2522 2730 2228 
Q 2469 1934 1863 1422 
Q 1356 997 1212 845 
Q 1069 694 975 541 
L 3222 541 
z
" id="ArialMT-32" transform="scale(0.015625)"/>
       </defs>
       <use transform="translate(0 0.99375)" xlink:href="#ArialMT-31"/>
       <use transform="translate(55.615234 0.99375)" xlink:href="#ArialMT-30"/>
       <use transform="translate(112.972813 70.6875)scale(0.7)" xlink:href="#ArialMT-2212"/>
       <use transform="translate(153.851719 70.6875)scale(0.7)" xlink:href="#ArialMT-32"/>
      </g>
     </g>
    </g>
    <g id="xtick_3">
     <g id="line2d_3">
      <g>
       <use style="stroke:#000000;stroke-width:1.5;" x="201.347017" xlink:href="#m7d2b1359b5" y="224.64"/>
      </g>
     </g>
     <g id="text_3">
      <!-- $\mathdefault{10^{-1}}$ -->
      <g transform="translate(183.527017 250.2025)scale(0.18 -0.18)">
       <use transform="translate(0 0.99375)" xlink:href="#ArialMT-31"/>
       <use transform="translate(55.615234 0.99375)" xlink:href="#ArialMT-30"/>
       <use transform="translate(112.972813 70.6875)scale(0.7)" xlink:href="#ArialMT-2212"/>
       <use transform="translate(153.851719 70.6875)scale(0.7)" xlink:href="#ArialMT-31"/>
      </g>
     </g>
    </g>
    <g id="xtick_4">
     <g id="line2d_4">
      <g>
       <use style="stroke:#000000;stroke-width:1.5;" x="267.237926" xlink:href="#m7d2b1359b5" y="224.64"/>
      </g>
     </g>
     <g id="text_4">
      <!-- $\mathdefault{10^{0}}$ -->
      <g transform="translate(253.107926 250.2025)scale(0.18 -0.18)">
       <use transform="translate(0 0.99375)" xlink:href="#ArialMT-31"/>
       <use transform="translate(55.615234 0.99375)" xlink:href="#ArialMT-30"/>
       <use transform="translate(112.972813 70.6875)scale(0.7)" xlink:href="#ArialMT-30"/>
      </g>
     </g>
    </g>
    <g id="text_5">
     <!-- α -->
     <g transform="translate(163.198438 270.664062)scale(0.18 -0.18)">
      <defs>
       <path d="M 2884 3319 
L 3459 3319 
Q 3241 2631 3056 1659 
Q 3275 453 3459 0 
L 2900 0 
Q 2766 313 2697 606 
Q 2438 -75 1613 -75 
Q 988 -75 606 394 
Q 225 863 225 1666 
Q 225 2491 608 2942 
Q 991 3394 1622 3394 
Q 2013 3394 2259 3236 
Q 2506 3078 2719 2756 
Q 2741 2866 2884 3319 
z
M 1716 2928 
Q 1313 2928 1078 2603 
Q 844 2278 844 1666 
Q 844 1069 1066 728 
Q 1288 388 1684 388 
Q 2072 388 2331 723 
Q 2591 1059 2591 1691 
Q 2591 2303 2348 2615 
Q 2106 2928 1716 2928 
z
" id="ArialMT-3b1" transform="scale(0.015625)"/>
      </defs>
      <use xlink:href="#ArialMT-3b1"/>
     </g>
    </g>
   </g>
   <g id="matplotlib.axis_2">
    <g id="ytick_1">
     <g id="line2d_5">
      <defs>
       <path d="M 0 0 
L -3.5 0 
" id="mf107135bfb" style="stroke:#000000;stroke-width:1.5;"/>
      </defs>
      <g>
       <use style="stroke:#000000;stroke-width:1.5;" x="59.681562" xlink:href="#mf107135bfb" y="183.624238"/>
      </g>
     </g>
     <g id="text_6">
      <!-- 1.0 -->
      <g transform="translate(27.661562 190.066269)scale(0.18 -0.18)">
       <defs>
        <path d="M 581 0 
L 581 641 
L 1222 641 
L 1222 0 
L 581 0 
z
" id="ArialMT-2e" transform="scale(0.015625)"/>
       </defs>
       <use xlink:href="#ArialMT-31"/>
       <use x="55.615234" xlink:href="#ArialMT-2e"/>
       <use x="83.398438" xlink:href="#ArialMT-30"/>
      </g>
     </g>
    </g>
    <g id="ytick_2">
     <g id="line2d_6">
      <g>
       <use style="stroke:#000000;stroke-width:1.5;" x="59.681562" xlink:href="#mf107135bfb" y="131.61835"/>
      </g>
     </g>
     <g id="text_7">
      <!-- 1.5 -->
      <g transform="translate(27.661562 138.060381)scale(0.18 -0.18)">
       <defs>
        <path d="M 266 1200 
L 856 1250 
Q 922 819 1161 601 
Q 1400 384 1738 384 
Q 2144 384 2425 690 
Q 2706 997 2706 1503 
Q 2706 1984 2436 2262 
Q 2166 2541 1728 2541 
Q 1456 2541 1237 2417 
Q 1019 2294 894 2097 
L 366 2166 
L 809 4519 
L 3088 4519 
L 3088 3981 
L 1259 3981 
L 1013 2750 
Q 1425 3038 1878 3038 
Q 2478 3038 2890 2622 
Q 3303 2206 3303 1553 
Q 3303 931 2941 478 
Q 2500 -78 1738 -78 
Q 1113 -78 717 272 
Q 322 622 266 1200 
z
" id="ArialMT-35" transform="scale(0.015625)"/>
       </defs>
       <use xlink:href="#ArialMT-31"/>
       <use x="55.615234" xlink:href="#ArialMT-2e"/>
       <use x="83.398438" xlink:href="#ArialMT-35"/>
      </g>
     </g>
    </g>
    <g id="ytick_3">
     <g id="line2d_7">
      <g>
       <use style="stroke:#000000;stroke-width:1.5;" x="59.681562" xlink:href="#mf107135bfb" y="79.612462"/>
      </g>
     </g>
     <g id="text_8">
      <!-- 2.0 -->
      <g transform="translate(27.661562 86.054494)scale(0.18 -0.18)">
       <use xlink:href="#ArialMT-32"/>
       <use x="55.615234" xlink:href="#ArialMT-2e"/>
       <use x="83.398438" xlink:href="#ArialMT-30"/>
      </g>
     </g>
    </g>
    <g id="ytick_4">
     <g id="line2d_8">
      <g>
       <use style="stroke:#000000;stroke-width:1.5;" x="59.681562" xlink:href="#mf107135bfb" y="27.606575"/>
      </g>
     </g>
     <g id="text_9">
      <!-- 2.5 -->
      <g transform="translate(27.661562 34.048606)scale(0.18 -0.18)">
       <use xlink:href="#ArialMT-32"/>
       <use x="55.615234" xlink:href="#ArialMT-2e"/>
       <use x="83.398438" xlink:href="#ArialMT-35"/>
      </g>
     </g>
    </g>
    <g id="text_10">
     <!-- RMSE -->
     <g transform="translate(20.084062 141.922969)rotate(-90)scale(0.18 -0.18)">
      <defs>
       <path d="M 503 0 
L 503 4581 
L 2534 4581 
Q 3147 4581 3465 4457 
Q 3784 4334 3975 4021 
Q 4166 3709 4166 3331 
Q 4166 2844 3850 2509 
Q 3534 2175 2875 2084 
Q 3116 1969 3241 1856 
Q 3506 1613 3744 1247 
L 4541 0 
L 3778 0 
L 3172 953 
Q 2906 1366 2734 1584 
Q 2563 1803 2427 1890 
Q 2291 1978 2150 2013 
Q 2047 2034 1813 2034 
L 1109 2034 
L 1109 0 
L 503 0 
z
M 1109 2559 
L 2413 2559 
Q 2828 2559 3062 2645 
Q 3297 2731 3419 2920 
Q 3541 3109 3541 3331 
Q 3541 3656 3305 3865 
Q 3069 4075 2559 4075 
L 1109 4075 
L 1109 2559 
z
" id="ArialMT-52" transform="scale(0.015625)"/>
       <path d="M 475 0 
L 475 4581 
L 1388 4581 
L 2472 1338 
Q 2622 884 2691 659 
Q 2769 909 2934 1394 
L 4031 4581 
L 4847 4581 
L 4847 0 
L 4263 0 
L 4263 3834 
L 2931 0 
L 2384 0 
L 1059 3900 
L 1059 0 
L 475 0 
z
" id="ArialMT-4d" transform="scale(0.015625)"/>
       <path d="M 288 1472 
L 859 1522 
Q 900 1178 1048 958 
Q 1197 738 1509 602 
Q 1822 466 2213 466 
Q 2559 466 2825 569 
Q 3091 672 3220 851 
Q 3350 1031 3350 1244 
Q 3350 1459 3225 1620 
Q 3100 1781 2813 1891 
Q 2628 1963 1997 2114 
Q 1366 2266 1113 2400 
Q 784 2572 623 2826 
Q 463 3081 463 3397 
Q 463 3744 659 4045 
Q 856 4347 1234 4503 
Q 1613 4659 2075 4659 
Q 2584 4659 2973 4495 
Q 3363 4331 3572 4012 
Q 3781 3694 3797 3291 
L 3216 3247 
Q 3169 3681 2898 3903 
Q 2628 4125 2100 4125 
Q 1550 4125 1298 3923 
Q 1047 3722 1047 3438 
Q 1047 3191 1225 3031 
Q 1400 2872 2139 2705 
Q 2878 2538 3153 2413 
Q 3553 2228 3743 1945 
Q 3934 1663 3934 1294 
Q 3934 928 3725 604 
Q 3516 281 3123 101 
Q 2731 -78 2241 -78 
Q 1619 -78 1198 103 
Q 778 284 539 648 
Q 300 1013 288 1472 
z
" id="ArialMT-53" transform="scale(0.015625)"/>
       <path d="M 506 0 
L 506 4581 
L 3819 4581 
L 3819 4041 
L 1113 4041 
L 1113 2638 
L 3647 2638 
L 3647 2100 
L 1113 2100 
L 1113 541 
L 3925 541 
L 3925 0 
L 506 0 
z
" id="ArialMT-45" transform="scale(0.015625)"/>
      </defs>
      <use xlink:href="#ArialMT-52"/>
      <use x="72.216797" xlink:href="#ArialMT-4d"/>
      <use x="155.517578" xlink:href="#ArialMT-53"/>
      <use x="222.216797" xlink:href="#ArialMT-45"/>
     </g>
    </g>
   </g>
   <g id="line2d_9">
    <path clip-path="url(#pe1f1643d10)" d="M 267.237926 68.620809 
L 265.241232 73.918046 
L 263.244538 78.480991 
L 261.247843 82.470059 
L 259.251149 85.863419 
L 257.254455 88.729153 
L 255.257761 91.130324 
L 253.261067 93.124803 
L 251.264372 94.765249 
L 249.267678 96.528388 
L 247.270984 98.775177 
L 245.27429 101.572472 
L 243.277596 104.11648 
L 241.280901 106.29929 
L 239.284207 108.16472 
L 237.287513 109.750776 
L 235.290819 111.093637 
L 233.294124 112.102089 
L 231.29743 112.947812 
L 229.300736 113.785963 
L 227.304042 114.417291 
L 225.307348 114.890313 
L 223.310653 115.230455 
L 221.313959 117.130547 
L 219.317265 119.526521 
L 217.320571 121.878439 
L 215.323877 124.067628 
L 213.327182 126.495567 
L 211.330488 129.889532 
L 209.333794 132.898578 
L 207.3371 135.258428 
L 205.340405 137.188312 
L 203.343711 139.544539 
L 201.347017 142.261248 
L 199.350323 144.233392 
L 197.353629 145.167168 
L 195.356934 146.571991 
L 193.36024 148.77869 
L 191.363546 150.647174 
L 189.366852 152.271286 
L 187.370158 153.546313 
L 185.373463 154.535057 
L 183.376769 155.580914 
L 181.380075 156.53888 
L 179.383381 157.391016 
L 177.386686 158.547651 
L 175.389992 160.00887 
L 173.393298 160.275303 
L 171.396604 161.04255 
L 169.39991 162.978728 
L 167.403215 164.709041 
L 165.406521 166.419772 
L 163.409827 167.977983 
L 161.413133 169.320404 
L 159.416439 170.434472 
L 157.419744 171.813065 
L 155.42305 173.422994 
L 153.426356 174.639136 
L 151.429662 175.496357 
L 149.432967 176.209709 
L 147.436273 176.797619 
L 145.439579 177.325017 
L 143.442885 178.040975 
L 141.446191 179.552173 
L 139.449496 181.654193 
L 137.452802 183.548808 
L 135.456108 185.22167 
L 133.459414 186.527992 
L 131.46272 187.928738 
L 129.466025 189.389883 
L 127.469331 191.172591 
L 125.472637 192.655832 
L 123.475943 193.887815 
L 121.479248 194.861978 
L 119.482554 195.801637 
L 117.48586 196.648905 
L 115.489166 197.117388 
L 113.492472 197.293549 
L 111.495777 197.273246 
L 109.499083 197.032353 
L 107.502389 196.720356 
L 105.505695 196.348257 
L 103.509001 195.930713 
L 101.512306 195.543545 
L 99.515612 195.365075 
L 97.518918 195.491399 
L 95.522224 195.677402 
L 93.525529 195.554684 
L 91.528835 194.373183 
L 89.532141 191.728122 
L 87.535447 192.138113 
L 85.538753 192.95983 
L 83.542058 193.71662 
L 81.545364 194.339956 
L 79.54867 194.906392 
L 77.551976 195.689705 
L 75.555282 190.847499 
L 73.558587 179.005248 
L 71.561893 177.93162 
L 69.565199 176.822768 
" style="fill:none;stroke:#1f77b4;stroke-dasharray:2,3.3;stroke-dashoffset:0;stroke-width:2;"/>
   </g>
   <g id="line2d_10">
    <path clip-path="url(#pe1f1643d10)" d="M 267.237926 64.687835 
L 265.241232 70.803992 
L 263.244538 77.914115 
L 261.247843 84.439784 
L 259.251149 90.475285 
L 257.254455 99.753215 
L 255.257761 108.216814 
L 253.261067 116.189633 
L 251.264372 123.807416 
L 249.267678 130.503126 
L 247.270984 136.040782 
L 245.27429 140.99045 
L 243.277596 145.399427 
L 241.280901 149.313894 
L 239.284207 152.777773 
L 237.287513 155.492124 
L 235.290819 157.853991 
L 233.294124 160.210238 
L 231.29743 162.481681 
L 229.300736 165.468481 
L 227.304042 168.251199 
L 225.307348 170.753739 
L 223.310653 172.868882 
L 221.313959 174.452986 
L 219.317265 175.513468 
L 217.320571 176.255259 
L 215.323877 176.739962 
L 213.327182 176.964149 
L 211.330488 176.404124 
L 209.333794 175.727185 
L 207.3371 174.963857 
L 205.340405 174.13946 
L 203.343711 173.27486 
L 201.347017 172.386717 
L 199.350323 171.21459 
L 197.353629 170.381608 
L 195.356934 170.349822 
L 193.36024 170.149012 
L 191.363546 169.952631 
L 189.366852 169.616315 
L 187.370158 169.556976 
L 185.373463 170.516299 
L 183.376769 171.397203 
L 181.380075 172.356635 
L 179.383381 173.158836 
L 177.386686 173.704782 
L 175.389992 176.171077 
L 173.393298 177.174479 
L 171.396604 177.410996 
L 169.39991 177.819281 
L 167.403215 178.203026 
L 165.406521 178.578023 
L 163.409827 180.602253 
L 161.413133 182.222321 
L 159.416439 183.629778 
L 157.419744 185.061342 
L 155.42305 186.357071 
L 153.426356 187.283725 
L 151.429662 188.091197 
L 149.432967 188.614607 
L 147.436273 188.801871 
L 145.439579 189.895201 
L 143.442885 190.657849 
L 141.446191 191.169223 
L 139.449496 191.895548 
L 137.452802 192.736762 
L 135.456108 193.131416 
L 133.459414 192.883131 
L 131.46272 192.597736 
L 129.466025 192.895399 
L 127.469331 193.477337 
L 125.472637 193.961044 
L 123.475943 194.444081 
L 121.479248 194.835268 
L 119.482554 195.151739 
L 117.48586 195.35608 
L 115.489166 195.333033 
L 113.492472 195.39473 
L 111.495777 195.317943 
L 109.499083 195.148569 
L 107.502389 194.801975 
L 105.505695 194.076197 
L 103.509001 193.382758 
L 101.512306 192.751494 
L 99.515612 192.359641 
L 97.518918 192.051049 
L 95.522224 191.627813 
L 93.525529 191.211919 
L 91.528835 190.726682 
L 89.532141 190.51756 
L 87.535447 190.662121 
L 85.538753 190.976656 
L 83.542058 190.677474 
L 81.545364 189.752548 
L 79.54867 188.960537 
L 77.551976 188.252878 
L 75.555282 187.528496 
L 73.558587 186.522113 
L 71.561893 185.567837 
L 69.565199 185.045341 
" style="fill:none;stroke:#ff7f0e;stroke-dasharray:2,3.3;stroke-dashoffset:0;stroke-width:2;"/>
   </g>
   <g id="line2d_11">
    <path clip-path="url(#pe1f1643d10)" d="M 267.237926 59.676685 
L 265.241232 64.524563 
L 263.244538 69.678502 
L 261.247843 74.313573 
L 259.251149 78.477166 
L 257.254455 85.336957 
L 255.257761 91.941325 
L 253.261067 97.800703 
L 251.264372 103.035167 
L 249.267678 107.40271 
L 247.270984 111.556162 
L 245.27429 115.054475 
L 243.277596 118.508778 
L 241.280901 122.176369 
L 239.284207 125.234891 
L 237.287513 127.658434 
L 235.290819 129.526392 
L 233.294124 130.775986 
L 231.29743 133.753742 
L 229.300736 136.383195 
L 227.304042 138.763354 
L 225.307348 140.719171 
L 223.310653 142.329751 
L 221.313959 143.675135 
L 219.317265 144.751971 
L 217.320571 145.598004 
L 215.323877 147.156892 
L 213.327182 149.184674 
L 211.330488 151.426418 
L 209.333794 153.344294 
L 207.3371 155.060069 
L 205.340405 156.605867 
L 203.343711 157.987704 
L 201.347017 159.228153 
L 199.350323 160.342713 
L 197.353629 161.428755 
L 195.356934 162.757503 
L 193.36024 163.931564 
L 191.363546 165.513946 
L 189.366852 166.984465 
L 187.370158 166.514332 
L 185.373463 168.465247 
L 183.376769 168.954534 
L 181.380075 169.329397 
L 179.383381 169.044552 
L 177.386686 168.391625 
L 175.389992 167.558246 
L 173.393298 154.728217 
L 171.396604 153.127332 
L 169.39991 151.359817 
L 167.403215 150.464089 
L 165.406521 151.480351 
L 163.409827 152.010025 
L 161.413133 152.111896 
L 159.416439 152.074192 
L 157.419744 151.991946 
L 155.42305 152.050029 
L 153.426356 152.140538 
L 151.429662 152.154232 
L 149.432967 150.17598 
L 147.436273 147.314983 
L 145.439579 144.499334 
L 143.442885 142.184017 
L 141.446191 145.151221 
L 139.449496 144.383295 
L 137.452802 145.009561 
L 135.456108 146.143848 
L 133.459414 146.906822 
L 131.46272 146.448066 
L 129.466025 143.014173 
L 127.469331 139.997641 
L 125.472637 138.740274 
L 123.475943 138.543226 
L 121.479248 137.878721 
L 119.482554 137.10594 
L 117.48586 136.266439 
L 115.489166 134.680761 
L 113.492472 134.436844 
L 111.495777 135.493468 
L 109.499083 135.664396 
L 107.502389 135.01053 
L 105.505695 133.705944 
L 103.509001 131.900467 
L 101.512306 129.280193 
L 99.515612 124.799324 
L 97.518918 119.864422 
L 95.522224 114.833853 
L 93.525529 109.824867 
L 91.528835 105.188069 
L 89.532141 101.392061 
L 87.535447 105.838125 
L 85.538753 109.727555 
L 83.542058 109.903411 
L 81.545364 110.174254 
L 79.54867 110.160152 
L 77.551976 109.885667 
L 75.555282 109.355261 
L 73.558587 108.763661 
L 71.561893 108.128512 
L 69.565199 107.007524 
" style="fill:none;stroke:#2ca02c;stroke-dasharray:2,3.3;stroke-dashoffset:0;stroke-width:2;"/>
   </g>
   <g id="line2d_12">
    <path clip-path="url(#pe1f1643d10)" d="M 267.237926 62.199656 
L 265.241232 68.620727 
L 263.244538 75.862611 
L 261.247843 82.270646 
L 259.251149 87.917737 
L 257.254455 93.293266 
L 255.257761 102.660345 
L 253.261067 111.164403 
L 251.264372 118.836454 
L 249.267678 125.719022 
L 247.270984 132.442705 
L 245.27429 138.94726 
L 243.277596 145.769688 
L 241.280901 152.947704 
L 239.284207 159.302679 
L 237.287513 164.535753 
L 235.290819 169.548294 
L 233.294124 173.921535 
L 231.29743 177.941178 
L 229.300736 182.136257 
L 227.304042 185.627806 
L 225.307348 188.479185 
L 223.310653 190.755528 
L 221.313959 193.182402 
L 219.317265 195.178822 
L 217.320571 196.956243 
L 215.323877 198.464152 
L 213.327182 199.546057 
L 211.330488 200.035767 
L 209.333794 200.245787 
L 207.3371 199.92393 
L 205.340405 199.056116 
L 203.343711 198.226607 
L 201.347017 197.405561 
L 199.350323 196.862532 
L 197.353629 196.884145 
L 195.356934 196.830653 
L 193.36024 197.028585 
L 191.363546 197.272532 
L 189.366852 197.170985 
L 187.370158 197.001146 
L 185.373463 196.793556 
L 183.376769 196.656955 
L 181.380075 196.796352 
L 179.383381 197.163646 
L 177.386686 197.670246 
L 175.389992 198.188689 
L 173.393298 198.667117 
L 171.396604 199.265292 
L 169.39991 199.701257 
L 167.403215 199.802806 
L 165.406521 199.459551 
L 163.409827 199.18889 
L 161.413133 199.171772 
L 159.416439 199.397484 
L 157.419744 199.667885 
L 155.42305 199.905683 
L 153.426356 200.115084 
L 151.429662 200.12626 
L 149.432967 199.948787 
L 147.436273 199.59173 
L 145.439579 199.225659 
L 143.442885 199.343987 
L 141.446191 199.402654 
L 139.449496 199.328847 
L 137.452802 199.163252 
L 135.456108 199.157539 
L 133.459414 199.038013 
L 131.46272 198.877254 
L 129.466025 198.783158 
L 127.469331 198.679079 
L 125.472637 198.939409 
L 123.475943 199.225062 
L 121.479248 199.458893 
L 119.482554 199.648183 
L 117.48586 199.799707 
L 115.489166 199.778397 
L 113.492472 199.990078 
L 111.495777 200.043141 
L 109.499083 199.855535 
L 107.502389 199.623993 
L 105.505695 199.374213 
L 103.509001 199.120094 
L 101.512306 198.657064 
L 99.515612 198.070375 
L 97.518918 197.506424 
L 95.522224 197.282011 
L 93.525529 196.968174 
L 91.528835 196.669638 
L 89.532141 196.570035 
L 87.535447 196.39053 
L 85.538753 196.160437 
L 83.542058 195.933701 
L 81.545364 195.786249 
L 79.54867 195.380222 
L 77.551976 194.938424 
L 75.555282 194.671413 
L 73.558587 194.067914 
L 71.561893 193.516706 
L 69.565199 193.223216 
" style="fill:none;stroke:#d62728;stroke-dasharray:2,3.3;stroke-dashoffset:0;stroke-width:2;"/>
   </g>
   <g id="line2d_13">
    <path clip-path="url(#pe1f1643d10)" d="M 267.237926 36.41656 
L 265.241232 39.368349 
L 263.244538 41.978211 
L 261.247843 46.430966 
L 259.251149 52.439903 
L 257.254455 57.898533 
L 255.257761 62.852575 
L 253.261067 67.345797 
L 251.264372 71.898203 
L 249.267678 76.225887 
L 247.270984 80.133255 
L 245.27429 83.662349 
L 243.277596 86.891333 
L 241.280901 91.037608 
L 239.284207 95.016499 
L 237.287513 98.566752 
L 235.290819 101.729447 
L 233.294124 104.358686 
L 231.29743 106.568384 
L 229.300736 108.373597 
L 227.304042 109.80314 
L 225.307348 111.929695 
L 223.310653 114.343283 
L 221.313959 116.438927 
L 219.317265 118.266998 
L 217.320571 120.345589 
L 215.323877 122.096511 
L 213.327182 123.574079 
L 211.330488 124.762408 
L 209.333794 125.650688 
L 207.3371 126.668812 
L 205.340405 127.823584 
L 203.343711 129.071027 
L 201.347017 130.168596 
L 199.350323 130.794052 
L 197.353629 131.061653 
L 195.356934 131.247618 
L 193.36024 131.73296 
L 191.363546 132.573027 
L 189.366852 133.558597 
L 187.370158 134.45328 
L 185.373463 135.265194 
L 183.376769 135.992684 
L 181.380075 137.295248 
L 179.383381 138.702965 
L 177.386686 139.987634 
L 175.389992 141.302224 
L 173.393298 143.010074 
L 171.396604 144.925598 
L 169.39991 146.3797 
L 167.403215 147.534204 
L 165.406521 148.41104 
L 163.409827 149.220717 
L 161.413133 149.570645 
L 159.416439 149.743469 
L 157.419744 149.805253 
L 155.42305 149.849646 
L 153.426356 149.883612 
L 151.429662 150.367909 
L 149.432967 150.998042 
L 147.436273 151.315795 
L 145.439579 151.694764 
L 143.442885 151.87433 
L 141.446191 151.405008 
L 139.449496 150.867421 
L 137.452802 150.328091 
L 135.456108 150.799462 
L 133.459414 151.580725 
L 131.46272 152.297631 
L 129.466025 152.949768 
L 127.469331 153.968156 
L 125.472637 155.163062 
L 123.475943 157.332148 
L 121.479248 158.62007 
L 119.482554 159.173321 
L 117.48586 159.813164 
L 115.489166 160.414691 
L 113.492472 160.965985 
L 111.495777 161.468386 
L 109.499083 161.935972 
L 107.502389 162.395079 
L 105.505695 162.792653 
L 103.509001 163.153162 
L 101.512306 163.474312 
L 99.515612 163.652638 
L 97.518918 163.999616 
L 95.522224 164.22985 
L 93.525529 164.999933 
L 91.528835 165.614429 
L 89.532141 166.121048 
L 87.535447 166.675498 
L 85.538753 167.301563 
L 83.542058 167.862249 
L 81.545364 168.313965 
L 79.54867 168.678699 
L 77.551976 169.001712 
L 75.555282 169.435412 
L 73.558587 170.007556 
L 71.561893 170.372539 
L 69.565199 170.696115 
" style="fill:none;stroke:#9467bd;stroke-dasharray:2,3.3;stroke-dashoffset:0;stroke-width:2;"/>
   </g>
   <g id="line2d_14">
    <path clip-path="url(#pe1f1643d10)" d="M 267.237926 43.787596 
L 265.241232 47.986091 
L 263.244538 51.637562 
L 261.247843 55.283677 
L 259.251149 59.086059 
L 257.254455 61.754595 
L 255.257761 63.927882 
L 253.261067 65.829127 
L 251.264372 67.490215 
L 249.267678 68.939692 
L 247.270984 70.202511 
L 245.27429 71.302513 
L 243.277596 72.749526 
L 241.280901 75.881534 
L 239.284207 79.67839 
L 237.287513 83.088086 
L 235.290819 85.941754 
L 233.294124 88.625993 
L 231.29743 91.57555 
L 229.300736 94.156038 
L 227.304042 96.476605 
L 225.307348 99.513192 
L 223.310653 103.425762 
L 221.313959 106.954353 
L 219.317265 110.103829 
L 217.320571 112.960805 
L 215.323877 115.455364 
L 213.327182 117.166206 
L 211.330488 118.668176 
L 209.333794 120.010571 
L 207.3371 121.211105 
L 205.340405 122.283805 
L 203.343711 123.188123 
L 201.347017 123.236615 
L 199.350323 123.249449 
L 197.353629 123.270124 
L 195.356934 123.124411 
L 193.36024 122.881566 
L 191.363546 122.877167 
L 189.366852 122.897522 
L 187.370158 122.891429 
L 185.373463 123.649504 
L 183.376769 123.789218 
L 181.380075 124.197805 
L 179.383381 125.338315 
L 177.386686 126.496045 
L 175.389992 127.548247 
L 173.393298 128.554175 
L 171.396604 129.418192 
L 169.39991 130.216862 
L 167.403215 131.090588 
L 165.406521 131.8613 
L 163.409827 132.576958 
L 161.413133 133.229607 
L 159.416439 132.965979 
L 157.419744 132.119377 
L 155.42305 131.197349 
L 153.426356 130.622934 
L 151.429662 131.753401 
L 149.432967 132.836208 
L 147.436273 133.07869 
L 145.439579 133.112981 
L 143.442885 133.386523 
L 141.446191 133.228694 
L 139.449496 132.753204 
L 137.452802 132.382461 
L 135.456108 131.996257 
L 133.459414 131.58211 
L 131.46272 131.221408 
L 129.466025 131.097851 
L 127.469331 131.035068 
L 125.472637 130.987766 
L 123.475943 134.657457 
L 121.479248 153.371453 
L 119.482554 158.464368 
L 117.48586 158.693895 
L 115.489166 158.610348 
L 113.492472 158.590398 
L 111.495777 158.543884 
L 109.499083 159.431323 
L 107.502389 160.643473 
L 105.505695 162.131079 
L 103.509001 163.69718 
L 101.512306 164.092958 
L 99.515612 163.906313 
L 97.518918 163.655209 
L 95.522224 162.96497 
L 93.525529 160.928025 
L 91.528835 146.231788 
L 89.532141 129.310117 
L 87.535447 111.511652 
L 85.538753 95.486009 
L 83.542058 83.342285 
L 81.545364 70.793942 
L 79.54867 57.882525 
L 77.551976 46.055961 
L 75.555282 34.831238 
L 73.558587 23.069544 
L 71.561893 17.083636 
L 69.565199 18.331622 
" style="fill:none;stroke:#8c564b;stroke-dasharray:2,3.3;stroke-dashoffset:0;stroke-width:2;"/>
   </g>
   <g id="line2d_15">
    <path clip-path="url(#pe1f1643d10)" d="M 267.237926 38.846689 
L 265.241232 39.075124 
L 263.244538 39.142037 
L 261.247843 39.077229 
L 259.251149 42.221125 
L 257.254455 47.390296 
L 255.257761 52.011071 
L 253.261067 56.135693 
L 251.264372 60.356334 
L 249.267678 64.202164 
L 247.270984 67.676819 
L 245.27429 70.815218 
L 243.277596 73.649299 
L 241.280901 77.622193 
L 239.284207 83.095518 
L 237.287513 88.874205 
L 235.290819 94.185722 
L 233.294124 99.19902 
L 231.29743 104.454571 
L 229.300736 109.876007 
L 227.304042 115.481279 
L 225.307348 120.437612 
L 223.310653 124.968483 
L 221.313959 129.447257 
L 219.317265 133.77164 
L 217.320571 137.718869 
L 215.323877 141.216409 
L 213.327182 144.538773 
L 211.330488 147.673949 
L 209.333794 150.552683 
L 207.3371 153.180927 
L 205.340405 155.547237 
L 203.343711 157.719812 
L 201.347017 160.3063 
L 199.350323 163.006771 
L 197.353629 165.495229 
L 195.356934 168.196766 
L 193.36024 171.547039 
L 191.363546 174.826584 
L 189.366852 177.539494 
L 187.370158 180.06377 
L 185.373463 182.471943 
L 183.376769 184.757556 
L 181.380075 186.523751 
L 179.383381 188.456033 
L 177.386686 190.699491 
L 175.389992 192.845978 
L 173.393298 195.112204 
L 171.396604 197.040298 
L 169.39991 198.677627 
L 167.403215 200.165398 
L 165.406521 201.452096 
L 163.409827 202.497513 
L 161.413133 203.418208 
L 159.416439 204.351724 
L 157.419744 205.373605 
L 155.42305 206.159837 
L 153.426356 206.877775 
L 151.429662 207.534398 
L 149.432967 208.123477 
L 147.436273 208.572636 
L 145.439579 209.254986 
L 143.442885 210.516016 
L 141.446191 211.569188 
L 139.449496 212.476231 
L 137.452802 213.284562 
L 135.456108 213.970682 
L 133.459414 214.45356 
L 131.46272 214.56237 
L 129.466025 214.592304 
L 127.469331 214.618118 
L 125.472637 214.541655 
L 123.475943 214.458057 
L 121.479248 214.434494 
L 119.482554 214.532226 
L 117.48586 214.619534 
L 115.489166 214.673574 
L 113.492472 214.744322 
L 111.495777 214.756364 
L 109.499083 214.744553 
L 107.502389 214.721898 
L 105.505695 214.690205 
L 103.509001 214.509902 
L 101.512306 214.139545 
L 99.515612 213.790019 
L 97.518918 213.442285 
L 95.522224 213.114493 
L 93.525529 212.824237 
L 91.528835 212.616521 
L 89.532141 212.317591 
L 87.535447 212.163509 
L 85.538753 212.078934 
L 83.542058 212.167861 
L 81.545364 212.264159 
L 79.54867 212.184611 
L 77.551976 211.936274 
L 75.555282 211.811334 
L 73.558587 211.7456 
L 71.561893 211.575784 
L 69.565199 211.330671 
" style="fill:none;stroke:#e377c2;stroke-dasharray:2,3.3;stroke-dashoffset:0;stroke-width:2;"/>
   </g>
   <g id="line2d_16">
    <path clip-path="url(#pe1f1643d10)" d="M 267.237926 55.734915 
L 265.241232 57.358352 
L 263.244538 58.675159 
L 261.247843 62.066407 
L 259.251149 66.933874 
L 257.254455 72.252401 
L 255.257761 76.981605 
L 253.261067 81.17645 
L 251.264372 84.891346 
L 249.267678 88.173753 
L 247.270984 91.068283 
L 245.27429 96.306423 
L 243.277596 101.745249 
L 241.280901 106.379665 
L 239.284207 110.930473 
L 237.287513 115.302205 
L 235.290819 119.408486 
L 233.294124 123.255521 
L 231.29743 126.701482 
L 229.300736 129.736093 
L 227.304042 133.103031 
L 225.307348 136.899404 
L 223.310653 140.318258 
L 221.313959 143.3806 
L 219.317265 146.163103 
L 217.320571 148.601689 
L 215.323877 149.613333 
L 213.327182 149.677764 
L 211.330488 149.516653 
L 209.333794 149.203015 
L 207.3371 148.795537 
L 205.340405 148.263449 
L 203.343711 147.644287 
L 201.347017 147.090956 
L 199.350323 146.71981 
L 197.353629 146.236609 
L 195.356934 145.491268 
L 193.36024 145.29989 
L 191.363546 145.125799 
L 189.366852 144.979952 
L 187.370158 144.987689 
L 185.373463 145.020995 
L 183.376769 144.992506 
L 181.380075 145.17745 
L 179.383381 145.622739 
L 177.386686 146.005838 
L 175.389992 146.486121 
L 173.393298 146.975715 
L 171.396604 147.554893 
L 169.39991 148.064199 
L 167.403215 148.886143 
L 165.406521 150.19201 
L 163.409827 151.102201 
L 161.413133 151.754104 
L 159.416439 152.483737 
L 157.419744 153.509128 
L 155.42305 155.00755 
L 153.426356 156.10729 
L 151.429662 156.946495 
L 149.432967 157.710696 
L 147.436273 158.503089 
L 145.439579 159.266967 
L 143.442885 159.919648 
L 141.446191 160.67221 
L 139.449496 161.326019 
L 137.452802 163.138078 
L 135.456108 164.977866 
L 133.459414 166.586709 
L 131.46272 167.99024 
L 129.466025 168.616617 
L 127.469331 169.297326 
L 125.472637 169.67717 
L 123.475943 170.199393 
L 121.479248 170.931051 
L 119.482554 171.545296 
L 117.48586 172.064555 
L 115.489166 172.350938 
L 113.492472 172.396828 
L 111.495777 172.347661 
L 109.499083 172.321952 
L 107.502389 172.254024 
L 105.505695 171.697442 
L 103.509001 171.304544 
L 101.512306 170.860046 
L 99.515612 170.474325 
L 97.518918 170.042174 
L 95.522224 169.617035 
L 93.525529 169.049859 
L 91.528835 167.012067 
L 89.532141 163.753656 
L 87.535447 161.515856 
L 85.538753 159.161929 
L 83.542058 156.87206 
L 81.545364 154.816514 
L 79.54867 153.825228 
L 77.551976 152.865949 
L 75.555282 151.997232 
L 73.558587 151.480861 
L 71.561893 150.531745 
L 69.565199 149.309467 
" style="fill:none;stroke:#7f7f7f;stroke-dasharray:2,3.3;stroke-dashoffset:0;stroke-width:2;"/>
   </g>
   <g id="line2d_17">
    <path clip-path="url(#pe1f1643d10)" d="M 267.237926 59.175887 
L 265.241232 61.896094 
L 263.244538 65.562836 
L 261.247843 69.393781 
L 259.251149 72.948537 
L 257.254455 76.000761 
L 255.257761 78.607778 
L 253.261067 80.822873 
L 251.264372 82.694493 
L 249.267678 84.266395 
L 247.270984 85.56795 
L 245.27429 88.075523 
L 243.277596 92.418564 
L 241.280901 97.254354 
L 239.284207 101.566182 
L 237.287513 105.425036 
L 235.290819 108.712865 
L 233.294124 111.454111 
L 231.29743 113.891559 
L 229.300736 116.398084 
L 227.304042 120.662598 
L 225.307348 124.696136 
L 223.310653 128.54968 
L 221.313959 132.08922 
L 219.317265 135.340605 
L 217.320571 138.326506 
L 215.323877 142.263046 
L 213.327182 146.551994 
L 211.330488 150.447979 
L 209.333794 153.976323 
L 207.3371 156.763702 
L 205.340405 159.062315 
L 203.343711 161.082834 
L 201.347017 162.915719 
L 199.350323 165.492818 
L 197.353629 167.763464 
L 195.356934 169.721339 
L 193.36024 171.35028 
L 191.363546 172.649395 
L 189.366852 173.804516 
L 187.370158 174.822125 
L 185.373463 175.827995 
L 183.376769 177.276118 
L 181.380075 178.962823 
L 179.383381 180.992208 
L 177.386686 182.451229 
L 175.389992 183.37467 
L 173.393298 184.167294 
L 171.396604 184.85777 
L 169.39991 186.181657 
L 167.403215 187.349175 
L 165.406521 188.3547 
L 163.409827 188.474767 
L 161.413133 188.341547 
L 159.416439 188.492625 
L 157.419744 188.801266 
L 155.42305 188.919913 
L 153.426356 188.95076 
L 151.429662 188.978128 
L 149.432967 188.954103 
L 147.436273 189.039435 
L 145.439579 189.555477 
L 143.442885 189.999922 
L 141.446191 190.99938 
L 139.449496 191.656496 
L 137.452802 192.03067 
L 135.456108 192.312228 
L 133.459414 192.60885 
L 131.46272 192.804011 
L 129.466025 192.472658 
L 127.469331 192.335965 
L 125.472637 192.354263 
L 123.475943 192.407212 
L 121.479248 192.649318 
L 119.482554 193.092558 
L 117.48586 193.308263 
L 115.489166 193.476177 
L 113.492472 193.608781 
L 111.495777 193.714752 
L 109.499083 193.798905 
L 107.502389 193.978357 
L 105.505695 194.250427 
L 103.509001 194.486605 
L 101.512306 194.688908 
L 99.515612 194.844048 
L 97.518918 195.003445 
L 95.522224 195.247064 
L 93.525529 195.454909 
L 91.528835 195.623147 
L 89.532141 195.844359 
L 87.535447 196.095992 
L 85.538753 196.311919 
L 83.542058 196.513778 
L 81.545364 196.667724 
L 79.54867 196.755311 
L 77.551976 196.763643 
L 75.555282 196.600935 
L 73.558587 196.416698 
L 71.561893 196.19368 
L 69.565199 195.997306 
" style="fill:none;stroke:#bcbd22;stroke-dasharray:2,3.3;stroke-dashoffset:0;stroke-width:2;"/>
   </g>
   <g id="line2d_18">
    <path clip-path="url(#pe1f1643d10)" d="M 267.237926 95.736704 
L 265.241232 101.922785 
L 263.244538 107.495578 
L 261.247843 112.520766 
L 259.251149 119.350323 
L 257.254455 125.5785 
L 255.257761 131.24967 
L 253.261067 136.692416 
L 251.264372 141.945368 
L 249.267678 146.576549 
L 247.270984 150.764092 
L 245.27429 155.256883 
L 243.277596 159.327549 
L 241.280901 162.954897 
L 239.284207 166.177057 
L 237.287513 168.740863 
L 235.290819 170.700285 
L 233.294124 172.83866 
L 231.29743 174.583735 
L 229.300736 175.577916 
L 227.304042 175.736382 
L 225.307348 175.602147 
L 223.310653 175.231339 
L 221.313959 174.674203 
L 219.317265 173.974096 
L 217.320571 173.556787 
L 215.323877 173.071856 
L 213.327182 172.197461 
L 211.330488 171.269222 
L 209.333794 170.298971 
L 207.3371 169.305748 
L 205.340405 168.306541 
L 203.343711 167.456644 
L 201.347017 166.81398 
L 199.350323 166.184293 
L 197.353629 165.596673 
L 195.356934 166.129981 
L 193.36024 167.783564 
L 191.363546 169.307066 
L 189.366852 171.791543 
L 187.370158 172.54129 
L 185.373463 172.553542 
L 183.376769 172.469008 
L 181.380075 172.670147 
L 179.383381 173.263833 
L 177.386686 173.889209 
L 175.389992 175.169475 
L 173.393298 176.22473 
L 171.396604 176.979095 
L 169.39991 177.667272 
L 167.403215 178.294729 
L 165.406521 178.97385 
L 163.409827 179.628503 
L 161.413133 179.678958 
L 159.416439 179.73154 
L 157.419744 179.588201 
L 155.42305 178.364413 
L 153.426356 176.227985 
L 151.429662 174.184329 
L 149.432967 172.278183 
L 147.436273 170.670159 
L 145.439579 169.173339 
L 143.442885 167.753897 
L 141.446191 166.614753 
L 139.449496 165.565078 
L 137.452802 164.309436 
L 135.456108 163.627062 
L 133.459414 163.826663 
L 131.46272 164.109543 
L 129.466025 164.167389 
L 127.469331 164.205235 
L 125.472637 164.220884 
L 123.475943 164.219442 
L 121.479248 164.203549 
L 119.482554 164.176337 
L 117.48586 163.930313 
L 115.489166 163.744091 
L 113.492472 163.555858 
L 111.495777 163.36887 
L 109.499083 163.216692 
L 107.502389 163.569454 
L 105.505695 164.131489 
L 103.509001 164.167135 
L 101.512306 164.180447 
L 99.515612 164.218272 
L 97.518918 164.302117 
L 95.522224 164.555794 
L 93.525529 164.751361 
L 91.528835 165.039911 
L 89.532141 165.48194 
L 87.535447 165.623789 
L 85.538753 165.66703 
L 83.542058 166.023058 
L 81.545364 166.401189 
L 79.54867 166.740491 
L 77.551976 166.97585 
L 75.555282 167.105113 
L 73.558587 167.050433 
L 71.561893 167.022584 
L 69.565199 166.985159 
" style="fill:none;stroke:#17becf;stroke-dasharray:2,3.3;stroke-dashoffset:0;stroke-width:2;"/>
   </g>
   <g id="line2d_19">
    <path clip-path="url(#pe1f1643d10)" d="M 267.237926 58.488334 
L 265.241232 62.547412 
L 263.244538 66.64276 
L 261.247843 70.826689 
L 259.251149 75.571343 
L 257.254455 80.798768 
L 255.257761 85.957939 
L 253.261067 90.62819 
L 251.264372 94.972025 
L 249.267678 98.853769 
L 247.270984 102.422774 
L 245.27429 106.198357 
L 243.277596 110.057589 
L 241.280901 114.186751 
L 239.284207 118.194418 
L 237.287513 121.743423 
L 235.290819 124.870087 
L 233.294124 127.674184 
L 231.29743 130.489969 
L 229.300736 133.189163 
L 227.304042 135.832269 
L 225.307348 138.392059 
L 223.310653 140.802142 
L 221.313959 143.142563 
L 219.317265 145.259105 
L 217.320571 147.219819 
L 215.323877 149.014515 
L 213.327182 150.589672 
L 211.330488 152.009423 
L 209.333794 153.190809 
L 207.3371 154.113212 
L 205.340405 154.827669 
L 203.343711 155.519644 
L 201.347017 156.181384 
L 199.350323 156.810042 
L 197.353629 157.328543 
L 195.356934 158.042135 
L 193.36024 159.048315 
L 191.363546 160.074532 
L 189.366852 161.061467 
L 187.370158 161.637835 
L 185.373463 162.509933 
L 183.376769 163.186669 
L 181.380075 163.984849 
L 179.383381 164.913414 
L 177.386686 165.784375 
L 175.389992 166.86536 
L 173.393298 166.488931 
L 171.396604 167.162201 
L 169.39991 167.90464 
L 167.403215 168.64992 
L 165.406521 169.518269 
L 163.409827 170.327981 
L 161.413133 170.881946 
L 159.416439 171.3305 
L 157.419744 171.773107 
L 155.42305 172.123448 
L 153.426356 172.284884 
L 151.429662 172.563271 
L 149.432967 172.584979 
L 147.436273 172.368601 
L 145.439579 172.300372 
L 143.442885 172.367716 
L 141.446191 172.97645 
L 139.449496 173.190633 
L 137.452802 173.593168 
L 135.456108 174.133803 
L 133.459414 174.599457 
L 131.46272 174.8837 
L 129.466025 174.79792 
L 127.469331 174.878652 
L 125.472637 175.124136 
L 123.475943 175.937389 
L 121.479248 178.12448 
L 119.482554 178.869161 
L 117.48586 179.050085 
L 115.489166 179.01794 
L 113.492472 179.097737 
L 111.495777 179.232771 
L 109.499083 179.315025 
L 107.502389 179.371914 
L 105.505695 179.319791 
L 103.509001 179.165256 
L 101.512306 178.766851 
L 99.515612 178.148003 
L 97.518918 177.535814 
L 95.522224 176.915029 
L 93.525529 176.156797 
L 91.528835 173.909543 
L 89.532141 171.303649 
L 87.535447 169.861519 
L 85.538753 168.583186 
L 83.542058 167.30125 
L 81.545364 165.93105 
L 79.54867 164.547417 
L 77.551976 163.236606 
L 75.555282 161.418393 
L 73.558587 158.812963 
L 71.561893 157.792464 
L 69.565199 157.474919 
" style="fill:none;stroke:#000000;stroke-linecap:square;stroke-width:2.5;"/>
   </g>
   <g id="line2d_20">
    <path clip-path="url(#pe1f1643d10)" d="M 107.502389 224.64 
L 107.502389 7.2 
" style="fill:none;stroke:#000000;stroke-dasharray:9.25,4;stroke-dashoffset:0;stroke-width:2.5;"/>
   </g>
   <g id="patch_3">
    <path d="M 59.681562 224.64 
L 59.681562 7.2 
" style="fill:none;stroke:#000000;stroke-linecap:square;stroke-linejoin:miter;stroke-width:0.8;"/>
   </g>
   <g id="patch_4">
    <path d="M 277.121562 224.64 
L 277.121562 7.2 
" style="fill:none;stroke:#000000;stroke-linecap:square;stroke-linejoin:miter;stroke-width:0.8;"/>
   </g>
   <g id="patch_5">
    <path d="M 59.681562 224.64 
L 277.121562 224.64 
" style="fill:none;stroke:#000000;stroke-linecap:square;stroke-linejoin:miter;stroke-width:0.8;"/>
   </g>
   <g id="patch_6">
    <path d="M 59.681562 7.2 
L 277.121562 7.2 
" style="fill:none;stroke:#000000;stroke-linecap:square;stroke-linejoin:miter;stroke-width:0.8;"/>
   </g>
  </g>
 </g>
 <defs>
  <clipPath id="pe1f1643d10">
   <rect height="217.44" width="217.44" x="59.681562" y="7.2"/>
  </clipPath>
 </defs>
</svg>
