<?xml version="1.0" encoding="utf-8" standalone="no"?>
<!DOCTYPE svg PUBLIC "-//W3C//DTD SVG 1.1//EN"
  "http://www.w3.org/Graphics/SVG/1.1/DTD/svg11.dtd">
<svg height="281.441562pt" version="1.1" viewBox="0 0 273.557614 281.441562" width="273.557614pt" xmlns="http://www.w3.org/2000/svg" xmlns:xlink="http://www.w3.org/1999/xlink">
 <metadata>
  <rdf:RDF xmlns:cc="http://creativecommons.org/ns#" xmlns:dc="http://purl.org/dc/elements/1.1/" xmlns:rdf="http://www.w3.org/1999/02/22-rdf-syntax-ns#">
   <cc:Work>
    <dc:type rdf:resource="http://purl.org/dc/dcmitype/StillImage"/>
    <dc:date>2024-09-24T17:06:05.101446</dc:date>
    <dc:format>image/svg+xml</dc:format>
    <dc:creator>
     <cc:Agent>
      <dc:title>Matplotlib v3.4.3, https://matplotlib.org/</dc:title>
     </cc:Agent>
    </dc:creator>
   </cc:Work>
  </rdf:RDF>
 </metadata>
 <defs>
  <style type="text/css">*{stroke-linecap:butt;stroke-linejoin:round;}</style>
 </defs>
 <g id="figure_1">
  <g id="patch_1">
   <path d="M 0 281.441562 
L 273.557614 281.441562 
L 273.557614 0 
L 0 0 
z
" style="fill:#ffffff;"/>
  </g>
  <g id="axes_1">
   <g id="patch_2">
    <path d="M 44.67125 224.64 
L 262.11125 224.64 
L 262.11125 7.2 
L 44.67125 7.2 
z
" style="fill:#ffffff;"/>
   </g>
   <g id="matplotlib.axis_1">
    <g id="xtick_1">
     <g id="line2d_1">
      <defs>
       <path d="M 0 0 
L 0 3.5 
" id="m2e595a011b" style="stroke:#000000;stroke-width:1.5;"/>
      </defs>
      <g>
       <use style="stroke:#000000;stroke-width:1.5;" x="54.554886" xlink:href="#m2e595a011b" y="224.64"/>
      </g>
     </g>
     <g id="text_1">
      <!-- $\mathdefault{10^{-3}}$ -->
      <g transform="translate(36.734886 250.2025)scale(0.18 -0.18)">
       <defs>
        <path d="M 2384 0 
L 1822 0 
L 1822 3584 
Q 1619 3391 1289 3197 
Q 959 3003 697 2906 
L 697 3450 
Q 1169 3672 1522 3987 
Q 1875 4303 2022 4600 
L 2384 4600 
L 2384 0 
z
" id="ArialMT-31" transform="scale(0.015625)"/>
        <path d="M 266 2259 
Q 266 3072 433 3567 
Q 600 4063 929 4331 
Q 1259 4600 1759 4600 
Q 2128 4600 2406 4451 
Q 2684 4303 2865 4023 
Q 3047 3744 3150 3342 
Q 3253 2941 3253 2259 
Q 3253 1453 3087 958 
Q 2922 463 2592 192 
Q 2263 -78 1759 -78 
Q 1097 -78 719 397 
Q 266 969 266 2259 
z
M 844 2259 
Q 844 1131 1108 757 
Q 1372 384 1759 384 
Q 2147 384 2411 759 
Q 2675 1134 2675 2259 
Q 2675 3391 2411 3762 
Q 2147 4134 1753 4134 
Q 1366 4134 1134 3806 
Q 844 3388 844 2259 
z
" id="ArialMT-30" transform="scale(0.015625)"/>
        <path d="M 3381 1997 
L 356 1997 
L 356 2522 
L 3381 2522 
L 3381 1997 
z
" id="ArialMT-2212" transform="scale(0.015625)"/>
        <path d="M 269 1209 
L 831 1284 
Q 928 806 1161 595 
Q 1394 384 1728 384 
Q 2125 384 2398 659 
Q 2672 934 2672 1341 
Q 2672 1728 2419 1979 
Q 2166 2231 1775 2231 
Q 1616 2231 1378 2169 
L 1441 2663 
Q 1497 2656 1531 2656 
Q 1891 2656 2178 2843 
Q 2466 3031 2466 3422 
Q 2466 3731 2256 3934 
Q 2047 4138 1716 4138 
Q 1388 4138 1169 3931 
Q 950 3725 888 3313 
L 325 3413 
Q 428 3978 793 4289 
Q 1159 4600 1703 4600 
Q 2078 4600 2393 4439 
Q 2709 4278 2876 4000 
Q 3044 3722 3044 3409 
Q 3044 3113 2884 2869 
Q 2725 2625 2413 2481 
Q 2819 2388 3044 2092 
Q 3269 1797 3269 1353 
Q 3269 753 2831 336 
Q 2394 -81 1725 -81 
Q 1122 -81 723 278 
Q 325 638 269 1209 
z
" id="ArialMT-33" transform="scale(0.015625)"/>
       </defs>
       <use transform="translate(0 0.99375)" xlink:href="#ArialMT-31"/>
       <use transform="translate(55.615234 0.99375)" xlink:href="#ArialMT-30"/>
       <use transform="translate(112.972813 70.6875)scale(0.7)" xlink:href="#ArialMT-2212"/>
       <use transform="translate(153.851719 70.6875)scale(0.7)" xlink:href="#ArialMT-33"/>
      </g>
     </g>
    </g>
    <g id="xtick_2">
     <g id="line2d_2">
      <g>
       <use style="stroke:#000000;stroke-width:1.5;" x="120.445795" xlink:href="#m2e595a011b" y="224.64"/>
      </g>
     </g>
     <g id="text_2">
      <!-- $\mathdefault{10^{-2}}$ -->
      <g transform="translate(102.625795 250.2025)scale(0.18 -0.18)">
       <defs>
        <path d="M 3222 541 
L 3222 0 
L 194 0 
Q 188 203 259 391 
Q 375 700 629 1000 
Q 884 1300 1366 1694 
Q 2113 2306 2375 2664 
Q 2638 3022 2638 3341 
Q 2638 3675 2398 3904 
Q 2159 4134 1775 4134 
Q 1369 4134 1125 3890 
Q 881 3647 878 3216 
L 300 3275 
Q 359 3922 746 4261 
Q 1134 4600 1788 4600 
Q 2447 4600 2831 4234 
Q 3216 3869 3216 3328 
Q 3216 3053 3103 2787 
Q 2991 2522 2730 2228 
Q 2469 1934 1863 1422 
Q 1356 997 1212 845 
Q 1069 694 975 541 
L 3222 541 
z
" id="ArialMT-32" transform="scale(0.015625)"/>
       </defs>
       <use transform="translate(0 0.99375)" xlink:href="#ArialMT-31"/>
       <use transform="translate(55.615234 0.99375)" xlink:href="#ArialMT-30"/>
       <use transform="translate(112.972813 70.6875)scale(0.7)" xlink:href="#ArialMT-2212"/>
       <use transform="translate(153.851719 70.6875)scale(0.7)" xlink:href="#ArialMT-32"/>
      </g>
     </g>
    </g>
    <g id="xtick_3">
     <g id="line2d_3">
      <g>
       <use style="stroke:#000000;stroke-width:1.5;" x="186.336705" xlink:href="#m2e595a011b" y="224.64"/>
      </g>
     </g>
     <g id="text_3">
      <!-- $\mathdefault{10^{-1}}$ -->
      <g transform="translate(168.516705 250.2025)scale(0.18 -0.18)">
       <use transform="translate(0 0.99375)" xlink:href="#ArialMT-31"/>
       <use transform="translate(55.615234 0.99375)" xlink:href="#ArialMT-30"/>
       <use transform="translate(112.972813 70.6875)scale(0.7)" xlink:href="#ArialMT-2212"/>
       <use transform="translate(153.851719 70.6875)scale(0.7)" xlink:href="#ArialMT-31"/>
      </g>
     </g>
    </g>
    <g id="xtick_4">
     <g id="line2d_4">
      <g>
       <use style="stroke:#000000;stroke-width:1.5;" x="252.227614" xlink:href="#m2e595a011b" y="224.64"/>
      </g>
     </g>
     <g id="text_4">
      <!-- $\mathdefault{10^{0}}$ -->
      <g transform="translate(238.097614 250.2025)scale(0.18 -0.18)">
       <use transform="translate(0 0.99375)" xlink:href="#ArialMT-31"/>
       <use transform="translate(55.615234 0.99375)" xlink:href="#ArialMT-30"/>
       <use transform="translate(112.972813 70.6875)scale(0.7)" xlink:href="#ArialMT-30"/>
      </g>
     </g>
    </g>
    <g id="text_5">
     <!-- α -->
     <g transform="translate(148.188125 270.664062)scale(0.18 -0.18)">
      <defs>
       <path d="M 2884 3319 
L 3459 3319 
Q 3241 2631 3056 1659 
Q 3275 453 3459 0 
L 2900 0 
Q 2766 313 2697 606 
Q 2438 -75 1613 -75 
Q 988 -75 606 394 
Q 225 863 225 1666 
Q 225 2491 608 2942 
Q 991 3394 1622 3394 
Q 2013 3394 2259 3236 
Q 2506 3078 2719 2756 
Q 2741 2866 2884 3319 
z
M 1716 2928 
Q 1313 2928 1078 2603 
Q 844 2278 844 1666 
Q 844 1069 1066 728 
Q 1288 388 1684 388 
Q 2072 388 2331 723 
Q 2591 1059 2591 1691 
Q 2591 2303 2348 2615 
Q 2106 2928 1716 2928 
z
" id="ArialMT-3b1" transform="scale(0.015625)"/>
      </defs>
      <use xlink:href="#ArialMT-3b1"/>
     </g>
    </g>
   </g>
   <g id="matplotlib.axis_2">
    <g id="ytick_1">
     <g id="line2d_5">
      <defs>
       <path d="M 0 0 
L -3.5 0 
" id="m5d1461082f" style="stroke:#000000;stroke-width:1.5;"/>
      </defs>
      <g>
       <use style="stroke:#000000;stroke-width:1.5;" x="44.67125" xlink:href="#m5d1461082f" y="190.44513"/>
      </g>
     </g>
     <g id="text_6">
      <!-- 1 -->
      <g transform="translate(27.661563 196.887161)scale(0.18 -0.18)">
       <use xlink:href="#ArialMT-31"/>
      </g>
     </g>
    </g>
    <g id="ytick_2">
     <g id="line2d_6">
      <g>
       <use style="stroke:#000000;stroke-width:1.5;" x="44.67125" xlink:href="#m5d1461082f" y="135.425331"/>
      </g>
     </g>
     <g id="text_7">
      <!-- 2 -->
      <g transform="translate(27.661563 141.867363)scale(0.18 -0.18)">
       <use xlink:href="#ArialMT-32"/>
      </g>
     </g>
    </g>
    <g id="ytick_3">
     <g id="line2d_7">
      <g>
       <use style="stroke:#000000;stroke-width:1.5;" x="44.67125" xlink:href="#m5d1461082f" y="80.405533"/>
      </g>
     </g>
     <g id="text_8">
      <!-- 3 -->
      <g transform="translate(27.661563 86.847564)scale(0.18 -0.18)">
       <use xlink:href="#ArialMT-33"/>
      </g>
     </g>
    </g>
    <g id="ytick_4">
     <g id="line2d_8">
      <g>
       <use style="stroke:#000000;stroke-width:1.5;" x="44.67125" xlink:href="#m5d1461082f" y="25.385735"/>
      </g>
     </g>
     <g id="text_9">
      <!-- 4 -->
      <g transform="translate(27.661563 31.827766)scale(0.18 -0.18)">
       <defs>
        <path d="M 2069 0 
L 2069 1097 
L 81 1097 
L 81 1613 
L 2172 4581 
L 2631 4581 
L 2631 1613 
L 3250 1613 
L 3250 1097 
L 2631 1097 
L 2631 0 
L 2069 0 
z
M 2069 1613 
L 2069 3678 
L 634 1613 
L 2069 1613 
z
" id="ArialMT-34" transform="scale(0.015625)"/>
       </defs>
       <use xlink:href="#ArialMT-34"/>
      </g>
     </g>
    </g>
    <g id="text_10">
     <!-- RMSE -->
     <g transform="translate(20.084063 141.922969)rotate(-90)scale(0.18 -0.18)">
      <defs>
       <path d="M 503 0 
L 503 4581 
L 2534 4581 
Q 3147 4581 3465 4457 
Q 3784 4334 3975 4021 
Q 4166 3709 4166 3331 
Q 4166 2844 3850 2509 
Q 3534 2175 2875 2084 
Q 3116 1969 3241 1856 
Q 3506 1613 3744 1247 
L 4541 0 
L 3778 0 
L 3172 953 
Q 2906 1366 2734 1584 
Q 2563 1803 2427 1890 
Q 2291 1978 2150 2013 
Q 2047 2034 1813 2034 
L 1109 2034 
L 1109 0 
L 503 0 
z
M 1109 2559 
L 2413 2559 
Q 2828 2559 3062 2645 
Q 3297 2731 3419 2920 
Q 3541 3109 3541 3331 
Q 3541 3656 3305 3865 
Q 3069 4075 2559 4075 
L 1109 4075 
L 1109 2559 
z
" id="ArialMT-52" transform="scale(0.015625)"/>
       <path d="M 475 0 
L 475 4581 
L 1388 4581 
L 2472 1338 
Q 2622 884 2691 659 
Q 2769 909 2934 1394 
L 4031 4581 
L 4847 4581 
L 4847 0 
L 4263 0 
L 4263 3834 
L 2931 0 
L 2384 0 
L 1059 3900 
L 1059 0 
L 475 0 
z
" id="ArialMT-4d" transform="scale(0.015625)"/>
       <path d="M 288 1472 
L 859 1522 
Q 900 1178 1048 958 
Q 1197 738 1509 602 
Q 1822 466 2213 466 
Q 2559 466 2825 569 
Q 3091 672 3220 851 
Q 3350 1031 3350 1244 
Q 3350 1459 3225 1620 
Q 3100 1781 2813 1891 
Q 2628 1963 1997 2114 
Q 1366 2266 1113 2400 
Q 784 2572 623 2826 
Q 463 3081 463 3397 
Q 463 3744 659 4045 
Q 856 4347 1234 4503 
Q 1613 4659 2075 4659 
Q 2584 4659 2973 4495 
Q 3363 4331 3572 4012 
Q 3781 3694 3797 3291 
L 3216 3247 
Q 3169 3681 2898 3903 
Q 2628 4125 2100 4125 
Q 1550 4125 1298 3923 
Q 1047 3722 1047 3438 
Q 1047 3191 1225 3031 
Q 1400 2872 2139 2705 
Q 2878 2538 3153 2413 
Q 3553 2228 3743 1945 
Q 3934 1663 3934 1294 
Q 3934 928 3725 604 
Q 3516 281 3123 101 
Q 2731 -78 2241 -78 
Q 1619 -78 1198 103 
Q 778 284 539 648 
Q 300 1013 288 1472 
z
" id="ArialMT-53" transform="scale(0.015625)"/>
       <path d="M 506 0 
L 506 4581 
L 3819 4581 
L 3819 4041 
L 1113 4041 
L 1113 2638 
L 3647 2638 
L 3647 2100 
L 1113 2100 
L 1113 541 
L 3925 541 
L 3925 0 
L 506 0 
z
" id="ArialMT-45" transform="scale(0.015625)"/>
      </defs>
      <use xlink:href="#ArialMT-52"/>
      <use x="72.216797" xlink:href="#ArialMT-4d"/>
      <use x="155.517578" xlink:href="#ArialMT-53"/>
      <use x="222.216797" xlink:href="#ArialMT-45"/>
     </g>
    </g>
   </g>
   <g id="line2d_9">
    <path clip-path="url(#p0007d84614)" d="M 252.227614 139.551301 
L 250.230919 141.989756 
L 248.234225 144.672623 
L 246.237531 147.128816 
L 244.240837 149.214141 
L 242.244143 150.968221 
L 240.247448 152.42888 
L 238.250754 153.631363 
L 236.25406 154.984004 
L 234.257366 156.115155 
L 232.260671 157.255102 
L 230.263977 158.458333 
L 228.267283 160.009602 
L 226.270589 161.301137 
L 224.273895 161.85656 
L 222.2772 162.059152 
L 220.280506 162.090533 
L 218.283812 161.982173 
L 216.287118 161.79668 
L 214.290424 161.726044 
L 212.293729 161.580935 
L 210.297035 161.447143 
L 208.300341 161.53214 
L 206.303647 161.790307 
L 204.306952 163.629414 
L 202.310258 165.515339 
L 200.313564 167.228511 
L 198.31687 168.777886 
L 196.320176 170.180525 
L 194.323481 171.44735 
L 192.326787 172.951246 
L 190.330093 174.542659 
L 188.333399 175.892932 
L 186.336705 176.914475 
L 184.34001 177.829233 
L 182.343316 178.691717 
L 180.346622 179.521589 
L 178.349928 180.461515 
L 176.353233 181.286397 
L 174.356539 182.140004 
L 172.359845 182.926626 
L 170.363151 183.583788 
L 168.366457 184.057836 
L 166.369762 184.81873 
L 164.373068 185.858118 
L 162.376374 186.750291 
L 160.37968 187.552638 
L 158.382986 188.263637 
L 156.386291 188.865521 
L 154.389597 189.280103 
L 152.392903 189.455075 
L 150.396209 189.599113 
L 148.399514 189.716639 
L 146.40282 189.78414 
L 144.406126 189.856503 
L 142.409432 190.162641 
L 140.412738 190.45351 
L 138.416043 190.749918 
L 136.419349 191.101717 
L 134.422655 191.405056 
L 132.425961 191.663 
L 130.429267 191.88154 
L 128.432572 192.067026 
L 126.435878 192.260753 
L 124.439184 192.346088 
L 122.44249 192.399644 
L 120.445795 192.419103 
L 118.449101 192.594839 
L 116.452407 192.961151 
L 114.455713 193.319435 
L 112.459019 193.740679 
L 110.462324 194.102539 
L 108.46563 194.392516 
L 106.468936 194.627455 
L 104.472242 194.816723 
L 102.475548 194.842947 
L 100.478853 194.37201 
L 98.482159 194.021675 
L 96.485465 193.677094 
L 94.488771 193.123837 
L 92.492076 192.451657 
L 90.495382 191.657593 
L 88.498688 190.812263 
L 86.501994 190.367188 
L 84.5053 189.253383 
L 82.508605 188.370841 
L 80.511911 187.133907 
L 78.515217 185.980076 
L 76.518523 184.964904 
L 74.521829 184.110105 
L 72.525134 183.717452 
L 70.52844 183.418867 
L 68.531746 183.159717 
L 66.535052 183.149582 
L 64.538357 184.145692 
L 62.541663 186.349859 
L 60.544969 189.91014 
L 58.548275 191.995233 
L 56.551581 193.181273 
L 54.554886 194.435384 
" style="fill:none;stroke:#1f77b4;stroke-dasharray:2,3.3;stroke-dashoffset:0;stroke-width:2;"/>
   </g>
   <g id="line2d_10">
    <path clip-path="url(#p0007d84614)" d="M 252.227614 134.885589 
L 250.230919 137.373775 
L 248.234225 139.976193 
L 246.237531 142.397347 
L 244.240837 145.006294 
L 242.244143 147.953595 
L 240.247448 150.661475 
L 238.250754 153.182051 
L 236.25406 155.373286 
L 234.257366 157.293722 
L 232.260671 159.198697 
L 230.263977 161.705366 
L 228.267283 165.190356 
L 226.270589 168.142842 
L 224.273895 170.977017 
L 222.2772 173.626307 
L 220.280506 176.129357 
L 218.283812 178.783307 
L 216.287118 181.503888 
L 214.290424 183.838447 
L 212.293729 185.916499 
L 210.297035 188.185255 
L 208.300341 189.99486 
L 206.303647 191.817773 
L 204.306952 193.462368 
L 202.310258 194.784855 
L 200.313564 195.911024 
L 198.31687 197.279519 
L 196.320176 198.487653 
L 194.323481 199.542323 
L 192.326787 200.459856 
L 190.330093 201.253618 
L 188.333399 201.900679 
L 186.336705 202.379247 
L 184.34001 202.76128 
L 182.343316 203.617552 
L 180.346622 204.873485 
L 178.349928 205.946448 
L 176.353233 206.860293 
L 174.356539 207.62939 
L 172.359845 207.683464 
L 170.363151 207.967082 
L 168.366457 208.720716 
L 166.369762 209.494171 
L 164.373068 210.085439 
L 162.376374 210.536992 
L 160.37968 210.867962 
L 158.382986 211.098855 
L 156.386291 211.242948 
L 154.389597 211.316979 
L 152.392903 211.330884 
L 150.396209 211.305045 
L 148.399514 211.327105 
L 146.40282 211.418434 
L 144.406126 211.496491 
L 142.409432 211.57808 
L 140.412738 211.674429 
L 138.416043 212.048202 
L 136.419349 212.33535 
L 134.422655 212.575703 
L 132.425961 212.809363 
L 130.429267 212.837078 
L 128.432572 212.761301 
L 126.435878 213.025506 
L 124.439184 213.312056 
L 122.44249 213.671768 
L 120.445795 214.023022 
L 118.449101 214.317113 
L 116.452407 214.562925 
L 114.455713 214.756364 
L 112.459019 214.753234 
L 110.462324 214.492489 
L 108.46563 214.172296 
L 106.468936 213.786095 
L 104.472242 213.35614 
L 102.475548 212.921518 
L 100.478853 212.520719 
L 98.482159 212.211653 
L 96.485465 211.981185 
L 94.488771 211.773358 
L 92.492076 211.873362 
L 90.495382 211.860559 
L 88.498688 211.8017 
L 86.501994 211.720882 
L 84.5053 211.606856 
L 82.508605 211.727939 
L 80.511911 211.948941 
L 78.515217 212.038132 
L 76.518523 212.108595 
L 74.521829 212.026333 
L 72.525134 211.906979 
L 70.52844 211.731226 
L 68.531746 211.581384 
L 66.535052 211.467899 
L 64.538357 211.383752 
L 62.541663 211.344555 
L 60.544969 211.371998 
L 58.548275 211.383338 
L 56.551581 211.36905 
L 54.554886 211.294092 
" style="fill:none;stroke:#ff7f0e;stroke-dasharray:2,3.3;stroke-dashoffset:0;stroke-width:2;"/>
   </g>
   <g id="line2d_11">
    <path clip-path="url(#p0007d84614)" d="M 252.227614 134.687139 
L 250.230919 136.714414 
L 248.234225 138.46031 
L 246.237531 139.954971 
L 244.240837 142.395389 
L 242.244143 144.918722 
L 240.247448 147.095362 
L 238.250754 148.953461 
L 236.25406 150.592982 
L 234.257366 152.075848 
L 232.260671 153.216857 
L 230.263977 154.041832 
L 228.267283 154.735523 
L 226.270589 155.049301 
L 224.273895 155.25245 
L 222.2772 155.111894 
L 220.280506 156.963822 
L 218.283812 159.259741 
L 216.287118 161.149771 
L 214.290424 162.820166 
L 212.293729 164.733342 
L 210.297035 166.098921 
L 208.300341 169.129611 
L 206.303647 171.890648 
L 204.306952 174.383016 
L 202.310258 176.736366 
L 200.313564 178.783337 
L 198.31687 180.561612 
L 196.320176 182.100127 
L 194.323481 183.424716 
L 192.326787 184.547399 
L 190.330093 185.46889 
L 188.333399 186.251669 
L 186.336705 186.88989 
L 184.34001 187.197749 
L 182.343316 187.317124 
L 180.346622 187.141432 
L 178.349928 187.014322 
L 176.353233 187.09159 
L 174.356539 187.117694 
L 172.359845 186.54696 
L 170.363151 185.755673 
L 168.366457 184.913516 
L 166.369762 184.039501 
L 164.373068 183.150529 
L 162.376374 182.476727 
L 160.37968 181.762424 
L 158.382986 181.11868 
L 156.386291 181.577859 
L 154.389597 181.725702 
L 152.392903 181.711355 
L 150.396209 181.559481 
L 148.399514 181.388084 
L 146.40282 180.727759 
L 144.406126 177.631323 
L 142.409432 176.289059 
L 140.412738 175.838651 
L 138.416043 175.609111 
L 136.419349 175.645564 
L 134.422655 175.668547 
L 132.425961 175.68086 
L 130.429267 175.482073 
L 128.432572 175.316594 
L 126.435878 175.251655 
L 124.439184 174.612521 
L 122.44249 173.497696 
L 120.445795 171.857822 
L 118.449101 175.868227 
L 116.452407 179.912334 
L 114.455713 181.753586 
L 112.459019 181.724155 
L 110.462324 180.427437 
L 108.46563 177.820431 
L 106.468936 174.138589 
L 104.472242 170.191262 
L 102.475548 165.187105 
L 100.478853 159.174558 
L 98.482159 153.608897 
L 96.485465 145.904003 
L 94.488771 136.063532 
L 92.492076 129.05028 
L 90.495382 124.025813 
L 88.498688 119.640172 
L 86.501994 115.893337 
L 84.5053 111.887952 
L 82.508605 107.964684 
L 80.511911 103.776482 
L 78.515217 95.42893 
L 76.518523 87.130491 
L 74.521829 78.76641 
L 72.525134 74.673825 
L 70.52844 70.224036 
L 68.531746 61.854389 
L 66.535052 50.846937 
L 64.538357 45.796375 
L 62.541663 38.692917 
L 60.544969 33.725 
L 58.548275 29.966595 
L 56.551581 23.324918 
L 54.554886 17.083636 
" style="fill:none;stroke:#2ca02c;stroke-dasharray:2,3.3;stroke-dashoffset:0;stroke-width:2;"/>
   </g>
   <g id="line2d_12">
    <path clip-path="url(#p0007d84614)" d="M 252.227614 127.740868 
L 250.230919 129.644944 
L 248.234225 131.769807 
L 246.237531 134.344653 
L 244.240837 136.621098 
L 242.244143 138.628386 
L 240.247448 140.393937 
L 238.250754 141.943155 
L 236.25406 143.299794 
L 234.257366 145.122235 
L 232.260671 146.941048 
L 230.263977 148.630358 
L 228.267283 151.082625 
L 226.270589 154.262492 
L 224.273895 157.278822 
L 222.2772 160.147173 
L 220.280506 163.16647 
L 218.283812 166.205998 
L 216.287118 169.381042 
L 214.290424 172.19444 
L 212.293729 174.760117 
L 210.297035 177.110878 
L 208.300341 179.303235 
L 206.303647 181.228849 
L 204.306952 182.92092 
L 202.310258 184.345572 
L 200.313564 185.539091 
L 198.31687 186.605855 
L 196.320176 187.661098 
L 194.323481 188.49364 
L 192.326787 189.194772 
L 190.330093 189.797704 
L 188.333399 190.376626 
L 186.336705 190.712716 
L 184.34001 190.929854 
L 182.343316 191.063064 
L 180.346622 191.253457 
L 178.349928 191.526766 
L 176.353233 191.750054 
L 174.356539 191.931423 
L 172.359845 192.241921 
L 170.363151 192.6022 
L 168.366457 192.941672 
L 166.369762 193.2447 
L 164.373068 193.481822 
L 162.376374 193.683666 
L 160.37968 193.825032 
L 158.382986 193.86479 
L 156.386291 193.854685 
L 154.389597 193.774112 
L 152.392903 193.682965 
L 150.396209 193.584076 
L 148.399514 193.479879 
L 146.40282 193.374049 
L 144.406126 193.250317 
L 142.409432 193.127494 
L 140.412738 193.025679 
L 138.416043 192.923797 
L 136.419349 192.981222 
L 134.422655 193.111054 
L 132.425961 193.302051 
L 130.429267 193.416664 
L 128.432572 193.463331 
L 126.435878 193.525209 
L 124.439184 193.533513 
L 122.44249 193.537456 
L 120.445795 193.505812 
L 118.449101 193.364095 
L 116.452407 193.18871 
L 114.455713 193.062544 
L 112.459019 193.044364 
L 110.462324 193.037072 
L 108.46563 192.993718 
L 106.468936 193.183031 
L 104.472242 193.486912 
L 102.475548 193.726072 
L 100.478853 193.9269 
L 98.482159 194.11486 
L 96.485465 194.283756 
L 94.488771 194.464632 
L 92.492076 194.923233 
L 90.495382 195.378428 
L 88.498688 195.754115 
L 86.501994 196.0894 
L 84.5053 196.420413 
L 82.508605 196.905247 
L 80.511911 197.391015 
L 78.515217 197.84648 
L 76.518523 198.268807 
L 74.521829 198.706953 
L 72.525134 199.205504 
L 70.52844 199.59608 
L 68.531746 199.896013 
L 66.535052 200.210963 
L 64.538357 200.6167 
L 62.541663 200.921054 
L 60.544969 201.19499 
L 58.548275 201.446577 
L 56.551581 201.713264 
L 54.554886 201.951447 
" style="fill:none;stroke:#d62728;stroke-dasharray:2,3.3;stroke-dashoffset:0;stroke-width:2;"/>
   </g>
   <g id="line2d_13">
    <path clip-path="url(#p0007d84614)" d="M 252.227614 129.201851 
L 250.230919 131.259571 
L 248.234225 133.3772 
L 246.237531 135.6288 
L 244.240837 137.624117 
L 242.244143 138.689881 
L 240.247448 139.511001 
L 238.250754 140.180806 
L 236.25406 140.720591 
L 234.257366 141.148921 
L 232.260671 141.677881 
L 230.263977 142.344857 
L 228.267283 143.704803 
L 226.270589 146.012876 
L 224.273895 148.133363 
L 222.2772 149.816786 
L 220.280506 151.365896 
L 218.283812 153.411338 
L 216.287118 155.348033 
L 214.290424 157.128439 
L 212.293729 158.763729 
L 210.297035 160.354352 
L 208.300341 161.826585 
L 206.303647 163.173295 
L 204.306952 164.394144 
L 202.310258 165.50939 
L 200.313564 166.53332 
L 198.31687 167.585154 
L 196.320176 168.651665 
L 194.323481 169.634483 
L 192.326787 170.540193 
L 190.330093 171.375126 
L 188.333399 172.14505 
L 186.336705 172.855227 
L 184.34001 173.511052 
L 182.343316 174.132826 
L 180.346622 174.770514 
L 178.349928 175.287672 
L 176.353233 176.235189 
L 174.356539 176.903349 
L 172.359845 177.375972 
L 170.363151 177.992007 
L 168.366457 179.081385 
L 166.369762 180.102214 
L 164.373068 181.020098 
L 162.376374 181.851388 
L 160.37968 182.603244 
L 158.382986 183.282338 
L 156.386291 183.947081 
L 154.389597 184.582759 
L 152.392903 185.072569 
L 150.396209 185.421199 
L 148.399514 185.694468 
L 146.40282 185.863361 
L 144.406126 186.171338 
L 142.409432 186.257235 
L 140.412738 186.406078 
L 138.416043 186.643017 
L 136.419349 186.896647 
L 134.422655 187.142896 
L 132.425961 187.321383 
L 130.429267 187.370795 
L 128.432572 187.420056 
L 126.435878 187.428615 
L 124.439184 187.35712 
L 122.44249 187.278816 
L 120.445795 187.346083 
L 118.449101 187.884954 
L 116.452407 188.344637 
L 114.455713 188.914384 
L 112.459019 189.522435 
L 110.462324 190.055916 
L 108.46563 190.522231 
L 106.468936 190.850848 
L 104.472242 191.084866 
L 102.475548 191.348133 
L 100.478853 191.550756 
L 98.482159 191.73133 
L 96.485465 191.982681 
L 94.488771 192.255047 
L 92.492076 192.556248 
L 90.495382 192.846191 
L 88.498688 193.103042 
L 86.501994 193.600112 
L 84.5053 194.229425 
L 82.508605 194.980298 
L 80.511911 195.73495 
L 78.515217 196.481345 
L 76.518523 197.181697 
L 74.521829 197.787394 
L 72.525134 198.270747 
L 70.52844 198.793249 
L 68.531746 199.299022 
L 66.535052 199.710592 
L 64.538357 200.078439 
L 62.541663 200.427319 
L 60.544969 200.692538 
L 58.548275 200.962595 
L 56.551581 201.053784 
L 54.554886 201.203766 
" style="fill:none;stroke:#9467bd;stroke-dasharray:2,3.3;stroke-dashoffset:0;stroke-width:2;"/>
   </g>
   <g id="line2d_14">
    <path clip-path="url(#p0007d84614)" d="M 252.227614 110.067776 
L 250.230919 110.89331 
L 248.234225 112.030553 
L 246.237531 113.356024 
L 244.240837 114.456967 
L 242.244143 115.362599 
L 240.247448 116.099629 
L 238.250754 116.691815 
L 236.25406 117.16016 
L 234.257366 117.875634 
L 232.260671 118.700872 
L 230.263977 119.404335 
L 228.267283 120.812403 
L 226.270589 123.174083 
L 224.273895 126.010108 
L 222.2772 128.566574 
L 220.280506 130.98325 
L 218.283812 133.463596 
L 216.287118 136.165203 
L 214.290424 139.664513 
L 212.293729 142.872975 
L 210.297035 145.619024 
L 208.300341 148.123542 
L 206.303647 150.921708 
L 204.306952 153.506085 
L 202.310258 156.01637 
L 200.313564 158.254684 
L 198.31687 160.120572 
L 196.320176 161.959274 
L 194.323481 163.643532 
L 192.326787 165.101417 
L 190.330093 166.406825 
L 188.333399 167.573517 
L 186.336705 168.616836 
L 184.34001 169.536484 
L 182.343316 170.346386 
L 180.346622 171.360078 
L 178.349928 172.524037 
L 176.353233 173.447094 
L 174.356539 174.102541 
L 172.359845 174.723706 
L 170.363151 175.301101 
L 168.366457 175.847361 
L 166.369762 176.86298 
L 164.373068 177.868204 
L 162.376374 178.920759 
L 160.37968 179.788003 
L 158.382986 180.560236 
L 156.386291 181.251413 
L 154.389597 181.896352 
L 152.392903 182.486853 
L 150.396209 182.99368 
L 148.399514 183.365147 
L 146.40282 183.674284 
L 144.406126 183.930159 
L 142.409432 184.140254 
L 140.412738 184.311131 
L 138.416043 184.523117 
L 136.419349 184.794572 
L 134.422655 185.080072 
L 132.425961 185.343829 
L 130.429267 185.619486 
L 128.432572 185.809525 
L 126.435878 185.875114 
L 124.439184 185.76383 
L 122.44249 185.794963 
L 120.445795 185.918953 
L 118.449101 186.267069 
L 116.452407 186.53078 
L 114.455713 186.817726 
L 112.459019 187.398186 
L 110.462324 187.97532 
L 108.46563 188.507519 
L 106.468936 188.813871 
L 104.472242 188.871746 
L 102.475548 188.893011 
L 100.478853 188.903772 
L 98.482159 188.936732 
L 96.485465 189.179492 
L 94.488771 189.417752 
L 92.492076 189.828502 
L 90.495382 190.026318 
L 88.498688 190.196056 
L 86.501994 190.354169 
L 84.5053 190.621324 
L 82.508605 190.953757 
L 80.511911 191.286731 
L 78.515217 191.633079 
L 76.518523 191.998817 
L 74.521829 192.281719 
L 72.525134 192.394257 
L 70.52844 192.55365 
L 68.531746 192.749076 
L 66.535052 192.88802 
L 64.538357 193.054096 
L 62.541663 193.056374 
L 60.544969 192.978264 
L 58.548275 192.916185 
L 56.551581 193.044009 
L 54.554886 193.147345 
" style="fill:none;stroke:#8c564b;stroke-dasharray:2,3.3;stroke-dashoffset:0;stroke-width:2;"/>
   </g>
   <g id="line2d_15">
    <path clip-path="url(#p0007d84614)" d="M 252.227614 114.879746 
L 250.230919 116.455017 
L 248.234225 117.877097 
L 246.237531 119.596239 
L 244.240837 121.573895 
L 242.244143 124.347518 
L 240.247448 126.883141 
L 238.250754 129.30014 
L 236.25406 131.559002 
L 234.257366 133.609828 
L 232.260671 135.648503 
L 230.263977 138.253834 
L 228.267283 141.32345 
L 226.270589 144.090151 
L 224.273895 146.644994 
L 222.2772 149.093183 
L 220.280506 151.705156 
L 218.283812 154.344572 
L 216.287118 156.969865 
L 214.290424 159.310655 
L 212.293729 161.530095 
L 210.297035 163.681156 
L 208.300341 165.683461 
L 206.303647 167.325852 
L 204.306952 168.75287 
L 202.310258 169.865747 
L 200.313564 170.83557 
L 198.31687 171.673502 
L 196.320176 172.399517 
L 194.323481 173.027308 
L 192.326787 173.540364 
L 190.330093 173.964074 
L 188.333399 174.32109 
L 186.336705 174.887666 
L 184.34001 175.528262 
L 182.343316 176.862266 
L 180.346622 178.120644 
L 178.349928 179.261026 
L 176.353233 180.293443 
L 174.356539 180.88849 
L 172.359845 181.506814 
L 170.363151 182.080534 
L 168.366457 182.676768 
L 166.369762 183.216821 
L 164.373068 184.119132 
L 162.376374 185.443804 
L 160.37968 186.645671 
L 158.382986 187.747398 
L 156.386291 188.83332 
L 154.389597 189.924073 
L 152.392903 190.934275 
L 150.396209 191.881655 
L 148.399514 192.764125 
L 146.40282 193.570411 
L 144.406126 194.391751 
L 142.409432 195.126024 
L 140.412738 195.84914 
L 138.416043 196.486476 
L 136.419349 196.94738 
L 134.422655 197.445991 
L 132.425961 197.924394 
L 130.429267 198.434112 
L 128.432572 199.080761 
L 126.435878 199.620927 
L 124.439184 200.008679 
L 122.44249 200.153933 
L 120.445795 200.260753 
L 118.449101 200.616165 
L 116.452407 201.285333 
L 114.455713 201.749869 
L 112.459019 202.074231 
L 110.462324 202.353414 
L 108.46563 202.590145 
L 106.468936 202.72482 
L 104.472242 202.820719 
L 102.475548 202.898533 
L 100.478853 202.985019 
L 98.482159 203.168251 
L 96.485465 203.342732 
L 94.488771 203.334122 
L 92.492076 203.268294 
L 90.495382 203.177786 
L 88.498688 203.167569 
L 86.501994 203.285368 
L 84.5053 203.404205 
L 82.508605 203.528756 
L 80.511911 203.666054 
L 78.515217 203.715327 
L 76.518523 203.732652 
L 74.521829 203.742888 
L 72.525134 203.747508 
L 70.52844 203.72781 
L 68.531746 203.684488 
L 66.535052 203.641088 
L 64.538357 203.579106 
L 62.541663 203.532228 
L 60.544969 203.548419 
L 58.548275 203.539569 
L 56.551581 203.518019 
L 54.554886 203.427946 
" style="fill:none;stroke:#e377c2;stroke-dasharray:2,3.3;stroke-dashoffset:0;stroke-width:2;"/>
   </g>
   <g id="line2d_16">
    <path clip-path="url(#p0007d84614)" d="M 252.227614 109.01573 
L 250.230919 109.617404 
L 248.234225 110.101878 
L 246.237531 111.15839 
L 244.240837 112.749367 
L 242.244143 114.165565 
L 240.247448 115.424639 
L 238.250754 116.54363 
L 236.25406 117.487388 
L 234.257366 117.904976 
L 232.260671 117.921054 
L 230.263977 117.832318 
L 228.267283 119.534524 
L 226.270589 121.695201 
L 224.273895 124.133632 
L 222.2772 126.324018 
L 220.280506 128.291909 
L 218.283812 130.05953 
L 216.287118 131.642768 
L 214.290424 133.930866 
L 212.293729 136.252512 
L 210.297035 138.389348 
L 208.300341 140.349937 
L 206.303647 142.148623 
L 204.306952 143.833872 
L 202.310258 145.850888 
L 200.313564 147.567881 
L 198.31687 148.921655 
L 196.320176 149.8848 
L 194.323481 150.749086 
L 192.326787 151.52502 
L 190.330093 152.221649 
L 188.333399 152.847378 
L 186.336705 153.409566 
L 184.34001 154.051723 
L 182.343316 154.734167 
L 180.346622 155.371426 
L 178.349928 156.068934 
L 176.353233 158.586574 
L 174.356539 160.664278 
L 172.359845 161.714587 
L 170.363151 161.684832 
L 168.366457 161.359756 
L 166.369762 160.884306 
L 164.373068 160.342462 
L 162.376374 160.062931 
L 160.37968 160.160562 
L 158.382986 161.073774 
L 156.386291 162.13962 
L 154.389597 166.162983 
L 152.392903 170.206794 
L 150.396209 173.06299 
L 148.399514 173.601342 
L 146.40282 174.147367 
L 144.406126 174.30837 
L 142.409432 173.944939 
L 140.412738 173.64773 
L 138.416043 173.361052 
L 136.419349 173.070211 
L 134.422655 172.777187 
L 132.425961 172.488557 
L 130.429267 172.205769 
L 128.432572 172.026686 
L 126.435878 171.569161 
L 124.439184 171.36639 
L 122.44249 169.524665 
L 120.445795 166.959654 
L 118.449101 166.894182 
L 116.452407 167.911826 
L 114.455713 167.940744 
L 112.459019 169.243339 
L 110.462324 171.334389 
L 108.46563 173.618549 
L 106.468936 175.707701 
L 104.472242 177.582454 
L 102.475548 179.645084 
L 100.478853 180.879718 
L 98.482159 180.763749 
L 96.485465 180.458605 
L 94.488771 180.068816 
L 92.492076 179.550265 
L 90.495382 178.151505 
L 88.498688 176.899691 
L 86.501994 173.70554 
L 84.5053 174.288977 
L 82.508605 173.736854 
L 80.511911 173.854504 
L 78.515217 176.462347 
L 76.518523 178.87054 
L 74.521829 179.993454 
L 72.525134 181.298436 
L 70.52844 184.542782 
L 68.531746 187.347169 
L 66.535052 192.74564 
L 64.538357 196.543961 
L 62.541663 198.220514 
L 60.544969 198.713765 
L 58.548275 200.484386 
L 56.551581 202.090706 
L 54.554886 203.276547 
" style="fill:none;stroke:#7f7f7f;stroke-dasharray:2,3.3;stroke-dashoffset:0;stroke-width:2;"/>
   </g>
   <g id="line2d_17">
    <path clip-path="url(#p0007d84614)" d="M 252.227614 149.467431 
L 250.230919 150.914274 
L 248.234225 152.165695 
L 246.237531 154.748745 
L 244.240837 157.269064 
L 242.244143 159.480963 
L 240.247448 161.412683 
L 238.250754 163.092124 
L 236.25406 164.545553 
L 234.257366 165.797504 
L 232.260671 168.349772 
L 230.263977 172.05904 
L 228.267283 175.41864 
L 226.270589 178.360576 
L 224.273895 180.731612 
L 222.2772 182.56286 
L 220.280506 184.844128 
L 218.283812 187.104124 
L 216.287118 189.120426 
L 214.290424 191.025383 
L 212.293729 192.882522 
L 210.297035 194.523926 
L 208.300341 195.897507 
L 206.303647 197.019925 
L 204.306952 197.877482 
L 202.310258 198.444712 
L 200.313564 198.690774 
L 198.31687 198.74789 
L 196.320176 198.652347 
L 194.323481 198.434921 
L 192.326787 197.92996 
L 190.330093 197.311734 
L 188.333399 196.597871 
L 186.336705 195.869312 
L 184.34001 195.476359 
L 182.343316 195.25674 
L 180.346622 195.061691 
L 178.349928 194.823599 
L 176.353233 194.508541 
L 174.356539 194.178956 
L 172.359845 193.864727 
L 170.363151 193.474446 
L 168.366457 193.084143 
L 166.369762 192.79337 
L 164.373068 192.760151 
L 162.376374 193.059816 
L 160.37968 193.556511 
L 158.382986 194.288111 
L 156.386291 194.719027 
L 154.389597 195.131949 
L 152.392903 195.637419 
L 150.396209 196.110527 
L 148.399514 196.474075 
L 146.40282 196.660406 
L 144.406126 196.940443 
L 142.409432 196.650511 
L 140.412738 196.067053 
L 138.416043 195.612164 
L 136.419349 195.321572 
L 134.422655 194.941334 
L 132.425961 194.560707 
L 130.429267 194.190713 
L 128.432572 193.784996 
L 126.435878 193.396241 
L 124.439184 193.026329 
L 122.44249 192.675157 
L 120.445795 193.187157 
L 118.449101 194.004832 
L 116.452407 194.75327 
L 114.455713 195.447447 
L 112.459019 196.066491 
L 110.462324 196.583376 
L 108.46563 196.944845 
L 106.468936 197.271223 
L 104.472242 197.516792 
L 102.475548 197.711688 
L 100.478853 197.718272 
L 98.482159 197.74255 
L 96.485465 197.812341 
L 94.488771 197.882335 
L 92.492076 198.180358 
L 90.495382 198.149521 
L 88.498688 198.003113 
L 86.501994 197.913189 
L 84.5053 198.081459 
L 82.508605 198.206716 
L 80.511911 198.315544 
L 78.515217 198.422711 
L 76.518523 198.506353 
L 74.521829 198.608662 
L 72.525134 198.571751 
L 70.52844 198.510019 
L 68.531746 198.383401 
L 66.535052 198.371638 
L 64.538357 198.399673 
L 62.541663 198.407436 
L 60.544969 198.405253 
L 58.548275 198.396474 
L 56.551581 198.381532 
L 54.554886 198.271786 
" style="fill:none;stroke:#bcbd22;stroke-dasharray:2,3.3;stroke-dashoffset:0;stroke-width:2;"/>
   </g>
   <g id="line2d_18">
    <path clip-path="url(#p0007d84614)" d="M 252.227614 156.96961 
L 250.230919 159.709773 
L 248.234225 162.689814 
L 246.237531 165.395521 
L 244.240837 167.837281 
L 242.244143 170.036575 
L 240.247448 172.013787 
L 238.250754 173.788174 
L 236.25406 175.377857 
L 234.257366 177.760392 
L 232.260671 180.240271 
L 230.263977 183.4821 
L 228.267283 186.360158 
L 226.270589 188.965369 
L 224.273895 191.144597 
L 222.2772 192.290686 
L 220.280506 193.193271 
L 218.283812 193.888188 
L 216.287118 194.379684 
L 214.290424 194.724671 
L 212.293729 194.97923 
L 210.297035 195.138584 
L 208.300341 195.192576 
L 206.303647 195.160447 
L 204.306952 195.058779 
L 202.310258 195.052191 
L 200.313564 194.988555 
L 198.31687 194.889989 
L 196.320176 194.7645 
L 194.323481 194.601642 
L 192.326787 194.382362 
L 190.330093 194.146528 
L 188.333399 193.91075 
L 186.336705 193.672603 
L 184.34001 193.510255 
L 182.343316 193.71093 
L 180.346622 193.85172 
L 178.349928 193.576098 
L 176.353233 193.02145 
L 174.356539 192.504931 
L 172.359845 191.971068 
L 170.363151 191.482852 
L 168.366457 191.382548 
L 166.369762 191.242373 
L 164.373068 191.315558 
L 162.376374 191.595501 
L 160.37968 191.834209 
L 158.382986 192.033406 
L 156.386291 192.243251 
L 154.389597 192.434699 
L 152.392903 192.552412 
L 150.396209 192.508919 
L 148.399514 192.350055 
L 146.40282 192.22968 
L 144.406126 192.055328 
L 142.409432 191.905428 
L 140.412738 191.768727 
L 138.416043 191.649483 
L 136.419349 191.590416 
L 134.422655 191.468855 
L 132.425961 191.344362 
L 130.429267 191.245401 
L 128.432572 191.043672 
L 126.435878 190.952178 
L 124.439184 190.896011 
L 122.44249 190.870282 
L 120.445795 191.002901 
L 118.449101 191.131321 
L 116.452407 191.234797 
L 114.455713 191.247431 
L 112.459019 191.17048 
L 110.462324 191.077019 
L 108.46563 190.975946 
L 106.468936 190.870164 
L 104.472242 190.761785 
L 102.475548 190.66348 
L 100.478853 190.596644 
L 98.482159 190.443523 
L 96.485465 190.292305 
L 94.488771 190.24237 
L 92.492076 190.291063 
L 90.495382 190.443162 
L 88.498688 190.648499 
L 86.501994 191.097687 
L 84.5053 191.415708 
L 82.508605 191.744368 
L 80.511911 192.053015 
L 78.515217 192.343045 
L 76.518523 192.608032 
L 74.521829 192.786982 
L 72.525134 192.853426 
L 70.52844 192.858638 
L 68.531746 192.866354 
L 66.535052 192.910551 
L 64.538357 192.944785 
L 62.541663 192.967164 
L 60.544969 192.966494 
L 58.548275 192.958404 
L 56.551581 192.970285 
L 54.554886 193.07671 
" style="fill:none;stroke:#17becf;stroke-dasharray:2,3.3;stroke-dashoffset:0;stroke-width:2;"/>
   </g>
   <g id="line2d_19">
    <path clip-path="url(#p0007d84614)" d="M 252.227614 130.646704 
L 250.230919 132.457224 
L 248.234225 134.312117 
L 246.237531 136.370951 
L 244.240837 138.474761 
L 242.244143 140.455203 
L 240.247448 142.192453 
L 238.250754 143.730672 
L 236.25406 145.110062 
L 234.257366 146.470422 
L 232.260671 147.915006 
L 230.263977 149.621237 
L 228.267283 151.817208 
L 226.270589 154.105403 
L 224.273895 156.216316 
L 222.2772 157.959863 
L 220.280506 159.873379 
L 218.283812 161.850257 
L 216.287118 163.745736 
L 214.290424 165.636362 
L 212.293729 167.427195 
L 210.297035 169.054859 
L 208.300341 170.703346 
L 206.303647 172.247743 
L 204.306952 173.781895 
L 202.310258 175.212143 
L 200.313564 176.433275 
L 198.31687 177.516363 
L 196.320176 178.474151 
L 194.323481 179.2999 
L 192.326787 180.017259 
L 190.330093 180.648881 
L 188.333399 181.181756 
L 186.336705 181.620754 
L 184.34001 182.033225 
L 182.343316 182.573277 
L 180.346622 183.132604 
L 178.349928 183.649042 
L 176.353233 184.308062 
L 174.356539 184.806106 
L 172.359845 185.055585 
L 170.363151 185.192452 
L 168.366457 185.40657 
L 166.369762 185.669917 
L 164.373068 186.000151 
L 162.376374 186.438188 
L 160.37968 186.859626 
L 158.382986 187.333123 
L 156.386291 187.867472 
L 154.389597 188.622971 
L 152.392903 189.30706 
L 150.396209 189.802668 
L 148.399514 190.016092 
L 146.40282 190.144989 
L 144.406126 190.003202 
L 142.409432 189.918167 
L 140.412738 189.904213 
L 138.416043 189.960634 
L 136.419349 190.068465 
L 134.422655 190.16167 
L 132.425961 190.243851 
L 130.429267 190.268363 
L 128.432572 190.277395 
L 126.435878 190.290536 
L 124.439184 190.222254 
L 122.44249 189.940438 
L 120.445795 189.648126 
L 118.449101 190.29428 
L 116.452407 191.068576 
L 114.455713 191.500953 
L 112.459019 191.873759 
L 110.462324 192.143897 
L 108.46563 192.25382 
L 106.468936 192.19738 
L 104.472242 192.04894 
L 102.475548 191.783757 
L 100.478853 191.262837 
L 98.482159 190.674322 
L 96.485465 189.891419 
L 94.488771 188.86258 
L 92.492076 188.197326 
L 90.495382 187.571687 
L 88.498688 187.002622 
L 86.501994 186.402687 
L 84.5053 186.12097 
L 82.508605 185.811946 
L 80.511911 185.516114 
L 78.515217 185.035147 
L 76.518523 184.537089 
L 74.521829 183.88109 
L 72.525134 183.663989 
L 70.52844 183.595636 
L 68.531746 183.082101 
L 66.535052 182.594291 
L 64.538357 182.654258 
L 62.541663 182.391942 
L 60.544969 182.350686 
L 58.548275 182.404936 
L 56.551581 182.064684 
L 54.554886 181.716866 
" style="fill:none;stroke:#000000;stroke-linecap:square;stroke-width:2.5;"/>
   </g>
   <g id="line2d_20">
    <path clip-path="url(#p0007d84614)" d="M 108.46563 224.64 
L 108.46563 7.2 
" style="fill:none;stroke:#000000;stroke-dasharray:9.25,4;stroke-dashoffset:0;stroke-width:2.5;"/>
   </g>
   <g id="patch_3">
    <path d="M 44.67125 224.64 
L 44.67125 7.2 
" style="fill:none;stroke:#000000;stroke-linecap:square;stroke-linejoin:miter;stroke-width:0.8;"/>
   </g>
   <g id="patch_4">
    <path d="M 262.11125 224.64 
L 262.11125 7.2 
" style="fill:none;stroke:#000000;stroke-linecap:square;stroke-linejoin:miter;stroke-width:0.8;"/>
   </g>
   <g id="patch_5">
    <path d="M 44.67125 224.64 
L 262.11125 224.64 
" style="fill:none;stroke:#000000;stroke-linecap:square;stroke-linejoin:miter;stroke-width:0.8;"/>
   </g>
   <g id="patch_6">
    <path d="M 44.67125 7.2 
L 262.11125 7.2 
" style="fill:none;stroke:#000000;stroke-linecap:square;stroke-linejoin:miter;stroke-width:0.8;"/>
   </g>
  </g>
 </g>
 <defs>
  <clipPath id="p0007d84614">
   <rect height="217.44" width="217.44" x="44.67125" y="7.2"/>
  </clipPath>
 </defs>
</svg>
