<?xml version="1.0" encoding="utf-8" standalone="no"?>
<!DOCTYPE svg PUBLIC "-//W3C//DTD SVG 1.1//EN"
  "http://www.w3.org/Graphics/SVG/1.1/DTD/svg11.dtd">
<svg height="281.441562pt" version="1.1" viewBox="0 0 288.567926 281.441562" width="288.567926pt" xmlns="http://www.w3.org/2000/svg" xmlns:xlink="http://www.w3.org/1999/xlink">
 <metadata>
  <rdf:RDF xmlns:cc="http://creativecommons.org/ns#" xmlns:dc="http://purl.org/dc/elements/1.1/" xmlns:rdf="http://www.w3.org/1999/02/22-rdf-syntax-ns#">
   <cc:Work>
    <dc:type rdf:resource="http://purl.org/dc/dcmitype/StillImage"/>
    <dc:date>2024-09-24T17:05:02.149501</dc:date>
    <dc:format>image/svg+xml</dc:format>
    <dc:creator>
     <cc:Agent>
      <dc:title>Matplotlib v3.4.3, https://matplotlib.org/</dc:title>
     </cc:Agent>
    </dc:creator>
   </cc:Work>
  </rdf:RDF>
 </metadata>
 <defs>
  <style type="text/css">*{stroke-linecap:butt;stroke-linejoin:round;}</style>
 </defs>
 <g id="figure_1">
  <g id="patch_1">
   <path d="M 0 281.441562 
L 288.567926 281.441562 
L 288.567926 0 
L 0 0 
z
" style="fill:#ffffff;"/>
  </g>
  <g id="axes_1">
   <g id="patch_2">
    <path d="M 59.681562 224.64 
L 277.121562 224.64 
L 277.121562 7.2 
L 59.681562 7.2 
z
" style="fill:#ffffff;"/>
   </g>
   <g id="matplotlib.axis_1">
    <g id="xtick_1">
     <g id="line2d_1">
      <defs>
       <path d="M 0 0 
L 0 3.5 
" id="m91036c935d" style="stroke:#000000;stroke-width:1.5;"/>
      </defs>
      <g>
       <use style="stroke:#000000;stroke-width:1.5;" x="69.565199" xlink:href="#m91036c935d" y="224.64"/>
      </g>
     </g>
     <g id="text_1">
      <!-- $\mathdefault{10^{-3}}$ -->
      <g transform="translate(51.745199 250.2025)scale(0.18 -0.18)">
       <defs>
        <path d="M 2384 0 
L 1822 0 
L 1822 3584 
Q 1619 3391 1289 3197 
Q 959 3003 697 2906 
L 697 3450 
Q 1169 3672 1522 3987 
Q 1875 4303 2022 4600 
L 2384 4600 
L 2384 0 
z
" id="ArialMT-31" transform="scale(0.015625)"/>
        <path d="M 266 2259 
Q 266 3072 433 3567 
Q 600 4063 929 4331 
Q 1259 4600 1759 4600 
Q 2128 4600 2406 4451 
Q 2684 4303 2865 4023 
Q 3047 3744 3150 3342 
Q 3253 2941 3253 2259 
Q 3253 1453 3087 958 
Q 2922 463 2592 192 
Q 2263 -78 1759 -78 
Q 1097 -78 719 397 
Q 266 969 266 2259 
z
M 844 2259 
Q 844 1131 1108 757 
Q 1372 384 1759 384 
Q 2147 384 2411 759 
Q 2675 1134 2675 2259 
Q 2675 3391 2411 3762 
Q 2147 4134 1753 4134 
Q 1366 4134 1134 3806 
Q 844 3388 844 2259 
z
" id="ArialMT-30" transform="scale(0.015625)"/>
        <path d="M 3381 1997 
L 356 1997 
L 356 2522 
L 3381 2522 
L 3381 1997 
z
" id="ArialMT-2212" transform="scale(0.015625)"/>
        <path d="M 269 1209 
L 831 1284 
Q 928 806 1161 595 
Q 1394 384 1728 384 
Q 2125 384 2398 659 
Q 2672 934 2672 1341 
Q 2672 1728 2419 1979 
Q 2166 2231 1775 2231 
Q 1616 2231 1378 2169 
L 1441 2663 
Q 1497 2656 1531 2656 
Q 1891 2656 2178 2843 
Q 2466 3031 2466 3422 
Q 2466 3731 2256 3934 
Q 2047 4138 1716 4138 
Q 1388 4138 1169 3931 
Q 950 3725 888 3313 
L 325 3413 
Q 428 3978 793 4289 
Q 1159 4600 1703 4600 
Q 2078 4600 2393 4439 
Q 2709 4278 2876 4000 
Q 3044 3722 3044 3409 
Q 3044 3113 2884 2869 
Q 2725 2625 2413 2481 
Q 2819 2388 3044 2092 
Q 3269 1797 3269 1353 
Q 3269 753 2831 336 
Q 2394 -81 1725 -81 
Q 1122 -81 723 278 
Q 325 638 269 1209 
z
" id="ArialMT-33" transform="scale(0.015625)"/>
       </defs>
       <use transform="translate(0 0.99375)" xlink:href="#ArialMT-31"/>
       <use transform="translate(55.615234 0.99375)" xlink:href="#ArialMT-30"/>
       <use transform="translate(112.972813 70.6875)scale(0.7)" xlink:href="#ArialMT-2212"/>
       <use transform="translate(153.851719 70.6875)scale(0.7)" xlink:href="#ArialMT-33"/>
      </g>
     </g>
    </g>
    <g id="xtick_2">
     <g id="line2d_2">
      <g>
       <use style="stroke:#000000;stroke-width:1.5;" x="135.456108" xlink:href="#m91036c935d" y="224.64"/>
      </g>
     </g>
     <g id="text_2">
      <!-- $\mathdefault{10^{-2}}$ -->
      <g transform="translate(117.636108 250.2025)scale(0.18 -0.18)">
       <defs>
        <path d="M 3222 541 
L 3222 0 
L 194 0 
Q 188 203 259 391 
Q 375 700 629 1000 
Q 884 1300 1366 1694 
Q 2113 2306 2375 2664 
Q 2638 3022 2638 3341 
Q 2638 3675 2398 3904 
Q 2159 4134 1775 4134 
Q 1369 4134 1125 3890 
Q 881 3647 878 3216 
L 300 3275 
Q 359 3922 746 4261 
Q 1134 4600 1788 4600 
Q 2447 4600 2831 4234 
Q 3216 3869 3216 3328 
Q 3216 3053 3103 2787 
Q 2991 2522 2730 2228 
Q 2469 1934 1863 1422 
Q 1356 997 1212 845 
Q 1069 694 975 541 
L 3222 541 
z
" id="ArialMT-32" transform="scale(0.015625)"/>
       </defs>
       <use transform="translate(0 0.99375)" xlink:href="#ArialMT-31"/>
       <use transform="translate(55.615234 0.99375)" xlink:href="#ArialMT-30"/>
       <use transform="translate(112.972813 70.6875)scale(0.7)" xlink:href="#ArialMT-2212"/>
       <use transform="translate(153.851719 70.6875)scale(0.7)" xlink:href="#ArialMT-32"/>
      </g>
     </g>
    </g>
    <g id="xtick_3">
     <g id="line2d_3">
      <g>
       <use style="stroke:#000000;stroke-width:1.5;" x="201.347017" xlink:href="#m91036c935d" y="224.64"/>
      </g>
     </g>
     <g id="text_3">
      <!-- $\mathdefault{10^{-1}}$ -->
      <g transform="translate(183.527017 250.2025)scale(0.18 -0.18)">
       <use transform="translate(0 0.99375)" xlink:href="#ArialMT-31"/>
       <use transform="translate(55.615234 0.99375)" xlink:href="#ArialMT-30"/>
       <use transform="translate(112.972813 70.6875)scale(0.7)" xlink:href="#ArialMT-2212"/>
       <use transform="translate(153.851719 70.6875)scale(0.7)" xlink:href="#ArialMT-31"/>
      </g>
     </g>
    </g>
    <g id="xtick_4">
     <g id="line2d_4">
      <g>
       <use style="stroke:#000000;stroke-width:1.5;" x="267.237926" xlink:href="#m91036c935d" y="224.64"/>
      </g>
     </g>
     <g id="text_4">
      <!-- $\mathdefault{10^{0}}$ -->
      <g transform="translate(253.107926 250.2025)scale(0.18 -0.18)">
       <use transform="translate(0 0.99375)" xlink:href="#ArialMT-31"/>
       <use transform="translate(55.615234 0.99375)" xlink:href="#ArialMT-30"/>
       <use transform="translate(112.972813 70.6875)scale(0.7)" xlink:href="#ArialMT-30"/>
      </g>
     </g>
    </g>
    <g id="text_5">
     <!-- α -->
     <g transform="translate(163.198438 270.664062)scale(0.18 -0.18)">
      <defs>
       <path d="M 2884 3319 
L 3459 3319 
Q 3241 2631 3056 1659 
Q 3275 453 3459 0 
L 2900 0 
Q 2766 313 2697 606 
Q 2438 -75 1613 -75 
Q 988 -75 606 394 
Q 225 863 225 1666 
Q 225 2491 608 2942 
Q 991 3394 1622 3394 
Q 2013 3394 2259 3236 
Q 2506 3078 2719 2756 
Q 2741 2866 2884 3319 
z
M 1716 2928 
Q 1313 2928 1078 2603 
Q 844 2278 844 1666 
Q 844 1069 1066 728 
Q 1288 388 1684 388 
Q 2072 388 2331 723 
Q 2591 1059 2591 1691 
Q 2591 2303 2348 2615 
Q 2106 2928 1716 2928 
z
" id="ArialMT-3b1" transform="scale(0.015625)"/>
      </defs>
      <use xlink:href="#ArialMT-3b1"/>
     </g>
    </g>
   </g>
   <g id="matplotlib.axis_2">
    <g id="ytick_1">
     <g id="line2d_5">
      <defs>
       <path d="M 0 0 
L -3.5 0 
" id="m84604ba11a" style="stroke:#000000;stroke-width:1.5;"/>
      </defs>
      <g>
       <use style="stroke:#000000;stroke-width:1.5;" x="59.681562" xlink:href="#m84604ba11a" y="182.306582"/>
      </g>
     </g>
     <g id="text_6">
      <!-- 1.0 -->
      <g transform="translate(27.661562 188.748614)scale(0.18 -0.18)">
       <defs>
        <path d="M 581 0 
L 581 641 
L 1222 641 
L 1222 0 
L 581 0 
z
" id="ArialMT-2e" transform="scale(0.015625)"/>
       </defs>
       <use xlink:href="#ArialMT-31"/>
       <use x="55.615234" xlink:href="#ArialMT-2e"/>
       <use x="83.398438" xlink:href="#ArialMT-30"/>
      </g>
     </g>
    </g>
    <g id="ytick_2">
     <g id="line2d_6">
      <g>
       <use style="stroke:#000000;stroke-width:1.5;" x="59.681562" xlink:href="#m84604ba11a" y="135.602886"/>
      </g>
     </g>
     <g id="text_7">
      <!-- 1.5 -->
      <g transform="translate(27.661562 142.044917)scale(0.18 -0.18)">
       <defs>
        <path d="M 266 1200 
L 856 1250 
Q 922 819 1161 601 
Q 1400 384 1738 384 
Q 2144 384 2425 690 
Q 2706 997 2706 1503 
Q 2706 1984 2436 2262 
Q 2166 2541 1728 2541 
Q 1456 2541 1237 2417 
Q 1019 2294 894 2097 
L 366 2166 
L 809 4519 
L 3088 4519 
L 3088 3981 
L 1259 3981 
L 1013 2750 
Q 1425 3038 1878 3038 
Q 2478 3038 2890 2622 
Q 3303 2206 3303 1553 
Q 3303 931 2941 478 
Q 2500 -78 1738 -78 
Q 1113 -78 717 272 
Q 322 622 266 1200 
z
" id="ArialMT-35" transform="scale(0.015625)"/>
       </defs>
       <use xlink:href="#ArialMT-31"/>
       <use x="55.615234" xlink:href="#ArialMT-2e"/>
       <use x="83.398438" xlink:href="#ArialMT-35"/>
      </g>
     </g>
    </g>
    <g id="ytick_3">
     <g id="line2d_7">
      <g>
       <use style="stroke:#000000;stroke-width:1.5;" x="59.681562" xlink:href="#m84604ba11a" y="88.89919"/>
      </g>
     </g>
     <g id="text_8">
      <!-- 2.0 -->
      <g transform="translate(27.661562 95.341221)scale(0.18 -0.18)">
       <use xlink:href="#ArialMT-32"/>
       <use x="55.615234" xlink:href="#ArialMT-2e"/>
       <use x="83.398438" xlink:href="#ArialMT-30"/>
      </g>
     </g>
    </g>
    <g id="ytick_4">
     <g id="line2d_8">
      <g>
       <use style="stroke:#000000;stroke-width:1.5;" x="59.681562" xlink:href="#m84604ba11a" y="42.195494"/>
      </g>
     </g>
     <g id="text_9">
      <!-- 2.5 -->
      <g transform="translate(27.661562 48.637525)scale(0.18 -0.18)">
       <use xlink:href="#ArialMT-32"/>
       <use x="55.615234" xlink:href="#ArialMT-2e"/>
       <use x="83.398438" xlink:href="#ArialMT-35"/>
      </g>
     </g>
    </g>
    <g id="text_10">
     <!-- RMSE -->
     <g transform="translate(20.084062 141.922969)rotate(-90)scale(0.18 -0.18)">
      <defs>
       <path d="M 503 0 
L 503 4581 
L 2534 4581 
Q 3147 4581 3465 4457 
Q 3784 4334 3975 4021 
Q 4166 3709 4166 3331 
Q 4166 2844 3850 2509 
Q 3534 2175 2875 2084 
Q 3116 1969 3241 1856 
Q 3506 1613 3744 1247 
L 4541 0 
L 3778 0 
L 3172 953 
Q 2906 1366 2734 1584 
Q 2563 1803 2427 1890 
Q 2291 1978 2150 2013 
Q 2047 2034 1813 2034 
L 1109 2034 
L 1109 0 
L 503 0 
z
M 1109 2559 
L 2413 2559 
Q 2828 2559 3062 2645 
Q 3297 2731 3419 2920 
Q 3541 3109 3541 3331 
Q 3541 3656 3305 3865 
Q 3069 4075 2559 4075 
L 1109 4075 
L 1109 2559 
z
" id="ArialMT-52" transform="scale(0.015625)"/>
       <path d="M 475 0 
L 475 4581 
L 1388 4581 
L 2472 1338 
Q 2622 884 2691 659 
Q 2769 909 2934 1394 
L 4031 4581 
L 4847 4581 
L 4847 0 
L 4263 0 
L 4263 3834 
L 2931 0 
L 2384 0 
L 1059 3900 
L 1059 0 
L 475 0 
z
" id="ArialMT-4d" transform="scale(0.015625)"/>
       <path d="M 288 1472 
L 859 1522 
Q 900 1178 1048 958 
Q 1197 738 1509 602 
Q 1822 466 2213 466 
Q 2559 466 2825 569 
Q 3091 672 3220 851 
Q 3350 1031 3350 1244 
Q 3350 1459 3225 1620 
Q 3100 1781 2813 1891 
Q 2628 1963 1997 2114 
Q 1366 2266 1113 2400 
Q 784 2572 623 2826 
Q 463 3081 463 3397 
Q 463 3744 659 4045 
Q 856 4347 1234 4503 
Q 1613 4659 2075 4659 
Q 2584 4659 2973 4495 
Q 3363 4331 3572 4012 
Q 3781 3694 3797 3291 
L 3216 3247 
Q 3169 3681 2898 3903 
Q 2628 4125 2100 4125 
Q 1550 4125 1298 3923 
Q 1047 3722 1047 3438 
Q 1047 3191 1225 3031 
Q 1400 2872 2139 2705 
Q 2878 2538 3153 2413 
Q 3553 2228 3743 1945 
Q 3934 1663 3934 1294 
Q 3934 928 3725 604 
Q 3516 281 3123 101 
Q 2731 -78 2241 -78 
Q 1619 -78 1198 103 
Q 778 284 539 648 
Q 300 1013 288 1472 
z
" id="ArialMT-53" transform="scale(0.015625)"/>
       <path d="M 506 0 
L 506 4581 
L 3819 4581 
L 3819 4041 
L 1113 4041 
L 1113 2638 
L 3647 2638 
L 3647 2100 
L 1113 2100 
L 1113 541 
L 3925 541 
L 3925 0 
L 506 0 
z
" id="ArialMT-45" transform="scale(0.015625)"/>
      </defs>
      <use xlink:href="#ArialMT-52"/>
      <use x="72.216797" xlink:href="#ArialMT-4d"/>
      <use x="155.517578" xlink:href="#ArialMT-53"/>
      <use x="222.216797" xlink:href="#ArialMT-45"/>
     </g>
    </g>
   </g>
   <g id="line2d_9">
    <path clip-path="url(#p6d69977961)" d="M 267.237926 67.136093 
L 265.241232 71.838016 
L 263.244538 76.05704 
L 261.247843 80.318315 
L 259.251149 84.024549 
L 257.254455 87.250773 
L 255.257761 90.012759 
L 253.261067 92.377204 
L 251.264372 94.961292 
L 249.267678 97.115958 
L 247.270984 98.74376 
L 245.27429 100.158083 
L 243.277596 101.701547 
L 241.280901 102.610276 
L 239.284207 103.262532 
L 237.287513 103.425616 
L 235.290819 103.265299 
L 233.294124 103.482775 
L 231.29743 103.95519 
L 229.300736 104.318708 
L 227.304042 105.214029 
L 225.307348 106.062303 
L 223.310653 107.060174 
L 221.313959 108.183323 
L 219.317265 109.177574 
L 217.320571 109.649633 
L 215.323877 109.913709 
L 213.327182 110.728872 
L 211.330488 112.081259 
L 209.333794 113.294585 
L 207.3371 114.389183 
L 205.340405 115.377486 
L 203.343711 116.270412 
L 201.347017 117.860462 
L 199.350323 121.867875 
L 197.353629 125.614363 
L 195.356934 129.973479 
L 193.36024 134.150767 
L 191.363546 138.753648 
L 189.366852 142.948176 
L 187.370158 147.007099 
L 185.373463 149.466272 
L 183.376769 150.789172 
L 181.380075 152.520625 
L 179.383381 154.131541 
L 177.386686 155.576575 
L 175.389992 157.128283 
L 173.393298 159.460215 
L 171.396604 161.463338 
L 169.39991 162.847704 
L 167.403215 163.99937 
L 165.406521 164.907569 
L 163.409827 165.610741 
L 161.413133 166.173503 
L 159.416439 166.786526 
L 157.419744 168.273475 
L 155.42305 169.308904 
L 153.426356 169.82603 
L 151.429662 170.233204 
L 149.432967 170.595811 
L 147.436273 170.939606 
L 145.439579 172.329876 
L 143.442885 174.337867 
L 141.446191 177.035549 
L 139.449496 179.020374 
L 137.452802 180.435715 
L 135.456108 180.989492 
L 133.459414 181.578686 
L 131.46272 181.950456 
L 129.466025 182.102272 
L 127.469331 182.390283 
L 125.472637 182.617107 
L 123.475943 182.793906 
L 121.479248 182.761618 
L 119.482554 182.518705 
L 117.48586 182.224158 
L 115.489166 181.891452 
L 113.492472 181.525146 
L 111.495777 180.904825 
L 109.499083 178.369518 
L 107.502389 173.887279 
L 105.505695 170.352802 
L 103.509001 166.888972 
L 101.512306 163.452242 
L 99.515612 159.243643 
L 97.518918 153.705417 
L 95.522224 147.770565 
L 93.525529 145.989707 
L 91.528835 145.312121 
L 89.532141 145.477846 
L 87.535447 145.371153 
L 85.538753 145.618486 
L 83.542058 146.181248 
L 81.545364 145.601063 
L 79.54867 145.14575 
L 77.551976 144.487604 
L 75.555282 143.783154 
L 73.558587 142.925365 
L 71.561893 141.874629 
L 69.565199 139.677354 
" style="fill:none;stroke:#1f77b4;stroke-dasharray:2,3.3;stroke-dashoffset:0;stroke-width:2;"/>
   </g>
   <g id="line2d_10">
    <path clip-path="url(#p6d69977961)" d="M 267.237926 65.187422 
L 265.241232 69.995979 
L 263.244538 75.501722 
L 261.247843 81.597732 
L 259.251149 87.482464 
L 257.254455 92.89557 
L 255.257761 97.867604 
L 253.261067 102.704258 
L 251.264372 110.406058 
L 249.267678 120.430996 
L 247.270984 129.59185 
L 245.27429 137.901361 
L 243.277596 145.32691 
L 241.280901 151.985555 
L 239.284207 158.028456 
L 237.287513 163.276497 
L 235.290819 167.664152 
L 233.294124 171.318702 
L 231.29743 175.815007 
L 229.300736 179.878075 
L 227.304042 183.760598 
L 225.307348 187.369089 
L 223.310653 190.042037 
L 221.313959 191.86102 
L 219.317265 193.332356 
L 217.320571 194.493388 
L 215.323877 195.573605 
L 213.327182 196.625724 
L 211.330488 197.46106 
L 209.333794 198.026779 
L 207.3371 198.208435 
L 205.340405 198.218571 
L 203.343711 199.555926 
L 201.347017 200.815152 
L 199.350323 202.179763 
L 197.353629 203.335591 
L 195.356934 204.200547 
L 193.36024 204.934748 
L 191.363546 205.526024 
L 189.366852 206.223029 
L 187.370158 207.033538 
L 185.373463 207.922375 
L 183.376769 208.595537 
L 181.380075 208.368711 
L 179.383381 207.8825 
L 177.386686 208.735406 
L 175.389992 209.56557 
L 173.393298 210.238203 
L 171.396604 210.752932 
L 169.39991 210.843265 
L 167.403215 210.904314 
L 165.406521 210.966978 
L 163.409827 211.067152 
L 161.413133 211.284877 
L 159.416439 211.795389 
L 157.419744 212.330322 
L 155.42305 212.785063 
L 153.426356 213.179762 
L 151.429662 213.511308 
L 149.432967 213.6173 
L 147.436273 213.677131 
L 145.439579 213.680025 
L 143.442885 214.111372 
L 141.446191 214.599455 
L 139.449496 214.756364 
L 137.452802 214.592553 
L 135.456108 214.241645 
L 133.459414 213.995924 
L 131.46272 213.981562 
L 129.466025 213.92406 
L 127.469331 213.771085 
L 125.472637 213.380489 
L 123.475943 212.80092 
L 121.479248 212.159055 
L 119.482554 211.724941 
L 117.48586 211.327227 
L 115.489166 210.925329 
L 113.492472 210.35017 
L 111.495777 209.855184 
L 109.499083 209.367445 
L 107.502389 208.914628 
L 105.505695 208.4938 
L 103.509001 208.156933 
L 101.512306 207.759752 
L 99.515612 207.362813 
L 97.518918 206.977627 
L 95.522224 206.569464 
L 93.525529 206.162147 
L 91.528835 205.778775 
L 89.532141 205.420645 
L 87.535447 205.222951 
L 85.538753 205.096978 
L 83.542058 204.924073 
L 81.545364 204.607684 
L 79.54867 204.197553 
L 77.551976 203.847692 
L 75.555282 203.512696 
L 73.558587 203.182396 
L 71.561893 202.806464 
L 69.565199 202.487852 
" style="fill:none;stroke:#ff7f0e;stroke-dasharray:2,3.3;stroke-dashoffset:0;stroke-width:2;"/>
   </g>
   <g id="line2d_11">
    <path clip-path="url(#p6d69977961)" d="M 267.237926 101.557891 
L 265.241232 104.219133 
L 263.244538 106.438706 
L 261.247843 108.271262 
L 259.251149 110.242736 
L 257.254455 113.444487 
L 255.257761 117.705404 
L 253.261067 121.570056 
L 251.264372 124.339337 
L 249.267678 126.221128 
L 247.270984 127.34358 
L 245.27429 127.826464 
L 243.277596 127.781691 
L 241.280901 127.310986 
L 239.284207 128.114091 
L 237.287513 129.608681 
L 235.290819 130.842248 
L 233.294124 131.956754 
L 231.29743 132.645072 
L 229.300736 133.182126 
L 227.304042 138.686739 
L 225.307348 141.303139 
L 223.310653 142.955416 
L 221.313959 145.80548 
L 219.317265 148.405089 
L 217.320571 150.705431 
L 215.323877 152.294027 
L 213.327182 153.328569 
L 211.330488 154.139642 
L 209.333794 154.909525 
L 207.3371 155.628619 
L 205.340405 156.393694 
L 203.343711 156.907844 
L 201.347017 157.211311 
L 199.350323 157.358984 
L 197.353629 157.411189 
L 195.356934 157.392636 
L 193.36024 157.253602 
L 191.363546 157.016281 
L 189.366852 157.196917 
L 187.370158 157.397875 
L 185.373463 157.565693 
L 183.376769 158.021136 
L 181.380075 158.349191 
L 179.383381 157.706983 
L 177.386686 157.010686 
L 175.389992 156.305321 
L 173.393298 156.505814 
L 171.396604 156.543133 
L 169.39991 156.233984 
L 167.403215 155.836039 
L 165.406521 155.574667 
L 163.409827 155.297275 
L 161.413133 155.043409 
L 159.416439 157.099641 
L 157.419744 157.491639 
L 155.42305 156.454703 
L 153.426356 154.279506 
L 151.429662 150.95104 
L 149.432967 146.875359 
L 147.436273 144.833975 
L 145.439579 143.951447 
L 143.442885 142.39667 
L 141.446191 140.90137 
L 139.449496 139.418235 
L 137.452802 137.384615 
L 135.456108 135.931979 
L 133.459414 134.73667 
L 131.46272 133.068551 
L 129.466025 135.103002 
L 127.469331 139.575 
L 125.472637 142.000115 
L 123.475943 142.572555 
L 121.479248 143.639924 
L 119.482554 144.651047 
L 117.48586 144.588294 
L 115.489166 142.144534 
L 113.492472 138.522492 
L 111.495777 133.613378 
L 109.499083 127.99198 
L 107.502389 122.033688 
L 105.505695 116.185169 
L 103.509001 110.051024 
L 101.512306 102.618022 
L 99.515612 95.015624 
L 97.518918 86.221147 
L 95.522224 78.900007 
L 93.525529 72.441251 
L 91.528835 69.007817 
L 89.532141 66.093464 
L 87.535447 63.245315 
L 85.538753 60.505027 
L 83.542058 54.516844 
L 81.545364 49.029818 
L 79.54867 43.786522 
L 77.551976 37.315888 
L 75.555282 32.158323 
L 73.558587 27.559108 
L 71.561893 21.962027 
L 69.565199 17.083636 
" style="fill:none;stroke:#2ca02c;stroke-dasharray:2,3.3;stroke-dashoffset:0;stroke-width:2;"/>
   </g>
   <g id="line2d_12">
    <path clip-path="url(#p6d69977961)" d="M 267.237926 83.234061 
L 265.241232 86.031941 
L 263.244538 88.500882 
L 261.247843 90.676605 
L 259.251149 93.650968 
L 257.254455 96.962268 
L 255.257761 101.25221 
L 253.261067 105.052634 
L 251.264372 108.600307 
L 249.267678 112.600241 
L 247.270984 117.491106 
L 245.27429 122.357182 
L 243.277596 127.18154 
L 241.280901 132.842978 
L 239.284207 138.192337 
L 237.287513 143.92088 
L 235.290819 149.248975 
L 233.294124 154.078235 
L 231.29743 158.368013 
L 229.300736 162.161564 
L 227.304042 165.557134 
L 225.307348 168.596065 
L 223.310653 172.810317 
L 221.313959 176.819982 
L 219.317265 180.287783 
L 217.320571 182.954643 
L 215.323877 185.005433 
L 213.327182 186.675213 
L 211.330488 187.983404 
L 209.333794 188.868664 
L 207.3371 189.39582 
L 205.340405 189.707428 
L 203.343711 189.964275 
L 201.347017 190.052163 
L 199.350323 189.971772 
L 197.353629 189.769697 
L 195.356934 189.472127 
L 193.36024 189.100144 
L 191.363546 188.791729 
L 189.366852 188.606315 
L 187.370158 188.372512 
L 185.373463 188.004046 
L 183.376769 187.675866 
L 181.380075 187.428057 
L 179.383381 187.352028 
L 177.386686 187.336821 
L 175.389992 187.284515 
L 173.393298 187.202665 
L 171.396604 187.034153 
L 169.39991 186.827376 
L 167.403215 186.510346 
L 165.406521 186.189174 
L 163.409827 185.805425 
L 161.413133 185.465943 
L 159.416439 185.19073 
L 157.419744 184.944358 
L 155.42305 184.956484 
L 153.426356 185.018788 
L 151.429662 184.995626 
L 149.432967 184.845994 
L 147.436273 184.810822 
L 145.439579 184.954777 
L 143.442885 185.114965 
L 141.446191 186.152249 
L 139.449496 187.394104 
L 137.452802 188.504817 
L 135.456108 189.49456 
L 133.459414 190.22012 
L 131.46272 190.794579 
L 129.466025 191.303668 
L 127.469331 191.65225 
L 125.472637 192.094775 
L 123.475943 192.810171 
L 121.479248 193.47283 
L 119.482554 194.15574 
L 117.48586 194.83193 
L 115.489166 195.42711 
L 113.492472 195.959598 
L 111.495777 196.427787 
L 109.499083 196.84638 
L 107.502389 197.244233 
L 105.505695 197.616216 
L 103.509001 197.952774 
L 101.512306 198.254092 
L 99.515612 198.532305 
L 97.518918 198.787001 
L 95.522224 198.998333 
L 93.525529 199.182228 
L 91.528835 199.356617 
L 89.532141 199.497023 
L 87.535447 199.613838 
L 85.538753 199.844877 
L 83.542058 200.152351 
L 81.545364 200.612404 
L 79.54867 200.969654 
L 77.551976 201.186374 
L 75.555282 201.354132 
L 73.558587 201.575942 
L 71.561893 201.718406 
L 69.565199 201.86163 
" style="fill:none;stroke:#d62728;stroke-dasharray:2,3.3;stroke-dashoffset:0;stroke-width:2;"/>
   </g>
   <g id="line2d_13">
    <path clip-path="url(#p6d69977961)" d="M 267.237926 85.410434 
L 265.241232 87.643329 
L 263.244538 89.563278 
L 261.247843 91.207964 
L 259.251149 93.075946 
L 257.254455 95.811936 
L 255.257761 99.275075 
L 253.261067 102.346103 
L 251.264372 104.979035 
L 249.267678 107.330403 
L 247.270984 109.429064 
L 245.27429 111.301095 
L 243.277596 112.970191 
L 241.280901 115.226368 
L 239.284207 118.263073 
L 237.287513 121.156478 
L 235.290819 124.543619 
L 233.294124 127.585877 
L 231.29743 130.646918 
L 229.300736 133.423365 
L 227.304042 135.862718 
L 225.307348 137.880714 
L 223.310653 140.26456 
L 221.313959 142.650507 
L 219.317265 145.214547 
L 217.320571 147.565851 
L 215.323877 149.719891 
L 213.327182 151.69515 
L 211.330488 153.511986 
L 209.333794 155.283453 
L 207.3371 157.191736 
L 205.340405 158.953591 
L 203.343711 160.677444 
L 201.347017 162.609353 
L 199.350323 164.204298 
L 197.353629 165.653166 
L 195.356934 166.971058 
L 193.36024 168.364538 
L 191.363546 169.277685 
L 189.366852 169.929551 
L 187.370158 170.52021 
L 185.373463 171.147338 
L 183.376769 171.876952 
L 181.380075 172.282038 
L 179.383381 172.526518 
L 177.386686 173.425932 
L 175.389992 174.485467 
L 173.393298 175.46338 
L 171.396604 176.028963 
L 169.39991 176.554625 
L 167.403215 177.035123 
L 165.406521 177.473577 
L 163.409827 177.87746 
L 161.413133 178.193419 
L 159.416439 178.277419 
L 157.419744 178.319623 
L 155.42305 178.658601 
L 153.426356 179.026516 
L 151.429662 179.481652 
L 149.432967 179.724729 
L 147.436273 179.830418 
L 145.439579 179.983869 
L 143.442885 180.135208 
L 141.446191 180.310491 
L 139.449496 181.10613 
L 137.452802 182.74131 
L 135.456108 184.23599 
L 133.459414 185.789605 
L 131.46272 187.230829 
L 129.466025 188.423951 
L 127.469331 189.505038 
L 125.472637 190.249814 
L 123.475943 191.042692 
L 121.479248 191.837347 
L 119.482554 192.585811 
L 117.48586 193.193755 
L 115.489166 193.868743 
L 113.492472 194.344852 
L 111.495777 194.652314 
L 109.499083 194.916296 
L 107.502389 195.148367 
L 105.505695 195.601318 
L 103.509001 196.071188 
L 101.512306 196.489776 
L 99.515612 196.917189 
L 97.518918 197.595303 
L 95.522224 198.199094 
L 93.525529 198.701613 
L 91.528835 199.116199 
L 89.532141 199.51979 
L 87.535447 199.882943 
L 85.538753 200.047366 
L 83.542058 199.983106 
L 81.545364 200.198387 
L 79.54867 200.711882 
L 77.551976 201.38446 
L 75.555282 201.934886 
L 73.558587 202.311203 
L 71.561893 202.606087 
L 69.565199 202.807218 
" style="fill:none;stroke:#9467bd;stroke-dasharray:2,3.3;stroke-dashoffset:0;stroke-width:2;"/>
   </g>
   <g id="line2d_14">
    <path clip-path="url(#p6d69977961)" d="M 267.237926 67.645402 
L 265.241232 69.804024 
L 263.244538 71.543618 
L 261.247843 72.851567 
L 259.251149 73.826587 
L 257.254455 74.519712 
L 255.257761 74.976125 
L 253.261067 77.51597 
L 251.264372 80.334147 
L 249.267678 83.125437 
L 247.270984 85.594239 
L 245.27429 87.870379 
L 243.277596 92.022267 
L 241.280901 96.948675 
L 239.284207 101.374121 
L 237.287513 105.373947 
L 235.290819 110.249428 
L 233.294124 114.578261 
L 231.29743 119.099988 
L 229.300736 123.527053 
L 227.304042 127.491805 
L 225.307348 131.512124 
L 223.310653 135.184498 
L 221.313959 138.423972 
L 219.317265 141.418714 
L 217.320571 144.110426 
L 215.323877 146.526202 
L 213.327182 148.956947 
L 211.330488 151.254906 
L 209.333794 153.301564 
L 207.3371 155.111699 
L 205.340405 156.829779 
L 203.343711 158.795011 
L 201.347017 160.56515 
L 199.350323 162.166822 
L 197.353629 163.510161 
L 195.356934 164.572784 
L 193.36024 165.525112 
L 191.363546 166.28954 
L 189.366852 166.872183 
L 187.370158 167.31097 
L 185.373463 167.567317 
L 183.376769 167.650372 
L 181.380075 167.705228 
L 179.383381 167.819017 
L 177.386686 167.905068 
L 175.389992 167.966393 
L 173.393298 168.008269 
L 171.396604 168.124831 
L 169.39991 168.356639 
L 167.403215 168.464353 
L 165.406521 168.549611 
L 163.409827 168.615914 
L 161.413133 168.543382 
L 159.416439 168.286226 
L 157.419744 168.299737 
L 155.42305 168.12681 
L 153.426356 167.721102 
L 151.429662 167.262675 
L 149.432967 166.770152 
L 147.436273 166.297663 
L 145.439579 165.911065 
L 143.442885 165.614567 
L 141.446191 165.308749 
L 139.449496 165.549609 
L 137.452802 165.89949 
L 135.456108 165.977445 
L 133.459414 165.709909 
L 131.46272 165.607206 
L 129.466025 165.510228 
L 127.469331 165.682791 
L 125.472637 165.830959 
L 123.475943 165.946141 
L 121.479248 166.033391 
L 119.482554 166.09716 
L 117.48586 166.074195 
L 115.489166 165.806554 
L 113.492472 165.476662 
L 111.495777 165.153127 
L 109.499083 164.85108 
L 107.502389 164.445882 
L 105.505695 164.005792 
L 103.509001 163.058264 
L 101.512306 162.271367 
L 99.515612 161.94205 
L 97.518918 161.728345 
L 95.522224 161.304536 
L 93.525529 160.373543 
L 91.528835 159.388304 
L 89.532141 158.506721 
L 87.535447 157.809174 
L 85.538753 157.089668 
L 83.542058 156.335384 
L 81.545364 155.303164 
L 79.54867 154.187912 
L 77.551976 152.964785 
L 75.555282 151.654504 
L 73.558587 149.485699 
L 71.561893 148.558444 
L 69.565199 147.518902 
" style="fill:none;stroke:#8c564b;stroke-dasharray:2,3.3;stroke-dashoffset:0;stroke-width:2;"/>
   </g>
   <g id="line2d_15">
    <path clip-path="url(#p6d69977961)" d="M 267.237926 60.48025 
L 265.241232 63.050193 
L 263.244538 65.313288 
L 261.247843 67.303879 
L 259.251149 69.053465 
L 257.254455 70.89857 
L 255.257761 75.118754 
L 253.261067 79.524283 
L 251.264372 83.539529 
L 249.267678 87.192239 
L 247.270984 91.430386 
L 245.27429 95.804744 
L 243.277596 100.701848 
L 241.280901 105.273952 
L 239.284207 109.747181 
L 237.287513 114.252969 
L 235.290819 118.347352 
L 233.294124 121.953332 
L 231.29743 125.498565 
L 229.300736 129.73903 
L 227.304042 134.047013 
L 225.307348 137.950522 
L 223.310653 141.477407 
L 221.313959 144.507744 
L 219.317265 146.76398 
L 217.320571 149.029675 
L 215.323877 151.250131 
L 213.327182 153.366495 
L 211.330488 155.311163 
L 209.333794 157.047417 
L 207.3371 158.558847 
L 205.340405 160.278788 
L 203.343711 162.660878 
L 201.347017 164.779779 
L 199.350323 166.667886 
L 197.353629 168.473662 
L 195.356934 170.46684 
L 193.36024 172.502771 
L 191.363546 174.341399 
L 189.366852 175.990166 
L 187.370158 177.468406 
L 185.373463 178.795162 
L 183.376769 179.613933 
L 181.380075 180.052975 
L 179.383381 180.491518 
L 177.386686 181.181691 
L 175.389992 182.188624 
L 173.393298 183.8805 
L 171.396604 185.407984 
L 169.39991 186.786816 
L 167.403215 188.088249 
L 165.406521 189.663579 
L 163.409827 191.091063 
L 161.413133 192.463407 
L 159.416439 193.737038 
L 157.419744 194.853168 
L 155.42305 195.635771 
L 153.426356 196.352319 
L 151.429662 196.9207 
L 149.432967 197.385779 
L 147.436273 198.126476 
L 145.439579 199.19779 
L 143.442885 200.289392 
L 141.446191 201.250819 
L 139.449496 201.911881 
L 137.452802 202.532449 
L 135.456108 203.276806 
L 133.459414 204.068293 
L 131.46272 204.766066 
L 129.466025 205.583182 
L 127.469331 206.406721 
L 125.472637 207.139977 
L 123.475943 207.558703 
L 121.479248 207.764255 
L 119.482554 207.916709 
L 117.48586 208.070861 
L 115.489166 208.256563 
L 113.492472 208.435543 
L 111.495777 208.605055 
L 109.499083 208.386501 
L 107.502389 207.910258 
L 105.505695 207.381554 
L 103.509001 206.810815 
L 101.512306 206.133804 
L 99.515612 205.490765 
L 97.518918 204.917526 
L 95.522224 204.366182 
L 93.525529 203.856097 
L 91.528835 203.154952 
L 89.532141 202.656148 
L 87.535447 202.062914 
L 85.538753 201.281665 
L 83.542058 200.51802 
L 81.545364 199.694874 
L 79.54867 198.747783 
L 77.551976 197.803911 
L 75.555282 197.130688 
L 73.558587 196.429863 
L 71.561893 195.79211 
L 69.565199 195.220693 
" style="fill:none;stroke:#e377c2;stroke-dasharray:2,3.3;stroke-dashoffset:0;stroke-width:2;"/>
   </g>
   <g id="line2d_16">
    <path clip-path="url(#p6d69977961)" d="M 267.237926 55.015516 
L 265.241232 55.927814 
L 263.244538 56.630747 
L 261.247843 57.156708 
L 259.251149 57.533235 
L 257.254455 59.150696 
L 255.257761 61.778816 
L 253.261067 65.33283 
L 251.264372 68.48863 
L 249.267678 71.287403 
L 247.270984 75.622738 
L 245.27429 80.218381 
L 243.277596 85.068451 
L 241.280901 89.599119 
L 239.284207 93.746866 
L 237.287513 97.424464 
L 235.290819 100.881068 
L 233.294124 106.473747 
L 231.29743 111.567327 
L 229.300736 116.247449 
L 227.304042 120.217156 
L 225.307348 123.359176 
L 223.310653 126.165739 
L 221.313959 129.188291 
L 219.317265 131.923026 
L 217.320571 134.458766 
L 215.323877 136.74056 
L 213.327182 138.79746 
L 211.330488 140.654988 
L 209.333794 142.333065 
L 207.3371 144.118006 
L 205.340405 145.95779 
L 203.343711 147.754959 
L 201.347017 149.398448 
L 199.350323 150.929993 
L 197.353629 152.211353 
L 195.356934 153.239109 
L 193.36024 153.956625 
L 191.363546 154.559515 
L 189.366852 155.021848 
L 187.370158 155.34333 
L 185.373463 155.634833 
L 183.376769 155.873702 
L 181.380075 156.272197 
L 179.383381 156.654032 
L 177.386686 157.493228 
L 175.389992 158.562713 
L 173.393298 159.637954 
L 171.396604 160.619092 
L 169.39991 161.512106 
L 167.403215 162.325493 
L 165.406521 163.043481 
L 163.409827 163.631118 
L 161.413133 164.15774 
L 159.416439 164.601144 
L 157.419744 164.837611 
L 155.42305 165.044184 
L 153.426356 165.261496 
L 151.429662 165.458614 
L 149.432967 165.932113 
L 147.436273 166.618059 
L 145.439579 167.257075 
L 143.442885 167.847862 
L 141.446191 168.493863 
L 139.449496 169.609193 
L 137.452802 170.975771 
L 135.456108 172.948877 
L 133.459414 175.319226 
L 131.46272 177.470015 
L 129.466025 179.417924 
L 127.469331 181.180888 
L 125.472637 182.77601 
L 123.475943 184.218479 
L 121.479248 185.731649 
L 119.482554 186.634066 
L 117.48586 187.530088 
L 115.489166 188.367871 
L 113.492472 189.150637 
L 111.495777 189.860654 
L 109.499083 190.505497 
L 107.502389 191.0913 
L 105.505695 191.646479 
L 103.509001 192.22397 
L 101.512306 192.835843 
L 99.515612 193.227837 
L 97.518918 193.420467 
L 95.522224 193.448902 
L 93.525529 193.65239 
L 91.528835 193.810146 
L 89.532141 193.981781 
L 87.535447 194.157526 
L 85.538753 194.35274 
L 83.542058 194.626402 
L 81.545364 194.935297 
L 79.54867 195.142337 
L 77.551976 195.31086 
L 75.555282 195.473917 
L 73.558587 195.834677 
L 71.561893 196.199789 
L 69.565199 196.644677 
" style="fill:none;stroke:#7f7f7f;stroke-dasharray:2,3.3;stroke-dashoffset:0;stroke-width:2;"/>
   </g>
   <g id="line2d_17">
    <path clip-path="url(#p6d69977961)" d="M 267.237926 77.186857 
L 265.241232 80.685511 
L 263.244538 84.616169 
L 261.247843 88.128695 
L 259.251149 92.437542 
L 257.254455 97.180367 
L 255.257761 101.911189 
L 253.261067 106.0873 
L 251.264372 109.760362 
L 249.267678 115.020972 
L 247.270984 119.621473 
L 245.27429 123.635653 
L 243.277596 127.38171 
L 241.280901 130.910426 
L 239.284207 134.328611 
L 237.287513 137.451272 
L 235.290819 140.155064 
L 233.294124 142.386469 
L 231.29743 144.684046 
L 229.300736 147.22358 
L 227.304042 149.896113 
L 225.307348 152.647928 
L 223.310653 155.630942 
L 221.313959 157.709718 
L 219.317265 159.532024 
L 217.320571 161.140242 
L 215.323877 162.556425 
L 213.327182 163.801744 
L 211.330488 164.897784 
L 209.333794 165.862322 
L 207.3371 166.885793 
L 205.340405 167.863928 
L 203.343711 169.461656 
L 201.347017 171.408499 
L 199.350323 173.098788 
L 197.353629 174.877129 
L 195.356934 176.253422 
L 193.36024 177.050714 
L 191.363546 177.70606 
L 189.366852 178.294529 
L 187.370158 178.846133 
L 185.373463 179.3147 
L 183.376769 179.650156 
L 181.380075 179.794702 
L 179.383381 180.101724 
L 177.386686 180.461355 
L 175.389992 180.99418 
L 173.393298 182.589069 
L 171.396604 184.236921 
L 169.39991 185.536768 
L 167.403215 186.678877 
L 165.406521 187.686031 
L 163.409827 188.531651 
L 161.413133 189.244619 
L 159.416439 189.877222 
L 157.419744 190.677594 
L 155.42305 191.773063 
L 153.426356 192.788452 
L 151.429662 193.552624 
L 149.432967 194.084873 
L 147.436273 194.584897 
L 145.439579 195.205849 
L 143.442885 196.086261 
L 141.446191 196.746963 
L 139.449496 197.139295 
L 137.452802 197.344809 
L 135.456108 197.731515 
L 133.459414 198.876811 
L 131.46272 199.970384 
L 129.466025 200.940425 
L 127.469331 201.78125 
L 125.472637 202.298006 
L 123.475943 202.762837 
L 121.479248 203.176869 
L 119.482554 203.545109 
L 117.48586 203.921795 
L 115.489166 204.340295 
L 113.492472 204.71155 
L 111.495777 205.04027 
L 109.499083 205.331334 
L 107.502389 205.58919 
L 105.505695 205.817695 
L 103.509001 206.016547 
L 101.512306 206.207456 
L 99.515612 206.494887 
L 97.518918 206.947497 
L 95.522224 207.133131 
L 93.525529 206.820553 
L 91.528835 206.434589 
L 89.532141 205.927069 
L 87.535447 205.47024 
L 85.538753 204.769387 
L 83.542058 204.064707 
L 81.545364 203.25648 
L 79.54867 202.696561 
L 77.551976 202.146244 
L 75.555282 201.661334 
L 73.558587 201.331348 
L 71.561893 200.962052 
L 69.565199 200.598332 
" style="fill:none;stroke:#bcbd22;stroke-dasharray:2,3.3;stroke-dashoffset:0;stroke-width:2;"/>
   </g>
   <g id="line2d_18">
    <path clip-path="url(#p6d69977961)" d="M 267.237926 94.825177 
L 265.241232 100.840131 
L 263.244538 106.353898 
L 261.247843 111.707759 
L 259.251149 116.59109 
L 257.254455 121.038848 
L 255.257761 126.93615 
L 253.261067 132.774509 
L 251.264372 139.288982 
L 249.267678 145.389925 
L 247.270984 150.927649 
L 245.27429 156.299962 
L 243.277596 161.690172 
L 241.280901 166.547412 
L 239.284207 171.449287 
L 237.287513 176.078716 
L 235.290819 180.151734 
L 233.294124 183.508697 
L 231.29743 186.223415 
L 229.300736 188.324308 
L 227.304042 189.278163 
L 225.307348 190.236784 
L 223.310653 191.00565 
L 221.313959 191.604722 
L 219.317265 191.837482 
L 217.320571 191.769675 
L 215.323877 191.629334 
L 213.327182 191.473231 
L 211.330488 191.206518 
L 209.333794 190.763576 
L 207.3371 190.496238 
L 205.340405 190.827334 
L 203.343711 191.096906 
L 201.347017 191.305838 
L 199.350323 191.464547 
L 197.353629 191.646834 
L 195.356934 191.38106 
L 193.36024 190.792704 
L 191.363546 190.175727 
L 189.366852 189.547237 
L 187.370158 188.990138 
L 185.373463 188.565314 
L 183.376769 187.924087 
L 181.380075 187.497516 
L 179.383381 186.933049 
L 177.386686 186.373491 
L 175.389992 186.515621 
L 173.393298 187.11101 
L 171.396604 187.713775 
L 169.39991 188.255853 
L 167.403215 188.742239 
L 165.406521 189.174213 
L 163.409827 189.36549 
L 161.413133 189.417786 
L 159.416439 189.242396 
L 157.419744 188.876878 
L 155.42305 188.549789 
L 153.426356 188.241822 
L 151.429662 187.962946 
L 149.432967 187.703953 
L 147.436273 187.073146 
L 145.439579 186.324402 
L 143.442885 185.890902 
L 141.446191 186.475687 
L 139.449496 187.265163 
L 137.452802 187.800763 
L 135.456108 188.200061 
L 133.459414 188.494744 
L 131.46272 188.673655 
L 129.466025 188.878749 
L 127.469331 189.039769 
L 125.472637 188.972146 
L 123.475943 188.757615 
L 121.479248 188.529586 
L 119.482554 188.297241 
L 117.48586 188.064234 
L 115.489166 187.821004 
L 113.492472 187.578 
L 111.495777 187.353743 
L 109.499083 187.206705 
L 107.502389 187.15924 
L 105.505695 187.098914 
L 103.509001 187.034521 
L 101.512306 186.997943 
L 99.515612 186.973686 
L 97.518918 186.947625 
L 95.522224 186.904772 
L 93.525529 186.868657 
L 91.528835 187.016484 
L 89.532141 187.255536 
L 87.535447 187.322161 
L 85.538753 187.413134 
L 83.542058 187.468403 
L 81.545364 187.522902 
L 79.54867 187.619231 
L 77.551976 187.619084 
L 75.555282 187.570951 
L 73.558587 187.5264 
L 71.561893 187.466549 
L 69.565199 187.493346 
" style="fill:none;stroke:#17becf;stroke-dasharray:2,3.3;stroke-dashoffset:0;stroke-width:2;"/>
   </g>
   <g id="line2d_19">
    <path clip-path="url(#p6d69977961)" d="M 267.237926 75.76791 
L 265.241232 79.003607 
L 263.244538 82.051935 
L 261.247843 84.922049 
L 259.251149 87.791858 
L 257.254455 90.915323 
L 255.257761 94.683409 
L 253.261067 98.528515 
L 251.264372 102.469768 
L 249.267678 106.57147 
L 247.270984 110.579585 
L 245.27429 114.33733 
L 243.277596 118.182633 
L 241.280901 121.925575 
L 239.284207 125.650656 
L 237.287513 129.196952 
L 235.290819 132.534894 
L 233.294124 135.732285 
L 231.29743 138.850354 
L 229.300736 141.802526 
L 227.304042 145.001147 
L 225.307348 147.691784 
L 223.310653 150.259674 
L 221.313959 152.675476 
L 219.317265 154.789258 
L 217.320571 156.587773 
L 215.323877 158.120932 
L 213.327182 159.544941 
L 211.330488 160.850271 
L 209.333794 161.969095 
L 207.3371 162.998437 
L 205.340405 164.040839 
L 203.343711 165.314531 
L 201.347017 166.600615 
L 199.350323 167.991073 
L 197.353629 169.250314 
L 195.356934 170.392306 
L 193.36024 171.363172 
L 191.363546 172.243761 
L 189.366852 173.062995 
L 187.370158 173.829021 
L 185.373463 174.398305 
L 183.376769 174.767091 
L 181.380075 175.027124 
L 179.383381 175.159891 
L 177.386686 175.550025 
L 175.389992 176.099669 
L 173.393298 177.009708 
L 171.396604 177.792512 
L 169.39991 178.375514 
L 167.403215 178.85844 
L 165.406521 179.322888 
L 163.409827 179.689329 
L 161.413133 179.998809 
L 159.416439 180.489373 
L 157.419744 180.89044 
L 155.42305 181.129337 
L 153.426356 181.169579 
L 151.429662 181.033039 
L 149.432967 180.753606 
L 147.436273 180.679219 
L 145.439579 180.879617 
L 143.442885 181.182506 
L 141.446191 181.727519 
L 139.449496 182.317035 
L 137.452802 182.821229 
L 135.456108 183.302837 
L 133.459414 183.878999 
L 131.46272 184.35133 
L 129.466025 185.118746 
L 127.469331 186.098508 
L 125.472637 186.73594 
L 123.475943 187.126402 
L 121.479248 187.510652 
L 119.482554 187.812653 
L 117.48586 187.982654 
L 115.489166 187.884946 
L 113.492472 187.605465 
L 111.495777 187.146634 
L 109.499083 186.377274 
L 107.502389 185.342407 
L 105.505695 184.419974 
L 103.509001 183.426501 
L 101.512306 182.30203 
L 99.515612 181.12008 
L 97.518918 179.724796 
L 95.522224 178.359499 
L 93.525529 177.404819 
L 91.528835 176.8376 
L 89.532141 176.433602 
L 87.535447 176.015822 
L 85.538753 175.601933 
L 83.542058 174.877054 
L 81.545364 174.076207 
L 79.54867 173.320519 
L 77.551976 172.40669 
L 75.555282 171.623459 
L 73.558587 170.8162 
L 71.561893 169.994656 
L 69.565199 169.139364 
" style="fill:none;stroke:#000000;stroke-linecap:square;stroke-width:2.5;"/>
   </g>
   <g id="line2d_20">
    <path clip-path="url(#p6d69977961)" d="M 117.48586 224.64 
L 117.48586 7.2 
" style="fill:none;stroke:#000000;stroke-dasharray:9.25,4;stroke-dashoffset:0;stroke-width:2.5;"/>
   </g>
   <g id="patch_3">
    <path d="M 59.681562 224.64 
L 59.681562 7.2 
" style="fill:none;stroke:#000000;stroke-linecap:square;stroke-linejoin:miter;stroke-width:0.8;"/>
   </g>
   <g id="patch_4">
    <path d="M 277.121562 224.64 
L 277.121562 7.2 
" style="fill:none;stroke:#000000;stroke-linecap:square;stroke-linejoin:miter;stroke-width:0.8;"/>
   </g>
   <g id="patch_5">
    <path d="M 59.681562 224.64 
L 277.121562 224.64 
" style="fill:none;stroke:#000000;stroke-linecap:square;stroke-linejoin:miter;stroke-width:0.8;"/>
   </g>
   <g id="patch_6">
    <path d="M 59.681562 7.2 
L 277.121562 7.2 
" style="fill:none;stroke:#000000;stroke-linecap:square;stroke-linejoin:miter;stroke-width:0.8;"/>
   </g>
  </g>
 </g>
 <defs>
  <clipPath id="p6d69977961">
   <rect height="217.44" width="217.44" x="59.681562" y="7.2"/>
  </clipPath>
 </defs>
</svg>
