<?xml version="1.0" encoding="utf-8" standalone="no"?>
<!DOCTYPE svg PUBLIC "-//W3C//DTD SVG 1.1//EN"
  "http://www.w3.org/Graphics/SVG/1.1/DTD/svg11.dtd">
<svg height="281.441562pt" version="1.1" viewBox="0 0 288.567926 281.441562" width="288.567926pt" xmlns="http://www.w3.org/2000/svg" xmlns:xlink="http://www.w3.org/1999/xlink">
 <metadata>
  <rdf:RDF xmlns:cc="http://creativecommons.org/ns#" xmlns:dc="http://purl.org/dc/elements/1.1/" xmlns:rdf="http://www.w3.org/1999/02/22-rdf-syntax-ns#">
   <cc:Work>
    <dc:type rdf:resource="http://purl.org/dc/dcmitype/StillImage"/>
    <dc:date>2024-09-24T16:56:40.421667</dc:date>
    <dc:format>image/svg+xml</dc:format>
    <dc:creator>
     <cc:Agent>
      <dc:title>Matplotlib v3.4.3, https://matplotlib.org/</dc:title>
     </cc:Agent>
    </dc:creator>
   </cc:Work>
  </rdf:RDF>
 </metadata>
 <defs>
  <style type="text/css">*{stroke-linecap:butt;stroke-linejoin:round;}</style>
 </defs>
 <g id="figure_1">
  <g id="patch_1">
   <path d="M 0 281.441562 
L 288.567926 281.441562 
L 288.567926 0 
L 0 0 
z
" style="fill:#ffffff;"/>
  </g>
  <g id="axes_1">
   <g id="patch_2">
    <path d="M 59.681562 224.64 
L 277.121562 224.64 
L 277.121562 7.2 
L 59.681562 7.2 
z
" style="fill:#ffffff;"/>
   </g>
   <g id="matplotlib.axis_1">
    <g id="xtick_1">
     <g id="line2d_1">
      <defs>
       <path d="M 0 0 
L 0 3.5 
" id="m76a3cc03a9" style="stroke:#000000;stroke-width:1.5;"/>
      </defs>
      <g>
       <use style="stroke:#000000;stroke-width:1.5;" x="69.565199" xlink:href="#m76a3cc03a9" y="224.64"/>
      </g>
     </g>
     <g id="text_1">
      <!-- $\mathdefault{10^{-3}}$ -->
      <g transform="translate(51.745199 250.2025)scale(0.18 -0.18)">
       <defs>
        <path d="M 2384 0 
L 1822 0 
L 1822 3584 
Q 1619 3391 1289 3197 
Q 959 3003 697 2906 
L 697 3450 
Q 1169 3672 1522 3987 
Q 1875 4303 2022 4600 
L 2384 4600 
L 2384 0 
z
" id="ArialMT-31" transform="scale(0.015625)"/>
        <path d="M 266 2259 
Q 266 3072 433 3567 
Q 600 4063 929 4331 
Q 1259 4600 1759 4600 
Q 2128 4600 2406 4451 
Q 2684 4303 2865 4023 
Q 3047 3744 3150 3342 
Q 3253 2941 3253 2259 
Q 3253 1453 3087 958 
Q 2922 463 2592 192 
Q 2263 -78 1759 -78 
Q 1097 -78 719 397 
Q 266 969 266 2259 
z
M 844 2259 
Q 844 1131 1108 757 
Q 1372 384 1759 384 
Q 2147 384 2411 759 
Q 2675 1134 2675 2259 
Q 2675 3391 2411 3762 
Q 2147 4134 1753 4134 
Q 1366 4134 1134 3806 
Q 844 3388 844 2259 
z
" id="ArialMT-30" transform="scale(0.015625)"/>
        <path d="M 3381 1997 
L 356 1997 
L 356 2522 
L 3381 2522 
L 3381 1997 
z
" id="ArialMT-2212" transform="scale(0.015625)"/>
        <path d="M 269 1209 
L 831 1284 
Q 928 806 1161 595 
Q 1394 384 1728 384 
Q 2125 384 2398 659 
Q 2672 934 2672 1341 
Q 2672 1728 2419 1979 
Q 2166 2231 1775 2231 
Q 1616 2231 1378 2169 
L 1441 2663 
Q 1497 2656 1531 2656 
Q 1891 2656 2178 2843 
Q 2466 3031 2466 3422 
Q 2466 3731 2256 3934 
Q 2047 4138 1716 4138 
Q 1388 4138 1169 3931 
Q 950 3725 888 3313 
L 325 3413 
Q 428 3978 793 4289 
Q 1159 4600 1703 4600 
Q 2078 4600 2393 4439 
Q 2709 4278 2876 4000 
Q 3044 3722 3044 3409 
Q 3044 3113 2884 2869 
Q 2725 2625 2413 2481 
Q 2819 2388 3044 2092 
Q 3269 1797 3269 1353 
Q 3269 753 2831 336 
Q 2394 -81 1725 -81 
Q 1122 -81 723 278 
Q 325 638 269 1209 
z
" id="ArialMT-33" transform="scale(0.015625)"/>
       </defs>
       <use transform="translate(0 0.99375)" xlink:href="#ArialMT-31"/>
       <use transform="translate(55.615234 0.99375)" xlink:href="#ArialMT-30"/>
       <use transform="translate(112.972813 70.6875)scale(0.7)" xlink:href="#ArialMT-2212"/>
       <use transform="translate(153.851719 70.6875)scale(0.7)" xlink:href="#ArialMT-33"/>
      </g>
     </g>
    </g>
    <g id="xtick_2">
     <g id="line2d_2">
      <g>
       <use style="stroke:#000000;stroke-width:1.5;" x="135.456108" xlink:href="#m76a3cc03a9" y="224.64"/>
      </g>
     </g>
     <g id="text_2">
      <!-- $\mathdefault{10^{-2}}$ -->
      <g transform="translate(117.636108 250.2025)scale(0.18 -0.18)">
       <defs>
        <path d="M 3222 541 
L 3222 0 
L 194 0 
Q 188 203 259 391 
Q 375 700 629 1000 
Q 884 1300 1366 1694 
Q 2113 2306 2375 2664 
Q 2638 3022 2638 3341 
Q 2638 3675 2398 3904 
Q 2159 4134 1775 4134 
Q 1369 4134 1125 3890 
Q 881 3647 878 3216 
L 300 3275 
Q 359 3922 746 4261 
Q 1134 4600 1788 4600 
Q 2447 4600 2831 4234 
Q 3216 3869 3216 3328 
Q 3216 3053 3103 2787 
Q 2991 2522 2730 2228 
Q 2469 1934 1863 1422 
Q 1356 997 1212 845 
Q 1069 694 975 541 
L 3222 541 
z
" id="ArialMT-32" transform="scale(0.015625)"/>
       </defs>
       <use transform="translate(0 0.99375)" xlink:href="#ArialMT-31"/>
       <use transform="translate(55.615234 0.99375)" xlink:href="#ArialMT-30"/>
       <use transform="translate(112.972813 70.6875)scale(0.7)" xlink:href="#ArialMT-2212"/>
       <use transform="translate(153.851719 70.6875)scale(0.7)" xlink:href="#ArialMT-32"/>
      </g>
     </g>
    </g>
    <g id="xtick_3">
     <g id="line2d_3">
      <g>
       <use style="stroke:#000000;stroke-width:1.5;" x="201.347017" xlink:href="#m76a3cc03a9" y="224.64"/>
      </g>
     </g>
     <g id="text_3">
      <!-- $\mathdefault{10^{-1}}$ -->
      <g transform="translate(183.527017 250.2025)scale(0.18 -0.18)">
       <use transform="translate(0 0.99375)" xlink:href="#ArialMT-31"/>
       <use transform="translate(55.615234 0.99375)" xlink:href="#ArialMT-30"/>
       <use transform="translate(112.972813 70.6875)scale(0.7)" xlink:href="#ArialMT-2212"/>
       <use transform="translate(153.851719 70.6875)scale(0.7)" xlink:href="#ArialMT-31"/>
      </g>
     </g>
    </g>
    <g id="xtick_4">
     <g id="line2d_4">
      <g>
       <use style="stroke:#000000;stroke-width:1.5;" x="267.237926" xlink:href="#m76a3cc03a9" y="224.64"/>
      </g>
     </g>
     <g id="text_4">
      <!-- $\mathdefault{10^{0}}$ -->
      <g transform="translate(253.107926 250.2025)scale(0.18 -0.18)">
       <use transform="translate(0 0.99375)" xlink:href="#ArialMT-31"/>
       <use transform="translate(55.615234 0.99375)" xlink:href="#ArialMT-30"/>
       <use transform="translate(112.972813 70.6875)scale(0.7)" xlink:href="#ArialMT-30"/>
      </g>
     </g>
    </g>
    <g id="text_5">
     <!-- α -->
     <g transform="translate(163.198438 270.664062)scale(0.18 -0.18)">
      <defs>
       <path d="M 2884 3319 
L 3459 3319 
Q 3241 2631 3056 1659 
Q 3275 453 3459 0 
L 2900 0 
Q 2766 313 2697 606 
Q 2438 -75 1613 -75 
Q 988 -75 606 394 
Q 225 863 225 1666 
Q 225 2491 608 2942 
Q 991 3394 1622 3394 
Q 2013 3394 2259 3236 
Q 2506 3078 2719 2756 
Q 2741 2866 2884 3319 
z
M 1716 2928 
Q 1313 2928 1078 2603 
Q 844 2278 844 1666 
Q 844 1069 1066 728 
Q 1288 388 1684 388 
Q 2072 388 2331 723 
Q 2591 1059 2591 1691 
Q 2591 2303 2348 2615 
Q 2106 2928 1716 2928 
z
" id="ArialMT-3b1" transform="scale(0.015625)"/>
      </defs>
      <use xlink:href="#ArialMT-3b1"/>
     </g>
    </g>
   </g>
   <g id="matplotlib.axis_2">
    <g id="ytick_1">
     <g id="line2d_5">
      <defs>
       <path d="M 0 0 
L -3.5 0 
" id="m0f714cfa05" style="stroke:#000000;stroke-width:1.5;"/>
      </defs>
      <g>
       <use style="stroke:#000000;stroke-width:1.5;" x="59.681562" xlink:href="#m0f714cfa05" y="206.324669"/>
      </g>
     </g>
     <g id="text_6">
      <!-- 0.5 -->
      <g transform="translate(27.661562 212.766701)scale(0.18 -0.18)">
       <defs>
        <path d="M 581 0 
L 581 641 
L 1222 641 
L 1222 0 
L 581 0 
z
" id="ArialMT-2e" transform="scale(0.015625)"/>
        <path d="M 266 1200 
L 856 1250 
Q 922 819 1161 601 
Q 1400 384 1738 384 
Q 2144 384 2425 690 
Q 2706 997 2706 1503 
Q 2706 1984 2436 2262 
Q 2166 2541 1728 2541 
Q 1456 2541 1237 2417 
Q 1019 2294 894 2097 
L 366 2166 
L 809 4519 
L 3088 4519 
L 3088 3981 
L 1259 3981 
L 1013 2750 
Q 1425 3038 1878 3038 
Q 2478 3038 2890 2622 
Q 3303 2206 3303 1553 
Q 3303 931 2941 478 
Q 2500 -78 1738 -78 
Q 1113 -78 717 272 
Q 322 622 266 1200 
z
" id="ArialMT-35" transform="scale(0.015625)"/>
       </defs>
       <use xlink:href="#ArialMT-30"/>
       <use x="55.615234" xlink:href="#ArialMT-2e"/>
       <use x="83.398438" xlink:href="#ArialMT-35"/>
      </g>
     </g>
    </g>
    <g id="ytick_2">
     <g id="line2d_6">
      <g>
       <use style="stroke:#000000;stroke-width:1.5;" x="59.681562" xlink:href="#m0f714cfa05" y="150.375276"/>
      </g>
     </g>
     <g id="text_7">
      <!-- 1.0 -->
      <g transform="translate(27.661562 156.817307)scale(0.18 -0.18)">
       <use xlink:href="#ArialMT-31"/>
       <use x="55.615234" xlink:href="#ArialMT-2e"/>
       <use x="83.398438" xlink:href="#ArialMT-30"/>
      </g>
     </g>
    </g>
    <g id="ytick_3">
     <g id="line2d_7">
      <g>
       <use style="stroke:#000000;stroke-width:1.5;" x="59.681562" xlink:href="#m0f714cfa05" y="94.425883"/>
      </g>
     </g>
     <g id="text_8">
      <!-- 1.5 -->
      <g transform="translate(27.661562 100.867914)scale(0.18 -0.18)">
       <use xlink:href="#ArialMT-31"/>
       <use x="55.615234" xlink:href="#ArialMT-2e"/>
       <use x="83.398438" xlink:href="#ArialMT-35"/>
      </g>
     </g>
    </g>
    <g id="ytick_4">
     <g id="line2d_8">
      <g>
       <use style="stroke:#000000;stroke-width:1.5;" x="59.681562" xlink:href="#m0f714cfa05" y="38.476489"/>
      </g>
     </g>
     <g id="text_9">
      <!-- 2.0 -->
      <g transform="translate(27.661562 44.91852)scale(0.18 -0.18)">
       <use xlink:href="#ArialMT-32"/>
       <use x="55.615234" xlink:href="#ArialMT-2e"/>
       <use x="83.398438" xlink:href="#ArialMT-30"/>
      </g>
     </g>
    </g>
    <g id="text_10">
     <!-- RMSE -->
     <g transform="translate(20.084062 141.922969)rotate(-90)scale(0.18 -0.18)">
      <defs>
       <path d="M 503 0 
L 503 4581 
L 2534 4581 
Q 3147 4581 3465 4457 
Q 3784 4334 3975 4021 
Q 4166 3709 4166 3331 
Q 4166 2844 3850 2509 
Q 3534 2175 2875 2084 
Q 3116 1969 3241 1856 
Q 3506 1613 3744 1247 
L 4541 0 
L 3778 0 
L 3172 953 
Q 2906 1366 2734 1584 
Q 2563 1803 2427 1890 
Q 2291 1978 2150 2013 
Q 2047 2034 1813 2034 
L 1109 2034 
L 1109 0 
L 503 0 
z
M 1109 2559 
L 2413 2559 
Q 2828 2559 3062 2645 
Q 3297 2731 3419 2920 
Q 3541 3109 3541 3331 
Q 3541 3656 3305 3865 
Q 3069 4075 2559 4075 
L 1109 4075 
L 1109 2559 
z
" id="ArialMT-52" transform="scale(0.015625)"/>
       <path d="M 475 0 
L 475 4581 
L 1388 4581 
L 2472 1338 
Q 2622 884 2691 659 
Q 2769 909 2934 1394 
L 4031 4581 
L 4847 4581 
L 4847 0 
L 4263 0 
L 4263 3834 
L 2931 0 
L 2384 0 
L 1059 3900 
L 1059 0 
L 475 0 
z
" id="ArialMT-4d" transform="scale(0.015625)"/>
       <path d="M 288 1472 
L 859 1522 
Q 900 1178 1048 958 
Q 1197 738 1509 602 
Q 1822 466 2213 466 
Q 2559 466 2825 569 
Q 3091 672 3220 851 
Q 3350 1031 3350 1244 
Q 3350 1459 3225 1620 
Q 3100 1781 2813 1891 
Q 2628 1963 1997 2114 
Q 1366 2266 1113 2400 
Q 784 2572 623 2826 
Q 463 3081 463 3397 
Q 463 3744 659 4045 
Q 856 4347 1234 4503 
Q 1613 4659 2075 4659 
Q 2584 4659 2973 4495 
Q 3363 4331 3572 4012 
Q 3781 3694 3797 3291 
L 3216 3247 
Q 3169 3681 2898 3903 
Q 2628 4125 2100 4125 
Q 1550 4125 1298 3923 
Q 1047 3722 1047 3438 
Q 1047 3191 1225 3031 
Q 1400 2872 2139 2705 
Q 2878 2538 3153 2413 
Q 3553 2228 3743 1945 
Q 3934 1663 3934 1294 
Q 3934 928 3725 604 
Q 3516 281 3123 101 
Q 2731 -78 2241 -78 
Q 1619 -78 1198 103 
Q 778 284 539 648 
Q 300 1013 288 1472 
z
" id="ArialMT-53" transform="scale(0.015625)"/>
       <path d="M 506 0 
L 506 4581 
L 3819 4581 
L 3819 4041 
L 1113 4041 
L 1113 2638 
L 3647 2638 
L 3647 2100 
L 1113 2100 
L 1113 541 
L 3925 541 
L 3925 0 
L 506 0 
z
" id="ArialMT-45" transform="scale(0.015625)"/>
      </defs>
      <use xlink:href="#ArialMT-52"/>
      <use x="72.216797" xlink:href="#ArialMT-4d"/>
      <use x="155.517578" xlink:href="#ArialMT-53"/>
      <use x="222.216797" xlink:href="#ArialMT-45"/>
     </g>
    </g>
   </g>
   <g id="line2d_9">
    <path clip-path="url(#p43c68c243a)" d="M 267.237926 64.288554 
L 265.241232 64.288554 
L 263.244538 64.288554 
L 261.247843 67.528093 
L 259.251149 71.900399 
L 257.254455 76.134053 
L 255.257761 80.944281 
L 253.261067 85.334167 
L 251.264372 89.338307 
L 249.267678 92.988846 
L 247.270984 96.316079 
L 245.27429 99.347008 
L 243.277596 102.10777 
L 241.280901 106.65238 
L 239.284207 110.902157 
L 237.287513 114.361923 
L 235.290819 117.898525 
L 233.294124 121.505382 
L 231.29743 124.808216 
L 229.300736 127.828836 
L 227.304042 130.591298 
L 225.307348 133.503968 
L 223.310653 136.202722 
L 221.313959 138.917329 
L 219.317265 141.966125 
L 217.320571 144.69851 
L 215.323877 147.120964 
L 213.327182 149.166981 
L 211.330488 150.992008 
L 209.333794 152.602589 
L 207.3371 153.791801 
L 205.340405 154.643069 
L 203.343711 155.42363 
L 201.347017 156.182367 
L 199.350323 157.074652 
L 197.353629 158.674264 
L 195.356934 160.169332 
L 193.36024 161.713847 
L 191.363546 163.125904 
L 189.366852 164.476083 
L 187.370158 165.574819 
L 185.373463 166.434592 
L 183.376769 168.129668 
L 181.380075 169.441299 
L 179.383381 170.760267 
L 177.386686 172.070612 
L 175.389992 173.256508 
L 173.393298 174.329106 
L 171.396604 175.443847 
L 169.39991 176.879767 
L 167.403215 178.184698 
L 165.406521 179.86563 
L 163.409827 181.484295 
L 161.413133 181.327498 
L 159.416439 182.527092 
L 157.419744 183.883463 
L 155.42305 186.080846 
L 153.426356 188.119542 
L 151.429662 189.568464 
L 149.432967 192.316173 
L 147.436273 195.091987 
L 145.439579 199.514625 
L 143.442885 203.250205 
L 141.446191 205.11851 
L 139.449496 206.615741 
L 137.452802 207.467613 
L 135.456108 208.087896 
L 133.459414 208.698729 
L 131.46272 209.380883 
L 129.466025 209.605944 
L 127.469331 209.471096 
L 125.472637 209.089549 
L 123.475943 208.551028 
L 121.479248 207.972233 
L 119.482554 207.517736 
L 117.48586 208.985754 
L 115.489166 210.220552 
L 113.492472 211.218514 
L 111.495777 212.012053 
L 109.499083 212.660752 
L 107.502389 213.122737 
L 105.505695 213.643035 
L 103.509001 208.65037 
L 101.512306 190.261972 
L 99.515612 184.350109 
L 97.518918 202.134457 
L 95.522224 198.620156 
L 93.525529 193.251152 
L 91.528835 189.593771 
L 89.532141 180.831482 
L 87.535447 169.900974 
L 85.538753 156.32569 
L 83.542058 146.559653 
L 81.545364 142.31913 
L 79.54867 136.712829 
L 77.551976 130.742818 
L 75.555282 127.91831 
L 73.558587 124.005568 
L 71.561893 120.267472 
L 69.565199 117.13118 
" style="fill:none;stroke:#1f77b4;stroke-dasharray:2,3.3;stroke-dashoffset:0;stroke-width:2;"/>
   </g>
   <g id="line2d_10">
    <path clip-path="url(#p43c68c243a)" d="M 267.237926 64.288554 
L 265.241232 64.288554 
L 263.244538 64.288554 
L 261.247843 68.374636 
L 259.251149 72.93474 
L 257.254455 76.982702 
L 255.257761 80.567809 
L 253.261067 83.736073 
L 251.264372 86.530026 
L 249.267678 88.989106 
L 247.270984 91.149458 
L 245.27429 93.044149 
L 243.277596 94.703048 
L 241.280901 96.153362 
L 239.284207 100.054561 
L 237.287513 104.989975 
L 235.290819 109.470038 
L 233.294124 113.509083 
L 231.29743 117.05451 
L 229.300736 120.341581 
L 227.304042 123.251371 
L 225.307348 125.761456 
L 223.310653 127.88677 
L 221.313959 129.752961 
L 219.317265 131.46201 
L 217.320571 133.497488 
L 215.323877 135.069831 
L 213.327182 136.387742 
L 211.330488 137.101731 
L 209.333794 137.687137 
L 207.3371 138.175241 
L 205.340405 138.575032 
L 203.343711 138.896287 
L 201.347017 139.173098 
L 199.350323 139.65202 
L 197.353629 140.072095 
L 195.356934 140.463733 
L 193.36024 140.921251 
L 191.363546 141.322346 
L 189.366852 141.679088 
L 187.370158 141.99546 
L 185.373463 142.516377 
L 183.376769 143.2072 
L 181.380075 143.8205 
L 179.383381 144.434223 
L 177.386686 144.965458 
L 175.389992 145.413095 
L 173.393298 145.924706 
L 171.396604 146.334463 
L 169.39991 146.601107 
L 167.403215 146.830913 
L 165.406521 147.231854 
L 163.409827 147.576667 
L 161.413133 147.869343 
L 159.416439 148.137954 
L 157.419744 148.741347 
L 155.42305 149.470552 
L 153.426356 150.171478 
L 151.429662 150.799984 
L 149.432967 151.398161 
L 147.436273 151.985435 
L 145.439579 152.902192 
L 143.442885 154.086446 
L 141.446191 155.063386 
L 139.449496 155.944572 
L 137.452802 156.30485 
L 135.456108 156.250853 
L 133.459414 156.204741 
L 131.46272 156.799886 
L 129.466025 157.357041 
L 127.469331 157.7975 
L 125.472637 158.203618 
L 123.475943 158.549898 
L 121.479248 158.814539 
L 119.482554 159.103264 
L 117.48586 159.611013 
L 115.489166 159.948001 
L 113.492472 160.199002 
L 111.495777 160.315962 
L 109.499083 160.309437 
L 107.502389 160.151074 
L 105.505695 159.818495 
L 103.509001 159.842416 
L 101.512306 159.88569 
L 99.515612 160.039615 
L 97.518918 160.479186 
L 95.522224 160.560802 
L 93.525529 160.599171 
L 91.528835 160.616668 
L 89.532141 160.871739 
L 87.535447 160.992179 
L 85.538753 161.178989 
L 83.542058 161.295261 
L 81.545364 161.470567 
L 79.54867 161.602017 
L 77.551976 161.442054 
L 75.555282 161.217237 
L 73.558587 160.876296 
L 71.561893 160.638885 
L 69.565199 160.670047 
" style="fill:none;stroke:#ff7f0e;stroke-dasharray:2,3.3;stroke-dashoffset:0;stroke-width:2;"/>
   </g>
   <g id="line2d_11">
    <path clip-path="url(#p43c68c243a)" d="M 267.237926 114.922031 
L 265.241232 114.922031 
L 263.244538 117.478992 
L 261.247843 120.785094 
L 259.251149 123.636788 
L 257.254455 126.082215 
L 255.257761 128.166381 
L 253.261067 129.930985 
L 251.264372 131.414779 
L 249.267678 132.652818 
L 247.270984 133.676967 
L 245.27429 134.515888 
L 243.277596 135.194885 
L 241.280901 135.737295 
L 239.284207 140.795535 
L 237.287513 146.118411 
L 235.290819 150.65198 
L 233.294124 154.457833 
L 231.29743 157.599351 
L 229.300736 160.237388 
L 227.304042 162.429312 
L 225.307348 164.129103 
L 223.310653 165.328862 
L 221.313959 166.224536 
L 219.317265 167.337951 
L 217.320571 168.67103 
L 215.323877 169.21674 
L 213.327182 170.1468 
L 211.330488 170.904929 
L 209.333794 171.711206 
L 207.3371 172.657234 
L 205.340405 173.395948 
L 203.343711 173.965775 
L 201.347017 174.369525 
L 199.350323 174.623597 
L 197.353629 174.636569 
L 195.356934 174.743528 
L 193.36024 174.911591 
L 191.363546 175.078094 
L 189.366852 174.992368 
L 187.370158 174.820295 
L 185.373463 174.615044 
L 183.376769 174.384723 
L 181.380075 174.136556 
L 179.383381 173.971329 
L 177.386686 173.934179 
L 175.389992 173.859343 
L 173.393298 173.750298 
L 171.396604 173.614124 
L 169.39991 173.378569 
L 167.403215 173.011462 
L 165.406521 172.445031 
L 163.409827 171.443968 
L 161.413133 170.299698 
L 159.416439 169.166683 
L 157.419744 168.861753 
L 155.42305 168.00655 
L 153.426356 167.016832 
L 151.429662 166.267456 
L 149.432967 165.379919 
L 147.436273 164.368355 
L 145.439579 163.574465 
L 143.442885 162.741951 
L 141.446191 161.962846 
L 139.449496 161.653403 
L 137.452802 161.82059 
L 135.456108 161.966663 
L 133.459414 162.921093 
L 131.46272 162.590994 
L 129.466025 163.136942 
L 127.469331 165.194342 
L 125.472637 164.752479 
L 123.475943 163.702564 
L 121.479248 162.445519 
L 119.482554 161.043778 
L 117.48586 159.585303 
L 115.489166 153.944858 
L 113.492472 146.411796 
L 111.495777 138.231959 
L 109.499083 129.851413 
L 107.502389 121.435085 
L 105.505695 114.272928 
L 103.509001 107.420325 
L 101.512306 101.360295 
L 99.515612 94.735831 
L 97.518918 88.331481 
L 95.522224 84.018354 
L 93.525529 78.154039 
L 91.528835 70.156935 
L 89.532141 66.40953 
L 87.535447 63.710158 
L 85.538753 59.961589 
L 83.542058 56.058513 
L 81.545364 53.178143 
L 79.54867 50.578488 
L 77.551976 46.124962 
L 75.555282 41.151361 
L 73.558587 36.310514 
L 71.561893 22.909783 
L 69.565199 17.083636 
" style="fill:none;stroke:#2ca02c;stroke-dasharray:2,3.3;stroke-dashoffset:0;stroke-width:2;"/>
   </g>
   <g id="line2d_12">
    <path clip-path="url(#p43c68c243a)" d="M 267.237926 114.922031 
L 265.241232 115.479695 
L 263.244538 116.00174 
L 261.247843 116.610642 
L 259.251149 116.991956 
L 257.254455 117.13966 
L 255.257761 117.096076 
L 253.261067 116.897835 
L 251.264372 116.576578 
L 249.267678 116.158861 
L 247.270984 115.667566 
L 245.27429 115.121784 
L 243.277596 114.537439 
L 241.280901 114.012888 
L 239.284207 113.437349 
L 237.287513 112.795203 
L 235.290819 115.969534 
L 233.294124 121.219721 
L 231.29743 125.946697 
L 229.300736 130.204736 
L 227.304042 134.115637 
L 225.307348 137.513829 
L 223.310653 141.265265 
L 221.313959 145.309642 
L 219.317265 149.110068 
L 217.320571 152.537725 
L 215.323877 155.624002 
L 213.327182 158.408937 
L 211.330488 160.941265 
L 209.333794 163.311476 
L 207.3371 165.582358 
L 205.340405 168.016488 
L 203.343711 170.330513 
L 201.347017 172.524819 
L 199.350323 174.470499 
L 197.353629 175.995872 
L 195.356934 177.21069 
L 193.36024 178.256002 
L 191.363546 179.151916 
L 189.366852 179.91633 
L 187.370158 180.565794 
L 185.373463 181.094984 
L 183.376769 181.522457 
L 181.380075 182.062791 
L 179.383381 183.031775 
L 177.386686 183.826069 
L 175.389992 184.618334 
L 173.393298 185.463137 
L 171.396604 186.287935 
L 169.39991 186.971697 
L 167.403215 187.606448 
L 165.406521 187.868413 
L 163.409827 188.098001 
L 161.413133 188.285906 
L 159.416439 188.443631 
L 157.419744 188.678625 
L 155.42305 189.195773 
L 153.426356 190.175872 
L 151.429662 191.321354 
L 149.432967 192.321533 
L 147.436273 193.335699 
L 145.439579 194.070013 
L 143.442885 194.861893 
L 141.446191 195.580296 
L 139.449496 195.858344 
L 137.452802 196.157509 
L 135.456108 196.40587 
L 133.459414 196.881847 
L 131.46272 197.471309 
L 129.466025 198.088814 
L 127.469331 198.816048 
L 125.472637 199.452108 
L 123.475943 200.002984 
L 121.479248 200.505998 
L 119.482554 201.077558 
L 117.48586 201.54984 
L 115.489166 201.975625 
L 113.492472 202.451001 
L 111.495777 202.824037 
L 109.499083 202.988983 
L 107.502389 202.990961 
L 105.505695 203.006994 
L 103.509001 202.866595 
L 101.512306 202.884615 
L 99.515612 202.877085 
L 97.518918 202.92798 
L 95.522224 203.152497 
L 93.525529 203.490606 
L 91.528835 203.37691 
L 89.532141 203.308639 
L 87.535447 203.632432 
L 85.538753 204.469002 
L 83.542058 205.35415 
L 81.545364 205.796437 
L 79.54867 206.107952 
L 77.551976 206.488163 
L 75.555282 206.766799 
L 73.558587 207.108033 
L 71.561893 207.442368 
L 69.565199 207.749179 
" style="fill:none;stroke:#d62728;stroke-dasharray:2,3.3;stroke-dashoffset:0;stroke-width:2;"/>
   </g>
   <g id="line2d_13">
    <path clip-path="url(#p43c68c243a)" d="M 267.237926 97.29343 
L 265.241232 97.29343 
L 263.244538 97.29343 
L 261.247843 102.163442 
L 259.251149 107.843796 
L 257.254455 113.197286 
L 255.257761 117.970194 
L 253.261067 122.210791 
L 251.264372 125.965234 
L 249.267678 129.277763 
L 247.270984 132.18979 
L 245.27429 134.740985 
L 243.277596 137.045555 
L 241.280901 141.258931 
L 239.284207 145.092365 
L 237.287513 148.575508 
L 235.290819 151.736281 
L 233.294124 154.601229 
L 231.29743 157.195082 
L 229.300736 159.608244 
L 227.304042 161.768487 
L 225.307348 163.637325 
L 223.310653 165.313247 
L 221.313959 166.989844 
L 219.317265 168.802598 
L 217.320571 170.464344 
L 215.323877 171.98907 
L 213.327182 173.374813 
L 211.330488 174.634509 
L 209.333794 175.782081 
L 207.3371 177.235724 
L 205.340405 178.763019 
L 203.343711 180.415713 
L 201.347017 181.895419 
L 199.350323 183.409359 
L 197.353629 184.930351 
L 195.356934 186.340374 
L 193.36024 187.61544 
L 191.363546 188.767364 
L 189.366852 189.85219 
L 187.370158 190.864603 
L 185.373463 191.780674 
L 183.376769 192.465954 
L 181.380075 193.003797 
L 179.383381 193.368387 
L 177.386686 193.642113 
L 175.389992 193.975593 
L 173.393298 194.298086 
L 171.396604 195.038229 
L 169.39991 195.636083 
L 167.403215 196.057106 
L 165.406521 196.430326 
L 163.409827 196.762164 
L 161.413133 196.978227 
L 159.416439 197.027525 
L 157.419744 197.348885 
L 155.42305 197.557806 
L 153.426356 198.14611 
L 151.429662 198.38767 
L 149.432967 198.392636 
L 147.436273 198.255611 
L 145.439579 197.983598 
L 143.442885 197.489323 
L 141.446191 197.526743 
L 139.449496 197.343791 
L 137.452802 197.141801 
L 135.456108 197.052824 
L 133.459414 197.427315 
L 131.46272 197.726156 
L 129.466025 198.136442 
L 127.469331 198.443743 
L 125.472637 198.65059 
L 123.475943 198.693005 
L 121.479248 198.662781 
L 119.482554 198.551688 
L 117.48586 198.316177 
L 115.489166 198.171028 
L 113.492472 197.867287 
L 111.495777 197.52714 
L 109.499083 197.290428 
L 107.502389 197.115491 
L 105.505695 196.792925 
L 103.509001 196.460705 
L 101.512306 196.039254 
L 99.515612 195.952303 
L 97.518918 196.036442 
L 95.522224 196.265677 
L 93.525529 196.120822 
L 91.528835 195.931125 
L 89.532141 195.694971 
L 87.535447 196.070158 
L 85.538753 196.432511 
L 83.542058 196.730782 
L 81.545364 196.985468 
L 79.54867 197.086016 
L 77.551976 197.134832 
L 75.555282 197.156469 
L 73.558587 196.991421 
L 71.561893 196.849648 
L 69.565199 196.699 
" style="fill:none;stroke:#9467bd;stroke-dasharray:2,3.3;stroke-dashoffset:0;stroke-width:2;"/>
   </g>
   <g id="line2d_14">
    <path clip-path="url(#p43c68c243a)" d="M 267.237926 106.672246 
L 265.241232 106.672246 
L 263.244538 106.672246 
L 261.247843 111.691193 
L 259.251149 117.716496 
L 257.254455 123.543262 
L 255.257761 128.884015 
L 253.261067 133.773876 
L 251.264372 138.245214 
L 249.267678 142.329389 
L 247.270984 146.055786 
L 245.27429 148.052072 
L 243.277596 149.515467 
L 241.280901 150.837729 
L 239.284207 152.032837 
L 237.287513 154.023347 
L 235.290819 155.809321 
L 233.294124 157.40693 
L 231.29743 158.83295 
L 229.300736 160.034201 
L 227.304042 161.061137 
L 225.307348 161.767463 
L 223.310653 162.860412 
L 221.313959 164.118429 
L 219.317265 165.551875 
L 217.320571 166.807587 
L 215.323877 167.904752 
L 213.327182 168.861234 
L 211.330488 169.692918 
L 209.333794 170.388852 
L 207.3371 171.304005 
L 205.340405 172.182312 
L 203.343711 172.92524 
L 201.347017 173.394169 
L 199.350323 174.201454 
L 197.353629 174.838491 
L 195.356934 175.366157 
L 193.36024 175.976716 
L 191.363546 176.571145 
L 189.366852 177.107899 
L 187.370158 177.591891 
L 185.373463 178.053434 
L 183.376769 178.655309 
L 181.380075 179.205919 
L 179.383381 179.801232 
L 177.386686 180.881971 
L 175.389992 182.019195 
L 173.393298 183.048827 
L 171.396604 183.792776 
L 169.39991 183.597856 
L 167.403215 183.044778 
L 165.406521 182.483839 
L 163.409827 181.966126 
L 161.413133 181.534793 
L 159.416439 181.096304 
L 157.419744 180.799617 
L 155.42305 180.698608 
L 153.426356 180.789413 
L 151.429662 181.12304 
L 149.432967 181.409519 
L 147.436273 181.659445 
L 145.439579 181.696249 
L 143.442885 182.008306 
L 141.446191 182.613468 
L 139.449496 183.181088 
L 137.452802 183.174476 
L 135.456108 182.978791 
L 133.459414 182.831726 
L 131.46272 183.089595 
L 129.466025 183.231159 
L 127.469331 183.007119 
L 125.472637 182.599291 
L 123.475943 182.133494 
L 121.479248 182.250277 
L 119.482554 182.259953 
L 117.48586 181.974754 
L 115.489166 181.329306 
L 113.492472 180.611558 
L 111.495777 180.358277 
L 109.499083 180.485106 
L 107.502389 180.639555 
L 105.505695 180.476725 
L 103.509001 180.200792 
L 101.512306 180.032035 
L 99.515612 179.944847 
L 97.518918 179.987727 
L 95.522224 180.164487 
L 93.525529 180.311223 
L 91.528835 180.568098 
L 89.532141 181.252436 
L 87.535447 181.396977 
L 85.538753 181.371906 
L 83.542058 181.55383 
L 81.545364 182.127405 
L 79.54867 182.806346 
L 77.551976 183.403963 
L 75.555282 183.930779 
L 73.558587 184.403016 
L 71.561893 184.840099 
L 69.565199 185.231635 
" style="fill:none;stroke:#8c564b;stroke-dasharray:2,3.3;stroke-dashoffset:0;stroke-width:2;"/>
   </g>
   <g id="line2d_15">
    <path clip-path="url(#p43c68c243a)" d="M 267.237926 103.875017 
L 265.241232 103.875017 
L 263.244538 104.614509 
L 261.247843 109.909118 
L 259.251149 114.639115 
L 257.254455 118.851649 
L 255.257761 122.591861 
L 253.261067 125.9025 
L 251.264372 128.824154 
L 249.267678 131.394947 
L 247.270984 133.650605 
L 245.27429 135.624065 
L 243.277596 137.909615 
L 241.280901 141.33581 
L 239.284207 144.738356 
L 237.287513 147.85744 
L 235.290819 150.524361 
L 233.294124 152.785136 
L 231.29743 154.70178 
L 229.300736 156.33153 
L 227.304042 157.679669 
L 225.307348 158.699346 
L 223.310653 159.612615 
L 221.313959 160.357219 
L 219.317265 160.969182 
L 217.320571 161.250653 
L 215.323877 161.424881 
L 213.327182 161.533461 
L 211.330488 161.5872 
L 209.333794 161.477234 
L 207.3371 161.380448 
L 205.340405 161.289018 
L 203.343711 161.24073 
L 201.347017 161.310933 
L 199.350323 161.644733 
L 197.353629 162.218028 
L 195.356934 162.563262 
L 193.36024 162.849823 
L 191.363546 163.080815 
L 189.366852 162.790314 
L 187.370158 162.428379 
L 185.373463 162.041984 
L 183.376769 161.642623 
L 181.380075 161.389072 
L 179.383381 161.484468 
L 177.386686 161.337235 
L 175.389992 160.987998 
L 173.393298 160.663407 
L 171.396604 160.339164 
L 169.39991 160.009384 
L 167.403215 159.667861 
L 165.406521 159.256214 
L 163.409827 158.860387 
L 161.413133 158.644493 
L 159.416439 158.464782 
L 157.419744 157.764444 
L 155.42305 157.959462 
L 153.426356 158.439634 
L 151.429662 158.799098 
L 149.432967 159.039776 
L 147.436273 159.248408 
L 145.439579 159.495902 
L 143.442885 159.771882 
L 141.446191 160.006513 
L 139.449496 160.186127 
L 137.452802 160.471231 
L 135.456108 160.731192 
L 133.459414 161.065077 
L 131.46272 161.459194 
L 129.466025 161.623416 
L 127.469331 161.51284 
L 125.472637 161.418198 
L 123.475943 161.73213 
L 121.479248 162.130478 
L 119.482554 161.823893 
L 117.48586 160.955771 
L 115.489166 160.263587 
L 113.492472 159.743356 
L 111.495777 159.688752 
L 109.499083 159.621835 
L 107.502389 159.142965 
L 105.505695 158.172765 
L 103.509001 157.136876 
L 101.512306 156.029626 
L 99.515612 154.572994 
L 97.518918 154.394152 
L 95.522224 154.159946 
L 93.525529 153.772137 
L 91.528835 153.187546 
L 89.532141 152.053868 
L 87.535447 151.136194 
L 85.538753 150.248109 
L 83.542058 148.814115 
L 81.545364 146.929985 
L 79.54867 144.939594 
L 77.551976 142.828236 
L 75.555282 140.415935 
L 73.558587 137.888548 
L 71.561893 135.379291 
L 69.565199 134.13485 
" style="fill:none;stroke:#e377c2;stroke-dasharray:2,3.3;stroke-dashoffset:0;stroke-width:2;"/>
   </g>
   <g id="line2d_16">
    <path clip-path="url(#p43c68c243a)" d="M 267.237926 103.875017 
L 265.241232 103.875017 
L 263.244538 106.534807 
L 261.247843 109.478001 
L 259.251149 112.107742 
L 257.254455 114.454831 
L 255.257761 116.54764 
L 253.261067 118.412089 
L 251.264372 120.071982 
L 249.267678 121.548948 
L 247.270984 122.862617 
L 245.27429 124.030671 
L 243.277596 125.06911 
L 241.280901 127.579242 
L 239.284207 131.859198 
L 237.287513 135.660573 
L 235.290819 139.025021 
L 233.294124 141.967495 
L 231.29743 144.418015 
L 229.300736 146.393546 
L 227.304042 148.006084 
L 225.307348 149.328294 
L 223.310653 150.397875 
L 221.313959 151.223943 
L 219.317265 152.103664 
L 217.320571 152.778421 
L 215.323877 153.278761 
L 213.327182 153.642616 
L 211.330488 153.956757 
L 209.333794 153.970287 
L 207.3371 154.001434 
L 205.340405 153.983138 
L 203.343711 153.866448 
L 201.347017 153.670884 
L 199.350323 153.484173 
L 197.353629 153.431392 
L 195.356934 153.11639 
L 193.36024 152.74876 
L 191.363546 152.364781 
L 189.366852 151.970352 
L 187.370158 151.862151 
L 185.373463 152.37354 
L 183.376769 152.515168 
L 181.380075 152.013648 
L 179.383381 151.452834 
L 177.386686 151.424693 
L 175.389992 151.22827 
L 173.393298 151.204818 
L 171.396604 151.257253 
L 169.39991 151.321006 
L 167.403215 151.241152 
L 165.406521 151.017319 
L 163.409827 150.65007 
L 161.413133 150.280718 
L 159.416439 149.986463 
L 157.419744 149.751317 
L 155.42305 149.774342 
L 153.426356 150.123629 
L 151.429662 150.702402 
L 149.432967 151.340529 
L 147.436273 152.357096 
L 145.439579 153.20122 
L 143.442885 153.493402 
L 141.446191 153.769623 
L 139.449496 154.019969 
L 137.452802 154.257442 
L 135.456108 154.488216 
L 133.459414 154.729145 
L 131.46272 154.96464 
L 129.466025 155.231434 
L 127.469331 155.531666 
L 125.472637 156.573047 
L 123.475943 156.95784 
L 121.479248 157.259519 
L 119.482554 157.543995 
L 117.48586 157.803382 
L 115.489166 158.130988 
L 113.492472 158.778021 
L 111.495777 160.034876 
L 109.499083 160.954774 
L 107.502389 161.40151 
L 105.505695 161.841871 
L 103.509001 162.484749 
L 101.512306 163.573959 
L 99.515612 164.603058 
L 97.518918 165.660335 
L 95.522224 166.584987 
L 93.525529 167.460837 
L 91.528835 169.082505 
L 89.532141 170.456763 
L 87.535447 170.799561 
L 85.538753 171.240023 
L 83.542058 172.240935 
L 81.545364 173.490546 
L 79.54867 174.811409 
L 77.551976 176.001865 
L 75.555282 177.071205 
L 73.558587 178.142893 
L 71.561893 179.19923 
L 69.565199 180.074593 
" style="fill:none;stroke:#7f7f7f;stroke-dasharray:2,3.3;stroke-dashoffset:0;stroke-width:2;"/>
   </g>
   <g id="line2d_17">
    <path clip-path="url(#p43c68c243a)" d="M 267.237926 103.875017 
L 265.241232 104.382228 
L 263.244538 106.278717 
L 261.247843 108.079494 
L 259.251149 110.302483 
L 257.254455 112.259974 
L 255.257761 113.980983 
L 253.261067 115.492037 
L 251.264372 116.816613 
L 249.267678 117.976442 
L 247.270984 118.990858 
L 245.27429 119.877167 
L 243.277596 120.919464 
L 241.280901 123.525168 
L 239.284207 125.84961 
L 237.287513 127.920732 
L 235.290819 129.999546 
L 233.294124 132.929674 
L 231.29743 135.460632 
L 229.300736 137.630128 
L 227.304042 139.561143 
L 225.307348 141.466259 
L 223.310653 143.549056 
L 221.313959 145.713048 
L 219.317265 147.701705 
L 217.320571 149.497013 
L 215.323877 151.107835 
L 213.327182 152.555051 
L 211.330488 153.916225 
L 209.333794 155.144459 
L 207.3371 156.235018 
L 205.340405 157.204382 
L 203.343711 158.150656 
L 201.347017 160.047652 
L 199.350323 162.137863 
L 197.353629 164.243345 
L 195.356934 166.149803 
L 193.36024 167.658894 
L 191.363546 168.972402 
L 189.366852 170.1547 
L 187.370158 171.213876 
L 185.373463 172.090456 
L 183.376769 173.05477 
L 181.380075 174.10282 
L 179.383381 174.963127 
L 177.386686 175.676499 
L 175.389992 176.344303 
L 173.393298 177.330282 
L 171.396604 178.106506 
L 169.39991 178.971559 
L 167.403215 179.739686 
L 165.406521 180.404525 
L 163.409827 180.966593 
L 161.413133 181.465768 
L 159.416439 181.895114 
L 157.419744 182.375913 
L 155.42305 182.980915 
L 153.426356 183.700323 
L 151.429662 184.751827 
L 149.432967 185.843243 
L 147.436273 186.849812 
L 145.439579 187.80746 
L 143.442885 188.691198 
L 141.446191 189.459411 
L 139.449496 190.036007 
L 137.452802 190.233666 
L 135.456108 190.345382 
L 133.459414 190.439333 
L 131.46272 190.449764 
L 129.466025 190.813999 
L 127.469331 190.926445 
L 125.472637 191.205902 
L 123.475943 191.91056 
L 121.479248 192.546385 
L 119.482554 193.274574 
L 117.48586 193.569089 
L 115.489166 193.754657 
L 113.492472 193.920249 
L 111.495777 194.105029 
L 109.499083 194.30902 
L 107.502389 194.582644 
L 105.505695 194.715359 
L 103.509001 194.641995 
L 101.512306 194.40463 
L 99.515612 194.126367 
L 97.518918 194.067491 
L 95.522224 194.031753 
L 93.525529 193.897642 
L 91.528835 193.77363 
L 89.532141 194.114604 
L 87.535447 194.513786 
L 85.538753 194.932723 
L 83.542058 195.214611 
L 81.545364 195.321718 
L 79.54867 195.447569 
L 77.551976 195.6103 
L 75.555282 195.5675 
L 73.558587 195.620056 
L 71.561893 195.702957 
L 69.565199 195.690902 
" style="fill:none;stroke:#bcbd22;stroke-dasharray:2,3.3;stroke-dashoffset:0;stroke-width:2;"/>
   </g>
   <g id="line2d_18">
    <path clip-path="url(#p43c68c243a)" d="M 267.237926 91.623719 
L 265.241232 91.623719 
L 263.244538 92.806303 
L 261.247843 96.943663 
L 259.251149 100.747922 
L 257.254455 105.264004 
L 255.257761 109.386797 
L 253.261067 113.148081 
L 251.264372 116.577467 
L 249.267678 119.702605 
L 247.270984 122.549637 
L 245.27429 125.141676 
L 243.277596 128.234356 
L 241.280901 131.600389 
L 239.284207 134.602602 
L 237.287513 137.275043 
L 235.290819 139.64934 
L 233.294124 142.419665 
L 231.29743 145.57979 
L 229.300736 148.452518 
L 227.304042 150.456238 
L 225.307348 152.316761 
L 223.310653 154.057858 
L 221.313959 155.663403 
L 219.317265 157.143821 
L 217.320571 158.509883 
L 215.323877 159.769993 
L 213.327182 161.284815 
L 211.330488 162.920886 
L 209.333794 164.465718 
L 207.3371 165.883715 
L 205.340405 167.186842 
L 203.343711 168.382777 
L 201.347017 169.481335 
L 199.350323 171.630814 
L 197.353629 174.516125 
L 195.356934 176.900502 
L 193.36024 179.028439 
L 191.363546 181.586965 
L 189.366852 183.923048 
L 187.370158 186.208049 
L 185.373463 187.390628 
L 183.376769 188.647649 
L 181.380075 190.27115 
L 179.383381 191.841282 
L 177.386686 193.223529 
L 175.389992 194.429908 
L 173.393298 195.479661 
L 171.396604 196.389891 
L 169.39991 197.52311 
L 167.403215 198.475357 
L 165.406521 199.33823 
L 163.409827 200.016237 
L 161.413133 200.386141 
L 159.416439 200.882585 
L 157.419744 201.182252 
L 155.42305 202.579704 
L 153.426356 204.31404 
L 151.429662 205.466141 
L 149.432967 206.446508 
L 147.436273 207.271317 
L 145.439579 207.859519 
L 143.442885 208.487563 
L 141.446191 209.133042 
L 139.449496 209.700843 
L 137.452802 210.199123 
L 135.456108 210.627831 
L 133.459414 211.551402 
L 131.46272 212.333577 
L 129.466025 213.021852 
L 127.469331 213.629522 
L 125.472637 214.155521 
L 123.475943 214.497399 
L 121.479248 214.674267 
L 119.482554 214.756364 
L 117.48586 214.612105 
L 115.489166 214.598101 
L 113.492472 214.580699 
L 111.495777 214.560394 
L 109.499083 214.507903 
L 107.502389 214.204094 
L 105.505695 213.474438 
L 103.509001 212.432225 
L 101.512306 211.616847 
L 99.515612 211.104919 
L 97.518918 210.579398 
L 95.522224 209.554548 
L 93.525529 207.96566 
L 91.528835 206.180281 
L 89.532141 204.502521 
L 87.535447 202.923812 
L 85.538753 200.939574 
L 83.542058 198.924655 
L 81.545364 196.917821 
L 79.54867 195.091897 
L 77.551976 193.522626 
L 75.555282 192.1355 
L 73.558587 190.739812 
L 71.561893 189.309086 
L 69.565199 187.918604 
" style="fill:none;stroke:#17becf;stroke-dasharray:2,3.3;stroke-dashoffset:0;stroke-width:2;"/>
   </g>
   <g id="line2d_19">
    <path clip-path="url(#p43c68c243a)" d="M 267.237926 96.563562 
L 265.241232 96.670049 
L 263.244538 97.625785 
L 261.247843 101.156338 
L 259.251149 104.882144 
L 257.254455 108.390964 
L 255.257761 111.613604 
L 253.261067 114.483843 
L 251.264372 117.036036 
L 249.267678 119.301973 
L 247.270984 121.310936 
L 245.27429 122.949547 
L 243.277596 124.523671 
L 241.280901 126.869319 
L 239.284207 129.936457 
L 237.287513 132.957815 
L 235.290819 136.073395 
L 233.294124 139.280215 
L 231.29743 142.159702 
L 229.300736 144.706271 
L 227.304042 146.892037 
L 225.307348 148.812381 
L 223.310653 150.647468 
L 221.313959 152.427035 
L 219.317265 154.2149 
L 217.320571 155.871265 
L 215.323877 157.250683 
L 213.327182 158.536245 
L 211.330488 159.664843 
L 209.333794 160.654104 
L 207.3371 161.624698 
L 205.340405 162.523925 
L 203.343711 163.359777 
L 201.347017 164.20502 
L 199.350323 165.232916 
L 197.353629 166.355653 
L 195.356934 167.302377 
L 193.36024 168.168076 
L 191.363546 169.002173 
L 189.366852 169.686237 
L 187.370158 170.312532 
L 185.373463 170.839171 
L 183.376769 171.422552 
L 181.380075 171.944755 
L 179.383381 172.510892 
L 177.386686 173.098236 
L 175.389992 173.613255 
L 173.393298 174.149233 
L 171.396604 174.660419 
L 169.39991 175.089014 
L 167.403215 175.385946 
L 165.406521 175.634138 
L 163.409827 175.782451 
L 161.413133 175.707259 
L 159.416439 175.762813 
L 157.419744 175.938762 
L 155.42305 176.430456 
L 153.426356 177.099687 
L 151.429662 177.718744 
L 149.432967 178.3888 
L 147.436273 179.042317 
L 145.439579 179.810524 
L 143.442885 180.488217 
L 141.446191 181.023384 
L 139.449496 181.453988 
L 137.452802 181.72283 
L 135.456108 181.893552 
L 133.459414 182.275041 
L 131.46272 182.6266 
L 129.466025 183.024704 
L 127.469331 183.433032 
L 125.472637 183.61003 
L 123.475943 183.67309 
L 121.479248 183.7262 
L 119.482554 183.69528 
L 117.48586 183.696319 
L 115.489166 183.23367 
L 113.492472 182.578148 
L 111.495777 181.965848 
L 109.499083 181.297965 
L 107.502389 180.478612 
L 105.505695 179.621553 
L 103.509001 178.213705 
L 101.512306 175.608892 
L 99.515612 174.230713 
L 97.518918 175.459865 
L 95.522224 174.711321 
L 93.525529 173.502329 
L 91.528835 172.246747 
L 89.532141 170.949655 
L 87.535447 169.507623 
L 85.538753 167.710011 
L 83.542058 166.27465 
L 81.545364 165.453722 
L 79.54867 164.518412 
L 77.551976 163.329982 
L 75.555282 162.333109 
L 73.558587 161.208616 
L 71.561893 159.253882 
L 69.565199 158.238363 
" style="fill:none;stroke:#000000;stroke-linecap:square;stroke-width:2.5;"/>
   </g>
   <g id="line2d_20">
    <path clip-path="url(#p43c68c243a)" d="M 121.479248 224.64 
L 121.479248 7.2 
" style="fill:none;stroke:#000000;stroke-dasharray:9.25,4;stroke-dashoffset:0;stroke-width:2.5;"/>
   </g>
   <g id="patch_3">
    <path d="M 59.681562 224.64 
L 59.681562 7.2 
" style="fill:none;stroke:#000000;stroke-linecap:square;stroke-linejoin:miter;stroke-width:0.8;"/>
   </g>
   <g id="patch_4">
    <path d="M 277.121562 224.64 
L 277.121562 7.2 
" style="fill:none;stroke:#000000;stroke-linecap:square;stroke-linejoin:miter;stroke-width:0.8;"/>
   </g>
   <g id="patch_5">
    <path d="M 59.681562 224.64 
L 277.121562 224.64 
" style="fill:none;stroke:#000000;stroke-linecap:square;stroke-linejoin:miter;stroke-width:0.8;"/>
   </g>
   <g id="patch_6">
    <path d="M 59.681562 7.2 
L 277.121562 7.2 
" style="fill:none;stroke:#000000;stroke-linecap:square;stroke-linejoin:miter;stroke-width:0.8;"/>
   </g>
  </g>
 </g>
 <defs>
  <clipPath id="p43c68c243a">
   <rect height="217.44" width="217.44" x="59.681562" y="7.2"/>
  </clipPath>
 </defs>
</svg>
