<?xml version="1.0" encoding="utf-8" standalone="no"?>
<!DOCTYPE svg PUBLIC "-//W3C//DTD SVG 1.1//EN"
  "http://www.w3.org/Graphics/SVG/1.1/DTD/svg11.dtd">
<svg height="281.441562pt" version="1.1" viewBox="0 0 288.567926 281.441562" width="288.567926pt" xmlns="http://www.w3.org/2000/svg" xmlns:xlink="http://www.w3.org/1999/xlink">
 <metadata>
  <rdf:RDF xmlns:cc="http://creativecommons.org/ns#" xmlns:dc="http://purl.org/dc/elements/1.1/" xmlns:rdf="http://www.w3.org/1999/02/22-rdf-syntax-ns#">
   <cc:Work>
    <dc:type rdf:resource="http://purl.org/dc/dcmitype/StillImage"/>
    <dc:date>2024-09-24T16:54:54.685753</dc:date>
    <dc:format>image/svg+xml</dc:format>
    <dc:creator>
     <cc:Agent>
      <dc:title>Matplotlib v3.4.3, https://matplotlib.org/</dc:title>
     </cc:Agent>
    </dc:creator>
   </cc:Work>
  </rdf:RDF>
 </metadata>
 <defs>
  <style type="text/css">*{stroke-linecap:butt;stroke-linejoin:round;}</style>
 </defs>
 <g id="figure_1">
  <g id="patch_1">
   <path d="M 0 281.441562 
L 288.567926 281.441562 
L 288.567926 0 
L 0 0 
z
" style="fill:#ffffff;"/>
  </g>
  <g id="axes_1">
   <g id="patch_2">
    <path d="M 59.681562 224.64 
L 277.121562 224.64 
L 277.121562 7.2 
L 59.681562 7.2 
z
" style="fill:#ffffff;"/>
   </g>
   <g id="matplotlib.axis_1">
    <g id="xtick_1">
     <g id="line2d_1">
      <defs>
       <path d="M 0 0 
L 0 3.5 
" id="ma12108a42a" style="stroke:#000000;stroke-width:1.5;"/>
      </defs>
      <g>
       <use style="stroke:#000000;stroke-width:1.5;" x="69.565199" xlink:href="#ma12108a42a" y="224.64"/>
      </g>
     </g>
     <g id="text_1">
      <!-- $\mathdefault{10^{-3}}$ -->
      <g transform="translate(51.745199 250.2025)scale(0.18 -0.18)">
       <defs>
        <path d="M 2384 0 
L 1822 0 
L 1822 3584 
Q 1619 3391 1289 3197 
Q 959 3003 697 2906 
L 697 3450 
Q 1169 3672 1522 3987 
Q 1875 4303 2022 4600 
L 2384 4600 
L 2384 0 
z
" id="ArialMT-31" transform="scale(0.015625)"/>
        <path d="M 266 2259 
Q 266 3072 433 3567 
Q 600 4063 929 4331 
Q 1259 4600 1759 4600 
Q 2128 4600 2406 4451 
Q 2684 4303 2865 4023 
Q 3047 3744 3150 3342 
Q 3253 2941 3253 2259 
Q 3253 1453 3087 958 
Q 2922 463 2592 192 
Q 2263 -78 1759 -78 
Q 1097 -78 719 397 
Q 266 969 266 2259 
z
M 844 2259 
Q 844 1131 1108 757 
Q 1372 384 1759 384 
Q 2147 384 2411 759 
Q 2675 1134 2675 2259 
Q 2675 3391 2411 3762 
Q 2147 4134 1753 4134 
Q 1366 4134 1134 3806 
Q 844 3388 844 2259 
z
" id="ArialMT-30" transform="scale(0.015625)"/>
        <path d="M 3381 1997 
L 356 1997 
L 356 2522 
L 3381 2522 
L 3381 1997 
z
" id="ArialMT-2212" transform="scale(0.015625)"/>
        <path d="M 269 1209 
L 831 1284 
Q 928 806 1161 595 
Q 1394 384 1728 384 
Q 2125 384 2398 659 
Q 2672 934 2672 1341 
Q 2672 1728 2419 1979 
Q 2166 2231 1775 2231 
Q 1616 2231 1378 2169 
L 1441 2663 
Q 1497 2656 1531 2656 
Q 1891 2656 2178 2843 
Q 2466 3031 2466 3422 
Q 2466 3731 2256 3934 
Q 2047 4138 1716 4138 
Q 1388 4138 1169 3931 
Q 950 3725 888 3313 
L 325 3413 
Q 428 3978 793 4289 
Q 1159 4600 1703 4600 
Q 2078 4600 2393 4439 
Q 2709 4278 2876 4000 
Q 3044 3722 3044 3409 
Q 3044 3113 2884 2869 
Q 2725 2625 2413 2481 
Q 2819 2388 3044 2092 
Q 3269 1797 3269 1353 
Q 3269 753 2831 336 
Q 2394 -81 1725 -81 
Q 1122 -81 723 278 
Q 325 638 269 1209 
z
" id="ArialMT-33" transform="scale(0.015625)"/>
       </defs>
       <use transform="translate(0 0.99375)" xlink:href="#ArialMT-31"/>
       <use transform="translate(55.615234 0.99375)" xlink:href="#ArialMT-30"/>
       <use transform="translate(112.972813 70.6875)scale(0.7)" xlink:href="#ArialMT-2212"/>
       <use transform="translate(153.851719 70.6875)scale(0.7)" xlink:href="#ArialMT-33"/>
      </g>
     </g>
    </g>
    <g id="xtick_2">
     <g id="line2d_2">
      <g>
       <use style="stroke:#000000;stroke-width:1.5;" x="135.456108" xlink:href="#ma12108a42a" y="224.64"/>
      </g>
     </g>
     <g id="text_2">
      <!-- $\mathdefault{10^{-2}}$ -->
      <g transform="translate(117.636108 250.2025)scale(0.18 -0.18)">
       <defs>
        <path d="M 3222 541 
L 3222 0 
L 194 0 
Q 188 203 259 391 
Q 375 700 629 1000 
Q 884 1300 1366 1694 
Q 2113 2306 2375 2664 
Q 2638 3022 2638 3341 
Q 2638 3675 2398 3904 
Q 2159 4134 1775 4134 
Q 1369 4134 1125 3890 
Q 881 3647 878 3216 
L 300 3275 
Q 359 3922 746 4261 
Q 1134 4600 1788 4600 
Q 2447 4600 2831 4234 
Q 3216 3869 3216 3328 
Q 3216 3053 3103 2787 
Q 2991 2522 2730 2228 
Q 2469 1934 1863 1422 
Q 1356 997 1212 845 
Q 1069 694 975 541 
L 3222 541 
z
" id="ArialMT-32" transform="scale(0.015625)"/>
       </defs>
       <use transform="translate(0 0.99375)" xlink:href="#ArialMT-31"/>
       <use transform="translate(55.615234 0.99375)" xlink:href="#ArialMT-30"/>
       <use transform="translate(112.972813 70.6875)scale(0.7)" xlink:href="#ArialMT-2212"/>
       <use transform="translate(153.851719 70.6875)scale(0.7)" xlink:href="#ArialMT-32"/>
      </g>
     </g>
    </g>
    <g id="xtick_3">
     <g id="line2d_3">
      <g>
       <use style="stroke:#000000;stroke-width:1.5;" x="201.347017" xlink:href="#ma12108a42a" y="224.64"/>
      </g>
     </g>
     <g id="text_3">
      <!-- $\mathdefault{10^{-1}}$ -->
      <g transform="translate(183.527017 250.2025)scale(0.18 -0.18)">
       <use transform="translate(0 0.99375)" xlink:href="#ArialMT-31"/>
       <use transform="translate(55.615234 0.99375)" xlink:href="#ArialMT-30"/>
       <use transform="translate(112.972813 70.6875)scale(0.7)" xlink:href="#ArialMT-2212"/>
       <use transform="translate(153.851719 70.6875)scale(0.7)" xlink:href="#ArialMT-31"/>
      </g>
     </g>
    </g>
    <g id="xtick_4">
     <g id="line2d_4">
      <g>
       <use style="stroke:#000000;stroke-width:1.5;" x="267.237926" xlink:href="#ma12108a42a" y="224.64"/>
      </g>
     </g>
     <g id="text_4">
      <!-- $\mathdefault{10^{0}}$ -->
      <g transform="translate(253.107926 250.2025)scale(0.18 -0.18)">
       <use transform="translate(0 0.99375)" xlink:href="#ArialMT-31"/>
       <use transform="translate(55.615234 0.99375)" xlink:href="#ArialMT-30"/>
       <use transform="translate(112.972813 70.6875)scale(0.7)" xlink:href="#ArialMT-30"/>
      </g>
     </g>
    </g>
    <g id="text_5">
     <!-- α -->
     <g transform="translate(163.198438 270.664062)scale(0.18 -0.18)">
      <defs>
       <path d="M 2884 3319 
L 3459 3319 
Q 3241 2631 3056 1659 
Q 3275 453 3459 0 
L 2900 0 
Q 2766 313 2697 606 
Q 2438 -75 1613 -75 
Q 988 -75 606 394 
Q 225 863 225 1666 
Q 225 2491 608 2942 
Q 991 3394 1622 3394 
Q 2013 3394 2259 3236 
Q 2506 3078 2719 2756 
Q 2741 2866 2884 3319 
z
M 1716 2928 
Q 1313 2928 1078 2603 
Q 844 2278 844 1666 
Q 844 1069 1066 728 
Q 1288 388 1684 388 
Q 2072 388 2331 723 
Q 2591 1059 2591 1691 
Q 2591 2303 2348 2615 
Q 2106 2928 1716 2928 
z
" id="ArialMT-3b1" transform="scale(0.015625)"/>
      </defs>
      <use xlink:href="#ArialMT-3b1"/>
     </g>
    </g>
   </g>
   <g id="matplotlib.axis_2">
    <g id="ytick_1">
     <g id="line2d_5">
      <defs>
       <path d="M 0 0 
L -3.5 0 
" id="m1004617f11" style="stroke:#000000;stroke-width:1.5;"/>
      </defs>
      <g>
       <use style="stroke:#000000;stroke-width:1.5;" x="59.681562" xlink:href="#m1004617f11" y="193.682515"/>
      </g>
     </g>
     <g id="text_6">
      <!-- 0.5 -->
      <g transform="translate(27.661562 200.124546)scale(0.18 -0.18)">
       <defs>
        <path d="M 581 0 
L 581 641 
L 1222 641 
L 1222 0 
L 581 0 
z
" id="ArialMT-2e" transform="scale(0.015625)"/>
        <path d="M 266 1200 
L 856 1250 
Q 922 819 1161 601 
Q 1400 384 1738 384 
Q 2144 384 2425 690 
Q 2706 997 2706 1503 
Q 2706 1984 2436 2262 
Q 2166 2541 1728 2541 
Q 1456 2541 1237 2417 
Q 1019 2294 894 2097 
L 366 2166 
L 809 4519 
L 3088 4519 
L 3088 3981 
L 1259 3981 
L 1013 2750 
Q 1425 3038 1878 3038 
Q 2478 3038 2890 2622 
Q 3303 2206 3303 1553 
Q 3303 931 2941 478 
Q 2500 -78 1738 -78 
Q 1113 -78 717 272 
Q 322 622 266 1200 
z
" id="ArialMT-35" transform="scale(0.015625)"/>
       </defs>
       <use xlink:href="#ArialMT-30"/>
       <use x="55.615234" xlink:href="#ArialMT-2e"/>
       <use x="83.398438" xlink:href="#ArialMT-35"/>
      </g>
     </g>
    </g>
    <g id="ytick_2">
     <g id="line2d_6">
      <g>
       <use style="stroke:#000000;stroke-width:1.5;" x="59.681562" xlink:href="#m1004617f11" y="136.500165"/>
      </g>
     </g>
     <g id="text_7">
      <!-- 1.0 -->
      <g transform="translate(27.661562 142.942197)scale(0.18 -0.18)">
       <use xlink:href="#ArialMT-31"/>
       <use x="55.615234" xlink:href="#ArialMT-2e"/>
       <use x="83.398438" xlink:href="#ArialMT-30"/>
      </g>
     </g>
    </g>
    <g id="ytick_3">
     <g id="line2d_7">
      <g>
       <use style="stroke:#000000;stroke-width:1.5;" x="59.681562" xlink:href="#m1004617f11" y="79.317816"/>
      </g>
     </g>
     <g id="text_8">
      <!-- 1.5 -->
      <g transform="translate(27.661562 85.759847)scale(0.18 -0.18)">
       <use xlink:href="#ArialMT-31"/>
       <use x="55.615234" xlink:href="#ArialMT-2e"/>
       <use x="83.398438" xlink:href="#ArialMT-35"/>
      </g>
     </g>
    </g>
    <g id="ytick_4">
     <g id="line2d_8">
      <g>
       <use style="stroke:#000000;stroke-width:1.5;" x="59.681562" xlink:href="#m1004617f11" y="22.135466"/>
      </g>
     </g>
     <g id="text_9">
      <!-- 2.0 -->
      <g transform="translate(27.661562 28.577497)scale(0.18 -0.18)">
       <use xlink:href="#ArialMT-32"/>
       <use x="55.615234" xlink:href="#ArialMT-2e"/>
       <use x="83.398438" xlink:href="#ArialMT-30"/>
      </g>
     </g>
    </g>
    <g id="text_10">
     <!-- RMSE -->
     <g transform="translate(20.084062 141.922969)rotate(-90)scale(0.18 -0.18)">
      <defs>
       <path d="M 503 0 
L 503 4581 
L 2534 4581 
Q 3147 4581 3465 4457 
Q 3784 4334 3975 4021 
Q 4166 3709 4166 3331 
Q 4166 2844 3850 2509 
Q 3534 2175 2875 2084 
Q 3116 1969 3241 1856 
Q 3506 1613 3744 1247 
L 4541 0 
L 3778 0 
L 3172 953 
Q 2906 1366 2734 1584 
Q 2563 1803 2427 1890 
Q 2291 1978 2150 2013 
Q 2047 2034 1813 2034 
L 1109 2034 
L 1109 0 
L 503 0 
z
M 1109 2559 
L 2413 2559 
Q 2828 2559 3062 2645 
Q 3297 2731 3419 2920 
Q 3541 3109 3541 3331 
Q 3541 3656 3305 3865 
Q 3069 4075 2559 4075 
L 1109 4075 
L 1109 2559 
z
" id="ArialMT-52" transform="scale(0.015625)"/>
       <path d="M 475 0 
L 475 4581 
L 1388 4581 
L 2472 1338 
Q 2622 884 2691 659 
Q 2769 909 2934 1394 
L 4031 4581 
L 4847 4581 
L 4847 0 
L 4263 0 
L 4263 3834 
L 2931 0 
L 2384 0 
L 1059 3900 
L 1059 0 
L 475 0 
z
" id="ArialMT-4d" transform="scale(0.015625)"/>
       <path d="M 288 1472 
L 859 1522 
Q 900 1178 1048 958 
Q 1197 738 1509 602 
Q 1822 466 2213 466 
Q 2559 466 2825 569 
Q 3091 672 3220 851 
Q 3350 1031 3350 1244 
Q 3350 1459 3225 1620 
Q 3100 1781 2813 1891 
Q 2628 1963 1997 2114 
Q 1366 2266 1113 2400 
Q 784 2572 623 2826 
Q 463 3081 463 3397 
Q 463 3744 659 4045 
Q 856 4347 1234 4503 
Q 1613 4659 2075 4659 
Q 2584 4659 2973 4495 
Q 3363 4331 3572 4012 
Q 3781 3694 3797 3291 
L 3216 3247 
Q 3169 3681 2898 3903 
Q 2628 4125 2100 4125 
Q 1550 4125 1298 3923 
Q 1047 3722 1047 3438 
Q 1047 3191 1225 3031 
Q 1400 2872 2139 2705 
Q 2878 2538 3153 2413 
Q 3553 2228 3743 1945 
Q 3934 1663 3934 1294 
Q 3934 928 3725 604 
Q 3516 281 3123 101 
Q 2731 -78 2241 -78 
Q 1619 -78 1198 103 
Q 778 284 539 648 
Q 300 1013 288 1472 
z
" id="ArialMT-53" transform="scale(0.015625)"/>
       <path d="M 506 0 
L 506 4581 
L 3819 4581 
L 3819 4041 
L 1113 4041 
L 1113 2638 
L 3647 2638 
L 3647 2100 
L 1113 2100 
L 1113 541 
L 3925 541 
L 3925 0 
L 506 0 
z
" id="ArialMT-45" transform="scale(0.015625)"/>
      </defs>
      <use xlink:href="#ArialMT-52"/>
      <use x="72.216797" xlink:href="#ArialMT-4d"/>
      <use x="155.517578" xlink:href="#ArialMT-53"/>
      <use x="222.216797" xlink:href="#ArialMT-45"/>
     </g>
    </g>
   </g>
   <g id="line2d_9">
    <path clip-path="url(#p79b53bc17c)" d="M 267.237926 101.842483 
L 265.241232 101.842483 
L 263.244538 101.842483 
L 261.247843 101.842483 
L 259.251149 102.216027 
L 257.254455 104.018439 
L 255.257761 105.848853 
L 253.261067 107.499284 
L 251.264372 108.899486 
L 249.267678 110.080678 
L 247.270984 111.07115 
L 245.27429 111.896151 
L 243.277596 112.578145 
L 241.280901 113.097816 
L 239.284207 114.676122 
L 237.287513 116.714733 
L 235.290819 118.518785 
L 233.294124 120.135344 
L 231.29743 121.839341 
L 229.300736 123.778623 
L 227.304042 125.550507 
L 225.307348 127.167676 
L 223.310653 128.644654 
L 221.313959 129.993855 
L 219.317265 131.140338 
L 217.320571 132.256584 
L 215.323877 133.269553 
L 213.327182 134.197605 
L 211.330488 135.116233 
L 209.333794 135.960766 
L 207.3371 137.397768 
L 205.340405 139.194754 
L 203.343711 140.903084 
L 201.347017 142.542918 
L 199.350323 144.149804 
L 197.353629 145.67155 
L 195.356934 147.05644 
L 193.36024 148.401923 
L 191.363546 149.739258 
L 189.366852 150.970383 
L 187.370158 152.090716 
L 185.373463 153.446952 
L 183.376769 155.428189 
L 181.380075 157.234439 
L 179.383381 158.886815 
L 177.386686 160.557855 
L 175.389992 162.200883 
L 173.393298 163.815665 
L 171.396604 165.156342 
L 169.39991 166.297161 
L 167.403215 167.340506 
L 165.406521 168.312275 
L 163.409827 169.174288 
L 161.413133 169.95509 
L 159.416439 170.698617 
L 157.419744 171.631672 
L 155.42305 172.433415 
L 153.426356 173.125601 
L 151.429662 173.913317 
L 149.432967 174.844262 
L 147.436273 175.611341 
L 145.439579 175.977734 
L 143.442885 176.27737 
L 141.446191 176.594881 
L 139.449496 176.882495 
L 137.452802 177.300424 
L 135.456108 177.636092 
L 133.459414 177.871599 
L 131.46272 178.348202 
L 129.466025 178.750986 
L 127.469331 178.985498 
L 125.472637 179.136882 
L 123.475943 179.241353 
L 121.479248 179.327786 
L 119.482554 179.666457 
L 117.48586 179.965508 
L 115.489166 180.13182 
L 113.492472 180.323178 
L 111.495777 180.616558 
L 109.499083 180.769604 
L 107.502389 181.048126 
L 105.505695 181.597125 
L 103.509001 182.332078 
L 101.512306 183.088437 
L 99.515612 184.011742 
L 97.518918 184.825673 
L 95.522224 185.301173 
L 93.525529 185.481231 
L 91.528835 185.675633 
L 89.532141 186.235209 
L 87.535447 187.108013 
L 85.538753 188.290043 
L 83.542058 189.573586 
L 81.545364 190.447668 
L 79.54867 191.087898 
L 77.551976 191.717313 
L 75.555282 192.277154 
L 73.558587 192.849513 
L 71.561893 193.634106 
L 69.565199 194.308247 
" style="fill:none;stroke:#1f77b4;stroke-dasharray:2,3.3;stroke-dashoffset:0;stroke-width:2;"/>
   </g>
   <g id="line2d_10">
    <path clip-path="url(#p79b53bc17c)" d="M 267.237926 101.842483 
L 265.241232 101.842483 
L 263.244538 101.842483 
L 261.247843 101.842483 
L 259.251149 102.195107 
L 257.254455 104.079674 
L 255.257761 105.880908 
L 253.261067 107.449026 
L 251.264372 108.673 
L 249.267678 109.601516 
L 247.270984 110.278582 
L 245.27429 110.743338 
L 243.277596 111.030338 
L 241.280901 111.169887 
L 239.284207 111.28497 
L 237.287513 111.355924 
L 235.290819 115.291527 
L 233.294124 119.871933 
L 231.29743 123.920077 
L 229.300736 127.480679 
L 227.304042 130.598545 
L 225.307348 133.286508 
L 223.310653 135.823259 
L 221.313959 138.175377 
L 219.317265 140.170361 
L 217.320571 141.85583 
L 215.323877 143.504965 
L 213.327182 145.047383 
L 211.330488 146.336934 
L 209.333794 147.419964 
L 207.3371 148.312233 
L 205.340405 149.024286 
L 203.343711 149.54752 
L 201.347017 149.958211 
L 199.350323 150.274954 
L 197.353629 150.506098 
L 195.356934 150.706451 
L 193.36024 151.241383 
L 191.363546 151.708905 
L 189.366852 152.144457 
L 187.370158 152.567822 
L 185.373463 153.242843 
L 183.376769 153.702095 
L 181.380075 154.140592 
L 179.383381 154.573165 
L 177.386686 154.92004 
L 175.389992 155.195644 
L 173.393298 155.410656 
L 171.396604 155.57129 
L 169.39991 155.716251 
L 167.403215 155.817554 
L 165.406521 155.895745 
L 163.409827 155.95491 
L 161.413133 155.997813 
L 159.416439 156.022541 
L 157.419744 155.784158 
L 155.42305 155.869913 
L 153.426356 155.965272 
L 151.429662 156.474328 
L 149.432967 157.34217 
L 147.436273 157.531669 
L 145.439579 158.07857 
L 143.442885 158.809353 
L 141.446191 159.393274 
L 139.449496 159.844827 
L 137.452802 160.344618 
L 135.456108 161.150417 
L 133.459414 161.929686 
L 131.46272 161.92289 
L 129.466025 161.785093 
L 127.469331 161.866669 
L 125.472637 162.032952 
L 123.475943 162.24844 
L 121.479248 162.441114 
L 119.482554 163.098285 
L 117.48586 163.744182 
L 115.489166 163.973976 
L 113.492472 164.784339 
L 111.495777 165.182278 
L 109.499083 165.207255 
L 107.502389 165.351482 
L 105.505695 165.769071 
L 103.509001 166.194963 
L 101.512306 166.571063 
L 99.515612 166.748139 
L 97.518918 166.915344 
L 95.522224 167.05549 
L 93.525529 167.205416 
L 91.528835 167.381873 
L 89.532141 167.352369 
L 87.535447 167.440963 
L 85.538753 167.775105 
L 83.542058 168.074871 
L 81.545364 168.244778 
L 79.54867 168.317772 
L 77.551976 168.359591 
L 75.555282 168.403282 
L 73.558587 168.359335 
L 71.561893 168.414992 
L 69.565199 168.460344 
" style="fill:none;stroke:#ff7f0e;stroke-dasharray:2,3.3;stroke-dashoffset:0;stroke-width:2;"/>
   </g>
   <g id="line2d_11">
    <path clip-path="url(#p79b53bc17c)" d="M 267.237926 101.842483 
L 265.241232 101.842483 
L 263.244538 101.842483 
L 261.247843 101.842483 
L 259.251149 101.842483 
L 257.254455 102.783373 
L 255.257761 106.236767 
L 253.261067 109.398532 
L 251.264372 112.189408 
L 249.267678 114.646472 
L 247.270984 116.804141 
L 245.27429 118.694416 
L 243.277596 120.34653 
L 241.280901 121.787247 
L 239.284207 123.092377 
L 237.287513 124.455844 
L 235.290819 130.324302 
L 233.294124 136.163652 
L 231.29743 141.305174 
L 229.300736 145.796371 
L 227.304042 149.661909 
L 225.307348 152.827847 
L 223.310653 155.497666 
L 221.313959 158.141697 
L 219.317265 160.569168 
L 217.320571 162.565541 
L 215.323877 163.921501 
L 213.327182 164.327668 
L 211.330488 165.162732 
L 209.333794 165.831806 
L 207.3371 166.350176 
L 205.340405 166.770608 
L 203.343711 167.122101 
L 201.347017 167.386801 
L 199.350323 167.520375 
L 197.353629 167.589448 
L 195.356934 167.788203 
L 193.36024 168.167006 
L 191.363546 168.463802 
L 189.366852 168.860634 
L 187.370158 169.339771 
L 185.373463 169.724119 
L 183.376769 170.838415 
L 181.380075 172.485938 
L 179.383381 173.528832 
L 177.386686 174.021362 
L 175.389992 174.283911 
L 173.393298 173.67835 
L 171.396604 173.236409 
L 169.39991 173.072072 
L 167.403215 172.846648 
L 165.406521 172.582386 
L 163.409827 171.596049 
L 161.413133 170.435841 
L 159.416439 169.599332 
L 157.419744 169.102736 
L 155.42305 168.541564 
L 153.426356 168.071703 
L 151.429662 167.598486 
L 149.432967 167.016503 
L 147.436273 166.352532 
L 145.439579 165.994377 
L 143.442885 165.941668 
L 141.446191 166.207479 
L 139.449496 166.328616 
L 137.452802 166.405892 
L 135.456108 166.166118 
L 133.459414 165.405011 
L 131.46272 164.479451 
L 129.466025 163.504359 
L 127.469331 162.630874 
L 125.472637 160.629079 
L 123.475943 147.614813 
L 121.479248 142.151904 
L 119.482554 136.304378 
L 117.48586 130.355957 
L 115.489166 124.159175 
L 113.492472 117.351699 
L 111.495777 109.975852 
L 109.499083 102.872293 
L 107.502389 96.985385 
L 105.505695 92.664816 
L 103.509001 87.880896 
L 101.512306 83.528174 
L 99.515612 68.756643 
L 97.518918 52.611837 
L 95.522224 44.325354 
L 93.525529 39.132736 
L 91.528835 34.808096 
L 89.532141 30.27301 
L 87.535447 20.551601 
L 85.538753 18.918401 
L 83.542058 18.340054 
L 81.545364 17.083636 
L 79.54867 17.804773 
L 77.551976 40.714307 
L 75.555282 39.537672 
L 73.558587 38.697095 
L 71.561893 38.455767 
L 69.565199 38.179618 
" style="fill:none;stroke:#2ca02c;stroke-dasharray:2,3.3;stroke-dashoffset:0;stroke-width:2;"/>
   </g>
   <g id="line2d_12">
    <path clip-path="url(#p79b53bc17c)" d="M 267.237926 83.040578 
L 265.241232 83.040578 
L 263.244538 83.040578 
L 261.247843 83.040578 
L 259.251149 83.040578 
L 257.254455 83.040578 
L 255.257761 86.313222 
L 253.261067 89.799764 
L 251.264372 92.971692 
L 249.267678 96.155476 
L 247.270984 100.151596 
L 245.27429 103.808318 
L 243.277596 107.153257 
L 241.280901 110.273704 
L 239.284207 114.21624 
L 237.287513 117.79455 
L 235.290819 121.039069 
L 233.294124 124.95289 
L 231.29743 129.332246 
L 229.300736 133.11529 
L 227.304042 136.520265 
L 225.307348 139.580743 
L 223.310653 142.325394 
L 221.313959 144.781372 
L 219.317265 146.975766 
L 217.320571 148.933137 
L 215.323877 150.675633 
L 213.327182 152.251635 
L 211.330488 153.870551 
L 209.333794 156.140346 
L 207.3371 158.298934 
L 205.340405 160.391777 
L 203.343711 162.492173 
L 201.347017 164.44764 
L 199.350323 166.268653 
L 197.353629 167.888326 
L 195.356934 169.430792 
L 193.36024 170.882003 
L 191.363546 172.108845 
L 189.366852 173.214567 
L 187.370158 174.242671 
L 185.373463 175.497174 
L 183.376769 177.477792 
L 181.380075 179.314036 
L 179.383381 180.932918 
L 177.386686 182.489189 
L 175.389992 183.863044 
L 173.393298 185.129591 
L 171.396604 186.233968 
L 169.39991 187.231882 
L 167.403215 188.084783 
L 165.406521 188.648677 
L 163.409827 188.834106 
L 161.413133 188.817738 
L 159.416439 188.690204 
L 157.419744 188.405039 
L 155.42305 188.209064 
L 153.426356 187.883143 
L 151.429662 187.504166 
L 149.432967 186.755701 
L 147.436273 185.844167 
L 145.439579 185.215827 
L 143.442885 184.751862 
L 141.446191 184.133416 
L 139.449496 183.317261 
L 137.452802 182.510055 
L 135.456108 182.006323 
L 133.459414 181.766761 
L 131.46272 181.70717 
L 129.466025 181.439778 
L 127.469331 181.202168 
L 125.472637 180.334329 
L 123.475943 179.644678 
L 121.479248 179.45008 
L 119.482554 179.205876 
L 117.48586 179.089214 
L 115.489166 179.222481 
L 113.492472 179.35824 
L 111.495777 179.403733 
L 109.499083 179.178437 
L 107.502389 178.935058 
L 105.505695 178.627278 
L 103.509001 178.389966 
L 101.512306 178.465628 
L 99.515612 178.582388 
L 97.518918 178.721816 
L 95.522224 178.840056 
L 93.525529 178.800167 
L 91.528835 178.421718 
L 89.532141 178.377968 
L 87.535447 178.399731 
L 85.538753 178.3752 
L 83.542058 178.406434 
L 81.545364 178.478115 
L 79.54867 178.460588 
L 77.551976 178.597907 
L 75.555282 178.652746 
L 73.558587 178.452149 
L 71.561893 178.2439 
L 69.565199 178.103591 
" style="fill:none;stroke:#d62728;stroke-dasharray:2,3.3;stroke-dashoffset:0;stroke-width:2;"/>
   </g>
   <g id="line2d_13">
    <path clip-path="url(#p79b53bc17c)" d="M 267.237926 83.040578 
L 265.241232 83.040578 
L 263.244538 83.040578 
L 261.247843 83.040578 
L 259.251149 83.040578 
L 257.254455 83.040578 
L 255.257761 85.437549 
L 253.261067 89.50277 
L 251.264372 93.676922 
L 249.267678 98.161229 
L 247.270984 102.22426 
L 245.27429 105.901291 
L 243.277596 109.225327 
L 241.280901 112.227513 
L 239.284207 116.054299 
L 237.287513 119.781665 
L 235.290819 123.873036 
L 233.294124 127.729537 
L 231.29743 131.060929 
L 229.300736 133.950599 
L 227.304042 136.581389 
L 225.307348 138.975622 
L 223.310653 141.152976 
L 221.313959 143.133014 
L 219.317265 144.932454 
L 217.320571 146.4698 
L 215.323877 147.841812 
L 213.327182 149.080627 
L 211.330488 150.199537 
L 209.333794 151.458636 
L 207.3371 152.764462 
L 205.340405 154.270054 
L 203.343711 155.78599 
L 201.347017 157.169303 
L 199.350323 158.430736 
L 197.353629 159.590192 
L 195.356934 160.639185 
L 193.36024 161.455749 
L 191.363546 162.16973 
L 189.366852 163.015792 
L 187.370158 163.972802 
L 185.373463 164.875605 
L 183.376769 165.602668 
L 181.380075 167.451205 
L 179.383381 169.285424 
L 177.386686 170.963515 
L 175.389992 172.631985 
L 173.393298 174.486767 
L 171.396604 176.002848 
L 169.39991 177.373011 
L 167.403215 178.610679 
L 165.406521 180.009218 
L 163.409827 181.277177 
L 161.413133 182.403985 
L 159.416439 183.281664 
L 157.419744 184.061153 
L 155.42305 184.867942 
L 153.426356 185.686068 
L 151.429662 186.609296 
L 149.432967 187.606465 
L 147.436273 188.464983 
L 145.439579 189.213076 
L 143.442885 190.012004 
L 141.446191 190.824189 
L 139.449496 191.768332 
L 137.452802 192.51311 
L 135.456108 193.159867 
L 133.459414 193.630274 
L 131.46272 193.911328 
L 129.466025 194.05744 
L 127.469331 194.402479 
L 125.472637 194.530641 
L 123.475943 194.71361 
L 121.479248 194.811018 
L 119.482554 195.002506 
L 117.48586 194.626048 
L 115.489166 193.701549 
L 113.492472 192.684405 
L 111.495777 192.054535 
L 109.499083 191.837205 
L 107.502389 191.652574 
L 105.505695 191.453342 
L 103.509001 191.252529 
L 101.512306 191.080795 
L 99.515612 190.89813 
L 97.518918 190.787449 
L 95.522224 190.648308 
L 93.525529 190.308457 
L 91.528835 189.970834 
L 89.532141 189.56543 
L 87.535447 189.019627 
L 85.538753 188.522779 
L 83.542058 188.172466 
L 81.545364 187.829336 
L 79.54867 187.4574 
L 77.551976 187.17221 
L 75.555282 186.990635 
L 73.558587 186.777198 
L 71.561893 186.481028 
L 69.565199 186.130148 
" style="fill:none;stroke:#9467bd;stroke-dasharray:2,3.3;stroke-dashoffset:0;stroke-width:2;"/>
   </g>
   <g id="line2d_14">
    <path clip-path="url(#p79b53bc17c)" d="M 267.237926 91.370632 
L 265.241232 91.370632 
L 263.244538 91.370632 
L 261.247843 91.370632 
L 259.251149 91.370632 
L 257.254455 91.370632 
L 255.257761 95.122061 
L 253.261067 99.034955 
L 251.264372 102.913712 
L 249.267678 106.446672 
L 247.270984 109.662822 
L 245.27429 112.588673 
L 243.277596 115.249365 
L 241.280901 118.063075 
L 239.284207 121.038721 
L 237.287513 123.679311 
L 235.290819 127.065255 
L 233.294124 130.135917 
L 231.29743 132.917951 
L 229.300736 135.436272 
L 227.304042 137.714436 
L 225.307348 139.921666 
L 223.310653 141.972149 
L 221.313959 143.814917 
L 219.317265 145.286954 
L 217.320571 146.432864 
L 215.323877 147.397674 
L 213.327182 148.204442 
L 211.330488 148.87418 
L 209.333794 149.473133 
L 207.3371 150.01296 
L 205.340405 150.453056 
L 203.343711 151.299661 
L 201.347017 152.089707 
L 199.350323 152.756318 
L 197.353629 153.315617 
L 195.356934 153.770034 
L 193.36024 154.203537 
L 191.363546 154.586331 
L 189.366852 154.867266 
L 187.370158 155.19981 
L 185.373463 155.542054 
L 183.376769 156.026492 
L 181.380075 156.659006 
L 179.383381 157.679557 
L 177.386686 158.684803 
L 175.389992 159.930202 
L 173.393298 160.945089 
L 171.396604 161.825372 
L 169.39991 162.418894 
L 167.403215 162.938867 
L 165.406521 163.395438 
L 163.409827 163.796202 
L 161.413133 164.422895 
L 159.416439 165.074701 
L 157.419744 165.575182 
L 155.42305 166.299797 
L 153.426356 167.146216 
L 151.429662 168.250572 
L 149.432967 169.323118 
L 147.436273 170.285188 
L 145.439579 171.115017 
L 143.442885 171.816992 
L 141.446191 172.60665 
L 139.449496 173.042597 
L 137.452802 173.4169 
L 135.456108 173.793156 
L 133.459414 174.033675 
L 131.46272 174.212879 
L 129.466025 174.329375 
L 127.469331 174.394413 
L 125.472637 174.54605 
L 123.475943 174.714644 
L 121.479248 174.894395 
L 119.482554 175.049887 
L 117.48586 175.271292 
L 115.489166 175.458029 
L 113.492472 175.639637 
L 111.495777 175.850714 
L 109.499083 176.222899 
L 107.502389 176.599586 
L 105.505695 177.286614 
L 103.509001 177.905951 
L 101.512306 178.232103 
L 99.515612 178.725246 
L 97.518918 179.167009 
L 95.522224 179.56386 
L 93.525529 180.015368 
L 91.528835 180.732356 
L 89.532141 181.510326 
L 87.535447 182.242475 
L 85.538753 183.022363 
L 83.542058 183.928854 
L 81.545364 184.644338 
L 79.54867 185.038946 
L 77.551976 185.366248 
L 75.555282 185.672122 
L 73.558587 186.176136 
L 71.561893 186.629886 
L 69.565199 187.023391 
" style="fill:none;stroke:#8c564b;stroke-dasharray:2,3.3;stroke-dashoffset:0;stroke-width:2;"/>
   </g>
   <g id="line2d_15">
    <path clip-path="url(#p79b53bc17c)" d="M 267.237926 87.880288 
L 265.241232 87.880288 
L 263.244538 87.880288 
L 261.247843 87.880288 
L 259.251149 88.42165 
L 257.254455 89.412223 
L 255.257761 90.114759 
L 253.261067 90.574957 
L 251.264372 90.833011 
L 249.267678 90.924162 
L 247.270984 90.878866 
L 245.27429 90.723379 
L 243.277596 90.480158 
L 241.280901 90.132337 
L 239.284207 89.615681 
L 237.287513 89.099887 
L 235.290819 91.032616 
L 233.294124 94.199396 
L 231.29743 97.143031 
L 229.300736 99.805493 
L 227.304042 102.212133 
L 225.307348 104.442102 
L 223.310653 106.744757 
L 221.313959 109.228552 
L 219.317265 111.492497 
L 217.320571 113.557002 
L 215.323877 115.359819 
L 213.327182 117.096694 
L 211.330488 119.055445 
L 209.333794 121.160337 
L 207.3371 123.49578 
L 205.340405 125.645839 
L 203.343711 127.61642 
L 201.347017 129.498842 
L 199.350323 131.254981 
L 197.353629 132.873951 
L 195.356934 134.365329 
L 193.36024 135.741207 
L 191.363546 137.016131 
L 189.366852 138.341674 
L 187.370158 139.459539 
L 185.373463 140.455689 
L 183.376769 141.954875 
L 181.380075 143.307942 
L 179.383381 144.647281 
L 177.386686 146.173187 
L 175.389992 147.741664 
L 173.393298 149.486811 
L 171.396604 151.058055 
L 169.39991 152.471573 
L 167.403215 153.748755 
L 165.406521 154.767589 
L 163.409827 155.540843 
L 161.413133 156.268362 
L 159.416439 157.007076 
L 157.419744 157.988319 
L 155.42305 158.861547 
L 153.426356 159.721404 
L 151.429662 160.618547 
L 149.432967 161.515725 
L 147.436273 162.326202 
L 145.439579 162.997698 
L 143.442885 163.655329 
L 141.446191 164.527165 
L 139.449496 165.249754 
L 137.452802 166.0209 
L 135.456108 166.715476 
L 133.459414 167.198554 
L 131.46272 167.512423 
L 129.466025 167.81141 
L 127.469331 168.104053 
L 125.472637 168.363122 
L 123.475943 168.593509 
L 121.479248 168.846401 
L 119.482554 169.179598 
L 117.48586 169.567199 
L 115.489166 169.99097 
L 113.492472 170.383593 
L 111.495777 170.727417 
L 109.499083 170.996232 
L 107.502389 171.303449 
L 105.505695 171.608322 
L 103.509001 171.968147 
L 101.512306 172.163424 
L 99.515612 172.296884 
L 97.518918 172.31402 
L 95.522224 172.326483 
L 93.525529 172.540722 
L 91.528835 172.880919 
L 89.532141 172.994139 
L 87.535447 172.897177 
L 85.538753 172.479015 
L 83.542058 171.899468 
L 81.545364 171.555782 
L 79.54867 170.820845 
L 77.551976 170.068145 
L 75.555282 169.380117 
L 73.558587 168.780573 
L 71.561893 168.202953 
L 69.565199 167.519282 
" style="fill:none;stroke:#e377c2;stroke-dasharray:2,3.3;stroke-dashoffset:0;stroke-width:2;"/>
   </g>
   <g id="line2d_16">
    <path clip-path="url(#p79b53bc17c)" d="M 267.237926 65.787853 
L 265.241232 65.787853 
L 263.244538 65.787853 
L 261.247843 65.787853 
L 259.251149 65.787853 
L 257.254455 66.853256 
L 255.257761 69.407618 
L 253.261067 71.83553 
L 251.264372 74.721353 
L 249.267678 77.349107 
L 247.270984 79.741988 
L 245.27429 81.921211 
L 243.277596 83.906211 
L 241.280901 85.714966 
L 239.284207 87.475921 
L 237.287513 91.47091 
L 235.290819 94.924337 
L 233.294124 97.868253 
L 231.29743 100.358594 
L 229.300736 102.860283 
L 227.304042 105.46213 
L 225.307348 107.830655 
L 223.310653 109.949074 
L 221.313959 111.779388 
L 219.317265 113.356174 
L 217.320571 114.708228 
L 215.323877 115.890325 
L 213.327182 117.228633 
L 211.330488 118.499683 
L 209.333794 119.627605 
L 207.3371 120.702797 
L 205.340405 121.679979 
L 203.343711 122.075882 
L 201.347017 122.040417 
L 199.350323 122.177047 
L 197.353629 122.271003 
L 195.356934 122.3251 
L 193.36024 122.405844 
L 191.363546 122.45089 
L 189.366852 122.469779 
L 187.370158 122.46622 
L 185.373463 122.443933 
L 183.376769 122.66832 
L 181.380075 124.11599 
L 179.383381 125.021188 
L 177.386686 126.038751 
L 175.389992 127.127344 
L 173.393298 128.124688 
L 171.396604 129.040904 
L 169.39991 129.881794 
L 167.403215 130.713408 
L 165.406521 131.399549 
L 163.409827 132.031481 
L 161.413133 132.757919 
L 159.416439 133.189055 
L 157.419744 133.177977 
L 155.42305 133.231017 
L 153.426356 133.461954 
L 151.429662 133.781279 
L 149.432967 134.807365 
L 147.436273 135.539096 
L 145.439579 135.898836 
L 143.442885 136.392126 
L 141.446191 137.124017 
L 139.449496 138.049721 
L 137.452802 139.229988 
L 135.456108 140.494816 
L 133.459414 141.485521 
L 131.46272 142.352369 
L 129.466025 143.161422 
L 127.469331 144.098319 
L 125.472637 145.313501 
L 123.475943 146.404529 
L 121.479248 147.53207 
L 119.482554 148.707573 
L 117.48586 149.462521 
L 115.489166 149.376242 
L 113.492472 149.127443 
L 111.495777 148.817991 
L 109.499083 148.348889 
L 107.502389 148.00646 
L 105.505695 148.83607 
L 103.509001 152.230866 
L 101.512306 154.298144 
L 99.515612 154.920039 
L 97.518918 157.288344 
L 95.522224 158.803868 
L 93.525529 160.077343 
L 91.528835 161.367725 
L 89.532141 163.246176 
L 87.535447 164.915016 
L 85.538753 166.09726 
L 83.542058 164.746098 
L 81.545364 164.112227 
L 79.54867 177.937991 
L 77.551976 179.516014 
L 75.555282 181.116995 
L 73.558587 182.413877 
L 71.561893 183.526228 
L 69.565199 184.74828 
" style="fill:none;stroke:#7f7f7f;stroke-dasharray:2,3.3;stroke-dashoffset:0;stroke-width:2;"/>
   </g>
   <g id="line2d_17">
    <path clip-path="url(#p79b53bc17c)" d="M 267.237926 135.934838 
L 265.241232 135.934838 
L 263.244538 135.934838 
L 261.247843 135.934838 
L 259.251149 136.279506 
L 257.254455 138.737541 
L 255.257761 141.077123 
L 253.261067 143.138468 
L 251.264372 144.949865 
L 249.267678 146.537591 
L 247.270984 147.925847 
L 245.27429 149.136776 
L 243.277596 150.190664 
L 241.280901 151.510987 
L 239.284207 153.761317 
L 237.287513 155.875768 
L 235.290819 157.840719 
L 233.294124 160.313886 
L 231.29743 163.52896 
L 229.300736 166.433253 
L 227.304042 169.080434 
L 225.307348 171.526357 
L 223.310653 173.759136 
L 221.313959 175.795879 
L 219.317265 177.652753 
L 217.320571 179.345516 
L 215.323877 180.885572 
L 213.327182 182.228347 
L 211.330488 183.742412 
L 209.333794 185.063503 
L 207.3371 185.862972 
L 205.340405 186.406042 
L 203.343711 186.743402 
L 201.347017 186.882909 
L 199.350323 186.834525 
L 197.353629 186.625784 
L 195.356934 186.279719 
L 193.36024 185.826869 
L 191.363546 185.297505 
L 189.366852 184.966837 
L 187.370158 184.68395 
L 185.373463 184.231965 
L 183.376769 183.736357 
L 181.380075 183.229004 
L 179.383381 182.78274 
L 177.386686 182.348134 
L 175.389992 181.889528 
L 173.393298 181.361859 
L 171.396604 180.841078 
L 169.39991 180.33828 
L 167.403215 179.826317 
L 165.406521 179.353529 
L 163.409827 178.898822 
L 161.413133 178.611016 
L 159.416439 178.577101 
L 157.419744 179.071427 
L 155.42305 179.64439 
L 153.426356 179.567996 
L 151.429662 179.376133 
L 149.432967 179.171794 
L 147.436273 178.966179 
L 145.439579 179.089557 
L 143.442885 179.481111 
L 141.446191 179.682448 
L 139.449496 180.072985 
L 137.452802 180.378715 
L 135.456108 180.463932 
L 133.459414 180.566704 
L 131.46272 180.652929 
L 129.466025 180.699101 
L 127.469331 180.693567 
L 125.472637 180.831003 
L 123.475943 180.936935 
L 121.479248 181.137613 
L 119.482554 181.256587 
L 117.48586 181.243507 
L 115.489166 181.082675 
L 113.492472 180.663849 
L 111.495777 180.24769 
L 109.499083 179.763587 
L 107.502389 179.223546 
L 105.505695 178.721674 
L 103.509001 178.445533 
L 101.512306 178.121463 
L 99.515612 177.753588 
L 97.518918 177.46111 
L 95.522224 177.277401 
L 93.525529 177.323364 
L 91.528835 177.177459 
L 89.532141 177.135096 
L 87.535447 176.994684 
L 85.538753 177.008555 
L 83.542058 177.033968 
L 81.545364 177.014826 
L 79.54867 177.014605 
L 77.551976 177.003663 
L 75.555282 176.964718 
L 73.558587 176.857953 
L 71.561893 176.670923 
L 69.565199 176.50485 
" style="fill:none;stroke:#bcbd22;stroke-dasharray:2,3.3;stroke-dashoffset:0;stroke-width:2;"/>
   </g>
   <g id="line2d_18">
    <path clip-path="url(#p79b53bc17c)" d="M 267.237926 117.389444 
L 265.241232 117.389444 
L 263.244538 117.389444 
L 261.247843 117.389444 
L 259.251149 117.389444 
L 257.254455 119.308675 
L 255.257761 122.952547 
L 253.261067 126.348727 
L 251.264372 129.395679 
L 249.267678 132.124625 
L 247.270984 134.564622 
L 245.27429 136.743012 
L 243.277596 138.685141 
L 241.280901 140.573134 
L 239.284207 143.867555 
L 237.287513 146.51309 
L 235.290819 148.831713 
L 233.294124 151.669856 
L 231.29743 154.803184 
L 229.300736 157.733726 
L 227.304042 160.380776 
L 225.307348 162.935456 
L 223.310653 165.269029 
L 221.313959 167.388759 
L 219.317265 169.311782 
L 217.320571 171.055871 
L 215.323877 172.635674 
L 213.327182 174.066864 
L 211.330488 175.361744 
L 209.333794 176.940341 
L 207.3371 179.078838 
L 205.340405 182.135834 
L 203.343711 185.130698 
L 201.347017 187.874752 
L 199.350323 190.38608 
L 197.353629 192.681089 
L 195.356934 194.773518 
L 193.36024 196.679269 
L 191.363546 198.513222 
L 189.366852 200.416496 
L 187.370158 202.476415 
L 185.373463 204.470273 
L 183.376769 206.233328 
L 181.380075 207.881014 
L 179.383381 209.287666 
L 177.386686 210.446842 
L 175.389992 211.383571 
L 173.393298 212.122185 
L 171.396604 212.738733 
L 169.39991 213.271466 
L 167.403215 213.72431 
L 165.406521 214.099719 
L 163.409827 214.429424 
L 161.413133 214.60267 
L 159.416439 214.694616 
L 157.419744 214.658491 
L 155.42305 214.756364 
L 153.426356 214.728396 
L 151.429662 214.593385 
L 149.432967 214.372364 
L 147.436273 214.095385 
L 145.439579 213.787304 
L 143.442885 213.371563 
L 141.446191 213.113441 
L 139.449496 213.073486 
L 137.452802 212.982044 
L 135.456108 212.787104 
L 133.459414 212.387283 
L 131.46272 212.127197 
L 129.466025 212.023299 
L 127.469331 211.850137 
L 125.472637 211.698204 
L 123.475943 211.692083 
L 121.479248 211.782091 
L 119.482554 211.381649 
L 117.48586 210.902594 
L 115.489166 210.650971 
L 113.492472 210.520528 
L 111.495777 210.777695 
L 109.499083 210.905529 
L 107.502389 210.867147 
L 105.505695 210.857668 
L 103.509001 210.092515 
L 101.512306 209.424665 
L 99.515612 208.734683 
L 97.518918 206.503902 
L 95.522224 205.167894 
L 93.525529 203.727156 
L 91.528835 202.738397 
L 89.532141 201.972079 
L 87.535447 200.901353 
L 85.538753 199.859384 
L 83.542058 197.734538 
L 81.545364 195.196454 
L 79.54867 192.933164 
L 77.551976 191.220485 
L 75.555282 189.214443 
L 73.558587 187.437976 
L 71.561893 185.730996 
L 69.565199 184.103481 
" style="fill:none;stroke:#17becf;stroke-dasharray:2,3.3;stroke-dashoffset:0;stroke-width:2;"/>
   </g>
   <g id="line2d_19">
    <path clip-path="url(#p79b53bc17c)" d="M 267.237926 96.997166 
L 265.241232 96.997166 
L 263.244538 96.997166 
L 261.247843 96.997166 
L 259.251149 97.158386 
L 257.254455 98.264497 
L 255.257761 100.839141 
L 253.261067 103.458201 
L 251.264372 105.922413 
L 249.267678 108.202753 
L 247.270984 110.330388 
L 245.27429 112.215656 
L 243.277596 113.884514 
L 241.280901 115.455066 
L 239.284207 117.50832 
L 237.287513 119.674168 
L 235.290819 122.874136 
L 233.294124 126.304066 
L 231.29743 129.620949 
L 229.300736 132.639059 
L 227.304042 135.376252 
L 225.307348 137.849463 
L 223.310653 140.11381 
L 221.313959 142.223281 
L 219.317265 144.088825 
L 217.320571 145.718037 
L 215.323877 147.138253 
L 213.327182 148.37299 
L 211.330488 149.621945 
L 209.333794 150.907644 
L 207.3371 152.227692 
L 205.340405 153.597223 
L 203.343711 154.871693 
L 201.347017 155.98915 
L 199.350323 157.005347 
L 197.353629 157.901306 
L 195.356934 158.713477 
L 193.36024 159.500479 
L 191.363546 160.205462 
L 189.366852 160.926788 
L 187.370158 161.649972 
L 185.373463 162.393061 
L 183.376769 163.366853 
L 181.380075 164.581917 
L 179.383381 165.662559 
L 177.386686 166.664368 
L 175.389992 167.624778 
L 173.393298 168.456166 
L 171.396604 169.1705 
L 169.39991 169.807238 
L 167.403215 170.365183 
L 165.406521 170.846413 
L 163.409827 171.15333 
L 161.413133 171.427333 
L 159.416439 171.683491 
L 157.419744 171.945615 
L 155.42305 172.271501 
L 153.426356 172.535775 
L 151.429662 172.871951 
L 149.432967 173.275547 
L 147.436273 173.501674 
L 145.439579 173.7368 
L 143.442885 174.050938 
L 141.446191 174.420696 
L 139.449496 174.763007 
L 137.452802 175.110265 
L 135.456108 175.43733 
L 133.459414 175.627507 
L 131.46272 175.722684 
L 129.466025 175.756226 
L 127.469331 175.822818 
L 125.472637 175.741576 
L 123.475943 174.580459 
L 121.479248 174.237447 
L 119.482554 173.88528 
L 117.48586 173.422802 
L 115.489166 172.774789 
L 113.492472 172.083691 
L 111.495777 171.365446 
L 109.499083 170.610193 
L 107.502389 169.997281 
L 105.505695 169.742198 
L 103.509001 169.669344 
L 101.512306 169.497389 
L 99.515612 168.142748 
L 97.518918 166.65965 
L 95.522224 165.930989 
L 93.525529 165.461196 
L 91.528835 165.115501 
L 89.532141 164.86618 
L 87.535447 164.047064 
L 85.538753 164.034811 
L 83.542058 163.791034 
L 81.545364 163.460716 
L 79.54867 164.687398 
L 77.551976 166.973588 
L 75.555282 166.820989 
L 73.558587 166.68018 
L 71.561893 166.599078 
L 69.565199 166.508123 
" style="fill:none;stroke:#000000;stroke-linecap:square;stroke-width:2.5;"/>
   </g>
   <g id="line2d_20">
    <path clip-path="url(#p79b53bc17c)" d="M 127.469331 224.64 
L 127.469331 7.2 
" style="fill:none;stroke:#000000;stroke-dasharray:9.25,4;stroke-dashoffset:0;stroke-width:2.5;"/>
   </g>
   <g id="patch_3">
    <path d="M 59.681562 224.64 
L 59.681562 7.2 
" style="fill:none;stroke:#000000;stroke-linecap:square;stroke-linejoin:miter;stroke-width:0.8;"/>
   </g>
   <g id="patch_4">
    <path d="M 277.121562 224.64 
L 277.121562 7.2 
" style="fill:none;stroke:#000000;stroke-linecap:square;stroke-linejoin:miter;stroke-width:0.8;"/>
   </g>
   <g id="patch_5">
    <path d="M 59.681562 224.64 
L 277.121562 224.64 
" style="fill:none;stroke:#000000;stroke-linecap:square;stroke-linejoin:miter;stroke-width:0.8;"/>
   </g>
   <g id="patch_6">
    <path d="M 59.681562 7.2 
L 277.121562 7.2 
" style="fill:none;stroke:#000000;stroke-linecap:square;stroke-linejoin:miter;stroke-width:0.8;"/>
   </g>
  </g>
 </g>
 <defs>
  <clipPath id="p79b53bc17c">
   <rect height="217.44" width="217.44" x="59.681562" y="7.2"/>
  </clipPath>
 </defs>
</svg>
