<?xml version="1.0" encoding="utf-8" standalone="no"?>
<!DOCTYPE svg PUBLIC "-//W3C//DTD SVG 1.1//EN"
  "http://www.w3.org/Graphics/SVG/1.1/DTD/svg11.dtd">
<svg height="281.441563pt" version="1.1" viewBox="0 0 298.577614 281.441563" width="298.577614pt" xmlns="http://www.w3.org/2000/svg" xmlns:xlink="http://www.w3.org/1999/xlink">
 <metadata>
  <rdf:RDF xmlns:cc="http://creativecommons.org/ns#" xmlns:dc="http://purl.org/dc/elements/1.1/" xmlns:rdf="http://www.w3.org/1999/02/22-rdf-syntax-ns#">
   <cc:Work>
    <dc:type rdf:resource="http://purl.org/dc/dcmitype/StillImage"/>
    <dc:date>2024-09-20T17:02:01.563332</dc:date>
    <dc:format>image/svg+xml</dc:format>
    <dc:creator>
     <cc:Agent>
      <dc:title>Matplotlib v3.4.3, https://matplotlib.org/</dc:title>
     </cc:Agent>
    </dc:creator>
   </cc:Work>
  </rdf:RDF>
 </metadata>
 <defs>
  <style type="text/css">*{stroke-linecap:butt;stroke-linejoin:round;}</style>
 </defs>
 <g id="figure_1">
  <g id="patch_1">
   <path d="M 0 281.441563 
L 298.577614 281.441563 
L 298.577614 0 
L 0 0 
z
" style="fill:#ffffff;"/>
  </g>
  <g id="axes_1">
   <g id="patch_2">
    <path d="M 69.69125 224.64 
L 287.13125 224.64 
L 287.13125 7.2 
L 69.69125 7.2 
z
" style="fill:#ffffff;"/>
   </g>
   <g id="matplotlib.axis_1">
    <g id="xtick_1">
     <g id="line2d_1">
      <defs>
       <path d="M 0 0 
L 0 3.5 
" id="mdecabd4b28" style="stroke:#000000;stroke-width:1.5;"/>
      </defs>
      <g>
       <use style="stroke:#000000;stroke-width:1.5;" x="79.574886" xlink:href="#mdecabd4b28" y="224.64"/>
      </g>
     </g>
     <g id="text_1">
      <!-- $\mathdefault{10^{-3}}$ -->
      <g transform="translate(61.754886 250.2025)scale(0.18 -0.18)">
       <defs>
        <path d="M 2384 0 
L 1822 0 
L 1822 3584 
Q 1619 3391 1289 3197 
Q 959 3003 697 2906 
L 697 3450 
Q 1169 3672 1522 3987 
Q 1875 4303 2022 4600 
L 2384 4600 
L 2384 0 
z
" id="ArialMT-31" transform="scale(0.015625)"/>
        <path d="M 266 2259 
Q 266 3072 433 3567 
Q 600 4063 929 4331 
Q 1259 4600 1759 4600 
Q 2128 4600 2406 4451 
Q 2684 4303 2865 4023 
Q 3047 3744 3150 3342 
Q 3253 2941 3253 2259 
Q 3253 1453 3087 958 
Q 2922 463 2592 192 
Q 2263 -78 1759 -78 
Q 1097 -78 719 397 
Q 266 969 266 2259 
z
M 844 2259 
Q 844 1131 1108 757 
Q 1372 384 1759 384 
Q 2147 384 2411 759 
Q 2675 1134 2675 2259 
Q 2675 3391 2411 3762 
Q 2147 4134 1753 4134 
Q 1366 4134 1134 3806 
Q 844 3388 844 2259 
z
" id="ArialMT-30" transform="scale(0.015625)"/>
        <path d="M 3381 1997 
L 356 1997 
L 356 2522 
L 3381 2522 
L 3381 1997 
z
" id="ArialMT-2212" transform="scale(0.015625)"/>
        <path d="M 269 1209 
L 831 1284 
Q 928 806 1161 595 
Q 1394 384 1728 384 
Q 2125 384 2398 659 
Q 2672 934 2672 1341 
Q 2672 1728 2419 1979 
Q 2166 2231 1775 2231 
Q 1616 2231 1378 2169 
L 1441 2663 
Q 1497 2656 1531 2656 
Q 1891 2656 2178 2843 
Q 2466 3031 2466 3422 
Q 2466 3731 2256 3934 
Q 2047 4138 1716 4138 
Q 1388 4138 1169 3931 
Q 950 3725 888 3313 
L 325 3413 
Q 428 3978 793 4289 
Q 1159 4600 1703 4600 
Q 2078 4600 2393 4439 
Q 2709 4278 2876 4000 
Q 3044 3722 3044 3409 
Q 3044 3113 2884 2869 
Q 2725 2625 2413 2481 
Q 2819 2388 3044 2092 
Q 3269 1797 3269 1353 
Q 3269 753 2831 336 
Q 2394 -81 1725 -81 
Q 1122 -81 723 278 
Q 325 638 269 1209 
z
" id="ArialMT-33" transform="scale(0.015625)"/>
       </defs>
       <use transform="translate(0 0.99375)" xlink:href="#ArialMT-31"/>
       <use transform="translate(55.615234 0.99375)" xlink:href="#ArialMT-30"/>
       <use transform="translate(112.972813 70.6875)scale(0.7)" xlink:href="#ArialMT-2212"/>
       <use transform="translate(153.851719 70.6875)scale(0.7)" xlink:href="#ArialMT-33"/>
      </g>
     </g>
    </g>
    <g id="xtick_2">
     <g id="line2d_2">
      <g>
       <use style="stroke:#000000;stroke-width:1.5;" x="145.465795" xlink:href="#mdecabd4b28" y="224.64"/>
      </g>
     </g>
     <g id="text_2">
      <!-- $\mathdefault{10^{-2}}$ -->
      <g transform="translate(127.645795 250.2025)scale(0.18 -0.18)">
       <defs>
        <path d="M 3222 541 
L 3222 0 
L 194 0 
Q 188 203 259 391 
Q 375 700 629 1000 
Q 884 1300 1366 1694 
Q 2113 2306 2375 2664 
Q 2638 3022 2638 3341 
Q 2638 3675 2398 3904 
Q 2159 4134 1775 4134 
Q 1369 4134 1125 3890 
Q 881 3647 878 3216 
L 300 3275 
Q 359 3922 746 4261 
Q 1134 4600 1788 4600 
Q 2447 4600 2831 4234 
Q 3216 3869 3216 3328 
Q 3216 3053 3103 2787 
Q 2991 2522 2730 2228 
Q 2469 1934 1863 1422 
Q 1356 997 1212 845 
Q 1069 694 975 541 
L 3222 541 
z
" id="ArialMT-32" transform="scale(0.015625)"/>
       </defs>
       <use transform="translate(0 0.99375)" xlink:href="#ArialMT-31"/>
       <use transform="translate(55.615234 0.99375)" xlink:href="#ArialMT-30"/>
       <use transform="translate(112.972813 70.6875)scale(0.7)" xlink:href="#ArialMT-2212"/>
       <use transform="translate(153.851719 70.6875)scale(0.7)" xlink:href="#ArialMT-32"/>
      </g>
     </g>
    </g>
    <g id="xtick_3">
     <g id="line2d_3">
      <g>
       <use style="stroke:#000000;stroke-width:1.5;" x="211.356705" xlink:href="#mdecabd4b28" y="224.64"/>
      </g>
     </g>
     <g id="text_3">
      <!-- $\mathdefault{10^{-1}}$ -->
      <g transform="translate(193.536705 250.2025)scale(0.18 -0.18)">
       <use transform="translate(0 0.99375)" xlink:href="#ArialMT-31"/>
       <use transform="translate(55.615234 0.99375)" xlink:href="#ArialMT-30"/>
       <use transform="translate(112.972813 70.6875)scale(0.7)" xlink:href="#ArialMT-2212"/>
       <use transform="translate(153.851719 70.6875)scale(0.7)" xlink:href="#ArialMT-31"/>
      </g>
     </g>
    </g>
    <g id="xtick_4">
     <g id="line2d_4">
      <g>
       <use style="stroke:#000000;stroke-width:1.5;" x="277.247614" xlink:href="#mdecabd4b28" y="224.64"/>
      </g>
     </g>
     <g id="text_4">
      <!-- $\mathdefault{10^{0}}$ -->
      <g transform="translate(263.117614 250.2025)scale(0.18 -0.18)">
       <use transform="translate(0 0.99375)" xlink:href="#ArialMT-31"/>
       <use transform="translate(55.615234 0.99375)" xlink:href="#ArialMT-30"/>
       <use transform="translate(112.972813 70.6875)scale(0.7)" xlink:href="#ArialMT-30"/>
      </g>
     </g>
    </g>
    <g id="text_5">
     <!-- α -->
     <g transform="translate(173.208125 270.664062)scale(0.18 -0.18)">
      <defs>
       <path d="M 2884 3319 
L 3459 3319 
Q 3241 2631 3056 1659 
Q 3275 453 3459 0 
L 2900 0 
Q 2766 313 2697 606 
Q 2438 -75 1613 -75 
Q 988 -75 606 394 
Q 225 863 225 1666 
Q 225 2491 608 2942 
Q 991 3394 1622 3394 
Q 2013 3394 2259 3236 
Q 2506 3078 2719 2756 
Q 2741 2866 2884 3319 
z
M 1716 2928 
Q 1313 2928 1078 2603 
Q 844 2278 844 1666 
Q 844 1069 1066 728 
Q 1288 388 1684 388 
Q 2072 388 2331 723 
Q 2591 1059 2591 1691 
Q 2591 2303 2348 2615 
Q 2106 2928 1716 2928 
z
" id="ArialMT-3b1" transform="scale(0.015625)"/>
      </defs>
      <use xlink:href="#ArialMT-3b1"/>
     </g>
    </g>
   </g>
   <g id="matplotlib.axis_2">
    <g id="ytick_1">
     <g id="line2d_5">
      <defs>
       <path d="M 0 0 
L -3.5 0 
" id="meee92e21ea" style="stroke:#000000;stroke-width:1.5;"/>
      </defs>
      <g>
       <use style="stroke:#000000;stroke-width:1.5;" x="69.69125" xlink:href="#meee92e21ea" y="194.670803"/>
      </g>
     </g>
     <g id="text_6">
      <!-- 0.50 -->
      <g transform="translate(27.661562 201.112834)scale(0.18 -0.18)">
       <defs>
        <path d="M 581 0 
L 581 641 
L 1222 641 
L 1222 0 
L 581 0 
z
" id="ArialMT-2e" transform="scale(0.015625)"/>
        <path d="M 266 1200 
L 856 1250 
Q 922 819 1161 601 
Q 1400 384 1738 384 
Q 2144 384 2425 690 
Q 2706 997 2706 1503 
Q 2706 1984 2436 2262 
Q 2166 2541 1728 2541 
Q 1456 2541 1237 2417 
Q 1019 2294 894 2097 
L 366 2166 
L 809 4519 
L 3088 4519 
L 3088 3981 
L 1259 3981 
L 1013 2750 
Q 1425 3038 1878 3038 
Q 2478 3038 2890 2622 
Q 3303 2206 3303 1553 
Q 3303 931 2941 478 
Q 2500 -78 1738 -78 
Q 1113 -78 717 272 
Q 322 622 266 1200 
z
" id="ArialMT-35" transform="scale(0.015625)"/>
       </defs>
       <use xlink:href="#ArialMT-30"/>
       <use x="55.615234" xlink:href="#ArialMT-2e"/>
       <use x="83.398438" xlink:href="#ArialMT-35"/>
       <use x="139.013672" xlink:href="#ArialMT-30"/>
      </g>
     </g>
    </g>
    <g id="ytick_2">
     <g id="line2d_6">
      <g>
       <use style="stroke:#000000;stroke-width:1.5;" x="69.69125" xlink:href="#meee92e21ea" y="155.530857"/>
      </g>
     </g>
     <g id="text_7">
      <!-- 0.75 -->
      <g transform="translate(27.661562 161.972889)scale(0.18 -0.18)">
       <defs>
        <path d="M 303 3981 
L 303 4522 
L 3269 4522 
L 3269 4084 
Q 2831 3619 2401 2847 
Q 1972 2075 1738 1259 
Q 1569 684 1522 0 
L 944 0 
Q 953 541 1156 1306 
Q 1359 2072 1739 2783 
Q 2119 3494 2547 3981 
L 303 3981 
z
" id="ArialMT-37" transform="scale(0.015625)"/>
       </defs>
       <use xlink:href="#ArialMT-30"/>
       <use x="55.615234" xlink:href="#ArialMT-2e"/>
       <use x="83.398438" xlink:href="#ArialMT-37"/>
       <use x="139.013672" xlink:href="#ArialMT-35"/>
      </g>
     </g>
    </g>
    <g id="ytick_3">
     <g id="line2d_7">
      <g>
       <use style="stroke:#000000;stroke-width:1.5;" x="69.69125" xlink:href="#meee92e21ea" y="116.390912"/>
      </g>
     </g>
     <g id="text_8">
      <!-- 1.00 -->
      <g transform="translate(27.661562 122.832943)scale(0.18 -0.18)">
       <use xlink:href="#ArialMT-31"/>
       <use x="55.615234" xlink:href="#ArialMT-2e"/>
       <use x="83.398438" xlink:href="#ArialMT-30"/>
       <use x="139.013672" xlink:href="#ArialMT-30"/>
      </g>
     </g>
    </g>
    <g id="ytick_4">
     <g id="line2d_8">
      <g>
       <use style="stroke:#000000;stroke-width:1.5;" x="69.69125" xlink:href="#meee92e21ea" y="77.250967"/>
      </g>
     </g>
     <g id="text_9">
      <!-- 1.25 -->
      <g transform="translate(27.661562 83.692998)scale(0.18 -0.18)">
       <use xlink:href="#ArialMT-31"/>
       <use x="55.615234" xlink:href="#ArialMT-2e"/>
       <use x="83.398438" xlink:href="#ArialMT-32"/>
       <use x="139.013672" xlink:href="#ArialMT-35"/>
      </g>
     </g>
    </g>
    <g id="ytick_5">
     <g id="line2d_9">
      <g>
       <use style="stroke:#000000;stroke-width:1.5;" x="69.69125" xlink:href="#meee92e21ea" y="38.111021"/>
      </g>
     </g>
     <g id="text_10">
      <!-- 1.50 -->
      <g transform="translate(27.661562 44.553053)scale(0.18 -0.18)">
       <use xlink:href="#ArialMT-31"/>
       <use x="55.615234" xlink:href="#ArialMT-2e"/>
       <use x="83.398438" xlink:href="#ArialMT-35"/>
       <use x="139.013672" xlink:href="#ArialMT-30"/>
      </g>
     </g>
    </g>
    <g id="text_11">
     <!-- RMSE -->
     <g transform="translate(20.084062 141.922969)rotate(-90)scale(0.18 -0.18)">
      <defs>
       <path d="M 503 0 
L 503 4581 
L 2534 4581 
Q 3147 4581 3465 4457 
Q 3784 4334 3975 4021 
Q 4166 3709 4166 3331 
Q 4166 2844 3850 2509 
Q 3534 2175 2875 2084 
Q 3116 1969 3241 1856 
Q 3506 1613 3744 1247 
L 4541 0 
L 3778 0 
L 3172 953 
Q 2906 1366 2734 1584 
Q 2563 1803 2427 1890 
Q 2291 1978 2150 2013 
Q 2047 2034 1813 2034 
L 1109 2034 
L 1109 0 
L 503 0 
z
M 1109 2559 
L 2413 2559 
Q 2828 2559 3062 2645 
Q 3297 2731 3419 2920 
Q 3541 3109 3541 3331 
Q 3541 3656 3305 3865 
Q 3069 4075 2559 4075 
L 1109 4075 
L 1109 2559 
z
" id="ArialMT-52" transform="scale(0.015625)"/>
       <path d="M 475 0 
L 475 4581 
L 1388 4581 
L 2472 1338 
Q 2622 884 2691 659 
Q 2769 909 2934 1394 
L 4031 4581 
L 4847 4581 
L 4847 0 
L 4263 0 
L 4263 3834 
L 2931 0 
L 2384 0 
L 1059 3900 
L 1059 0 
L 475 0 
z
" id="ArialMT-4d" transform="scale(0.015625)"/>
       <path d="M 288 1472 
L 859 1522 
Q 900 1178 1048 958 
Q 1197 738 1509 602 
Q 1822 466 2213 466 
Q 2559 466 2825 569 
Q 3091 672 3220 851 
Q 3350 1031 3350 1244 
Q 3350 1459 3225 1620 
Q 3100 1781 2813 1891 
Q 2628 1963 1997 2114 
Q 1366 2266 1113 2400 
Q 784 2572 623 2826 
Q 463 3081 463 3397 
Q 463 3744 659 4045 
Q 856 4347 1234 4503 
Q 1613 4659 2075 4659 
Q 2584 4659 2973 4495 
Q 3363 4331 3572 4012 
Q 3781 3694 3797 3291 
L 3216 3247 
Q 3169 3681 2898 3903 
Q 2628 4125 2100 4125 
Q 1550 4125 1298 3923 
Q 1047 3722 1047 3438 
Q 1047 3191 1225 3031 
Q 1400 2872 2139 2705 
Q 2878 2538 3153 2413 
Q 3553 2228 3743 1945 
Q 3934 1663 3934 1294 
Q 3934 928 3725 604 
Q 3516 281 3123 101 
Q 2731 -78 2241 -78 
Q 1619 -78 1198 103 
Q 778 284 539 648 
Q 300 1013 288 1472 
z
" id="ArialMT-53" transform="scale(0.015625)"/>
       <path d="M 506 0 
L 506 4581 
L 3819 4581 
L 3819 4041 
L 1113 4041 
L 1113 2638 
L 3647 2638 
L 3647 2100 
L 1113 2100 
L 1113 541 
L 3925 541 
L 3925 0 
L 506 0 
z
" id="ArialMT-45" transform="scale(0.015625)"/>
      </defs>
      <use xlink:href="#ArialMT-52"/>
      <use x="72.216797" xlink:href="#ArialMT-4d"/>
      <use x="155.517578" xlink:href="#ArialMT-53"/>
      <use x="222.216797" xlink:href="#ArialMT-45"/>
     </g>
    </g>
   </g>
   <g id="line2d_10">
    <path clip-path="url(#pd4ee8aca7b)" d="M 277.247614 111.677203 
L 275.250919 111.677203 
L 273.254225 111.677203 
L 271.257531 111.677203 
L 269.260837 111.677203 
L 267.264143 111.677203 
L 265.267448 111.677203 
L 263.270754 111.677203 
L 261.27406 111.677203 
L 259.277366 111.677203 
L 257.280671 114.581135 
L 255.283977 117.878668 
L 253.287283 120.83168 
L 251.290589 123.472996 
L 249.293895 125.833004 
L 247.2972 128.018858 
L 245.300506 130.247345 
L 243.303812 133.49147 
L 241.307118 136.265329 
L 239.310424 138.618978 
L 237.313729 140.599782 
L 235.317035 142.252256 
L 233.320341 143.61689 
L 231.323647 144.732074 
L 229.326952 145.748653 
L 227.330258 148.429566 
L 225.333564 150.730592 
L 223.33687 152.348138 
L 221.340176 153.475202 
L 219.343481 154.352523 
L 217.346787 155.015901 
L 215.350093 155.498966 
L 213.353399 156.472552 
L 211.356705 157.243148 
L 209.36001 157.835255 
L 207.363316 158.289502 
L 205.366622 158.630926 
L 203.369928 158.880532 
L 201.373233 159.088708 
L 199.376539 159.228704 
L 197.379845 159.180353 
L 195.383151 159.047052 
L 193.386457 158.978257 
L 191.389762 158.984875 
L 189.393068 158.967156 
L 187.396374 159.017832 
L 185.39968 159.358456 
L 183.402986 159.509359 
L 181.406291 159.756172 
L 179.409597 159.822839 
L 177.412903 159.673578 
L 175.416209 159.729806 
L 173.419514 160.076943 
L 171.42282 160.380304 
L 169.426126 160.708404 
L 167.429432 161.057557 
L 165.432738 162.216569 
L 163.436043 164.22847 
L 161.439349 166.15989 
L 159.442655 167.52106 
L 157.445961 168.397021 
L 155.449267 169.638163 
L 153.452572 170.951718 
L 151.455878 172.047831 
L 149.459184 173.451093 
L 147.46249 174.930423 
L 145.465795 176.259843 
L 143.469101 177.447061 
L 141.472407 178.51844 
L 139.475713 178.818711 
L 137.479019 178.873574 
L 135.482324 178.825434 
L 133.48563 179.863801 
L 131.488936 180.112417 
L 129.492242 180.00657 
L 127.495548 179.944274 
L 125.498853 180.675533 
L 123.502159 181.437853 
L 121.505465 182.197401 
L 119.508771 182.999441 
L 117.512076 183.755375 
L 115.515382 184.578682 
L 113.518688 185.307216 
L 111.521994 186.119633 
L 109.5253 187.321288 
L 107.528605 188.117176 
L 105.531911 188.973168 
L 103.535217 189.09107 
L 101.538523 188.932732 
L 99.541829 189.046701 
L 97.545134 188.962406 
L 95.54844 188.745066 
L 93.551746 188.504754 
L 91.555052 188.25016 
L 89.558357 187.986904 
L 87.561663 187.527842 
L 85.564969 187.055241 
L 83.568275 186.729522 
L 81.571581 186.242273 
L 79.574886 186.337841 
" style="fill:none;stroke:#1f77b4;stroke-dasharray:2,3.3;stroke-dashoffset:0;stroke-width:2;"/>
   </g>
   <g id="line2d_11">
    <path clip-path="url(#pd4ee8aca7b)" d="M 277.247614 111.677203 
L 275.250919 111.677203 
L 273.254225 111.677203 
L 271.257531 111.677203 
L 269.260837 111.677203 
L 267.264143 111.677203 
L 265.267448 111.677203 
L 263.270754 111.677203 
L 261.27406 111.677203 
L 259.277366 111.677203 
L 257.280671 114.686545 
L 255.283977 117.966718 
L 253.287283 120.884328 
L 251.290589 123.403391 
L 249.293895 125.574668 
L 247.2972 127.47159 
L 245.300506 130.580631 
L 243.303812 133.943297 
L 241.307118 136.899849 
L 239.310424 139.530739 
L 237.313729 141.867021 
L 235.317035 143.939146 
L 233.320341 146.115935 
L 231.323647 148.543276 
L 229.326952 150.694661 
L 227.330258 152.596771 
L 225.333564 154.277666 
L 223.33687 155.758687 
L 221.340176 157.062741 
L 219.343481 158.210877 
L 217.346787 159.217983 
L 215.350093 160.10312 
L 213.353399 161.301403 
L 211.356705 162.7935 
L 209.36001 164.007824 
L 207.363316 165.032041 
L 205.366622 165.947955 
L 203.369928 166.753167 
L 201.373233 167.463258 
L 199.376539 168.087743 
L 197.379845 168.634979 
L 195.383151 169.117782 
L 193.386457 169.635799 
L 191.389762 170.116031 
L 189.393068 170.470867 
L 187.396374 170.844296 
L 185.39968 171.317568 
L 183.402986 171.690042 
L 181.406291 171.992917 
L 179.409597 172.241049 
L 177.412903 172.442565 
L 175.416209 172.601274 
L 173.419514 172.742729 
L 171.42282 173.47628 
L 169.426126 174.852797 
L 167.429432 176.108757 
L 165.432738 177.114581 
L 163.436043 178.038561 
L 161.439349 178.834252 
L 159.442655 179.529951 
L 157.445961 180.138026 
L 155.449267 180.668479 
L 153.452572 181.29791 
L 151.455878 182.360736 
L 149.459184 183.393109 
L 147.46249 183.832051 
L 145.465795 184.558413 
L 143.469101 185.399236 
L 141.472407 186.171815 
L 139.475713 186.514937 
L 137.479019 187.110367 
L 135.482324 187.352996 
L 133.48563 187.415408 
L 131.488936 187.522098 
L 129.492242 187.740721 
L 127.495548 188.017914 
L 125.498853 188.310969 
L 123.502159 188.588198 
L 121.505465 188.836562 
L 119.508771 189.076196 
L 117.512076 189.376811 
L 115.515382 189.793483 
L 113.518688 190.406009 
L 111.521994 190.969544 
L 109.5253 191.423883 
L 107.528605 191.940431 
L 105.531911 192.252746 
L 103.535217 192.31689 
L 101.538523 192.565007 
L 99.541829 192.772747 
L 97.545134 193.141825 
L 95.54844 193.384324 
L 93.551746 193.709209 
L 91.555052 194.341641 
L 89.558357 195.138488 
L 87.561663 195.208491 
L 85.564969 195.268341 
L 83.568275 195.23494 
L 81.571581 195.315641 
L 79.574886 195.343138 
" style="fill:none;stroke:#ff7f0e;stroke-dasharray:2,3.3;stroke-dashoffset:0;stroke-width:2;"/>
   </g>
   <g id="line2d_12">
    <path clip-path="url(#pd4ee8aca7b)" d="M 277.247614 111.677203 
L 275.250919 111.677203 
L 273.254225 111.677203 
L 271.257531 111.677203 
L 269.260837 111.677203 
L 267.264143 111.677203 
L 265.267448 111.677203 
L 263.270754 111.677203 
L 261.27406 111.677203 
L 259.277366 111.677203 
L 257.280671 114.815801 
L 255.283977 117.813804 
L 253.287283 120.544357 
L 251.290589 123.030887 
L 249.293895 125.295013 
L 247.2972 127.448743 
L 245.300506 130.096708 
L 243.303812 132.589234 
L 241.307118 135.974572 
L 239.310424 139.912171 
L 237.313729 143.398101 
L 235.317035 146.507402 
L 233.320341 149.309753 
L 231.323647 151.836793 
L 229.326952 154.113413 
L 227.330258 156.151688 
L 225.333564 157.973491 
L 223.33687 159.61169 
L 221.340176 161.081892 
L 219.343481 162.40359 
L 217.346787 163.725975 
L 215.350093 164.882365 
L 213.353399 165.844678 
L 211.356705 166.791437 
L 209.36001 167.60096 
L 207.363316 168.305196 
L 205.366622 168.913216 
L 203.369928 169.436415 
L 201.373233 169.866003 
L 199.376539 170.229846 
L 197.379845 170.543759 
L 195.383151 170.783803 
L 193.386457 170.886 
L 191.389762 170.959703 
L 189.393068 170.898771 
L 187.396374 170.92809 
L 185.39968 170.994183 
L 183.402986 171.076585 
L 181.406291 171.272935 
L 179.409597 171.401257 
L 177.412903 171.127347 
L 175.416209 170.827307 
L 173.419514 170.574789 
L 171.42282 170.839547 
L 169.426126 171.720145 
L 167.429432 172.579348 
L 165.432738 173.400918 
L 163.436043 174.055393 
L 161.439349 174.558963 
L 159.442655 175.207957 
L 157.445961 175.908592 
L 155.449267 176.447532 
L 153.452572 176.552511 
L 151.455878 176.664568 
L 149.459184 176.819653 
L 147.46249 176.914224 
L 145.465795 176.980907 
L 143.469101 176.859839 
L 141.472407 176.571033 
L 139.475713 175.957591 
L 137.479019 175.797399 
L 135.482324 176.061564 
L 133.48563 176.464972 
L 131.488936 176.740351 
L 129.492242 176.917352 
L 127.495548 177.081205 
L 125.498853 177.274609 
L 123.502159 177.555926 
L 121.505465 177.660612 
L 119.508771 177.718408 
L 117.512076 177.766347 
L 115.515382 177.93886 
L 113.518688 178.113358 
L 111.521994 178.337375 
L 109.5253 178.616258 
L 107.528605 178.877498 
L 105.531911 178.804684 
L 103.535217 178.946275 
L 101.538523 179.235767 
L 99.541829 179.096407 
L 97.545134 178.595887 
L 95.54844 177.915535 
L 93.551746 177.201337 
L 91.555052 176.580613 
L 89.558357 175.860599 
L 87.561663 175.140754 
L 85.564969 174.465647 
L 83.568275 173.818166 
L 81.571581 173.203449 
L 79.574886 172.623583 
" style="fill:none;stroke:#2ca02c;stroke-dasharray:2,3.3;stroke-dashoffset:0;stroke-width:2;"/>
   </g>
   <g id="line2d_13">
    <path clip-path="url(#pd4ee8aca7b)" d="M 277.247614 111.677203 
L 275.250919 111.677203 
L 273.254225 111.677203 
L 271.257531 111.677203 
L 269.260837 111.677203 
L 267.264143 111.677203 
L 265.267448 111.677203 
L 263.270754 111.677203 
L 261.27406 111.677203 
L 259.277366 111.677203 
L 257.280671 114.080006 
L 255.283977 117.819882 
L 253.287283 121.157974 
L 251.290589 124.06977 
L 249.293895 126.626838 
L 247.2972 128.920315 
L 245.300506 130.97613 
L 243.303812 136.484313 
L 241.307118 142.997116 
L 239.310424 148.857529 
L 237.313729 154.109447 
L 235.317035 158.796232 
L 233.320341 163.339506 
L 231.323647 167.974592 
L 229.326952 172.017313 
L 227.330258 175.513689 
L 225.333564 178.509456 
L 223.33687 181.050322 
L 221.340176 183.181091 
L 219.343481 184.829931 
L 217.346787 186.148013 
L 215.350093 187.247587 
L 213.353399 188.238101 
L 211.356705 189.116654 
L 209.36001 189.886007 
L 207.363316 190.508095 
L 205.366622 191.013945 
L 203.369928 191.406456 
L 201.373233 191.709642 
L 199.376539 191.913824 
L 197.379845 192.083321 
L 195.383151 192.21985 
L 193.386457 192.331735 
L 191.389762 192.419134 
L 189.393068 192.484479 
L 187.396374 192.67773 
L 185.39968 193.060332 
L 183.402986 193.502352 
L 181.406291 193.81098 
L 179.409597 193.860507 
L 177.412903 193.846529 
L 175.416209 193.820785 
L 173.419514 193.814954 
L 171.42282 193.655952 
L 169.426126 193.421969 
L 167.429432 193.173785 
L 165.432738 193.41929 
L 163.436043 193.070615 
L 161.439349 193.178842 
L 159.442655 193.802146 
L 157.445961 194.173529 
L 155.449267 194.457282 
L 153.452572 194.477306 
L 151.455878 194.351164 
L 149.459184 194.344995 
L 147.46249 194.299604 
L 145.465795 194.191353 
L 143.469101 189.593416 
L 141.472407 182.656116 
L 139.475713 175.628312 
L 137.479019 164.533824 
L 135.482324 149.989608 
L 133.48563 135.126808 
L 131.488936 123.796288 
L 129.492242 113.776634 
L 127.495548 109.353578 
L 125.498853 102.843893 
L 123.502159 95.772244 
L 121.505465 89.407879 
L 119.508771 84.049433 
L 117.512076 78.022381 
L 115.515382 72.618306 
L 113.518688 70.849176 
L 111.521994 70.030755 
L 109.5253 67.855626 
L 107.528605 63.903854 
L 105.531911 59.295212 
L 103.535217 54.1209 
L 101.538523 49.159888 
L 99.541829 45.249293 
L 97.545134 42.58085 
L 95.54844 40.723596 
L 93.551746 35.563356 
L 91.555052 30.203654 
L 89.558357 26.880394 
L 87.561663 24.036741 
L 85.564969 21.931081 
L 83.568275 20.257595 
L 81.571581 18.678482 
L 79.574886 17.083636 
" style="fill:none;stroke:#d62728;stroke-dasharray:2,3.3;stroke-dashoffset:0;stroke-width:2;"/>
   </g>
   <g id="line2d_14">
    <path clip-path="url(#pd4ee8aca7b)" d="M 277.247614 84.992717 
L 275.250919 84.992717 
L 273.254225 84.992717 
L 271.257531 84.992717 
L 269.260837 84.992717 
L 267.264143 84.992717 
L 265.267448 84.992717 
L 263.270754 84.992717 
L 261.27406 84.992717 
L 259.277366 85.387976 
L 257.280671 87.877675 
L 255.283977 90.12455 
L 253.287283 92.152299 
L 251.290589 93.9825 
L 249.293895 95.634755 
L 247.2972 97.084742 
L 245.300506 98.458437 
L 243.303812 99.66518 
L 241.307118 104.906551 
L 239.310424 109.819633 
L 237.313729 114.340913 
L 235.317035 118.499787 
L 233.320341 122.235247 
L 231.323647 126.572106 
L 229.326952 130.635193 
L 227.330258 134.379502 
L 225.333564 137.828711 
L 223.33687 141.005762 
L 221.340176 143.919877 
L 219.343481 146.586408 
L 217.346787 149.041221 
L 215.350093 151.425304 
L 213.353399 154.137935 
L 211.356705 156.645005 
L 209.36001 159.026892 
L 207.363316 161.299952 
L 205.366622 163.19514 
L 203.369928 164.668966 
L 201.373233 165.852685 
L 199.376539 166.797293 
L 197.379845 167.638429 
L 195.383151 168.392116 
L 193.386457 169.017868 
L 191.389762 169.52028 
L 189.393068 170.111108 
L 187.396374 170.738063 
L 185.39968 171.369561 
L 183.402986 172.023075 
L 181.406291 172.585838 
L 179.409597 172.980006 
L 177.412903 173.482131 
L 175.416209 174.002699 
L 173.419514 174.527789 
L 171.42282 174.391372 
L 169.426126 173.925157 
L 167.429432 173.526457 
L 165.432738 174.02658 
L 163.436043 174.456707 
L 161.439349 174.845673 
L 159.442655 175.173122 
L 157.445961 175.700521 
L 155.449267 176.323253 
L 153.452572 176.788946 
L 151.455878 177.169229 
L 149.459184 177.308579 
L 147.46249 177.403393 
L 145.465795 177.729989 
L 143.469101 178.001425 
L 141.472407 178.127371 
L 139.475713 178.210458 
L 137.479019 178.353311 
L 135.482324 178.435989 
L 133.48563 178.433024 
L 131.488936 178.336624 
L 129.492242 178.193651 
L 127.495548 177.995947 
L 125.498853 177.905656 
L 123.502159 177.792503 
L 121.505465 177.869965 
L 119.508771 178.012329 
L 117.512076 178.216801 
L 115.515382 178.508942 
L 113.518688 178.618556 
L 111.521994 178.694744 
L 109.5253 178.946037 
L 107.528605 179.472475 
L 105.531911 179.984858 
L 103.535217 180.381366 
L 101.538523 180.918681 
L 99.541829 181.915595 
L 97.545134 182.903737 
L 95.54844 183.179667 
L 93.551746 184.069782 
L 91.555052 185.017566 
L 89.558357 185.127412 
L 87.561663 185.211412 
L 85.564969 185.277512 
L 83.568275 185.291642 
L 81.571581 185.290931 
L 79.574886 185.58232 
" style="fill:none;stroke:#9467bd;stroke-dasharray:2,3.3;stroke-dashoffset:0;stroke-width:2;"/>
   </g>
   <g id="line2d_15">
    <path clip-path="url(#pd4ee8aca7b)" d="M 277.247614 88.055553 
L 275.250919 88.055553 
L 273.254225 88.055553 
L 271.257531 88.055553 
L 269.260837 88.055553 
L 267.264143 88.055553 
L 265.267448 88.055553 
L 263.270754 88.055553 
L 261.27406 88.095195 
L 259.277366 89.363778 
L 257.280671 90.380343 
L 255.283977 91.181117 
L 253.287283 91.798115 
L 251.290589 92.259464 
L 249.293895 92.589741 
L 247.2972 92.81032 
L 245.300506 92.73023 
L 243.303812 92.272808 
L 241.307118 95.448613 
L 239.310424 99.487227 
L 237.313729 102.974788 
L 235.317035 105.772647 
L 233.320341 107.965221 
L 231.323647 110.371961 
L 229.326952 112.38901 
L 227.330258 113.860691 
L 225.333564 114.864027 
L 223.33687 115.477163 
L 221.340176 115.762839 
L 219.343481 115.776025 
L 217.346787 115.573496 
L 215.350093 115.195999 
L 213.353399 114.677588 
L 211.356705 114.057345 
L 209.36001 113.355919 
L 207.363316 112.62945 
L 205.366622 111.814694 
L 203.369928 110.966837 
L 201.373233 109.689419 
L 199.376539 109.41968 
L 197.379845 109.073403 
L 195.383151 108.659497 
L 193.386457 108.274305 
L 191.389762 108.009249 
L 189.393068 107.777304 
L 187.396374 107.579383 
L 185.39968 107.329985 
L 183.402986 106.924147 
L 181.406291 105.882654 
L 179.409597 104.823009 
L 177.412903 104.071001 
L 175.416209 103.409054 
L 173.419514 102.753987 
L 171.42282 101.26789 
L 169.426126 96.872534 
L 167.429432 91.984472 
L 165.432738 86.253015 
L 163.436043 82.289278 
L 161.439349 79.621094 
L 159.442655 77.393325 
L 157.445961 75.498142 
L 155.449267 73.683654 
L 153.452572 71.951654 
L 151.455878 70.200122 
L 149.459184 68.201777 
L 147.46249 65.640453 
L 145.465795 63.1974 
L 143.469101 60.75694 
L 141.472407 57.207415 
L 139.475713 54.024383 
L 137.479019 52.478572 
L 135.482324 51.174088 
L 133.48563 49.746499 
L 131.488936 48.056734 
L 129.492242 46.473899 
L 127.495548 44.992882 
L 125.498853 43.607537 
L 123.502159 41.968698 
L 121.505465 40.276626 
L 119.508771 39.410113 
L 117.512076 38.678255 
L 115.515382 37.677433 
L 113.518688 36.811975 
L 111.521994 35.611741 
L 109.5253 33.933052 
L 107.528605 32.451473 
L 105.531911 31.121301 
L 103.535217 29.620008 
L 101.538523 28.041985 
L 99.541829 27.250009 
L 97.545134 26.787244 
L 95.54844 27.767636 
L 93.551746 28.83499 
L 91.555052 29.610183 
L 89.558357 28.75769 
L 87.561663 29.492388 
L 85.564969 30.102312 
L 83.568275 31.39998 
L 81.571581 32.522509 
L 79.574886 32.506144 
" style="fill:none;stroke:#8c564b;stroke-dasharray:2,3.3;stroke-dashoffset:0;stroke-width:2;"/>
   </g>
   <g id="line2d_16">
    <path clip-path="url(#pd4ee8aca7b)" d="M 277.247614 56.195703 
L 275.250919 56.195703 
L 273.254225 56.195703 
L 271.257531 56.195703 
L 269.260837 56.195703 
L 267.264143 56.195703 
L 265.267448 56.195703 
L 263.270754 56.195703 
L 261.27406 56.195703 
L 259.277366 56.874377 
L 257.280671 58.717311 
L 255.283977 60.383943 
L 253.287283 61.891863 
L 251.290589 63.256939 
L 249.293895 64.504344 
L 247.2972 65.67987 
L 245.300506 66.913271 
L 243.303812 68.313246 
L 241.307118 71.801591 
L 239.310424 76.919111 
L 237.313729 81.644828 
L 235.317035 86.008418 
L 233.320341 90.037646 
L 231.323647 94.267755 
L 229.326952 98.529201 
L 227.330258 102.464178 
L 225.333564 106.097914 
L 223.33687 109.453835 
L 221.340176 112.5521 
L 219.343481 115.413056 
L 217.346787 118.05565 
L 215.350093 120.495591 
L 213.353399 122.836738 
L 211.356705 125.640485 
L 209.36001 128.230276 
L 207.363316 130.628224 
L 205.366622 132.935645 
L 203.369928 135.111606 
L 201.373233 137.116942 
L 199.376539 138.933 
L 197.379845 140.528143 
L 195.383151 142.036527 
L 193.386457 143.406638 
L 191.389762 144.656661 
L 189.393068 145.738465 
L 187.396374 146.691537 
L 185.39968 147.549567 
L 183.402986 148.569486 
L 181.406291 149.523035 
L 179.409597 150.321859 
L 177.412903 150.941513 
L 175.416209 151.344035 
L 173.419514 151.787739 
L 171.42282 152.718409 
L 169.426126 153.935438 
L 167.429432 154.911482 
L 165.432738 155.769496 
L 163.436043 156.540477 
L 161.439349 157.228236 
L 159.442655 157.731241 
L 157.445961 158.094841 
L 155.449267 158.402147 
L 153.452572 158.685369 
L 151.455878 158.943706 
L 149.459184 159.242864 
L 147.46249 159.614258 
L 145.465795 160.0106 
L 143.469101 160.175849 
L 141.472407 160.115726 
L 139.475713 160.144745 
L 137.479019 160.657782 
L 135.482324 161.278106 
L 133.48563 161.86979 
L 131.488936 161.993125 
L 129.492242 162.081998 
L 127.495548 162.142487 
L 125.498853 162.175785 
L 123.502159 162.24458 
L 121.505465 162.949668 
L 119.508771 164.310242 
L 117.512076 165.046448 
L 115.515382 165.179029 
L 113.518688 165.319135 
L 111.521994 165.569066 
L 109.5253 165.878161 
L 107.528605 166.171536 
L 105.531911 166.443059 
L 103.535217 166.725354 
L 101.538523 166.943867 
L 99.541829 167.00928 
L 97.545134 167.421998 
L 95.54844 167.950613 
L 93.551746 168.174313 
L 91.555052 168.61836 
L 89.558357 169.112205 
L 87.561663 169.431567 
L 85.564969 169.647933 
L 83.568275 169.957632 
L 81.571581 170.268582 
L 79.574886 170.632917 
" style="fill:none;stroke:#e377c2;stroke-dasharray:2,3.3;stroke-dashoffset:0;stroke-width:2;"/>
   </g>
   <g id="line2d_17">
    <path clip-path="url(#pd4ee8aca7b)" d="M 277.247614 120.837356 
L 275.250919 120.837356 
L 273.254225 120.837356 
L 271.257531 120.837356 
L 269.260837 120.837356 
L 267.264143 120.837356 
L 265.267448 120.837356 
L 263.270754 120.837356 
L 261.27406 120.837356 
L 259.277366 122.130571 
L 257.280671 124.524694 
L 255.283977 126.534338 
L 253.287283 128.206351 
L 251.290589 129.583636 
L 249.293895 130.70514 
L 247.2972 131.605931 
L 245.300506 133.071586 
L 243.303812 135.059041 
L 241.307118 138.563944 
L 239.310424 141.807384 
L 237.313729 144.605762 
L 235.317035 147.005461 
L 233.320341 149.050047 
L 231.323647 151.249163 
L 229.326952 154.108414 
L 227.330258 156.631929 
L 225.333564 158.852632 
L 223.33687 160.801254 
L 221.340176 162.506451 
L 219.343481 163.994665 
L 217.346787 165.189376 
L 215.350093 166.158269 
L 213.353399 166.938289 
L 211.356705 167.711738 
L 209.36001 168.382212 
L 207.363316 168.858348 
L 205.366622 169.076163 
L 203.369928 169.192754 
L 201.373233 169.221112 
L 199.376539 169.176735 
L 197.379845 169.08188 
L 195.383151 169.078769 
L 193.386457 169.105849 
L 191.389762 169.143631 
L 189.393068 169.301983 
L 187.396374 169.120044 
L 185.39968 168.857066 
L 183.402986 168.61154 
L 181.406291 168.233342 
L 179.409597 167.72495 
L 177.412903 167.118285 
L 175.416209 166.412059 
L 173.419514 165.687868 
L 171.42282 164.948051 
L 169.426126 164.38892 
L 167.429432 164.328286 
L 165.432738 164.788704 
L 163.436043 165.167187 
L 161.439349 165.659781 
L 159.442655 166.821439 
L 157.445961 167.807282 
L 155.449267 168.607282 
L 153.452572 169.247178 
L 151.455878 169.872321 
L 149.459184 170.07073 
L 147.46249 170.36967 
L 145.465795 170.698318 
L 143.469101 170.891826 
L 141.472407 171.024812 
L 139.475713 171.166581 
L 137.479019 171.231965 
L 135.482324 171.126193 
L 133.48563 170.985119 
L 131.488936 172.096338 
L 129.492242 172.674537 
L 127.495548 172.645288 
L 125.498853 173.79416 
L 123.502159 174.706141 
L 121.505465 175.342609 
L 119.508771 175.807562 
L 117.512076 176.17038 
L 115.515382 176.466491 
L 113.518688 177.15087 
L 111.521994 177.826643 
L 109.5253 178.330869 
L 107.528605 178.772064 
L 105.531911 179.171977 
L 103.535217 179.757313 
L 101.538523 180.226576 
L 99.541829 180.427243 
L 97.545134 181.24677 
L 95.54844 181.890207 
L 93.551746 181.208824 
L 91.555052 180.540461 
L 89.558357 179.885953 
L 87.561663 179.249391 
L 85.564969 178.650491 
L 83.568275 178.131884 
L 81.571581 177.908487 
L 79.574886 178.045944 
" style="fill:none;stroke:#7f7f7f;stroke-dasharray:2,3.3;stroke-dashoffset:0;stroke-width:2;"/>
   </g>
   <g id="line2d_18">
    <path clip-path="url(#pd4ee8aca7b)" d="M 277.247614 120.837356 
L 275.250919 120.837356 
L 273.254225 120.837356 
L 271.257531 120.837356 
L 269.260837 120.837356 
L 267.264143 120.837356 
L 265.267448 120.837356 
L 263.270754 120.837356 
L 261.27406 120.837356 
L 259.277366 120.837356 
L 257.280671 123.882231 
L 255.283977 127.62477 
L 253.287283 130.953337 
L 251.290589 133.906762 
L 249.293895 136.516706 
L 247.2972 138.79484 
L 245.300506 142.138926 
L 243.303812 146.452681 
L 241.307118 150.282074 
L 239.310424 153.669103 
L 237.313729 156.653138 
L 235.317035 159.272273 
L 233.320341 161.69591 
L 231.323647 164.702042 
L 229.326952 167.422481 
L 227.330258 169.877429 
L 225.333564 172.089852 
L 223.33687 174.086229 
L 221.340176 174.963476 
L 219.343481 175.510701 
L 217.346787 175.910589 
L 215.350093 176.033731 
L 213.353399 175.930781 
L 211.356705 175.726542 
L 209.36001 175.437515 
L 207.363316 175.035433 
L 205.366622 174.567505 
L 203.369928 173.947387 
L 201.373233 173.29837 
L 199.376539 172.631107 
L 197.379845 171.957867 
L 195.383151 171.284532 
L 193.386457 170.620007 
L 191.389762 169.966182 
L 189.393068 169.425156 
L 187.396374 168.97251 
L 185.39968 168.541894 
L 183.402986 168.293639 
L 181.406291 168.033144 
L 179.409597 167.824915 
L 177.412903 167.6258 
L 175.416209 167.405169 
L 173.419514 167.169139 
L 171.42282 166.923221 
L 169.426126 166.855772 
L 167.429432 166.960318 
L 165.432738 167.324111 
L 163.436043 167.530832 
L 161.439349 167.593741 
L 159.442655 167.53755 
L 157.445961 167.319901 
L 155.449267 167.005481 
L 153.452572 167.30889 
L 151.455878 167.6104 
L 149.459184 167.929991 
L 147.46249 168.198397 
L 145.465795 168.418655 
L 143.469101 168.560328 
L 141.472407 169.019653 
L 139.475713 169.230181 
L 137.479019 169.479977 
L 135.482324 170.774654 
L 133.48563 171.583856 
L 131.488936 171.756486 
L 129.492242 172.183063 
L 127.495548 172.980797 
L 125.498853 173.957369 
L 123.502159 174.849676 
L 121.505465 175.65403 
L 119.508771 176.379137 
L 117.512076 177.01945 
L 115.515382 177.906406 
L 113.518688 179.220391 
L 111.521994 180.348189 
L 109.5253 182.236048 
L 107.528605 184.071894 
L 105.531911 186.167499 
L 103.535217 188.065441 
L 101.538523 189.693398 
L 99.541829 191.022262 
L 97.545134 192.366473 
L 95.54844 193.556038 
L 93.551746 194.426559 
L 91.555052 195.157297 
L 89.558357 196.089632 
L 87.561663 197.191257 
L 85.564969 198.346462 
L 83.568275 199.453105 
L 81.571581 200.426509 
L 79.574886 201.254201 
" style="fill:none;stroke:#bcbd22;stroke-dasharray:2,3.3;stroke-dashoffset:0;stroke-width:2;"/>
   </g>
   <g id="line2d_19">
    <path clip-path="url(#pd4ee8aca7b)" d="M 277.247614 120.837356 
L 275.250919 120.837356 
L 273.254225 120.837356 
L 271.257531 120.837356 
L 269.260837 120.837356 
L 267.264143 120.837356 
L 265.267448 120.837356 
L 263.270754 120.837356 
L 261.27406 120.880608 
L 259.277366 121.963318 
L 257.280671 122.193512 
L 255.283977 122.23741 
L 253.287283 122.129637 
L 251.290589 121.90037 
L 249.293895 121.574506 
L 247.2972 121.17441 
L 245.300506 120.717513 
L 243.303812 120.220062 
L 241.307118 125.870145 
L 239.310424 131.39327 
L 237.313729 136.362228 
L 235.317035 140.821219 
L 233.320341 145.011319 
L 231.323647 149.469462 
L 229.326952 153.493703 
L 227.330258 157.119614 
L 225.333564 160.381386 
L 223.33687 163.306981 
L 221.340176 165.927236 
L 219.343481 168.271488 
L 217.346787 170.334946 
L 215.350093 172.083138 
L 213.353399 173.982559 
L 211.356705 176.372898 
L 209.36001 178.610729 
L 207.363316 180.596922 
L 205.366622 182.355145 
L 203.369928 183.904704 
L 201.373233 185.276258 
L 199.376539 186.366206 
L 197.379845 187.296237 
L 195.383151 188.217373 
L 193.386457 188.982892 
L 191.389762 189.470187 
L 189.393068 190.100571 
L 187.396374 190.648699 
L 185.39968 191.120081 
L 183.402986 191.537789 
L 181.406291 191.820318 
L 179.409597 192.018757 
L 177.412903 192.255238 
L 175.416209 192.702644 
L 173.419514 193.113568 
L 171.42282 193.633845 
L 169.426126 194.292545 
L 167.429432 194.571723 
L 165.432738 194.892397 
L 163.436043 195.212708 
L 161.439349 195.496944 
L 159.442655 195.617856 
L 157.445961 195.649405 
L 155.449267 195.660758 
L 153.452572 195.658654 
L 151.455878 195.60083 
L 149.459184 195.474779 
L 147.46249 195.290247 
L 145.465795 195.172707 
L 143.469101 195.979381 
L 141.472407 196.852886 
L 139.475713 197.651081 
L 137.479019 198.37466 
L 135.482324 200.662339 
L 133.48563 201.456864 
L 131.488936 201.761333 
L 129.492242 201.993606 
L 127.495548 202.306772 
L 125.498853 202.767417 
L 123.502159 203.056224 
L 121.505465 203.31617 
L 119.508771 203.786878 
L 117.512076 204.117102 
L 115.515382 204.433108 
L 113.518688 205.012767 
L 111.521994 205.515576 
L 109.5253 206.734195 
L 107.528605 207.800868 
L 105.531911 209.090449 
L 103.535217 209.703536 
L 101.538523 210.810882 
L 99.541829 211.120905 
L 97.545134 211.494622 
L 95.54844 211.845223 
L 93.551746 212.136293 
L 91.555052 212.392058 
L 89.558357 212.568936 
L 87.561663 212.837385 
L 85.564969 213.2048 
L 83.568275 213.786274 
L 81.571581 214.303083 
L 79.574886 214.756364 
" style="fill:none;stroke:#17becf;stroke-dasharray:2,3.3;stroke-dashoffset:0;stroke-width:2;"/>
   </g>
   <g id="line2d_20">
    <path clip-path="url(#pd4ee8aca7b)" d="M 277.247614 103.846485 
L 275.250919 103.846485 
L 273.254225 103.846485 
L 271.257531 103.846485 
L 269.260837 103.846485 
L 267.264143 103.846485 
L 265.267448 103.846485 
L 263.270754 103.846485 
L 261.27406 103.854774 
L 259.277366 104.326619 
L 257.280671 106.573925 
L 255.283977 108.95652 
L 253.287283 111.054994 
L 251.290589 112.886671 
L 249.293895 114.485472 
L 247.2972 115.900962 
L 245.300506 117.593078 
L 243.303812 119.849133 
L 241.307118 123.900978 
L 239.310424 128.001514 
L 237.313729 131.655601 
L 235.317035 134.887484 
L 233.320341 137.837747 
L 231.323647 140.971922 
L 229.326952 143.915204 
L 227.330258 146.702506 
L 225.333564 149.160573 
L 223.33687 151.290006 
L 221.340176 153.04329 
L 219.343481 154.534926 
L 217.346787 155.821315 
L 215.350093 156.912407 
L 213.353399 158.036062 
L 211.356705 159.209875 
L 209.36001 160.237359 
L 207.363316 161.118316 
L 205.366622 161.845033 
L 203.369928 162.426882 
L 201.373233 162.85824 
L 199.376539 163.278414 
L 197.379845 163.601837 
L 195.383151 163.88373 
L 193.386457 164.123935 
L 191.389762 164.324593 
L 189.393068 164.527586 
L 187.396374 164.721819 
L 185.39968 164.949869 
L 183.402986 165.173801 
L 181.406291 165.291134 
L 179.409597 165.301915 
L 177.412903 165.258399 
L 175.416209 165.225483 
L 173.419514 165.22495 
L 171.42282 165.223487 
L 169.426126 165.097368 
L 167.429432 164.920219 
L 165.432738 164.920566 
L 163.436043 165.059023 
L 161.439349 165.317742 
L 159.442655 165.633565 
L 157.445961 165.868726 
L 155.449267 166.089403 
L 153.452572 166.292014 
L 151.455878 166.482091 
L 149.459184 166.623757 
L 147.46249 166.649272 
L 145.465795 166.721819 
L 143.469101 166.36653 
L 141.472407 165.626527 
L 139.475713 164.734698 
L 137.479019 163.689143 
L 135.482324 162.568097 
L 133.48563 161.294614 
L 131.488936 160.217179 
L 129.492242 159.204203 
L 127.495548 158.746115 
L 125.498853 158.331293 
L 123.502159 157.797204 
L 121.505465 157.351152 
L 119.508771 157.154974 
L 117.512076 156.816935 
L 115.515382 156.510074 
L 113.518688 156.680945 
L 111.521994 156.902327 
L 109.5253 157.127542 
L 107.528605 157.157927 
L 105.531911 157.130495 
L 103.535217 156.872815 
L 101.538523 156.652878 
L 99.541829 156.491044 
L 97.545134 156.550181 
L 95.54844 156.695791 
L 93.551746 156.382942 
L 91.555052 156.071199 
L 89.558357 155.740821 
L 87.561663 155.532723 
L 85.564969 155.394982 
L 83.568275 155.406074 
L 81.571581 155.415994 
L 79.574886 155.416609 
" style="fill:none;stroke:#000000;stroke-linecap:square;stroke-width:2.5;"/>
   </g>
   <g id="line2d_21">
    <path clip-path="url(#pd4ee8aca7b)" d="M 181.406291 224.64 
L 181.406291 7.2 
" style="fill:none;stroke:#000000;stroke-dasharray:9.25,4;stroke-dashoffset:0;stroke-width:2.5;"/>
   </g>
   <g id="patch_3">
    <path d="M 69.69125 224.64 
L 69.69125 7.2 
" style="fill:none;stroke:#000000;stroke-linecap:square;stroke-linejoin:miter;stroke-width:0.8;"/>
   </g>
   <g id="patch_4">
    <path d="M 287.13125 224.64 
L 287.13125 7.2 
" style="fill:none;stroke:#000000;stroke-linecap:square;stroke-linejoin:miter;stroke-width:0.8;"/>
   </g>
   <g id="patch_5">
    <path d="M 69.69125 224.64 
L 287.13125 224.64 
" style="fill:none;stroke:#000000;stroke-linecap:square;stroke-linejoin:miter;stroke-width:0.8;"/>
   </g>
   <g id="patch_6">
    <path d="M 69.69125 7.2 
L 287.13125 7.2 
" style="fill:none;stroke:#000000;stroke-linecap:square;stroke-linejoin:miter;stroke-width:0.8;"/>
   </g>
  </g>
 </g>
 <defs>
  <clipPath id="pd4ee8aca7b">
   <rect height="217.44" width="217.44" x="69.69125" y="7.2"/>
  </clipPath>
 </defs>
</svg>
