<?xml version="1.0" encoding="utf-8" standalone="no"?>
<!DOCTYPE svg PUBLIC "-//W3C//DTD SVG 1.1//EN"
  "http://www.w3.org/Graphics/SVG/1.1/DTD/svg11.dtd">
<svg height="281.441562pt" version="1.1" viewBox="0 0 288.567926 281.441562" width="288.567926pt" xmlns="http://www.w3.org/2000/svg" xmlns:xlink="http://www.w3.org/1999/xlink">
 <metadata>
  <rdf:RDF xmlns:cc="http://creativecommons.org/ns#" xmlns:dc="http://purl.org/dc/elements/1.1/" xmlns:rdf="http://www.w3.org/1999/02/22-rdf-syntax-ns#">
   <cc:Work>
    <dc:type rdf:resource="http://purl.org/dc/dcmitype/StillImage"/>
    <dc:date>2024-09-24T17:00:16.401298</dc:date>
    <dc:format>image/svg+xml</dc:format>
    <dc:creator>
     <cc:Agent>
      <dc:title>Matplotlib v3.4.3, https://matplotlib.org/</dc:title>
     </cc:Agent>
    </dc:creator>
   </cc:Work>
  </rdf:RDF>
 </metadata>
 <defs>
  <style type="text/css">*{stroke-linecap:butt;stroke-linejoin:round;}</style>
 </defs>
 <g id="figure_1">
  <g id="patch_1">
   <path d="M 0 281.441562 
L 288.567926 281.441562 
L 288.567926 0 
L 0 0 
z
" style="fill:#ffffff;"/>
  </g>
  <g id="axes_1">
   <g id="patch_2">
    <path d="M 59.681562 224.64 
L 277.121562 224.64 
L 277.121562 7.2 
L 59.681562 7.2 
z
" style="fill:#ffffff;"/>
   </g>
   <g id="matplotlib.axis_1">
    <g id="xtick_1">
     <g id="line2d_1">
      <defs>
       <path d="M 0 0 
L 0 3.5 
" id="m57c8853a7a" style="stroke:#000000;stroke-width:1.5;"/>
      </defs>
      <g>
       <use style="stroke:#000000;stroke-width:1.5;" x="63.387926" xlink:href="#m57c8853a7a" y="224.64"/>
      </g>
     </g>
     <g id="text_1">
      <!-- $\mathdefault{10^{-3}}$ -->
      <g transform="translate(45.567926 250.2025)scale(0.18 -0.18)">
       <defs>
        <path d="M 2384 0 
L 1822 0 
L 1822 3584 
Q 1619 3391 1289 3197 
Q 959 3003 697 2906 
L 697 3450 
Q 1169 3672 1522 3987 
Q 1875 4303 2022 4600 
L 2384 4600 
L 2384 0 
z
" id="ArialMT-31" transform="scale(0.015625)"/>
        <path d="M 266 2259 
Q 266 3072 433 3567 
Q 600 4063 929 4331 
Q 1259 4600 1759 4600 
Q 2128 4600 2406 4451 
Q 2684 4303 2865 4023 
Q 3047 3744 3150 3342 
Q 3253 2941 3253 2259 
Q 3253 1453 3087 958 
Q 2922 463 2592 192 
Q 2263 -78 1759 -78 
Q 1097 -78 719 397 
Q 266 969 266 2259 
z
M 844 2259 
Q 844 1131 1108 757 
Q 1372 384 1759 384 
Q 2147 384 2411 759 
Q 2675 1134 2675 2259 
Q 2675 3391 2411 3762 
Q 2147 4134 1753 4134 
Q 1366 4134 1134 3806 
Q 844 3388 844 2259 
z
" id="ArialMT-30" transform="scale(0.015625)"/>
        <path d="M 3381 1997 
L 356 1997 
L 356 2522 
L 3381 2522 
L 3381 1997 
z
" id="ArialMT-2212" transform="scale(0.015625)"/>
        <path d="M 269 1209 
L 831 1284 
Q 928 806 1161 595 
Q 1394 384 1728 384 
Q 2125 384 2398 659 
Q 2672 934 2672 1341 
Q 2672 1728 2419 1979 
Q 2166 2231 1775 2231 
Q 1616 2231 1378 2169 
L 1441 2663 
Q 1497 2656 1531 2656 
Q 1891 2656 2178 2843 
Q 2466 3031 2466 3422 
Q 2466 3731 2256 3934 
Q 2047 4138 1716 4138 
Q 1388 4138 1169 3931 
Q 950 3725 888 3313 
L 325 3413 
Q 428 3978 793 4289 
Q 1159 4600 1703 4600 
Q 2078 4600 2393 4439 
Q 2709 4278 2876 4000 
Q 3044 3722 3044 3409 
Q 3044 3113 2884 2869 
Q 2725 2625 2413 2481 
Q 2819 2388 3044 2092 
Q 3269 1797 3269 1353 
Q 3269 753 2831 336 
Q 2394 -81 1725 -81 
Q 1122 -81 723 278 
Q 325 638 269 1209 
z
" id="ArialMT-33" transform="scale(0.015625)"/>
       </defs>
       <use transform="translate(0 0.99375)" xlink:href="#ArialMT-31"/>
       <use transform="translate(55.615234 0.99375)" xlink:href="#ArialMT-30"/>
       <use transform="translate(112.972813 70.6875)scale(0.7)" xlink:href="#ArialMT-2212"/>
       <use transform="translate(153.851719 70.6875)scale(0.7)" xlink:href="#ArialMT-33"/>
      </g>
     </g>
    </g>
    <g id="xtick_2">
     <g id="line2d_2">
      <g>
       <use style="stroke:#000000;stroke-width:1.5;" x="131.337926" xlink:href="#m57c8853a7a" y="224.64"/>
      </g>
     </g>
     <g id="text_2">
      <!-- $\mathdefault{10^{-2}}$ -->
      <g transform="translate(113.517926 250.2025)scale(0.18 -0.18)">
       <defs>
        <path d="M 3222 541 
L 3222 0 
L 194 0 
Q 188 203 259 391 
Q 375 700 629 1000 
Q 884 1300 1366 1694 
Q 2113 2306 2375 2664 
Q 2638 3022 2638 3341 
Q 2638 3675 2398 3904 
Q 2159 4134 1775 4134 
Q 1369 4134 1125 3890 
Q 881 3647 878 3216 
L 300 3275 
Q 359 3922 746 4261 
Q 1134 4600 1788 4600 
Q 2447 4600 2831 4234 
Q 3216 3869 3216 3328 
Q 3216 3053 3103 2787 
Q 2991 2522 2730 2228 
Q 2469 1934 1863 1422 
Q 1356 997 1212 845 
Q 1069 694 975 541 
L 3222 541 
z
" id="ArialMT-32" transform="scale(0.015625)"/>
       </defs>
       <use transform="translate(0 0.99375)" xlink:href="#ArialMT-31"/>
       <use transform="translate(55.615234 0.99375)" xlink:href="#ArialMT-30"/>
       <use transform="translate(112.972813 70.6875)scale(0.7)" xlink:href="#ArialMT-2212"/>
       <use transform="translate(153.851719 70.6875)scale(0.7)" xlink:href="#ArialMT-32"/>
      </g>
     </g>
    </g>
    <g id="xtick_3">
     <g id="line2d_3">
      <g>
       <use style="stroke:#000000;stroke-width:1.5;" x="199.287926" xlink:href="#m57c8853a7a" y="224.64"/>
      </g>
     </g>
     <g id="text_3">
      <!-- $\mathdefault{10^{-1}}$ -->
      <g transform="translate(181.467926 250.2025)scale(0.18 -0.18)">
       <use transform="translate(0 0.99375)" xlink:href="#ArialMT-31"/>
       <use transform="translate(55.615234 0.99375)" xlink:href="#ArialMT-30"/>
       <use transform="translate(112.972813 70.6875)scale(0.7)" xlink:href="#ArialMT-2212"/>
       <use transform="translate(153.851719 70.6875)scale(0.7)" xlink:href="#ArialMT-31"/>
      </g>
     </g>
    </g>
    <g id="xtick_4">
     <g id="line2d_4">
      <g>
       <use style="stroke:#000000;stroke-width:1.5;" x="267.237926" xlink:href="#m57c8853a7a" y="224.64"/>
      </g>
     </g>
     <g id="text_4">
      <!-- $\mathdefault{10^{0}}$ -->
      <g transform="translate(253.107926 250.2025)scale(0.18 -0.18)">
       <use transform="translate(0 0.99375)" xlink:href="#ArialMT-31"/>
       <use transform="translate(55.615234 0.99375)" xlink:href="#ArialMT-30"/>
       <use transform="translate(112.972813 70.6875)scale(0.7)" xlink:href="#ArialMT-30"/>
      </g>
     </g>
    </g>
    <g id="text_5">
     <!-- α -->
     <g transform="translate(163.198438 270.664062)scale(0.18 -0.18)">
      <defs>
       <path d="M 2884 3319 
L 3459 3319 
Q 3241 2631 3056 1659 
Q 3275 453 3459 0 
L 2900 0 
Q 2766 313 2697 606 
Q 2438 -75 1613 -75 
Q 988 -75 606 394 
Q 225 863 225 1666 
Q 225 2491 608 2942 
Q 991 3394 1622 3394 
Q 2013 3394 2259 3236 
Q 2506 3078 2719 2756 
Q 2741 2866 2884 3319 
z
M 1716 2928 
Q 1313 2928 1078 2603 
Q 844 2278 844 1666 
Q 844 1069 1066 728 
Q 1288 388 1684 388 
Q 2072 388 2331 723 
Q 2591 1059 2591 1691 
Q 2591 2303 2348 2615 
Q 2106 2928 1716 2928 
z
" id="ArialMT-3b1" transform="scale(0.015625)"/>
      </defs>
      <use xlink:href="#ArialMT-3b1"/>
     </g>
    </g>
   </g>
   <g id="matplotlib.axis_2">
    <g id="ytick_1">
     <g id="line2d_5">
      <defs>
       <path d="M 0 0 
L -3.5 0 
" id="m1bbbe485f8" style="stroke:#000000;stroke-width:1.5;"/>
      </defs>
      <g>
       <use style="stroke:#000000;stroke-width:1.5;" x="59.681562" xlink:href="#m1bbbe485f8" y="158.24052"/>
      </g>
     </g>
     <g id="text_6">
      <!-- 1.0 -->
      <g transform="translate(27.661562 164.682551)scale(0.18 -0.18)">
       <defs>
        <path d="M 581 0 
L 581 641 
L 1222 641 
L 1222 0 
L 581 0 
z
" id="ArialMT-2e" transform="scale(0.015625)"/>
       </defs>
       <use xlink:href="#ArialMT-31"/>
       <use x="55.615234" xlink:href="#ArialMT-2e"/>
       <use x="83.398438" xlink:href="#ArialMT-30"/>
      </g>
     </g>
    </g>
    <g id="ytick_2">
     <g id="line2d_6">
      <g>
       <use style="stroke:#000000;stroke-width:1.5;" x="59.681562" xlink:href="#m1bbbe485f8" y="90.378241"/>
      </g>
     </g>
     <g id="text_7">
      <!-- 1.5 -->
      <g transform="translate(27.661562 96.820272)scale(0.18 -0.18)">
       <defs>
        <path d="M 266 1200 
L 856 1250 
Q 922 819 1161 601 
Q 1400 384 1738 384 
Q 2144 384 2425 690 
Q 2706 997 2706 1503 
Q 2706 1984 2436 2262 
Q 2166 2541 1728 2541 
Q 1456 2541 1237 2417 
Q 1019 2294 894 2097 
L 366 2166 
L 809 4519 
L 3088 4519 
L 3088 3981 
L 1259 3981 
L 1013 2750 
Q 1425 3038 1878 3038 
Q 2478 3038 2890 2622 
Q 3303 2206 3303 1553 
Q 3303 931 2941 478 
Q 2500 -78 1738 -78 
Q 1113 -78 717 272 
Q 322 622 266 1200 
z
" id="ArialMT-35" transform="scale(0.015625)"/>
       </defs>
       <use xlink:href="#ArialMT-31"/>
       <use x="55.615234" xlink:href="#ArialMT-2e"/>
       <use x="83.398438" xlink:href="#ArialMT-35"/>
      </g>
     </g>
    </g>
    <g id="ytick_3">
     <g id="line2d_7">
      <g>
       <use style="stroke:#000000;stroke-width:1.5;" x="59.681562" xlink:href="#m1bbbe485f8" y="22.515962"/>
      </g>
     </g>
     <g id="text_8">
      <!-- 2.0 -->
      <g transform="translate(27.661562 28.957993)scale(0.18 -0.18)">
       <use xlink:href="#ArialMT-32"/>
       <use x="55.615234" xlink:href="#ArialMT-2e"/>
       <use x="83.398438" xlink:href="#ArialMT-30"/>
      </g>
     </g>
    </g>
    <g id="text_9">
     <!-- RMSE -->
     <g transform="translate(20.084062 141.922969)rotate(-90)scale(0.18 -0.18)">
      <defs>
       <path d="M 503 0 
L 503 4581 
L 2534 4581 
Q 3147 4581 3465 4457 
Q 3784 4334 3975 4021 
Q 4166 3709 4166 3331 
Q 4166 2844 3850 2509 
Q 3534 2175 2875 2084 
Q 3116 1969 3241 1856 
Q 3506 1613 3744 1247 
L 4541 0 
L 3778 0 
L 3172 953 
Q 2906 1366 2734 1584 
Q 2563 1803 2427 1890 
Q 2291 1978 2150 2013 
Q 2047 2034 1813 2034 
L 1109 2034 
L 1109 0 
L 503 0 
z
M 1109 2559 
L 2413 2559 
Q 2828 2559 3062 2645 
Q 3297 2731 3419 2920 
Q 3541 3109 3541 3331 
Q 3541 3656 3305 3865 
Q 3069 4075 2559 4075 
L 1109 4075 
L 1109 2559 
z
" id="ArialMT-52" transform="scale(0.015625)"/>
       <path d="M 475 0 
L 475 4581 
L 1388 4581 
L 2472 1338 
Q 2622 884 2691 659 
Q 2769 909 2934 1394 
L 4031 4581 
L 4847 4581 
L 4847 0 
L 4263 0 
L 4263 3834 
L 2931 0 
L 2384 0 
L 1059 3900 
L 1059 0 
L 475 0 
z
" id="ArialMT-4d" transform="scale(0.015625)"/>
       <path d="M 288 1472 
L 859 1522 
Q 900 1178 1048 958 
Q 1197 738 1509 602 
Q 1822 466 2213 466 
Q 2559 466 2825 569 
Q 3091 672 3220 851 
Q 3350 1031 3350 1244 
Q 3350 1459 3225 1620 
Q 3100 1781 2813 1891 
Q 2628 1963 1997 2114 
Q 1366 2266 1113 2400 
Q 784 2572 623 2826 
Q 463 3081 463 3397 
Q 463 3744 659 4045 
Q 856 4347 1234 4503 
Q 1613 4659 2075 4659 
Q 2584 4659 2973 4495 
Q 3363 4331 3572 4012 
Q 3781 3694 3797 3291 
L 3216 3247 
Q 3169 3681 2898 3903 
Q 2628 4125 2100 4125 
Q 1550 4125 1298 3923 
Q 1047 3722 1047 3438 
Q 1047 3191 1225 3031 
Q 1400 2872 2139 2705 
Q 2878 2538 3153 2413 
Q 3553 2228 3743 1945 
Q 3934 1663 3934 1294 
Q 3934 928 3725 604 
Q 3516 281 3123 101 
Q 2731 -78 2241 -78 
Q 1619 -78 1198 103 
Q 778 284 539 648 
Q 300 1013 288 1472 
z
" id="ArialMT-53" transform="scale(0.015625)"/>
       <path d="M 506 0 
L 506 4581 
L 3819 4581 
L 3819 4041 
L 1113 4041 
L 1113 2638 
L 3647 2638 
L 3647 2100 
L 1113 2100 
L 1113 541 
L 3925 541 
L 3925 0 
L 506 0 
z
" id="ArialMT-45" transform="scale(0.015625)"/>
      </defs>
      <use xlink:href="#ArialMT-52"/>
      <use x="72.216797" xlink:href="#ArialMT-4d"/>
      <use x="155.517578" xlink:href="#ArialMT-53"/>
      <use x="222.216797" xlink:href="#ArialMT-45"/>
     </g>
    </g>
   </g>
   <g id="line2d_8">
    <path clip-path="url(#pd9c58295ef)" d="M 267.237926 95.940039 
L 265.178835 98.236475 
L 263.119744 102.427633 
L 261.060653 106.813881 
L 259.001562 110.72334 
L 256.942472 114.201438 
L 254.883381 117.290459 
L 252.82429 120.02958 
L 250.765199 122.454918 
L 248.706108 124.16345 
L 246.647017 125.535582 
L 244.587926 126.690393 
L 242.528835 127.656196 
L 240.469744 129.747617 
L 238.410653 134.145767 
L 236.351562 138.176399 
L 234.292472 141.856002 
L 232.233381 145.122544 
L 230.17429 148.014987 
L 228.115199 150.572257 
L 226.056108 152.827704 
L 223.997017 154.813037 
L 221.937926 156.535191 
L 219.878835 158.012259 
L 217.819744 159.386053 
L 215.760653 160.766049 
L 213.701562 162.125224 
L 211.642472 163.361579 
L 209.583381 164.434046 
L 207.52429 165.354913 
L 205.465199 166.16164 
L 203.406108 167.110829 
L 201.347017 168.605835 
L 199.287926 170.052669 
L 197.228835 171.293337 
L 195.169744 172.38333 
L 193.110653 173.365401 
L 191.051562 174.231838 
L 188.992472 174.9622 
L 186.933381 175.460986 
L 184.87429 175.769312 
L 182.815199 176.093195 
L 180.756108 176.617069 
L 178.697017 177.420487 
L 176.637926 178.313923 
L 174.578835 179.355603 
L 172.519744 180.28891 
L 170.460653 181.308547 
L 168.401562 182.390741 
L 166.342472 183.228232 
L 164.283381 184.281769 
L 162.22429 185.275475 
L 160.165199 185.771902 
L 158.106108 185.958889 
L 156.047017 186.504962 
L 153.987926 186.95682 
L 151.928835 187.902714 
L 149.869744 188.959502 
L 147.810653 189.911718 
L 145.751562 190.799313 
L 143.692472 191.410446 
L 141.633381 191.738194 
L 139.57429 192.627043 
L 137.515199 193.461689 
L 135.456108 194.030942 
L 133.397017 194.596258 
L 131.337926 194.697526 
L 129.278835 194.62076 
L 127.219744 195.02683 
L 125.160653 195.345262 
L 123.101562 195.688572 
L 121.042472 196.367876 
L 118.983381 196.962658 
L 116.92429 197.265781 
L 114.865199 197.574462 
L 112.806108 197.885024 
L 110.747017 197.955086 
L 108.687926 197.68258 
L 106.628835 197.288228 
L 104.569744 196.891203 
L 102.510653 196.298806 
L 100.451562 195.736054 
L 98.392472 195.313786 
L 96.333381 195.195051 
L 94.27429 194.878172 
L 92.215199 195.106489 
L 90.156108 195.252267 
L 88.097017 194.923583 
L 86.037926 195.509707 
L 83.978835 195.848192 
L 81.919744 196.086275 
L 79.860653 196.285893 
L 77.801562 196.536013 
L 75.742472 196.396607 
L 73.683381 196.271038 
L 71.62429 196.448448 
L 69.565199 196.887432 
" style="fill:none;stroke:#1f77b4;stroke-dasharray:2,3.3;stroke-dashoffset:0;stroke-width:2;"/>
   </g>
   <g id="line2d_9">
    <path clip-path="url(#pd9c58295ef)" d="M 267.237926 75.581101 
L 265.178835 76.85822 
L 263.119744 81.02017 
L 261.060653 86.276961 
L 259.001562 91.000667 
L 256.942472 95.158875 
L 254.883381 98.808071 
L 252.82429 102.000984 
L 250.765199 104.786464 
L 248.706108 107.2095 
L 246.647017 109.311231 
L 244.587926 112.037824 
L 242.528835 115.056654 
L 240.469744 119.124079 
L 238.410653 124.892132 
L 236.351562 129.947752 
L 234.292472 134.323252 
L 232.233381 138.083522 
L 230.17429 141.230272 
L 228.115199 143.612596 
L 226.056108 146.138897 
L 223.997017 147.908873 
L 221.937926 149.353742 
L 219.878835 150.496733 
L 217.819744 151.415882 
L 215.760653 152.142407 
L 213.701562 152.705593 
L 211.642472 153.474011 
L 209.583381 154.151075 
L 207.52429 155.019895 
L 205.465199 155.802551 
L 203.406108 156.520203 
L 201.347017 157.706643 
L 199.287926 159.020882 
L 197.228835 160.177748 
L 195.169744 160.97507 
L 193.110653 161.453081 
L 191.051562 161.824637 
L 188.992472 162.117772 
L 186.933381 161.909023 
L 184.87429 161.668682 
L 182.815199 161.414403 
L 180.756108 161.148436 
L 178.697017 160.887699 
L 176.637926 161.004621 
L 174.578835 161.899317 
L 172.519744 162.999551 
L 170.460653 164.376814 
L 168.401562 165.747937 
L 166.342472 167.050235 
L 164.283381 168.198294 
L 162.22429 169.23726 
L 160.165199 170.030066 
L 158.106108 170.050217 
L 156.047017 171.539405 
L 153.987926 171.70938 
L 151.928835 170.61027 
L 149.869744 168.603093 
L 147.810653 168.006969 
L 145.751562 167.583641 
L 143.692472 167.105072 
L 141.633381 166.657961 
L 139.57429 166.028471 
L 137.515199 165.342848 
L 135.456108 165.324164 
L 133.397017 165.764198 
L 131.337926 167.640673 
L 129.278835 168.56067 
L 127.219744 167.889732 
L 125.160653 167.078252 
L 123.101562 166.081032 
L 121.042472 164.370403 
L 118.983381 163.978759 
L 116.92429 164.17877 
L 114.865199 163.828097 
L 112.806108 163.243388 
L 110.747017 162.361623 
L 108.687926 161.615392 
L 106.628835 161.560628 
L 104.569744 170.579291 
L 102.510653 172.812266 
L 100.451562 172.505605 
L 98.392472 172.333534 
L 96.333381 170.406325 
L 94.27429 178.016766 
L 92.215199 185.210522 
L 90.156108 189.861003 
L 88.097017 192.97201 
L 86.037926 190.680734 
L 83.978835 180.92917 
L 81.919744 169.6636 
L 79.860653 155.361652 
L 77.801562 146.835437 
L 75.742472 136.243016 
L 73.683381 126.282123 
L 71.62429 118.460344 
L 69.565199 110.561802 
" style="fill:none;stroke:#ff7f0e;stroke-dasharray:2,3.3;stroke-dashoffset:0;stroke-width:2;"/>
   </g>
   <g id="line2d_10">
    <path clip-path="url(#pd9c58295ef)" d="M 267.237926 54.393597 
L 265.178835 54.750133 
L 263.119744 59.17923 
L 261.060653 63.158446 
L 259.001562 68.108302 
L 256.942472 73.176779 
L 254.883381 77.769233 
L 252.82429 81.92792 
L 250.765199 85.692416 
L 248.706108 89.097399 
L 246.647017 92.176807 
L 244.587926 94.961211 
L 242.528835 97.480442 
L 240.469744 102.948259 
L 238.410653 110.037418 
L 236.351562 116.566527 
L 234.292472 122.581678 
L 232.233381 128.117918 
L 230.17429 133.007418 
L 228.115199 137.362692 
L 226.056108 141.368161 
L 223.997017 145.049976 
L 221.937926 148.442833 
L 219.878835 151.581913 
L 217.819744 154.481166 
L 215.760653 157.152904 
L 213.701562 159.582806 
L 211.642472 161.825842 
L 209.583381 163.896342 
L 207.52429 165.826389 
L 205.465199 167.636801 
L 203.406108 169.313393 
L 201.347017 170.849405 
L 199.287926 173.06297 
L 197.228835 176.012708 
L 195.169744 178.706416 
L 193.110653 180.827048 
L 191.051562 182.603029 
L 188.992472 184.208426 
L 186.933381 185.590617 
L 184.87429 186.698826 
L 182.815199 189.336149 
L 180.756108 191.698022 
L 178.697017 193.878655 
L 176.637926 195.267752 
L 174.578835 196.028394 
L 172.519744 197.015432 
L 170.460653 198.860885 
L 168.401562 201.104181 
L 166.342472 202.876248 
L 164.283381 203.55316 
L 162.22429 204.186488 
L 160.165199 205.820044 
L 158.106108 206.445506 
L 156.047017 207.133814 
L 153.987926 208.21531 
L 151.928835 208.847718 
L 149.869744 210.896211 
L 147.810653 211.599013 
L 145.751562 212.153201 
L 143.692472 212.732264 
L 141.633381 213.146481 
L 139.57429 213.283686 
L 137.515199 213.969175 
L 135.456108 214.756364 
L 133.397017 214.285037 
L 131.337926 209.725225 
L 129.278835 204.92385 
L 127.219744 202.130173 
L 125.160653 201.148259 
L 123.101562 200.180772 
L 121.042472 198.561144 
L 118.983381 196.897421 
L 116.92429 195.268418 
L 114.865199 193.68494 
L 112.806108 191.987309 
L 110.747017 190.458351 
L 108.687926 189.054063 
L 106.628835 187.724912 
L 104.569744 187.064338 
L 102.510653 187.240291 
L 100.451562 189.056241 
L 98.392472 190.917862 
L 96.333381 192.349048 
L 94.27429 193.087519 
L 92.215199 193.693473 
L 90.156108 202.494051 
L 88.097017 185.95976 
L 86.037926 153.604309 
L 83.978835 112.966803 
L 81.919744 55.337988 
L 79.860653 17.083636 
L 77.801562 29.007095 
L 75.742472 34.591398 
L 73.683381 43.850754 
L 71.62429 172.750778 
L 69.565199 187.840002 
" style="fill:none;stroke:#2ca02c;stroke-dasharray:2,3.3;stroke-dashoffset:0;stroke-width:2;"/>
   </g>
   <g id="line2d_11">
    <path clip-path="url(#pd9c58295ef)" d="M 267.237926 54.393597 
L 265.178835 54.393597 
L 263.119744 59.398307 
L 261.060653 65.036394 
L 259.001562 70.126098 
L 256.942472 74.715971 
L 254.883381 78.851442 
L 252.82429 82.574732 
L 250.765199 85.924507 
L 248.706108 88.936787 
L 246.647017 91.795662 
L 244.587926 95.217073 
L 242.528835 98.283498 
L 240.469744 101.493075 
L 238.410653 104.363609 
L 236.351562 110.075081 
L 234.292472 116.156504 
L 232.233381 121.708293 
L 230.17429 126.771075 
L 228.115199 131.383409 
L 226.056108 135.369337 
L 223.997017 138.942041 
L 221.937926 142.190924 
L 219.878835 145.190533 
L 217.819744 148.426392 
L 215.760653 151.324228 
L 213.701562 153.911029 
L 211.642472 156.217069 
L 209.583381 158.341036 
L 207.52429 160.940512 
L 205.465199 162.648086 
L 203.406108 163.715952 
L 201.347017 165.415266 
L 199.287926 167.467107 
L 197.228835 169.117721 
L 195.169744 170.598588 
L 193.110653 171.925665 
L 191.051562 173.104853 
L 188.992472 173.561185 
L 186.933381 173.798653 
L 184.87429 174.101874 
L 182.815199 174.521517 
L 180.756108 174.905475 
L 178.697017 175.482147 
L 176.637926 175.857035 
L 174.578835 176.164197 
L 172.519744 176.489041 
L 170.460653 176.755212 
L 168.401562 176.851755 
L 166.342472 177.165807 
L 164.283381 177.466497 
L 162.22429 177.962206 
L 160.165199 178.527524 
L 158.106108 179.361181 
L 156.047017 179.332065 
L 153.987926 179.090839 
L 151.928835 179.713308 
L 149.869744 180.226637 
L 147.810653 180.626656 
L 145.751562 180.842849 
L 143.692472 180.732428 
L 141.633381 181.177105 
L 139.57429 181.102529 
L 137.515199 181.266827 
L 135.456108 181.660094 
L 133.397017 181.48503 
L 131.337926 181.520563 
L 129.278835 181.615362 
L 127.219744 181.860014 
L 125.160653 182.261698 
L 123.101562 182.868369 
L 121.042472 183.633839 
L 118.983381 184.297805 
L 116.92429 183.618167 
L 114.865199 183.439212 
L 112.806108 183.075379 
L 110.747017 182.557815 
L 108.687926 181.80236 
L 106.628835 180.912716 
L 104.569744 179.997505 
L 102.510653 180.15788 
L 100.451562 180.17686 
L 98.392472 180.246842 
L 96.333381 180.565394 
L 94.27429 181.364412 
L 92.215199 182.912735 
L 90.156108 180.844926 
L 88.097017 178.104991 
L 86.037926 176.167502 
L 83.978835 174.215109 
L 81.919744 172.3308 
L 79.860653 170.520322 
L 77.801562 168.867531 
L 75.742472 165.441068 
L 73.683381 162.640342 
L 71.62429 159.614047 
L 69.565199 156.592407 
" style="fill:none;stroke:#d62728;stroke-dasharray:2,3.3;stroke-dashoffset:0;stroke-width:2;"/>
   </g>
   <g id="line2d_12">
    <path clip-path="url(#pd9c58295ef)" d="M 267.237926 54.427822 
L 265.178835 56.559974 
L 263.119744 58.749711 
L 261.060653 60.594652 
L 259.001562 62.13974 
L 256.942472 63.424763 
L 254.883381 64.485362 
L 252.82429 65.353099 
L 250.765199 66.055254 
L 248.706108 66.616218 
L 246.647017 67.057122 
L 244.587926 68.079817 
L 242.528835 69.585604 
L 240.469744 70.837451 
L 238.410653 71.869001 
L 236.351562 72.711504 
L 234.292472 77.910091 
L 232.233381 83.580933 
L 230.17429 88.768309 
L 228.115199 93.582853 
L 226.056108 98.151986 
L 223.997017 102.193555 
L 221.937926 105.888461 
L 219.878835 109.185342 
L 217.819744 112.282807 
L 215.760653 115.527291 
L 213.701562 118.425114 
L 211.642472 120.990066 
L 209.583381 123.175597 
L 207.52429 125.182448 
L 205.465199 127.21416 
L 203.406108 129.295517 
L 201.347017 131.109921 
L 199.287926 132.641414 
L 197.228835 133.878405 
L 195.169744 134.962608 
L 193.110653 135.834095 
L 191.051562 136.545594 
L 188.992472 137.133043 
L 186.933381 137.621029 
L 184.87429 138.08376 
L 182.815199 138.462682 
L 180.756108 138.782394 
L 178.697017 139.028745 
L 176.637926 139.202932 
L 174.578835 139.338486 
L 172.519744 139.473342 
L 170.460653 139.744787 
L 168.401562 140.066795 
L 166.342472 140.329332 
L 164.283381 140.544332 
L 162.22429 141.422932 
L 160.165199 142.758464 
L 158.106108 143.972459 
L 156.047017 145.016339 
L 153.987926 146.004907 
L 151.928835 147.605636 
L 149.869744 148.558676 
L 147.810653 149.965197 
L 145.751562 152.51799 
L 143.692472 155.419874 
L 141.633381 158.223051 
L 139.57429 161.041958 
L 137.515199 164.089866 
L 135.456108 167.403668 
L 133.397017 170.134232 
L 131.337926 171.981675 
L 129.278835 173.108517 
L 127.219744 173.968258 
L 125.160653 175.815486 
L 123.101562 177.40487 
L 121.042472 178.586275 
L 118.983381 180.332003 
L 116.92429 182.579901 
L 114.865199 184.392823 
L 112.806108 185.984242 
L 110.747017 187.281084 
L 108.687926 188.848521 
L 106.628835 190.267681 
L 104.569744 191.43192 
L 102.510653 192.251474 
L 100.451562 191.687814 
L 98.392472 190.701484 
L 96.333381 189.790651 
L 94.27429 190.147875 
L 92.215199 189.852085 
L 90.156108 189.517123 
L 88.097017 190.847914 
L 86.037926 191.978043 
L 83.978835 192.011 
L 81.919744 190.909489 
L 79.860653 190.279228 
L 77.801562 189.719248 
L 75.742472 189.097739 
L 73.683381 189.078201 
L 71.62429 189.504289 
L 69.565199 188.797407 
" style="fill:none;stroke:#9467bd;stroke-dasharray:2,3.3;stroke-dashoffset:0;stroke-width:2;"/>
   </g>
   <g id="line2d_13">
    <path clip-path="url(#pd9c58295ef)" d="M 267.237926 63.631695 
L 265.178835 64.490255 
L 263.119744 69.557368 
L 261.060653 74.537918 
L 259.001562 78.87451 
L 256.942472 82.634209 
L 254.883381 85.879668 
L 252.82429 88.668371 
L 250.765199 91.053699 
L 248.706108 93.084191 
L 246.647017 94.804069 
L 244.587926 96.798042 
L 242.528835 99.796494 
L 240.469744 102.444735 
L 238.410653 104.773763 
L 236.351562 106.81937 
L 234.292472 108.613475 
L 232.233381 110.185693 
L 230.17429 111.560394 
L 228.115199 112.761878 
L 226.056108 113.949322 
L 223.997017 115.110911 
L 221.937926 116.106282 
L 219.878835 116.964033 
L 217.819744 116.948352 
L 215.760653 116.905487 
L 213.701562 116.828324 
L 211.642472 116.695212 
L 209.583381 116.518071 
L 207.52429 116.306955 
L 205.465199 116.074602 
L 203.406108 115.864909 
L 201.347017 115.637625 
L 199.287926 115.398426 
L 197.228835 115.333977 
L 195.169744 115.587274 
L 193.110653 115.75948 
L 191.051562 116.113542 
L 188.992472 116.872843 
L 186.933381 117.61637 
L 184.87429 118.327161 
L 182.815199 119.006544 
L 180.756108 119.617754 
L 178.697017 120.253157 
L 176.637926 120.826438 
L 174.578835 121.152098 
L 172.519744 121.282342 
L 170.460653 121.438698 
L 168.401562 122.002478 
L 166.342472 122.649376 
L 164.283381 123.671502 
L 162.22429 124.603224 
L 160.165199 125.498817 
L 158.106108 125.978532 
L 156.047017 126.094614 
L 153.987926 125.248757 
L 151.928835 125.280225 
L 149.869744 125.310875 
L 147.810653 125.929836 
L 145.751562 127.08819 
L 143.692472 128.175428 
L 141.633381 128.921686 
L 139.57429 129.657153 
L 137.515199 130.04566 
L 135.456108 130.538858 
L 133.397017 130.930089 
L 131.337926 131.274894 
L 129.278835 131.57766 
L 127.219744 132.100309 
L 125.160653 132.690736 
L 123.101562 133.32897 
L 121.042472 133.706549 
L 118.983381 134.132428 
L 116.92429 135.192031 
L 114.865199 136.092717 
L 112.806108 136.882283 
L 110.747017 137.600228 
L 108.687926 138.197048 
L 106.628835 138.102355 
L 104.569744 137.959087 
L 102.510653 137.666194 
L 100.451562 137.247289 
L 98.392472 137.048078 
L 96.333381 136.895762 
L 94.27429 136.734174 
L 92.215199 136.571337 
L 90.156108 136.160776 
L 88.097017 135.742597 
L 86.037926 135.355341 
L 83.978835 135.75819 
L 81.919744 135.473233 
L 79.860653 136.192556 
L 77.801562 136.413645 
L 75.742472 136.378655 
L 73.683381 137.134546 
L 71.62429 138.142512 
L 69.565199 139.196561 
" style="fill:none;stroke:#8c564b;stroke-dasharray:2,3.3;stroke-dashoffset:0;stroke-width:2;"/>
   </g>
   <g id="line2d_14">
    <path clip-path="url(#pd9c58295ef)" d="M 267.237926 101.987447 
L 265.178835 101.987447 
L 263.119744 108.515137 
L 261.060653 115.789492 
L 259.001562 122.247625 
L 256.942472 127.953877 
L 254.883381 132.970901 
L 252.82429 137.359024 
L 250.765199 141.176749 
L 248.706108 144.479914 
L 246.647017 147.321724 
L 244.587926 151.038771 
L 242.528835 155.308771 
L 240.469744 161.166406 
L 238.410653 166.404321 
L 236.351562 171.094384 
L 234.292472 175.442504 
L 232.233381 179.312331 
L 230.17429 182.743741 
L 228.115199 185.414539 
L 226.056108 187.742604 
L 223.997017 189.735446 
L 221.937926 191.140959 
L 219.878835 192.23904 
L 217.819744 193.15055 
L 215.760653 193.900934 
L 213.701562 194.510808 
L 211.642472 194.843845 
L 209.583381 194.873435 
L 207.52429 194.947493 
L 205.465199 195.053216 
L 203.406108 195.053266 
L 201.347017 194.968415 
L 199.287926 194.801356 
L 197.228835 194.448053 
L 195.169744 194.078031 
L 193.110653 194.294906 
L 191.051562 194.47439 
L 188.992472 194.955753 
L 186.933381 195.42866 
L 184.87429 195.852137 
L 182.815199 196.891425 
L 180.756108 197.516953 
L 178.697017 197.942929 
L 176.637926 198.658133 
L 174.578835 199.395808 
L 172.519744 199.861586 
L 170.460653 199.818899 
L 168.401562 199.516276 
L 166.342472 199.171871 
L 164.283381 198.674734 
L 162.22429 198.105215 
L 160.165199 197.473174 
L 158.106108 196.717276 
L 156.047017 195.817735 
L 153.987926 194.84637 
L 151.928835 193.837249 
L 149.869744 193.107899 
L 147.810653 192.610197 
L 145.751562 191.983167 
L 143.692472 190.983044 
L 141.633381 190.0683 
L 139.57429 189.784776 
L 137.515199 189.538855 
L 135.456108 189.566392 
L 133.397017 189.690929 
L 131.337926 189.662233 
L 129.278835 189.411259 
L 127.219744 189.283216 
L 125.160653 189.071131 
L 123.101562 188.756104 
L 121.042472 188.294228 
L 118.983381 188.227793 
L 116.92429 188.187643 
L 114.865199 188.12233 
L 112.806108 187.622168 
L 110.747017 186.679645 
L 108.687926 185.606042 
L 106.628835 184.36255 
L 104.569744 183.407434 
L 102.510653 181.863791 
L 100.451562 179.907379 
L 98.392472 178.63148 
L 96.333381 177.822637 
L 94.27429 176.670354 
L 92.215199 174.963519 
L 90.156108 173.32537 
L 88.097017 172.148874 
L 86.037926 171.436715 
L 83.978835 170.528943 
L 81.919744 169.114941 
L 79.860653 169.937543 
L 77.801562 169.219758 
L 75.742472 169.940034 
L 73.683381 169.40662 
L 71.62429 168.931015 
L 69.565199 168.794264 
" style="fill:none;stroke:#e377c2;stroke-dasharray:2,3.3;stroke-dashoffset:0;stroke-width:2;"/>
   </g>
   <g id="line2d_15">
    <path clip-path="url(#pd9c58295ef)" d="M 267.237926 101.987447 
L 265.178835 102.991734 
L 263.119744 108.115876 
L 261.060653 114.698952 
L 259.001562 120.652137 
L 256.942472 126.024935 
L 254.883381 130.864241 
L 252.82429 135.214719 
L 250.765199 139.118572 
L 248.706108 141.779862 
L 246.647017 144.050464 
L 244.587926 145.991253 
L 242.528835 147.954221 
L 240.469744 151.563758 
L 238.410653 154.661982 
L 236.351562 157.301864 
L 234.292472 159.535042 
L 232.233381 161.408094 
L 230.17429 162.964729 
L 228.115199 164.245056 
L 226.056108 165.284919 
L 223.997017 166.193546 
L 221.937926 166.985952 
L 219.878835 167.567958 
L 217.819744 168.003815 
L 215.760653 168.39559 
L 213.701562 169.087576 
L 211.642472 169.618605 
L 209.583381 170.013053 
L 207.52429 170.422513 
L 205.465199 170.931201 
L 203.406108 169.994211 
L 201.347017 168.847463 
L 199.287926 168.051002 
L 197.228835 167.005558 
L 195.169744 165.897904 
L 193.110653 164.744237 
L 191.051562 163.555812 
L 188.992472 162.375322 
L 186.933381 161.19123 
L 184.87429 160.016535 
L 182.815199 158.808111 
L 180.756108 157.288674 
L 178.697017 154.485685 
L 176.637926 151.272866 
L 174.578835 147.826456 
L 172.519744 146.336265 
L 170.460653 145.072917 
L 168.401562 143.473903 
L 166.342472 141.934956 
L 164.283381 140.29592 
L 162.22429 138.538357 
L 160.165199 136.942878 
L 158.106108 135.73378 
L 156.047017 133.644587 
L 153.987926 131.961975 
L 151.928835 130.280433 
L 149.869744 128.690393 
L 147.810653 127.510781 
L 145.751562 127.960241 
L 143.692472 128.347534 
L 141.633381 128.884127 
L 139.57429 130.235599 
L 137.515199 131.651775 
L 135.456108 132.951586 
L 133.397017 133.622964 
L 131.337926 134.168501 
L 129.278835 134.506773 
L 127.219744 134.323766 
L 125.160653 133.761993 
L 123.101562 133.208313 
L 121.042472 132.662644 
L 118.983381 132.140233 
L 116.92429 132.437478 
L 114.865199 133.235954 
L 112.806108 134.417424 
L 110.747017 135.976099 
L 108.687926 137.507879 
L 106.628835 138.26895 
L 104.569744 139.039216 
L 102.510653 140.330779 
L 100.451562 142.28604 
L 98.392472 142.987022 
L 96.333381 143.094305 
L 94.27429 143.439083 
L 92.215199 145.179171 
L 90.156108 145.709355 
L 88.097017 147.26699 
L 86.037926 150.240104 
L 83.978835 158.81349 
L 81.919744 162.316724 
L 79.860653 165.554377 
L 77.801562 168.720103 
L 75.742472 171.518569 
L 73.683381 173.255643 
L 71.62429 175.132444 
L 69.565199 177.12905 
" style="fill:none;stroke:#7f7f7f;stroke-dasharray:2,3.3;stroke-dashoffset:0;stroke-width:2;"/>
   </g>
   <g id="line2d_16">
    <path clip-path="url(#pd9c58295ef)" d="M 267.237926 101.987447 
L 265.178835 102.722718 
L 263.119744 109.045101 
L 261.060653 115.241045 
L 259.001562 120.898273 
L 256.942472 126.057957 
L 254.883381 130.759308 
L 252.82429 135.039299 
L 250.765199 138.931928 
L 248.706108 142.469767 
L 246.647017 145.682998 
L 244.587926 149.103977 
L 242.528835 154.843976 
L 240.469744 161.410628 
L 238.410653 167.297843 
L 236.351562 172.486863 
L 234.292472 177.029318 
L 232.233381 180.976232 
L 230.17429 184.096801 
L 228.115199 186.33955 
L 226.056108 188.118637 
L 223.997017 189.491999 
L 221.937926 190.44927 
L 219.878835 191.104124 
L 217.819744 191.641112 
L 215.760653 191.959447 
L 213.701562 192.096588 
L 211.642472 192.150419 
L 209.583381 192.101036 
L 207.52429 191.952794 
L 205.465199 191.987909 
L 203.406108 191.924308 
L 201.347017 191.750556 
L 199.287926 191.394385 
L 197.228835 190.987871 
L 195.169744 190.517336 
L 193.110653 189.979689 
L 191.051562 189.592974 
L 188.992472 190.03327 
L 186.933381 190.723359 
L 184.87429 190.794269 
L 182.815199 190.566613 
L 180.756108 190.100662 
L 178.697017 189.515369 
L 176.637926 189.152282 
L 174.578835 189.696846 
L 172.519744 190.115895 
L 170.460653 190.400559 
L 168.401562 190.692324 
L 166.342472 190.796038 
L 164.283381 190.965137 
L 162.22429 191.169535 
L 160.165199 191.069467 
L 158.106108 190.830029 
L 156.047017 190.414742 
L 153.987926 190.172469 
L 151.928835 191.137032 
L 149.869744 191.963862 
L 147.810653 192.696318 
L 145.751562 193.473075 
L 143.692472 194.164829 
L 141.633381 194.314207 
L 139.57429 194.452987 
L 137.515199 194.567824 
L 135.456108 194.533271 
L 133.397017 194.881744 
L 131.337926 195.114117 
L 129.278835 195.473703 
L 127.219744 195.548188 
L 125.160653 195.699847 
L 123.101562 197.032012 
L 121.042472 197.915383 
L 118.983381 198.774962 
L 116.92429 199.45622 
L 114.865199 200.020213 
L 112.806108 200.270945 
L 110.747017 200.941482 
L 108.687926 201.276949 
L 106.628835 201.637392 
L 104.569744 202.084096 
L 102.510653 202.54678 
L 100.451562 203.190102 
L 98.392472 203.71568 
L 96.333381 204.552515 
L 94.27429 205.198381 
L 92.215199 205.908481 
L 90.156108 207.681347 
L 88.097017 209.420942 
L 86.037926 210.606622 
L 83.978835 211.459745 
L 81.919744 212.077168 
L 79.860653 212.173752 
L 77.801562 212.466537 
L 75.742472 212.591419 
L 73.683381 213.155253 
L 71.62429 213.974601 
L 69.565199 214.512318 
" style="fill:none;stroke:#bcbd22;stroke-dasharray:2,3.3;stroke-dashoffset:0;stroke-width:2;"/>
   </g>
   <g id="line2d_17">
    <path clip-path="url(#pd9c58295ef)" d="M 267.237926 101.987447 
L 265.178835 103.001365 
L 263.119744 108.409527 
L 261.060653 115.000419 
L 259.001562 120.900856 
L 256.942472 126.166319 
L 254.883381 130.850721 
L 252.82429 135.005233 
L 250.765199 138.678712 
L 248.706108 141.916532 
L 246.647017 144.762128 
L 244.587926 148.493527 
L 242.528835 153.032184 
L 240.469744 157.149474 
L 238.410653 160.751963 
L 236.351562 164.073406 
L 234.292472 166.946387 
L 232.233381 169.414845 
L 230.17429 171.523266 
L 228.115199 173.310568 
L 226.056108 174.81546 
L 223.997017 176.072649 
L 221.937926 177.032306 
L 219.878835 177.623935 
L 217.819744 178.676523 
L 215.760653 179.699141 
L 213.701562 180.574076 
L 211.642472 181.353906 
L 209.583381 181.9672 
L 207.52429 182.413029 
L 205.465199 182.753133 
L 203.406108 183.476099 
L 201.347017 184.387918 
L 199.287926 185.199454 
L 197.228835 186.154606 
L 195.169744 187.11991 
L 193.110653 187.971262 
L 191.051562 188.703507 
L 188.992472 189.331628 
L 186.933381 190.18612 
L 184.87429 191.17152 
L 182.815199 191.910866 
L 180.756108 192.57814 
L 178.697017 193.428542 
L 176.637926 194.2214 
L 174.578835 195.021761 
L 172.519744 195.978778 
L 170.460653 196.819454 
L 168.401562 197.611886 
L 166.342472 198.469162 
L 164.283381 199.208777 
L 162.22429 199.782497 
L 160.165199 199.924671 
L 158.106108 199.60466 
L 156.047017 199.366525 
L 153.987926 199.977709 
L 151.928835 201.050669 
L 149.869744 201.083354 
L 147.810653 200.946419 
L 145.751562 200.596714 
L 143.692472 200.182867 
L 141.633381 199.732553 
L 139.57429 199.258923 
L 137.515199 198.730876 
L 135.456108 198.52641 
L 133.397017 198.572078 
L 131.337926 198.587568 
L 129.278835 198.592727 
L 127.219744 198.520243 
L 125.160653 198.691014 
L 123.101562 199.08707 
L 121.042472 199.478884 
L 118.983381 199.821286 
L 116.92429 199.314228 
L 114.865199 198.692826 
L 112.806108 198.103296 
L 110.747017 197.582337 
L 108.687926 197.090795 
L 106.628835 196.599156 
L 104.569744 196.043841 
L 102.510653 195.437392 
L 100.451562 194.662282 
L 98.392472 194.048832 
L 96.333381 193.475197 
L 94.27429 192.925457 
L 92.215199 192.337457 
L 90.156108 191.682846 
L 88.097017 190.964487 
L 86.037926 190.779101 
L 83.978835 190.49239 
L 81.919744 190.183554 
L 79.860653 189.805831 
L 77.801562 189.201087 
L 75.742472 188.651006 
L 73.683381 188.134033 
L 71.62429 187.816893 
L 69.565199 188.223693 
" style="fill:none;stroke:#17becf;stroke-dasharray:2,3.3;stroke-dashoffset:0;stroke-width:2;"/>
   </g>
   <g id="line2d_18">
    <path clip-path="url(#pd9c58295ef)" d="M 267.237926 80.631764 
L 265.178835 81.599192 
L 263.119744 86.441806 
L 261.060653 91.714816 
L 259.001562 96.567155 
L 256.942472 100.951512 
L 254.883381 104.852941 
L 252.82429 108.317296 
L 250.765199 111.387322 
L 248.706108 113.975362 
L 246.647017 116.249779 
L 244.587926 118.841189 
L 242.528835 121.899804 
L 240.469744 125.788548 
L 238.410653 129.91978 
L 236.351562 133.925315 
L 234.292472 138.039425 
L 232.233381 141.79104 
L 230.17429 145.068099 
L 228.115199 147.85854 
L 226.056108 150.376703 
L 223.997017 152.551203 
L 221.937926 154.412592 
L 219.878835 155.996587 
L 217.819744 157.441265 
L 215.760653 158.777348 
L 213.701562 159.984714 
L 211.642472 161.053055 
L 209.583381 161.947089 
L 207.52429 162.836694 
L 205.465199 163.62633 
L 203.406108 164.226869 
L 201.347017 164.927905 
L 199.287926 165.708967 
L 197.228835 166.440998 
L 195.169744 167.082647 
L 193.110653 167.615486 
L 191.051562 168.075017 
L 188.992472 168.555144 
L 186.933381 168.952605 
L 184.87429 169.248408 
L 182.815199 169.701151 
L 180.756108 170.025358 
L 178.697017 170.232341 
L 176.637926 170.377738 
L 174.578835 170.587897 
L 172.519744 170.984114 
L 170.460653 171.459677 
L 168.401562 171.945827 
L 166.342472 172.367126 
L 164.283381 172.686012 
L 162.22429 173.028319 
L 160.165199 173.381701 
L 158.106108 173.465253 
L 156.047017 173.486479 
L 153.987926 173.418454 
L 151.928835 173.626525 
L 149.869744 173.74005 
L 147.810653 173.98031 
L 145.751562 174.499838 
L 143.692472 174.925379 
L 141.633381 175.286367 
L 139.57429 175.747312 
L 137.515199 176.266539 
L 135.456108 176.929175 
L 133.397017 177.396256 
L 131.337926 177.437297 
L 129.278835 177.239128 
L 127.219744 177.065073 
L 125.160653 177.156368 
L 123.101562 177.363608 
L 121.042472 177.357722 
L 118.983381 177.556535 
L 116.92429 177.749864 
L 114.865199 177.908358 
L 112.806108 177.947146 
L 110.747017 177.939375 
L 108.687926 177.868163 
L 106.628835 177.672457 
L 104.569744 178.449793 
L 102.510653 178.660565 
L 100.451562 178.645567 
L 98.392472 178.59446 
L 96.333381 178.414688 
L 94.27429 179.246219 
L 92.215199 180.173527 
L 90.156108 181.252906 
L 88.097017 179.835215 
L 86.037926 176.635818 
L 83.978835 172.302303 
L 81.919744 165.349377 
L 79.860653 160.319479 
L 77.801562 160.698645 
L 75.742472 160.084951 
L 73.683381 159.920855 
L 71.62429 172.077537 
L 69.565199 172.853493 
" style="fill:none;stroke:#000000;stroke-linecap:square;stroke-width:2.5;"/>
   </g>
   <g id="line2d_19">
    <path clip-path="url(#pd9c58295ef)" d="M 90.156108 224.64 
L 90.156108 7.2 
" style="fill:none;stroke:#000000;stroke-dasharray:9.25,4;stroke-dashoffset:0;stroke-width:2.5;"/>
   </g>
   <g id="patch_3">
    <path d="M 59.681562 224.64 
L 59.681562 7.2 
" style="fill:none;stroke:#000000;stroke-linecap:square;stroke-linejoin:miter;stroke-width:0.8;"/>
   </g>
   <g id="patch_4">
    <path d="M 277.121562 224.64 
L 277.121562 7.2 
" style="fill:none;stroke:#000000;stroke-linecap:square;stroke-linejoin:miter;stroke-width:0.8;"/>
   </g>
   <g id="patch_5">
    <path d="M 59.681562 224.64 
L 277.121562 224.64 
" style="fill:none;stroke:#000000;stroke-linecap:square;stroke-linejoin:miter;stroke-width:0.8;"/>
   </g>
   <g id="patch_6">
    <path d="M 59.681562 7.2 
L 277.121562 7.2 
" style="fill:none;stroke:#000000;stroke-linecap:square;stroke-linejoin:miter;stroke-width:0.8;"/>
   </g>
  </g>
 </g>
 <defs>
  <clipPath id="pd9c58295ef">
   <rect height="217.44" width="217.44" x="59.681562" y="7.2"/>
  </clipPath>
 </defs>
</svg>
