<?xml version="1.0" encoding="utf-8" standalone="no"?>
<!DOCTYPE svg PUBLIC "-//W3C//DTD SVG 1.1//EN"
  "http://www.w3.org/Graphics/SVG/1.1/DTD/svg11.dtd">
<svg height="272.4875pt" version="1.1" viewBox="0 0 275.65 272.4875" width="275.65pt" xmlns="http://www.w3.org/2000/svg" xmlns:xlink="http://www.w3.org/1999/xlink">
 <metadata>
  <rdf:RDF xmlns:cc="http://creativecommons.org/ns#" xmlns:dc="http://purl.org/dc/elements/1.1/" xmlns:rdf="http://www.w3.org/1999/02/22-rdf-syntax-ns#">
   <cc:Work>
    <dc:type rdf:resource="http://purl.org/dc/dcmitype/StillImage"/>
    <dc:date>2024-09-24T01:07:50.470882</dc:date>
    <dc:format>image/svg+xml</dc:format>
    <dc:creator>
     <cc:Agent>
      <dc:title>Matplotlib v3.4.3, https://matplotlib.org/</dc:title>
     </cc:Agent>
    </dc:creator>
   </cc:Work>
  </rdf:RDF>
 </metadata>
 <defs>
  <style type="text/css">*{stroke-linecap:butt;stroke-linejoin:round;}</style>
 </defs>
 <g id="figure_1">
  <g id="patch_1">
   <path d="M -0 272.4875 
L 275.65 272.4875 
L 275.65 0 
L -0 0 
z
" style="fill:#ffffff;"/>
  </g>
  <g id="axes_1">
   <g id="patch_2">
    <path d="M 51.01 224.64 
L 268.45 224.64 
L 268.45 7.2 
L 51.01 7.2 
z
" style="fill:#ffffff;"/>
   </g>
   <g id="PathCollection_1">
    <defs>
     <path d="M 0 3 
C 0.795609 3 1.55874 2.683901 2.12132 2.12132 
C 2.683901 1.55874 3 0.795609 3 0 
C 3 -0.795609 2.683901 -1.55874 2.12132 -2.12132 
C 1.55874 -2.683901 0.795609 -3 0 -3 
C -0.795609 -3 -1.55874 -2.683901 -2.12132 -2.12132 
C -2.683901 -1.55874 -3 -0.795609 -3 0 
C -3 0.795609 -2.683901 1.55874 -2.12132 2.12132 
C -1.55874 2.683901 -0.795609 3 0 3 
z
" id="m379a6f8b35" style="stroke:#0000ff;"/>
    </defs>
    <g clip-path="url(#pbeffc4c990)">
     <use style="fill:#0000ff;stroke:#0000ff;" x="221.855714" xlink:href="#m379a6f8b35" y="91.295484"/>
     <use style="fill:#0000ff;stroke:#0000ff;" x="128.667143" xlink:href="#m379a6f8b35" y="170.522794"/>
     <use style="fill:#0000ff;stroke:#0000ff;" x="97.604286" xlink:href="#m379a6f8b35" y="217.360606"/>
     <use style="fill:#0000ff;stroke:#0000ff;" x="159.73" xlink:href="#m379a6f8b35" y="136.57187"/>
     <use style="fill:#0000ff;stroke:#0000ff;" x="97.604286" xlink:href="#m379a6f8b35" y="204.816549"/>
     <use style="fill:#0000ff;stroke:#0000ff;" x="128.667143" xlink:href="#m379a6f8b35" y="180.200151"/>
     <use style="fill:#0000ff;stroke:#0000ff;" x="128.667143" xlink:href="#m379a6f8b35" y="170.346186"/>
     <use style="fill:#0000ff;stroke:#0000ff;" x="159.73" xlink:href="#m379a6f8b35" y="152.015357"/>
     <use style="fill:#0000ff;stroke:#0000ff;" x="159.73" xlink:href="#m379a6f8b35" y="153.256383"/>
     <use style="fill:#0000ff;stroke:#0000ff;" x="159.73" xlink:href="#m379a6f8b35" y="135.810142"/>
     <use style="fill:#0000ff;stroke:#0000ff;" x="128.667143" xlink:href="#m379a6f8b35" y="203.96803"/>
     <use style="fill:#0000ff;stroke:#0000ff;" x="128.667143" xlink:href="#m379a6f8b35" y="195.196013"/>
     <use style="fill:#0000ff;stroke:#0000ff;" x="159.73" xlink:href="#m379a6f8b35" y="153.740757"/>
     <use style="fill:#0000ff;stroke:#0000ff;" x="128.667143" xlink:href="#m379a6f8b35" y="168.982934"/>
     <use style="fill:#0000ff;stroke:#0000ff;" x="128.667143" xlink:href="#m379a6f8b35" y="163.218082"/>
    </g>
   </g>
   <g id="PathCollection_2">
    <defs>
     <path d="M 0 3 
C 0.795609 3 1.55874 2.683901 2.12132 2.12132 
C 2.683901 1.55874 3 0.795609 3 0 
C 3 -0.795609 2.683901 -1.55874 2.12132 -2.12132 
C 1.55874 -2.683901 0.795609 -3 0 -3 
C -0.795609 -3 -1.55874 -2.683901 -2.12132 -2.12132 
C -2.683901 -1.55874 -3 -0.795609 -3 0 
C -3 0.795609 -2.683901 1.55874 -2.12132 2.12132 
C -1.55874 2.683901 -0.795609 3 0 3 
z
" id="m7883fcc9ef" style="stroke:#000000;"/>
    </defs>
    <g clip-path="url(#pbeffc4c990)">
     <use style="fill:#ffa500;stroke:#000000;" x="221.855714" xlink:href="#m7883fcc9ef" y="91.295484"/>
     <use style="fill:#ffa500;stroke:#000000;" x="159.73" xlink:href="#m7883fcc9ef" y="135.810142"/>
     <use style="fill:#ffa500;stroke:#000000;" x="159.73" xlink:href="#m7883fcc9ef" y="136.57187"/>
    </g>
   </g>
   <g id="matplotlib.axis_1">
    <g id="xtick_1">
     <g id="line2d_1">
      <defs>
       <path d="M 0 0 
L 0 3.5 
" id="ma8f866fa53" style="stroke:#000000;stroke-width:0.8;"/>
      </defs>
      <g>
       <use style="stroke:#000000;stroke-width:0.8;" x="66.541429" xlink:href="#ma8f866fa53" y="224.64"/>
      </g>
     </g>
     <g id="text_1">
      <!-- 1 -->
      <g transform="translate(62.092679 243.0925)scale(0.16 -0.16)">
       <defs>
        <path d="M 2384 0 
L 1822 0 
L 1822 3584 
Q 1619 3391 1289 3197 
Q 959 3003 697 2906 
L 697 3450 
Q 1169 3672 1522 3987 
Q 1875 4303 2022 4600 
L 2384 4600 
L 2384 0 
z
" id="ArialMT-31" transform="scale(0.015625)"/>
       </defs>
       <use xlink:href="#ArialMT-31"/>
      </g>
     </g>
    </g>
    <g id="xtick_2">
     <g id="line2d_2">
      <g>
       <use style="stroke:#000000;stroke-width:0.8;" x="97.604286" xlink:href="#ma8f866fa53" y="224.64"/>
      </g>
     </g>
     <g id="text_2">
      <!-- 2 -->
      <g transform="translate(93.155536 243.0925)scale(0.16 -0.16)">
       <defs>
        <path d="M 3222 541 
L 3222 0 
L 194 0 
Q 188 203 259 391 
Q 375 700 629 1000 
Q 884 1300 1366 1694 
Q 2113 2306 2375 2664 
Q 2638 3022 2638 3341 
Q 2638 3675 2398 3904 
Q 2159 4134 1775 4134 
Q 1369 4134 1125 3890 
Q 881 3647 878 3216 
L 300 3275 
Q 359 3922 746 4261 
Q 1134 4600 1788 4600 
Q 2447 4600 2831 4234 
Q 3216 3869 3216 3328 
Q 3216 3053 3103 2787 
Q 2991 2522 2730 2228 
Q 2469 1934 1863 1422 
Q 1356 997 1212 845 
Q 1069 694 975 541 
L 3222 541 
z
" id="ArialMT-32" transform="scale(0.015625)"/>
       </defs>
       <use xlink:href="#ArialMT-32"/>
      </g>
     </g>
    </g>
    <g id="xtick_3">
     <g id="line2d_3">
      <g>
       <use style="stroke:#000000;stroke-width:0.8;" x="128.667143" xlink:href="#ma8f866fa53" y="224.64"/>
      </g>
     </g>
     <g id="text_3">
      <!-- 3 -->
      <g transform="translate(124.218393 243.0925)scale(0.16 -0.16)">
       <defs>
        <path d="M 269 1209 
L 831 1284 
Q 928 806 1161 595 
Q 1394 384 1728 384 
Q 2125 384 2398 659 
Q 2672 934 2672 1341 
Q 2672 1728 2419 1979 
Q 2166 2231 1775 2231 
Q 1616 2231 1378 2169 
L 1441 2663 
Q 1497 2656 1531 2656 
Q 1891 2656 2178 2843 
Q 2466 3031 2466 3422 
Q 2466 3731 2256 3934 
Q 2047 4138 1716 4138 
Q 1388 4138 1169 3931 
Q 950 3725 888 3313 
L 325 3413 
Q 428 3978 793 4289 
Q 1159 4600 1703 4600 
Q 2078 4600 2393 4439 
Q 2709 4278 2876 4000 
Q 3044 3722 3044 3409 
Q 3044 3113 2884 2869 
Q 2725 2625 2413 2481 
Q 2819 2388 3044 2092 
Q 3269 1797 3269 1353 
Q 3269 753 2831 336 
Q 2394 -81 1725 -81 
Q 1122 -81 723 278 
Q 325 638 269 1209 
z
" id="ArialMT-33" transform="scale(0.015625)"/>
       </defs>
       <use xlink:href="#ArialMT-33"/>
      </g>
     </g>
    </g>
    <g id="xtick_4">
     <g id="line2d_4">
      <g>
       <use style="stroke:#000000;stroke-width:0.8;" x="159.73" xlink:href="#ma8f866fa53" y="224.64"/>
      </g>
     </g>
     <g id="text_4">
      <!-- 4 -->
      <g transform="translate(155.28125 243.0925)scale(0.16 -0.16)">
       <defs>
        <path d="M 2069 0 
L 2069 1097 
L 81 1097 
L 81 1613 
L 2172 4581 
L 2631 4581 
L 2631 1613 
L 3250 1613 
L 3250 1097 
L 2631 1097 
L 2631 0 
L 2069 0 
z
M 2069 1613 
L 2069 3678 
L 634 1613 
L 2069 1613 
z
" id="ArialMT-34" transform="scale(0.015625)"/>
       </defs>
       <use xlink:href="#ArialMT-34"/>
      </g>
     </g>
    </g>
    <g id="xtick_5">
     <g id="line2d_5">
      <g>
       <use style="stroke:#000000;stroke-width:0.8;" x="190.792857" xlink:href="#ma8f866fa53" y="224.64"/>
      </g>
     </g>
     <g id="text_5">
      <!-- 5 -->
      <g transform="translate(186.344107 243.0925)scale(0.16 -0.16)">
       <defs>
        <path d="M 266 1200 
L 856 1250 
Q 922 819 1161 601 
Q 1400 384 1738 384 
Q 2144 384 2425 690 
Q 2706 997 2706 1503 
Q 2706 1984 2436 2262 
Q 2166 2541 1728 2541 
Q 1456 2541 1237 2417 
Q 1019 2294 894 2097 
L 366 2166 
L 809 4519 
L 3088 4519 
L 3088 3981 
L 1259 3981 
L 1013 2750 
Q 1425 3038 1878 3038 
Q 2478 3038 2890 2622 
Q 3303 2206 3303 1553 
Q 3303 931 2941 478 
Q 2500 -78 1738 -78 
Q 1113 -78 717 272 
Q 322 622 266 1200 
z
" id="ArialMT-35" transform="scale(0.015625)"/>
       </defs>
       <use xlink:href="#ArialMT-35"/>
      </g>
     </g>
    </g>
    <g id="xtick_6">
     <g id="line2d_6">
      <g>
       <use style="stroke:#000000;stroke-width:0.8;" x="221.855714" xlink:href="#ma8f866fa53" y="224.64"/>
      </g>
     </g>
     <g id="text_6">
      <!-- 6 -->
      <g transform="translate(217.406964 243.0925)scale(0.16 -0.16)">
       <defs>
        <path d="M 3184 3459 
L 2625 3416 
Q 2550 3747 2413 3897 
Q 2184 4138 1850 4138 
Q 1581 4138 1378 3988 
Q 1113 3794 959 3422 
Q 806 3050 800 2363 
Q 1003 2672 1297 2822 
Q 1591 2972 1913 2972 
Q 2475 2972 2870 2558 
Q 3266 2144 3266 1488 
Q 3266 1056 3080 686 
Q 2894 316 2569 119 
Q 2244 -78 1831 -78 
Q 1128 -78 684 439 
Q 241 956 241 2144 
Q 241 3472 731 4075 
Q 1159 4600 1884 4600 
Q 2425 4600 2770 4297 
Q 3116 3994 3184 3459 
z
M 888 1484 
Q 888 1194 1011 928 
Q 1134 663 1356 523 
Q 1578 384 1822 384 
Q 2178 384 2434 671 
Q 2691 959 2691 1453 
Q 2691 1928 2437 2201 
Q 2184 2475 1800 2475 
Q 1419 2475 1153 2201 
Q 888 1928 888 1484 
z
" id="ArialMT-36" transform="scale(0.015625)"/>
       </defs>
       <use xlink:href="#ArialMT-36"/>
      </g>
     </g>
    </g>
    <g id="xtick_7">
     <g id="line2d_7">
      <g>
       <use style="stroke:#000000;stroke-width:0.8;" x="252.918571" xlink:href="#ma8f866fa53" y="224.64"/>
      </g>
     </g>
     <g id="text_7">
      <!-- 7 -->
      <g transform="translate(248.469821 243.0925)scale(0.16 -0.16)">
       <defs>
        <path d="M 303 3981 
L 303 4522 
L 3269 4522 
L 3269 4084 
Q 2831 3619 2401 2847 
Q 1972 2075 1738 1259 
Q 1569 684 1522 0 
L 944 0 
Q 953 541 1156 1306 
Q 1359 2072 1739 2783 
Q 2119 3494 2547 3981 
L 303 3981 
z
" id="ArialMT-37" transform="scale(0.015625)"/>
       </defs>
       <use xlink:href="#ArialMT-37"/>
      </g>
     </g>
    </g>
    <g id="text_8">
     <!-- log2(MIC) -->
     <g transform="translate(124.615 261.92)scale(0.16 -0.16)">
      <defs>
       <path d="M 409 0 
L 409 4581 
L 972 4581 
L 972 0 
L 409 0 
z
" id="ArialMT-6c" transform="scale(0.015625)"/>
       <path d="M 213 1659 
Q 213 2581 725 3025 
Q 1153 3394 1769 3394 
Q 2453 3394 2887 2945 
Q 3322 2497 3322 1706 
Q 3322 1066 3130 698 
Q 2938 331 2570 128 
Q 2203 -75 1769 -75 
Q 1072 -75 642 372 
Q 213 819 213 1659 
z
M 791 1659 
Q 791 1022 1069 705 
Q 1347 388 1769 388 
Q 2188 388 2466 706 
Q 2744 1025 2744 1678 
Q 2744 2294 2464 2611 
Q 2184 2928 1769 2928 
Q 1347 2928 1069 2612 
Q 791 2297 791 1659 
z
" id="ArialMT-6f" transform="scale(0.015625)"/>
       <path d="M 319 -275 
L 866 -356 
Q 900 -609 1056 -725 
Q 1266 -881 1628 -881 
Q 2019 -881 2231 -725 
Q 2444 -569 2519 -288 
Q 2563 -116 2559 434 
Q 2191 0 1641 0 
Q 956 0 581 494 
Q 206 988 206 1678 
Q 206 2153 378 2554 
Q 550 2956 876 3175 
Q 1203 3394 1644 3394 
Q 2231 3394 2613 2919 
L 2613 3319 
L 3131 3319 
L 3131 450 
Q 3131 -325 2973 -648 
Q 2816 -972 2473 -1159 
Q 2131 -1347 1631 -1347 
Q 1038 -1347 672 -1080 
Q 306 -813 319 -275 
z
M 784 1719 
Q 784 1066 1043 766 
Q 1303 466 1694 466 
Q 2081 466 2343 764 
Q 2606 1063 2606 1700 
Q 2606 2309 2336 2618 
Q 2066 2928 1684 2928 
Q 1309 2928 1046 2623 
Q 784 2319 784 1719 
z
" id="ArialMT-67" transform="scale(0.015625)"/>
       <path d="M 1497 -1347 
Q 1031 -759 709 28 
Q 388 816 388 1659 
Q 388 2403 628 3084 
Q 909 3875 1497 4659 
L 1900 4659 
Q 1522 4009 1400 3731 
Q 1209 3300 1100 2831 
Q 966 2247 966 1656 
Q 966 153 1900 -1347 
L 1497 -1347 
z
" id="ArialMT-28" transform="scale(0.015625)"/>
       <path d="M 475 0 
L 475 4581 
L 1388 4581 
L 2472 1338 
Q 2622 884 2691 659 
Q 2769 909 2934 1394 
L 4031 4581 
L 4847 4581 
L 4847 0 
L 4263 0 
L 4263 3834 
L 2931 0 
L 2384 0 
L 1059 3900 
L 1059 0 
L 475 0 
z
" id="ArialMT-4d" transform="scale(0.015625)"/>
       <path d="M 597 0 
L 597 4581 
L 1203 4581 
L 1203 0 
L 597 0 
z
" id="ArialMT-49" transform="scale(0.015625)"/>
       <path d="M 3763 1606 
L 4369 1453 
Q 4178 706 3683 314 
Q 3188 -78 2472 -78 
Q 1731 -78 1267 223 
Q 803 525 561 1097 
Q 319 1669 319 2325 
Q 319 3041 592 3573 
Q 866 4106 1370 4382 
Q 1875 4659 2481 4659 
Q 3169 4659 3637 4309 
Q 4106 3959 4291 3325 
L 3694 3184 
Q 3534 3684 3231 3912 
Q 2928 4141 2469 4141 
Q 1941 4141 1586 3887 
Q 1231 3634 1087 3207 
Q 944 2781 944 2328 
Q 944 1744 1114 1308 
Q 1284 872 1643 656 
Q 2003 441 2422 441 
Q 2931 441 3284 734 
Q 3638 1028 3763 1606 
z
" id="ArialMT-43" transform="scale(0.015625)"/>
       <path d="M 791 -1347 
L 388 -1347 
Q 1322 153 1322 1656 
Q 1322 2244 1188 2822 
Q 1081 3291 891 3722 
Q 769 4003 388 4659 
L 791 4659 
Q 1378 3875 1659 3084 
Q 1900 2403 1900 1659 
Q 1900 816 1576 28 
Q 1253 -759 791 -1347 
z
" id="ArialMT-29" transform="scale(0.015625)"/>
      </defs>
      <use xlink:href="#ArialMT-6c"/>
      <use x="22.216797" xlink:href="#ArialMT-6f"/>
      <use x="77.832031" xlink:href="#ArialMT-67"/>
      <use x="133.447266" xlink:href="#ArialMT-32"/>
      <use x="189.0625" xlink:href="#ArialMT-28"/>
      <use x="222.363281" xlink:href="#ArialMT-4d"/>
      <use x="305.664062" xlink:href="#ArialMT-49"/>
      <use x="333.447266" xlink:href="#ArialMT-43"/>
      <use x="405.664062" xlink:href="#ArialMT-29"/>
     </g>
    </g>
   </g>
   <g id="matplotlib.axis_2">
    <g id="ytick_1">
     <g id="line2d_8">
      <defs>
       <path d="M 0 0 
L -3.5 0 
" id="m368447c406" style="stroke:#000000;stroke-width:0.8;"/>
      </defs>
      <g>
       <use style="stroke:#000000;stroke-width:0.8;" x="51.01" xlink:href="#m368447c406" y="224.64"/>
      </g>
     </g>
     <g id="text_9">
      <!-- 0 -->
      <g transform="translate(35.1125 230.36625)scale(0.16 -0.16)">
       <defs>
        <path d="M 266 2259 
Q 266 3072 433 3567 
Q 600 4063 929 4331 
Q 1259 4600 1759 4600 
Q 2128 4600 2406 4451 
Q 2684 4303 2865 4023 
Q 3047 3744 3150 3342 
Q 3253 2941 3253 2259 
Q 3253 1453 3087 958 
Q 2922 463 2592 192 
Q 2263 -78 1759 -78 
Q 1097 -78 719 397 
Q 266 969 266 2259 
z
M 844 2259 
Q 844 1131 1108 757 
Q 1372 384 1759 384 
Q 2147 384 2411 759 
Q 2675 1134 2675 2259 
Q 2675 3391 2411 3762 
Q 2147 4134 1753 4134 
Q 1366 4134 1134 3806 
Q 844 3388 844 2259 
z
" id="ArialMT-30" transform="scale(0.015625)"/>
       </defs>
       <use xlink:href="#ArialMT-30"/>
      </g>
     </g>
    </g>
    <g id="ytick_2">
     <g id="line2d_9">
      <g>
       <use style="stroke:#000000;stroke-width:0.8;" x="51.01" xlink:href="#m368447c406" y="194.648276"/>
      </g>
     </g>
     <g id="text_10">
      <!-- 2 -->
      <g transform="translate(35.1125 200.374526)scale(0.16 -0.16)">
       <use xlink:href="#ArialMT-32"/>
      </g>
     </g>
    </g>
    <g id="ytick_3">
     <g id="line2d_10">
      <g>
       <use style="stroke:#000000;stroke-width:0.8;" x="51.01" xlink:href="#m368447c406" y="164.656552"/>
      </g>
     </g>
     <g id="text_11">
      <!-- 4 -->
      <g transform="translate(35.1125 170.382802)scale(0.16 -0.16)">
       <use xlink:href="#ArialMT-34"/>
      </g>
     </g>
    </g>
    <g id="ytick_4">
     <g id="line2d_11">
      <g>
       <use style="stroke:#000000;stroke-width:0.8;" x="51.01" xlink:href="#m368447c406" y="134.664828"/>
      </g>
     </g>
     <g id="text_12">
      <!-- 6 -->
      <g transform="translate(35.1125 140.391078)scale(0.16 -0.16)">
       <use xlink:href="#ArialMT-36"/>
      </g>
     </g>
    </g>
    <g id="ytick_5">
     <g id="line2d_12">
      <g>
       <use style="stroke:#000000;stroke-width:0.8;" x="51.01" xlink:href="#m368447c406" y="104.673103"/>
      </g>
     </g>
     <g id="text_13">
      <!-- 8 -->
      <g transform="translate(35.1125 110.399353)scale(0.16 -0.16)">
       <defs>
        <path d="M 1131 2484 
Q 781 2613 612 2850 
Q 444 3088 444 3419 
Q 444 3919 803 4259 
Q 1163 4600 1759 4600 
Q 2359 4600 2725 4251 
Q 3091 3903 3091 3403 
Q 3091 3084 2923 2848 
Q 2756 2613 2416 2484 
Q 2838 2347 3058 2040 
Q 3278 1734 3278 1309 
Q 3278 722 2862 322 
Q 2447 -78 1769 -78 
Q 1091 -78 675 323 
Q 259 725 259 1325 
Q 259 1772 486 2073 
Q 713 2375 1131 2484 
z
M 1019 3438 
Q 1019 3113 1228 2906 
Q 1438 2700 1772 2700 
Q 2097 2700 2305 2904 
Q 2513 3109 2513 3406 
Q 2513 3716 2298 3927 
Q 2084 4138 1766 4138 
Q 1444 4138 1231 3931 
Q 1019 3725 1019 3438 
z
M 838 1322 
Q 838 1081 952 856 
Q 1066 631 1291 507 
Q 1516 384 1775 384 
Q 2178 384 2440 643 
Q 2703 903 2703 1303 
Q 2703 1709 2433 1975 
Q 2163 2241 1756 2241 
Q 1359 2241 1098 1978 
Q 838 1716 838 1322 
z
" id="ArialMT-38" transform="scale(0.015625)"/>
       </defs>
       <use xlink:href="#ArialMT-38"/>
      </g>
     </g>
    </g>
    <g id="ytick_6">
     <g id="line2d_13">
      <g>
       <use style="stroke:#000000;stroke-width:0.8;" x="51.01" xlink:href="#m368447c406" y="74.681379"/>
      </g>
     </g>
     <g id="text_14">
      <!-- 10 -->
      <g transform="translate(26.215 80.407629)scale(0.16 -0.16)">
       <use xlink:href="#ArialMT-31"/>
       <use x="55.615234" xlink:href="#ArialMT-30"/>
      </g>
     </g>
    </g>
    <g id="ytick_7">
     <g id="line2d_14">
      <g>
       <use style="stroke:#000000;stroke-width:0.8;" x="51.01" xlink:href="#m368447c406" y="44.689655"/>
      </g>
     </g>
     <g id="text_15">
      <!-- 12 -->
      <g transform="translate(26.215 50.415905)scale(0.16 -0.16)">
       <use xlink:href="#ArialMT-31"/>
       <use x="55.615234" xlink:href="#ArialMT-32"/>
      </g>
     </g>
    </g>
    <g id="ytick_8">
     <g id="line2d_15">
      <g>
       <use style="stroke:#000000;stroke-width:0.8;" x="51.01" xlink:href="#m368447c406" y="14.697931"/>
      </g>
     </g>
     <g id="text_16">
      <!-- 14 -->
      <g transform="translate(26.215 20.424181)scale(0.16 -0.16)">
       <use xlink:href="#ArialMT-31"/>
       <use x="55.615234" xlink:href="#ArialMT-34"/>
      </g>
     </g>
    </g>
    <g id="text_17">
     <!-- log2(HC10) -->
     <g transform="translate(18.8475 156.82375)rotate(-90)scale(0.16 -0.16)">
      <defs>
       <path d="M 513 0 
L 513 4581 
L 1119 4581 
L 1119 2700 
L 3500 2700 
L 3500 4581 
L 4106 4581 
L 4106 0 
L 3500 0 
L 3500 2159 
L 1119 2159 
L 1119 0 
L 513 0 
z
" id="ArialMT-48" transform="scale(0.015625)"/>
      </defs>
      <use xlink:href="#ArialMT-6c"/>
      <use x="22.216797" xlink:href="#ArialMT-6f"/>
      <use x="77.832031" xlink:href="#ArialMT-67"/>
      <use x="133.447266" xlink:href="#ArialMT-32"/>
      <use x="189.0625" xlink:href="#ArialMT-28"/>
      <use x="222.363281" xlink:href="#ArialMT-48"/>
      <use x="294.580078" xlink:href="#ArialMT-43"/>
      <use x="366.796875" xlink:href="#ArialMT-31"/>
      <use x="422.412109" xlink:href="#ArialMT-30"/>
      <use x="478.027344" xlink:href="#ArialMT-29"/>
     </g>
    </g>
   </g>
   <g id="line2d_16">
    <path clip-path="url(#pbeffc4c990)" d="M 51.01 167.326893 
L 66.541429 159.828962 
L 97.604286 144.8331 
L 128.667143 129.837238 
L 159.73 114.841376 
L 190.792857 99.845514 
L 221.855714 84.849652 
L 252.918571 69.85379 
L 276.65 58.397238 
" style="fill:none;stroke:#000000;stroke-linecap:square;stroke-opacity:0.3;stroke-width:1.5;"/>
   </g>
   <g id="line2d_17">
    <path clip-path="url(#pbeffc4c990)" d="M 51.01 152.331031 
L 66.541429 144.8331 
L 97.604286 129.837238 
L 128.667143 114.841376 
L 159.73 99.845514 
L 190.792857 84.849652 
L 221.855714 69.85379 
L 252.918571 54.857928 
L 276.65 43.401376 
" style="fill:none;stroke:#000000;stroke-linecap:square;stroke-opacity:0.3;stroke-width:1.5;"/>
   </g>
   <g id="line2d_18">
    <path clip-path="url(#pbeffc4c990)" d="M 51.01 143.559014 
L 66.541429 136.061083 
L 97.604286 121.065221 
L 128.667143 106.069359 
L 159.73 91.073497 
L 190.792857 76.077635 
L 221.855714 61.081773 
L 252.918571 46.085911 
L 276.65 34.629359 
" style="fill:none;stroke:#000000;stroke-linecap:square;stroke-opacity:0.3;stroke-width:1.5;"/>
   </g>
   <g id="patch_3">
    <path d="M 51.01 224.64 
L 51.01 7.2 
" style="fill:none;stroke:#000000;stroke-linecap:square;stroke-linejoin:miter;stroke-width:0.8;"/>
   </g>
   <g id="patch_4">
    <path d="M 268.45 224.64 
L 268.45 7.2 
" style="fill:none;stroke:#000000;stroke-linecap:square;stroke-linejoin:miter;stroke-width:0.8;"/>
   </g>
   <g id="patch_5">
    <path d="M 51.01 224.64 
L 268.45 224.64 
" style="fill:none;stroke:#000000;stroke-linecap:square;stroke-linejoin:miter;stroke-width:0.8;"/>
   </g>
   <g id="patch_6">
    <path d="M 51.01 7.2 
L 268.45 7.2 
" style="fill:none;stroke:#000000;stroke-linecap:square;stroke-linejoin:miter;stroke-width:0.8;"/>
   </g>
  </g>
 </g>
 <defs>
  <clipPath id="pbeffc4c990">
   <rect height="217.44" width="217.44" x="51.01" y="7.2"/>
  </clipPath>
 </defs>
</svg>
