<?xml version="1.0" encoding="utf-8" standalone="no"?>
<!DOCTYPE svg PUBLIC "-//W3C//DTD SVG 1.1//EN"
  "http://www.w3.org/Graphics/SVG/1.1/DTD/svg11.dtd">
<svg height="276.193437pt" version="1.1" viewBox="0 0 281.063337 276.193437" width="281.063337pt" xmlns="http://www.w3.org/2000/svg" xmlns:xlink="http://www.w3.org/1999/xlink">
 <metadata>
  <rdf:RDF xmlns:cc="http://creativecommons.org/ns#" xmlns:dc="http://purl.org/dc/elements/1.1/" xmlns:rdf="http://www.w3.org/1999/02/22-rdf-syntax-ns#">
   <cc:Work>
    <dc:type rdf:resource="http://purl.org/dc/dcmitype/StillImage"/>
    <dc:date>2024-09-24T17:06:26.139152</dc:date>
    <dc:format>image/svg+xml</dc:format>
    <dc:creator>
     <cc:Agent>
      <dc:title>Matplotlib v3.4.3, https://matplotlib.org/</dc:title>
     </cc:Agent>
    </dc:creator>
   </cc:Work>
  </rdf:RDF>
 </metadata>
 <defs>
  <style type="text/css">*{stroke-linecap:butt;stroke-linejoin:round;}</style>
 </defs>
 <g id="figure_1">
  <g id="patch_1">
   <path d="M 0 276.193437 
L 281.063337 276.193437 
L 281.063337 0 
L 0 0 
z
" style="fill:#ffffff;"/>
  </g>
  <g id="axes_1">
   <g id="patch_2">
    <path d="M 55.11125 224.64 
L 272.55125 224.64 
L 272.55125 7.2 
L 55.11125 7.2 
z
" style="fill:#ffffff;"/>
   </g>
   <g id="PathCollection_1">
    <defs>
     <path d="M 0 3.162278 
C 0.838646 3.162278 1.643056 2.82908 2.236068 2.236068 
C 2.82908 1.643056 3.162278 0.838646 3.162278 -0 
C 3.162278 -0.838646 2.82908 -1.643056 2.236068 -2.236068 
C 1.643056 -2.82908 0.838646 -3.162278 0 -3.162278 
C -0.838646 -3.162278 -1.643056 -2.82908 -2.236068 -2.236068 
C -2.82908 -1.643056 -3.162278 -0.838646 -3.162278 0 
C -3.162278 0.838646 -2.82908 1.643056 -2.236068 2.236068 
C -1.643056 2.82908 -0.838646 3.162278 0 3.162278 
z
" id="C0_0_c5c975b735"/>
    </defs>
    <g clip-path="url(#pc8df87fe10)">
     <use style="fill:none;stroke:#0000ff;" x="144.479151" xlink:href="#C0_0_c5c975b735" y="178.406002"/>
    </g>
    <g clip-path="url(#pc8df87fe10)">
     <use style="fill:none;stroke:#0000ff;" x="134.016797" xlink:href="#C0_0_c5c975b735" y="116.934752"/>
    </g>
    <g clip-path="url(#pc8df87fe10)">
     <use style="fill:none;stroke:#0000ff;" x="103.21828" xlink:href="#C0_0_c5c975b735" y="159.105028"/>
    </g>
    <g clip-path="url(#pc8df87fe10)">
     <use style="fill:none;stroke:#0000ff;" x="68.42788" xlink:href="#C0_0_c5c975b735" y="198.042391"/>
    </g>
    <g clip-path="url(#pc8df87fe10)">
     <use style="fill:none;stroke:#0000ff;" x="189.539972" xlink:href="#C0_0_c5c975b735" y="92.387615"/>
    </g>
    <g clip-path="url(#pc8df87fe10)">
     <use style="fill:none;stroke:#0000ff;" x="148.489899" xlink:href="#C0_0_c5c975b735" y="140.351608"/>
    </g>
    <g clip-path="url(#pc8df87fe10)">
     <use style="fill:none;stroke:#0000ff;" x="86.55055" xlink:href="#C0_0_c5c975b735" y="182.28179"/>
    </g>
    <g clip-path="url(#pc8df87fe10)">
     <use style="fill:none;stroke:#0000ff;" x="209.790889" xlink:href="#C0_0_c5c975b735" y="104.512887"/>
    </g>
    <g clip-path="url(#pc8df87fe10)">
     <use style="fill:none;stroke:#0000ff;" x="117.887209" xlink:href="#C0_0_c5c975b735" y="161.250928"/>
    </g>
    <g clip-path="url(#pc8df87fe10)">
     <use style="fill:none;stroke:#0000ff;" x="63.555347" xlink:href="#C0_0_c5c975b735" y="215.781232"/>
    </g>
    <g clip-path="url(#pc8df87fe10)">
     <use style="fill:none;stroke:#0000ff;" x="157.270281" xlink:href="#C0_0_c5c975b735" y="146.119374"/>
    </g>
    <g clip-path="url(#pc8df87fe10)">
     <use style="fill:none;stroke:#0000ff;" x="78.106454" xlink:href="#C0_0_c5c975b735" y="206.30751"/>
    </g>
    <g clip-path="url(#pc8df87fe10)">
     <use style="fill:none;stroke:#0000ff;" x="206.553477" xlink:href="#C0_0_c5c975b735" y="43.008398"/>
    </g>
    <g clip-path="url(#pc8df87fe10)">
     <use style="fill:none;stroke:#0000ff;" x="210.815567" xlink:href="#C0_0_c5c975b735" y="97.887526"/>
    </g>
    <g clip-path="url(#pc8df87fe10)">
     <use style="fill:none;stroke:#0000ff;" x="142.630306" xlink:href="#C0_0_c5c975b735" y="147.438271"/>
    </g>
    <g clip-path="url(#pc8df87fe10)">
     <use style="fill:none;stroke:#0000ff;" x="211.66805" xlink:href="#C0_0_c5c975b735" y="39.833061"/>
    </g>
    <g clip-path="url(#pc8df87fe10)">
     <use style="fill:none;stroke:#0000ff;" x="211.66805" xlink:href="#C0_0_c5c975b735" y="90.811998"/>
    </g>
    <g clip-path="url(#pc8df87fe10)">
     <use style="fill:none;stroke:#0000ff;" x="163.926936" xlink:href="#C0_0_c5c975b735" y="139.646533"/>
    </g>
    <g clip-path="url(#pc8df87fe10)">
     <use style="fill:none;stroke:#0000ff;" x="159.285618" xlink:href="#C0_0_c5c975b735" y="132.092684"/>
    </g>
    <g clip-path="url(#pc8df87fe10)">
     <use style="fill:none;stroke:#0000ff;" x="109.688751" xlink:href="#C0_0_c5c975b735" y="175.132551"/>
    </g>
    <g clip-path="url(#pc8df87fe10)">
     <use style="fill:none;stroke:#0000ff;" x="66.906446" xlink:href="#C0_0_c5c975b735" y="226.479258"/>
    </g>
    <g clip-path="url(#pc8df87fe10)">
     <use style="fill:none;stroke:#0000ff;" x="181.10771" xlink:href="#C0_0_c5c975b735" y="116.719802"/>
    </g>
    <g clip-path="url(#pc8df87fe10)">
     <use style="fill:none;stroke:#0000ff;" x="120.979851" xlink:href="#C0_0_c5c975b735" y="156.772567"/>
    </g>
    <g clip-path="url(#pc8df87fe10)">
     <use style="fill:none;stroke:#0000ff;" x="71.219195" xlink:href="#C0_0_c5c975b735" y="211.342389"/>
    </g>
    <g clip-path="url(#pc8df87fe10)">
     <use style="fill:none;stroke:#0000ff;" x="179.693719" xlink:href="#C0_0_c5c975b735" y="136.865166"/>
    </g>
    <g clip-path="url(#pc8df87fe10)">
     <use style="fill:none;stroke:#0000ff;" x="151.627415" xlink:href="#C0_0_c5c975b735" y="83.351247"/>
    </g>
    <g clip-path="url(#pc8df87fe10)">
     <use style="fill:none;stroke:#0000ff;" x="141.37131" xlink:href="#C0_0_c5c975b735" y="106.258985"/>
    </g>
    <g clip-path="url(#pc8df87fe10)">
     <use style="fill:none;stroke:#0000ff;" x="187.989667" xlink:href="#C0_0_c5c975b735" y="124.009899"/>
    </g>
    <g clip-path="url(#pc8df87fe10)">
     <use style="fill:none;stroke:#0000ff;" x="146.92285" xlink:href="#C0_0_c5c975b735" y="143.551133"/>
    </g>
    <g clip-path="url(#pc8df87fe10)">
     <use style="fill:none;stroke:#0000ff;" x="153.53697" xlink:href="#C0_0_c5c975b735" y="134.15569"/>
    </g>
    <g clip-path="url(#pc8df87fe10)">
     <use style="fill:none;stroke:#0000ff;" x="106.661475" xlink:href="#C0_0_c5c975b735" y="165.616223"/>
    </g>
    <g clip-path="url(#pc8df87fe10)">
     <use style="fill:none;stroke:#0000ff;" x="118.092075" xlink:href="#C0_0_c5c975b735" y="165.243358"/>
    </g>
    <g clip-path="url(#pc8df87fe10)">
     <use style="fill:none;stroke:#0000ff;" x="139.355835" xlink:href="#C0_0_c5c975b735" y="158.548765"/>
    </g>
    <g clip-path="url(#pc8df87fe10)">
     <use style="fill:none;stroke:#0000ff;" x="137.916245" xlink:href="#C0_0_c5c975b735" y="135.094072"/>
    </g>
    <g clip-path="url(#pc8df87fe10)">
     <use style="fill:none;stroke:#0000ff;" x="158.153885" xlink:href="#C0_0_c5c975b735" y="115.305999"/>
    </g>
    <g clip-path="url(#pc8df87fe10)">
     <use style="fill:none;stroke:#0000ff;" x="79.090735" xlink:href="#C0_0_c5c975b735" y="191.548185"/>
    </g>
    <g clip-path="url(#pc8df87fe10)">
     <use style="fill:none;stroke:#0000ff;" x="89.266275" xlink:href="#C0_0_c5c975b735" y="201.367962"/>
    </g>
    <g clip-path="url(#pc8df87fe10)">
     <use style="fill:none;stroke:#0000ff;" x="137.354372" xlink:href="#C0_0_c5c975b735" y="142.044133"/>
    </g>
    <g clip-path="url(#pc8df87fe10)">
     <use style="fill:none;stroke:#0000ff;" x="119.673446" xlink:href="#C0_0_c5c975b735" y="150.271705"/>
    </g>
    <g clip-path="url(#pc8df87fe10)">
     <use style="fill:none;stroke:#0000ff;" x="126.360674" xlink:href="#C0_0_c5c975b735" y="154.543996"/>
    </g>
    <g clip-path="url(#pc8df87fe10)">
     <use style="fill:none;stroke:#0000ff;" x="174.942317" xlink:href="#C0_0_c5c975b735" y="112.522715"/>
    </g>
    <g clip-path="url(#pc8df87fe10)">
     <use style="fill:none;stroke:#0000ff;" x="166.692305" xlink:href="#C0_0_c5c975b735" y="121.226207"/>
    </g>
    <g clip-path="url(#pc8df87fe10)">
     <use style="fill:none;stroke:#0000ff;" x="160.025506" xlink:href="#C0_0_c5c975b735" y="101.608813"/>
    </g>
    <g clip-path="url(#pc8df87fe10)">
     <use style="fill:none;stroke:#0000ff;" x="149.849966" xlink:href="#C0_0_c5c975b735" y="126.751521"/>
    </g>
    <g clip-path="url(#pc8df87fe10)">
     <use style="fill:none;stroke:#0000ff;" x="145.798469" xlink:href="#C0_0_c5c975b735" y="134.700198"/>
    </g>
    <g clip-path="url(#pc8df87fe10)">
     <use style="fill:none;stroke:#0000ff;" x="131.155391" xlink:href="#C0_0_c5c975b735" y="146.522011"/>
    </g>
    <g clip-path="url(#pc8df87fe10)">
     <use style="fill:none;stroke:#0000ff;" x="184.013845" xlink:href="#C0_0_c5c975b735" y="101.133092"/>
    </g>
    <g clip-path="url(#pc8df87fe10)">
     <use style="fill:none;stroke:#0000ff;" x="179.955228" xlink:href="#C0_0_c5c975b735" y="83.817572"/>
    </g>
    <g clip-path="url(#pc8df87fe10)">
     <use style="fill:none;stroke:#0000ff;" x="152.831415" xlink:href="#C0_0_c5c975b735" y="117.110477"/>
    </g>
    <g clip-path="url(#pc8df87fe10)">
     <use style="fill:none;stroke:#0000ff;" x="128.062748" xlink:href="#C0_0_c5c975b735" y="148.609324"/>
    </g>
    <g clip-path="url(#pc8df87fe10)">
     <use style="fill:none;stroke:#0000ff;" x="214.440268" xlink:href="#C0_0_c5c975b735" y="94.563176"/>
    </g>
    <g clip-path="url(#pc8df87fe10)">
     <use style="fill:none;stroke:#0000ff;" x="239.36103" xlink:href="#C0_0_c5c975b735" y="72.761753"/>
    </g>
    <g clip-path="url(#pc8df87fe10)">
     <use style="fill:none;stroke:#0000ff;" x="221.009694" xlink:href="#C0_0_c5c975b735" y="44.126563"/>
    </g>
    <g clip-path="url(#pc8df87fe10)">
     <use style="fill:none;stroke:#0000ff;" x="144.120118" xlink:href="#C0_0_c5c975b735" y="127.919652"/>
    </g>
    <g clip-path="url(#pc8df87fe10)">
     <use style="fill:none;stroke:#0000ff;" x="117.26238" xlink:href="#C0_0_c5c975b735" y="145.570642"/>
    </g>
    <g clip-path="url(#pc8df87fe10)">
     <use style="fill:none;stroke:#0000ff;" x="130.78902" xlink:href="#C0_0_c5c975b735" y="131.116726"/>
    </g>
    <g clip-path="url(#pc8df87fe10)">
     <use style="fill:none;stroke:#0000ff;" x="124.217033" xlink:href="#C0_0_c5c975b735" y="139.009058"/>
    </g>
    <g clip-path="url(#pc8df87fe10)">
     <use style="fill:none;stroke:#0000ff;" x="114.594813" xlink:href="#C0_0_c5c975b735" y="157.520543"/>
    </g>
    <g clip-path="url(#pc8df87fe10)">
     <use style="fill:none;stroke:#0000ff;" x="153.487226" xlink:href="#C0_0_c5c975b735" y="101.334627"/>
    </g>
    <g clip-path="url(#pc8df87fe10)">
     <use style="fill:none;stroke:#0000ff;" x="100.07719" xlink:href="#C0_0_c5c975b735" y="179.23218"/>
    </g>
    <g clip-path="url(#pc8df87fe10)">
     <use style="fill:none;stroke:#0000ff;" x="110.804311" xlink:href="#C0_0_c5c975b735" y="178.697051"/>
    </g>
    <g clip-path="url(#pc8df87fe10)">
     <use style="fill:none;stroke:#0000ff;" x="161.187738" xlink:href="#C0_0_c5c975b735" y="121.560202"/>
    </g>
    <g clip-path="url(#pc8df87fe10)">
     <use style="fill:none;stroke:#0000ff;" x="173.165451" xlink:href="#C0_0_c5c975b735" y="123.572137"/>
    </g>
    <g clip-path="url(#pc8df87fe10)">
     <use style="fill:none;stroke:#0000ff;" x="171.835088" xlink:href="#C0_0_c5c975b735" y="114.021826"/>
    </g>
    <g clip-path="url(#pc8df87fe10)">
     <use style="fill:none;stroke:#0000ff;" x="168.617178" xlink:href="#C0_0_c5c975b735" y="119.878451"/>
    </g>
    <g clip-path="url(#pc8df87fe10)">
     <use style="fill:none;stroke:#0000ff;" x="148.306939" xlink:href="#C0_0_c5c975b735" y="117.974258"/>
    </g>
    <g clip-path="url(#pc8df87fe10)">
     <use style="fill:none;stroke:#0000ff;" x="125.916486" xlink:href="#C0_0_c5c975b735" y="142.694133"/>
    </g>
    <g clip-path="url(#pc8df87fe10)">
     <use style="fill:none;stroke:#0000ff;" x="110.804311" xlink:href="#C0_0_c5c975b735" y="152.810421"/>
    </g>
    <g clip-path="url(#pc8df87fe10)">
     <use style="fill:none;stroke:#0000ff;" x="137.354372" xlink:href="#C0_0_c5c975b735" y="149.711101"/>
    </g>
    <g clip-path="url(#pc8df87fe10)">
     <use style="fill:none;stroke:#0000ff;" x="190.888117" xlink:href="#C0_0_c5c975b735" y="100.116611"/>
    </g>
    <g clip-path="url(#pc8df87fe10)">
     <use style="fill:none;stroke:#0000ff;" x="113.39382" xlink:href="#C0_0_c5c975b735" y="169.903272"/>
    </g>
    <g clip-path="url(#pc8df87fe10)">
     <use style="fill:none;stroke:#0000ff;" x="66.906446" xlink:href="#C0_0_c5c975b735" y="225.582457"/>
    </g>
    <g clip-path="url(#pc8df87fe10)">
     <use style="fill:none;stroke:#0000ff;" x="116.404315" xlink:href="#C0_0_c5c975b735" y="135.901464"/>
    </g>
    <g clip-path="url(#pc8df87fe10)">
     <use style="fill:none;stroke:#0000ff;" x="184.940749" xlink:href="#C0_0_c5c975b735" y="109.225772"/>
    </g>
    <g clip-path="url(#pc8df87fe10)">
     <use style="fill:none;stroke:#0000ff;" x="168.725937" xlink:href="#C0_0_c5c975b735" y="106.996375"/>
    </g>
    <g clip-path="url(#pc8df87fe10)">
     <use style="fill:none;stroke:#0000ff;" x="104.998883" xlink:href="#C0_0_c5c975b735" y="169.965858"/>
    </g>
    <g clip-path="url(#pc8df87fe10)">
     <use style="fill:none;stroke:#0000ff;" x="92.857529" xlink:href="#C0_0_c5c975b735" y="161.839905"/>
    </g>
    <g clip-path="url(#pc8df87fe10)">
     <use style="fill:none;stroke:#0000ff;" x="100.07719" xlink:href="#C0_0_c5c975b735" y="150.535565"/>
    </g>
    <g clip-path="url(#pc8df87fe10)">
     <use style="fill:none;stroke:#0000ff;" x="63.555347" xlink:href="#C0_0_c5c975b735" y="202.714833"/>
    </g>
    <g clip-path="url(#pc8df87fe10)">
     <use style="fill:none;stroke:#0000ff;" x="130.541767" xlink:href="#C0_0_c5c975b735" y="166.884468"/>
    </g>
    <g clip-path="url(#pc8df87fe10)">
     <use style="fill:none;stroke:#0000ff;" x="69.862326" xlink:href="#C0_0_c5c975b735" y="213.27289"/>
    </g>
    <g clip-path="url(#pc8df87fe10)">
     <use style="fill:none;stroke:#0000ff;" x="123.732852" xlink:href="#C0_0_c5c975b735" y="149.031212"/>
    </g>
    <g clip-path="url(#pc8df87fe10)">
     <use style="fill:none;stroke:#0000ff;" x="122.565387" xlink:href="#C0_0_c5c975b735" y="159.431637"/>
    </g>
    <g clip-path="url(#pc8df87fe10)">
     <use style="fill:none;stroke:#0000ff;" x="96.963968" xlink:href="#C0_0_c5c975b735" y="187.024835"/>
    </g>
    <g clip-path="url(#pc8df87fe10)">
     <use style="fill:none;stroke:#0000ff;" x="162.368521" xlink:href="#C0_0_c5c975b735" y="117.109591"/>
    </g>
    <g clip-path="url(#pc8df87fe10)">
     <use style="fill:none;stroke:#0000ff;" x="154.463846" xlink:href="#C0_0_c5c975b735" y="123.404612"/>
    </g>
    <g clip-path="url(#pc8df87fe10)">
     <use style="fill:none;stroke:#0000ff;" x="80.950547" xlink:href="#C0_0_c5c975b735" y="198.616181"/>
    </g>
    <g clip-path="url(#pc8df87fe10)">
     <use style="fill:none;stroke:#0000ff;" x="80.950547" xlink:href="#C0_0_c5c975b735" y="189.72291"/>
    </g>
    <g clip-path="url(#pc8df87fe10)">
     <use style="fill:none;stroke:#0000ff;" x="79.090735" xlink:href="#C0_0_c5c975b735" y="196.573638"/>
    </g>
    <g clip-path="url(#pc8df87fe10)">
     <use style="fill:none;stroke:#0000ff;" x="141.2094" xlink:href="#C0_0_c5c975b735" y="145.355731"/>
    </g>
    <g clip-path="url(#pc8df87fe10)">
     <use style="fill:none;stroke:#0000ff;" x="122.904527" xlink:href="#C0_0_c5c975b735" y="158.537796"/>
    </g>
    <g clip-path="url(#pc8df87fe10)">
     <use style="fill:none;stroke:#0000ff;" x="109.972325" xlink:href="#C0_0_c5c975b735" y="164.124757"/>
    </g>
    <g clip-path="url(#pc8df87fe10)">
     <use style="fill:none;stroke:#0000ff;" x="124.848412" xlink:href="#C0_0_c5c975b735" y="156.6831"/>
    </g>
    <g clip-path="url(#pc8df87fe10)">
     <use style="fill:none;stroke:#0000ff;" x="109.401937" xlink:href="#C0_0_c5c975b735" y="168.146235"/>
    </g>
    <g clip-path="url(#pc8df87fe10)">
     <use style="fill:none;stroke:#0000ff;" x="89.90165" xlink:href="#C0_0_c5c975b735" y="170.310017"/>
    </g>
    <g clip-path="url(#pc8df87fe10)">
     <use style="fill:none;stroke:#0000ff;" x="146.728055" xlink:href="#C0_0_c5c975b735" y="137.793535"/>
    </g>
    <g clip-path="url(#pc8df87fe10)">
     <use style="fill:none;stroke:#0000ff;" x="128.605385" xlink:href="#C0_0_c5c975b735" y="146.092733"/>
    </g>
    <g clip-path="url(#pc8df87fe10)">
     <use style="fill:none;stroke:#0000ff;" x="101.696846" xlink:href="#C0_0_c5c975b735" y="173.819225"/>
    </g>
    <g clip-path="url(#pc8df87fe10)">
     <use style="fill:none;stroke:#0000ff;" x="155.95145" xlink:href="#C0_0_c5c975b735" y="130.849718"/>
    </g>
    <g clip-path="url(#pc8df87fe10)">
     <use style="fill:none;stroke:#0000ff;" x="165.051064" xlink:href="#C0_0_c5c975b735" y="112.098592"/>
    </g>
    <g clip-path="url(#pc8df87fe10)">
     <use style="fill:none;stroke:#0000ff;" x="139.616801" xlink:href="#C0_0_c5c975b735" y="146.879585"/>
    </g>
    <g clip-path="url(#pc8df87fe10)">
     <use style="fill:none;stroke:#0000ff;" x="126.652491" xlink:href="#C0_0_c5c975b735" y="152.389847"/>
    </g>
    <g clip-path="url(#pc8df87fe10)">
     <use style="fill:none;stroke:#0000ff;" x="109.111807" xlink:href="#C0_0_c5c975b735" y="161.149888"/>
    </g>
    <g clip-path="url(#pc8df87fe10)">
     <use style="fill:none;stroke:#0000ff;" x="85.82308" xlink:href="#C0_0_c5c975b735" y="186.929983"/>
    </g>
    <g clip-path="url(#pc8df87fe10)">
     <use style="fill:none;stroke:#0000ff;" x="129.912762" xlink:href="#C0_0_c5c975b735" y="142.156845"/>
    </g>
    <g clip-path="url(#pc8df87fe10)">
     <use style="fill:none;stroke:#0000ff;" x="123.404795" xlink:href="#C0_0_c5c975b735" y="163.584416"/>
    </g>
    <g clip-path="url(#pc8df87fe10)">
     <use style="fill:none;stroke:#0000ff;" x="106.009595" xlink:href="#C0_0_c5c975b735" y="165.270113"/>
    </g>
    <g clip-path="url(#pc8df87fe10)">
     <use style="fill:none;stroke:#0000ff;" x="102.085939" xlink:href="#C0_0_c5c975b735" y="177.461755"/>
    </g>
    <g clip-path="url(#pc8df87fe10)">
     <use style="fill:none;stroke:#0000ff;" x="83.504882" xlink:href="#C0_0_c5c975b735" y="185.801314"/>
    </g>
    <g clip-path="url(#pc8df87fe10)">
     <use style="fill:none;stroke:#0000ff;" x="108.818284" xlink:href="#C0_0_c5c975b735" y="179.770915"/>
    </g>
    <g clip-path="url(#pc8df87fe10)">
     <use style="fill:none;stroke:#0000ff;" x="96.485935" xlink:href="#C0_0_c5c975b735" y="185.772637"/>
    </g>
    <g clip-path="url(#pc8df87fe10)">
     <use style="fill:none;stroke:#0000ff;" x="112.13245" xlink:href="#C0_0_c5c975b735" y="169.817977"/>
    </g>
    <g clip-path="url(#pc8df87fe10)">
     <use style="fill:none;stroke:#0000ff;" x="97.893555" xlink:href="#C0_0_c5c975b735" y="183.710723"/>
    </g>
    <g clip-path="url(#pc8df87fe10)">
     <use style="fill:none;stroke:#0000ff;" x="111.872386" xlink:href="#C0_0_c5c975b735" y="173.618033"/>
    </g>
    <g clip-path="url(#pc8df87fe10)">
     <use style="fill:none;stroke:#0000ff;" x="147.999009" xlink:href="#C0_0_c5c975b735" y="146.8109"/>
    </g>
    <g clip-path="url(#pc8df87fe10)">
     <use style="fill:none;stroke:#0000ff;" x="166.066735" xlink:href="#C0_0_c5c975b735" y="130.855477"/>
    </g>
    <g clip-path="url(#pc8df87fe10)">
     <use style="fill:none;stroke:#0000ff;" x="174.255301" xlink:href="#C0_0_c5c975b735" y="111.020759"/>
    </g>
    <g clip-path="url(#pc8df87fe10)">
     <use style="fill:none;stroke:#0000ff;" x="168.671616" xlink:href="#C0_0_c5c975b735" y="118.363252"/>
    </g>
    <g clip-path="url(#pc8df87fe10)">
     <use style="fill:none;stroke:#0000ff;" x="166.096881" xlink:href="#C0_0_c5c975b735" y="117.207114"/>
    </g>
    <g clip-path="url(#pc8df87fe10)">
     <use style="fill:none;stroke:#0000ff;" x="173.816165" xlink:href="#C0_0_c5c975b735" y="93.857195"/>
    </g>
    <g clip-path="url(#pc8df87fe10)">
     <use style="fill:none;stroke:#0000ff;" x="149.385213" xlink:href="#C0_0_c5c975b735" y="145.772544"/>
    </g>
    <g clip-path="url(#pc8df87fe10)">
     <use style="fill:none;stroke:#0000ff;" x="163.52963" xlink:href="#C0_0_c5c975b735" y="123.256634"/>
    </g>
    <g clip-path="url(#pc8df87fe10)">
     <use style="fill:none;stroke:#0000ff;" x="167.187541" xlink:href="#C0_0_c5c975b735" y="118.092506"/>
    </g>
    <g clip-path="url(#pc8df87fe10)">
     <use style="fill:none;stroke:#0000ff;" x="150.192969" xlink:href="#C0_0_c5c975b735" y="132.581874"/>
    </g>
    <g clip-path="url(#pc8df87fe10)">
     <use style="fill:none;stroke:#0000ff;" x="180.041796" xlink:href="#C0_0_c5c975b735" y="95.912802"/>
    </g>
    <g clip-path="url(#pc8df87fe10)">
     <use style="fill:none;stroke:#0000ff;" x="184.043335" xlink:href="#C0_0_c5c975b735" y="100.750112"/>
    </g>
    <g clip-path="url(#pc8df87fe10)">
     <use style="fill:none;stroke:#0000ff;" x="163.362212" xlink:href="#C0_0_c5c975b735" y="122.229773"/>
    </g>
    <g clip-path="url(#pc8df87fe10)">
     <use style="fill:none;stroke:#0000ff;" x="164.73499" xlink:href="#C0_0_c5c975b735" y="119.495235"/>
    </g>
    <g clip-path="url(#pc8df87fe10)">
     <use style="fill:none;stroke:#0000ff;" x="175.090127" xlink:href="#C0_0_c5c975b735" y="93.122104"/>
    </g>
    <g clip-path="url(#pc8df87fe10)">
     <use style="fill:none;stroke:#0000ff;" x="157.652784" xlink:href="#C0_0_c5c975b735" y="124.517336"/>
    </g>
    <g clip-path="url(#pc8df87fe10)">
     <use style="fill:none;stroke:#0000ff;" x="155.770251" xlink:href="#C0_0_c5c975b735" y="115.252773"/>
    </g>
    <g clip-path="url(#pc8df87fe10)">
     <use style="fill:none;stroke:#0000ff;" x="139.26824" xlink:href="#C0_0_c5c975b735" y="130.62884"/>
    </g>
    <g clip-path="url(#pc8df87fe10)">
     <use style="fill:none;stroke:#0000ff;" x="182.820372" xlink:href="#C0_0_c5c975b735" y="98.176253"/>
    </g>
    <g clip-path="url(#pc8df87fe10)">
     <use style="fill:none;stroke:#0000ff;" x="158.318719" xlink:href="#C0_0_c5c975b735" y="119.214846"/>
    </g>
    <g clip-path="url(#pc8df87fe10)">
     <use style="fill:none;stroke:#0000ff;" x="160.781466" xlink:href="#C0_0_c5c975b735" y="111.50108"/>
    </g>
    <g clip-path="url(#pc8df87fe10)">
     <use style="fill:none;stroke:#0000ff;" x="130.039831" xlink:href="#C0_0_c5c975b735" y="131.989734"/>
    </g>
    <g clip-path="url(#pc8df87fe10)">
     <use style="fill:none;stroke:#0000ff;" x="116.837015" xlink:href="#C0_0_c5c975b735" y="140.809498"/>
    </g>
    <g clip-path="url(#pc8df87fe10)">
     <use style="fill:none;stroke:#0000ff;" x="77.081986" xlink:href="#C0_0_c5c975b735" y="200.342235"/>
    </g>
    <g clip-path="url(#pc8df87fe10)">
     <use style="fill:none;stroke:#0000ff;" x="80.037865" xlink:href="#C0_0_c5c975b735" y="210.330428"/>
    </g>
    <g clip-path="url(#pc8df87fe10)">
     <use style="fill:none;stroke:#0000ff;" x="135.690482" xlink:href="#C0_0_c5c975b735" y="117.917477"/>
    </g>
    <g clip-path="url(#pc8df87fe10)">
     <use style="fill:none;stroke:#0000ff;" x="114.828265" xlink:href="#C0_0_c5c975b735" y="151.72022"/>
    </g>
    <g clip-path="url(#pc8df87fe10)">
     <use style="fill:none;stroke:#0000ff;" x="122.73553" xlink:href="#C0_0_c5c975b735" y="138.014171"/>
    </g>
    <g clip-path="url(#pc8df87fe10)">
     <use style="fill:none;stroke:#0000ff;" x="194.125371" xlink:href="#C0_0_c5c975b735" y="103.9926"/>
    </g>
    <g clip-path="url(#pc8df87fe10)">
     <use style="fill:none;stroke:#0000ff;" x="141.2094" xlink:href="#C0_0_c5c975b735" y="128.825227"/>
    </g>
    <g clip-path="url(#pc8df87fe10)">
     <use style="fill:none;stroke:#0000ff;" x="145.457948" xlink:href="#C0_0_c5c975b735" y="136.066499"/>
    </g>
    <g clip-path="url(#pc8df87fe10)">
     <use style="fill:none;stroke:#0000ff;" x="87.94513" xlink:href="#C0_0_c5c975b735" y="160.429959"/>
    </g>
    <g clip-path="url(#pc8df87fe10)">
     <use style="fill:none;stroke:#0000ff;" x="145.594711" xlink:href="#C0_0_c5c975b735" y="138.705337"/>
    </g>
   </g>
   <g id="PathCollection_2">
    <defs>
     <path d="M 0 -3.535534 
L -3.535534 3.535534 
L 3.535534 3.535534 
z
" id="m33790ea4df" style="stroke:#ff0000;"/>
    </defs>
    <g clip-path="url(#pc8df87fe10)">
     <use style="fill:#ff0000;stroke:#ff0000;" x="231.256074" xlink:href="#m33790ea4df" y="46.618204"/>
     <use style="fill:#ff0000;stroke:#ff0000;" x="260.774162" xlink:href="#m33790ea4df" y="41.769076"/>
     <use style="fill:#ff0000;stroke:#ff0000;" x="259.59713" xlink:href="#m33790ea4df" y="36.394455"/>
     <use style="fill:#ff0000;stroke:#ff0000;" x="167.042895" xlink:href="#m33790ea4df" y="135.43262"/>
     <use style="fill:#ff0000;stroke:#ff0000;" x="238.327077" xlink:href="#m33790ea4df" y="72.876256"/>
     <use style="fill:#ff0000;stroke:#ff0000;" x="232.478906" xlink:href="#m33790ea4df" y="60.251655"/>
     <use style="fill:#ff0000;stroke:#ff0000;" x="263.85365" xlink:href="#m33790ea4df" y="68.355678"/>
     <use style="fill:#ff0000;stroke:#ff0000;" x="150.587302" xlink:href="#m33790ea4df" y="125.543335"/>
     <use style="fill:#ff0000;stroke:#ff0000;" x="120.428269" xlink:href="#m33790ea4df" y="146.295848"/>
     <use style="fill:#ff0000;stroke:#ff0000;" x="213.018211" xlink:href="#m33790ea4df" y="41.355773"/>
     <use style="fill:#ff0000;stroke:#ff0000;" x="197.958689" xlink:href="#m33790ea4df" y="51.265324"/>
    </g>
   </g>
   <g id="matplotlib.axis_1">
    <g id="xtick_1">
     <g id="line2d_1">
      <defs>
       <path d="M 0 0 
L 0 3.5 
" id="m6e7bba4bba" style="stroke:#000000;stroke-width:1.5;"/>
      </defs>
      <g>
       <use style="stroke:#000000;stroke-width:1.5;" x="55.11125" xlink:href="#m6e7bba4bba" y="224.64"/>
      </g>
     </g>
     <g id="text_1">
      <!-- 0 -->
      <g transform="translate(50.106406 244.524062)scale(0.18 -0.18)">
       <defs>
        <path d="M 266 2259 
Q 266 3072 433 3567 
Q 600 4063 929 4331 
Q 1259 4600 1759 4600 
Q 2128 4600 2406 4451 
Q 2684 4303 2865 4023 
Q 3047 3744 3150 3342 
Q 3253 2941 3253 2259 
Q 3253 1453 3087 958 
Q 2922 463 2592 192 
Q 2263 -78 1759 -78 
Q 1097 -78 719 397 
Q 266 969 266 2259 
z
M 844 2259 
Q 844 1131 1108 757 
Q 1372 384 1759 384 
Q 2147 384 2411 759 
Q 2675 1134 2675 2259 
Q 2675 3391 2411 3762 
Q 2147 4134 1753 4134 
Q 1366 4134 1134 3806 
Q 844 3388 844 2259 
z
" id="ArialMT-30" transform="scale(0.015625)"/>
       </defs>
       <use xlink:href="#ArialMT-30"/>
      </g>
     </g>
    </g>
    <g id="xtick_2">
     <g id="line2d_2">
      <g>
       <use style="stroke:#000000;stroke-width:1.5;" x="89.90165" xlink:href="#m6e7bba4bba" y="224.64"/>
      </g>
     </g>
     <g id="text_2">
      <!-- 2 -->
      <g transform="translate(84.896806 244.524062)scale(0.18 -0.18)">
       <defs>
        <path d="M 3222 541 
L 3222 0 
L 194 0 
Q 188 203 259 391 
Q 375 700 629 1000 
Q 884 1300 1366 1694 
Q 2113 2306 2375 2664 
Q 2638 3022 2638 3341 
Q 2638 3675 2398 3904 
Q 2159 4134 1775 4134 
Q 1369 4134 1125 3890 
Q 881 3647 878 3216 
L 300 3275 
Q 359 3922 746 4261 
Q 1134 4600 1788 4600 
Q 2447 4600 2831 4234 
Q 3216 3869 3216 3328 
Q 3216 3053 3103 2787 
Q 2991 2522 2730 2228 
Q 2469 1934 1863 1422 
Q 1356 997 1212 845 
Q 1069 694 975 541 
L 3222 541 
z
" id="ArialMT-32" transform="scale(0.015625)"/>
       </defs>
       <use xlink:href="#ArialMT-32"/>
      </g>
     </g>
    </g>
    <g id="xtick_3">
     <g id="line2d_3">
      <g>
       <use style="stroke:#000000;stroke-width:1.5;" x="124.69205" xlink:href="#m6e7bba4bba" y="224.64"/>
      </g>
     </g>
     <g id="text_3">
      <!-- 4 -->
      <g transform="translate(119.687206 244.524062)scale(0.18 -0.18)">
       <defs>
        <path d="M 2069 0 
L 2069 1097 
L 81 1097 
L 81 1613 
L 2172 4581 
L 2631 4581 
L 2631 1613 
L 3250 1613 
L 3250 1097 
L 2631 1097 
L 2631 0 
L 2069 0 
z
M 2069 1613 
L 2069 3678 
L 634 1613 
L 2069 1613 
z
" id="ArialMT-34" transform="scale(0.015625)"/>
       </defs>
       <use xlink:href="#ArialMT-34"/>
      </g>
     </g>
    </g>
    <g id="xtick_4">
     <g id="line2d_4">
      <g>
       <use style="stroke:#000000;stroke-width:1.5;" x="159.48245" xlink:href="#m6e7bba4bba" y="224.64"/>
      </g>
     </g>
     <g id="text_4">
      <!-- 6 -->
      <g transform="translate(154.477606 244.524062)scale(0.18 -0.18)">
       <defs>
        <path d="M 3184 3459 
L 2625 3416 
Q 2550 3747 2413 3897 
Q 2184 4138 1850 4138 
Q 1581 4138 1378 3988 
Q 1113 3794 959 3422 
Q 806 3050 800 2363 
Q 1003 2672 1297 2822 
Q 1591 2972 1913 2972 
Q 2475 2972 2870 2558 
Q 3266 2144 3266 1488 
Q 3266 1056 3080 686 
Q 2894 316 2569 119 
Q 2244 -78 1831 -78 
Q 1128 -78 684 439 
Q 241 956 241 2144 
Q 241 3472 731 4075 
Q 1159 4600 1884 4600 
Q 2425 4600 2770 4297 
Q 3116 3994 3184 3459 
z
M 888 1484 
Q 888 1194 1011 928 
Q 1134 663 1356 523 
Q 1578 384 1822 384 
Q 2178 384 2434 671 
Q 2691 959 2691 1453 
Q 2691 1928 2437 2201 
Q 2184 2475 1800 2475 
Q 1419 2475 1153 2201 
Q 888 1928 888 1484 
z
" id="ArialMT-36" transform="scale(0.015625)"/>
       </defs>
       <use xlink:href="#ArialMT-36"/>
      </g>
     </g>
    </g>
    <g id="xtick_5">
     <g id="line2d_5">
      <g>
       <use style="stroke:#000000;stroke-width:1.5;" x="194.27285" xlink:href="#m6e7bba4bba" y="224.64"/>
      </g>
     </g>
     <g id="text_5">
      <!-- 8 -->
      <g transform="translate(189.268006 244.524062)scale(0.18 -0.18)">
       <defs>
        <path d="M 1131 2484 
Q 781 2613 612 2850 
Q 444 3088 444 3419 
Q 444 3919 803 4259 
Q 1163 4600 1759 4600 
Q 2359 4600 2725 4251 
Q 3091 3903 3091 3403 
Q 3091 3084 2923 2848 
Q 2756 2613 2416 2484 
Q 2838 2347 3058 2040 
Q 3278 1734 3278 1309 
Q 3278 722 2862 322 
Q 2447 -78 1769 -78 
Q 1091 -78 675 323 
Q 259 725 259 1325 
Q 259 1772 486 2073 
Q 713 2375 1131 2484 
z
M 1019 3438 
Q 1019 3113 1228 2906 
Q 1438 2700 1772 2700 
Q 2097 2700 2305 2904 
Q 2513 3109 2513 3406 
Q 2513 3716 2298 3927 
Q 2084 4138 1766 4138 
Q 1444 4138 1231 3931 
Q 1019 3725 1019 3438 
z
M 838 1322 
Q 838 1081 952 856 
Q 1066 631 1291 507 
Q 1516 384 1775 384 
Q 2178 384 2440 643 
Q 2703 903 2703 1303 
Q 2703 1709 2433 1975 
Q 2163 2241 1756 2241 
Q 1359 2241 1098 1978 
Q 838 1716 838 1322 
z
" id="ArialMT-38" transform="scale(0.015625)"/>
       </defs>
       <use xlink:href="#ArialMT-38"/>
      </g>
     </g>
    </g>
    <g id="xtick_6">
     <g id="line2d_6">
      <g>
       <use style="stroke:#000000;stroke-width:1.5;" x="229.06325" xlink:href="#m6e7bba4bba" y="224.64"/>
      </g>
     </g>
     <g id="text_6">
      <!-- 10 -->
      <g transform="translate(219.053562 244.524062)scale(0.18 -0.18)">
       <defs>
        <path d="M 2384 0 
L 1822 0 
L 1822 3584 
Q 1619 3391 1289 3197 
Q 959 3003 697 2906 
L 697 3450 
Q 1169 3672 1522 3987 
Q 1875 4303 2022 4600 
L 2384 4600 
L 2384 0 
z
" id="ArialMT-31" transform="scale(0.015625)"/>
       </defs>
       <use xlink:href="#ArialMT-31"/>
       <use x="55.615234" xlink:href="#ArialMT-30"/>
      </g>
     </g>
    </g>
    <g id="xtick_7">
     <g id="line2d_7">
      <g>
       <use style="stroke:#000000;stroke-width:1.5;" x="263.85365" xlink:href="#m6e7bba4bba" y="224.64"/>
      </g>
     </g>
     <g id="text_7">
      <!-- 12 -->
      <g transform="translate(253.843962 244.524062)scale(0.18 -0.18)">
       <use xlink:href="#ArialMT-31"/>
       <use x="55.615234" xlink:href="#ArialMT-32"/>
      </g>
     </g>
    </g>
    <g id="text_8">
     <!-- Actual Log2HC10 -->
     <g transform="translate(93.289531 265.205)scale(0.18 -0.18)">
      <defs>
       <path d="M -9 0 
L 1750 4581 
L 2403 4581 
L 4278 0 
L 3588 0 
L 3053 1388 
L 1138 1388 
L 634 0 
L -9 0 
z
M 1313 1881 
L 2866 1881 
L 2388 3150 
Q 2169 3728 2063 4100 
Q 1975 3659 1816 3225 
L 1313 1881 
z
" id="ArialMT-41" transform="scale(0.015625)"/>
       <path d="M 2588 1216 
L 3141 1144 
Q 3050 572 2676 248 
Q 2303 -75 1759 -75 
Q 1078 -75 664 370 
Q 250 816 250 1647 
Q 250 2184 428 2587 
Q 606 2991 970 3192 
Q 1334 3394 1763 3394 
Q 2303 3394 2647 3120 
Q 2991 2847 3088 2344 
L 2541 2259 
Q 2463 2594 2264 2762 
Q 2066 2931 1784 2931 
Q 1359 2931 1093 2626 
Q 828 2322 828 1663 
Q 828 994 1084 691 
Q 1341 388 1753 388 
Q 2084 388 2306 591 
Q 2528 794 2588 1216 
z
" id="ArialMT-63" transform="scale(0.015625)"/>
       <path d="M 1650 503 
L 1731 6 
Q 1494 -44 1306 -44 
Q 1000 -44 831 53 
Q 663 150 594 308 
Q 525 466 525 972 
L 525 2881 
L 113 2881 
L 113 3319 
L 525 3319 
L 525 4141 
L 1084 4478 
L 1084 3319 
L 1650 3319 
L 1650 2881 
L 1084 2881 
L 1084 941 
Q 1084 700 1114 631 
Q 1144 563 1211 522 
Q 1278 481 1403 481 
Q 1497 481 1650 503 
z
" id="ArialMT-74" transform="scale(0.015625)"/>
       <path d="M 2597 0 
L 2597 488 
Q 2209 -75 1544 -75 
Q 1250 -75 995 37 
Q 741 150 617 320 
Q 494 491 444 738 
Q 409 903 409 1263 
L 409 3319 
L 972 3319 
L 972 1478 
Q 972 1038 1006 884 
Q 1059 663 1231 536 
Q 1403 409 1656 409 
Q 1909 409 2131 539 
Q 2353 669 2445 892 
Q 2538 1116 2538 1541 
L 2538 3319 
L 3100 3319 
L 3100 0 
L 2597 0 
z
" id="ArialMT-75" transform="scale(0.015625)"/>
       <path d="M 2588 409 
Q 2275 144 1986 34 
Q 1697 -75 1366 -75 
Q 819 -75 525 192 
Q 231 459 231 875 
Q 231 1119 342 1320 
Q 453 1522 633 1644 
Q 813 1766 1038 1828 
Q 1203 1872 1538 1913 
Q 2219 1994 2541 2106 
Q 2544 2222 2544 2253 
Q 2544 2597 2384 2738 
Q 2169 2928 1744 2928 
Q 1347 2928 1158 2789 
Q 969 2650 878 2297 
L 328 2372 
Q 403 2725 575 2942 
Q 747 3159 1072 3276 
Q 1397 3394 1825 3394 
Q 2250 3394 2515 3294 
Q 2781 3194 2906 3042 
Q 3031 2891 3081 2659 
Q 3109 2516 3109 2141 
L 3109 1391 
Q 3109 606 3145 398 
Q 3181 191 3288 0 
L 2700 0 
Q 2613 175 2588 409 
z
M 2541 1666 
Q 2234 1541 1622 1453 
Q 1275 1403 1131 1340 
Q 988 1278 909 1158 
Q 831 1038 831 891 
Q 831 666 1001 516 
Q 1172 366 1500 366 
Q 1825 366 2078 508 
Q 2331 650 2450 897 
Q 2541 1088 2541 1459 
L 2541 1666 
z
" id="ArialMT-61" transform="scale(0.015625)"/>
       <path d="M 409 0 
L 409 4581 
L 972 4581 
L 972 0 
L 409 0 
z
" id="ArialMT-6c" transform="scale(0.015625)"/>
       <path id="ArialMT-20" transform="scale(0.015625)"/>
       <path d="M 469 0 
L 469 4581 
L 1075 4581 
L 1075 541 
L 3331 541 
L 3331 0 
L 469 0 
z
" id="ArialMT-4c" transform="scale(0.015625)"/>
       <path d="M 213 1659 
Q 213 2581 725 3025 
Q 1153 3394 1769 3394 
Q 2453 3394 2887 2945 
Q 3322 2497 3322 1706 
Q 3322 1066 3130 698 
Q 2938 331 2570 128 
Q 2203 -75 1769 -75 
Q 1072 -75 642 372 
Q 213 819 213 1659 
z
M 791 1659 
Q 791 1022 1069 705 
Q 1347 388 1769 388 
Q 2188 388 2466 706 
Q 2744 1025 2744 1678 
Q 2744 2294 2464 2611 
Q 2184 2928 1769 2928 
Q 1347 2928 1069 2612 
Q 791 2297 791 1659 
z
" id="ArialMT-6f" transform="scale(0.015625)"/>
       <path d="M 319 -275 
L 866 -356 
Q 900 -609 1056 -725 
Q 1266 -881 1628 -881 
Q 2019 -881 2231 -725 
Q 2444 -569 2519 -288 
Q 2563 -116 2559 434 
Q 2191 0 1641 0 
Q 956 0 581 494 
Q 206 988 206 1678 
Q 206 2153 378 2554 
Q 550 2956 876 3175 
Q 1203 3394 1644 3394 
Q 2231 3394 2613 2919 
L 2613 3319 
L 3131 3319 
L 3131 450 
Q 3131 -325 2973 -648 
Q 2816 -972 2473 -1159 
Q 2131 -1347 1631 -1347 
Q 1038 -1347 672 -1080 
Q 306 -813 319 -275 
z
M 784 1719 
Q 784 1066 1043 766 
Q 1303 466 1694 466 
Q 2081 466 2343 764 
Q 2606 1063 2606 1700 
Q 2606 2309 2336 2618 
Q 2066 2928 1684 2928 
Q 1309 2928 1046 2623 
Q 784 2319 784 1719 
z
" id="ArialMT-67" transform="scale(0.015625)"/>
       <path d="M 513 0 
L 513 4581 
L 1119 4581 
L 1119 2700 
L 3500 2700 
L 3500 4581 
L 4106 4581 
L 4106 0 
L 3500 0 
L 3500 2159 
L 1119 2159 
L 1119 0 
L 513 0 
z
" id="ArialMT-48" transform="scale(0.015625)"/>
       <path d="M 3763 1606 
L 4369 1453 
Q 4178 706 3683 314 
Q 3188 -78 2472 -78 
Q 1731 -78 1267 223 
Q 803 525 561 1097 
Q 319 1669 319 2325 
Q 319 3041 592 3573 
Q 866 4106 1370 4382 
Q 1875 4659 2481 4659 
Q 3169 4659 3637 4309 
Q 4106 3959 4291 3325 
L 3694 3184 
Q 3534 3684 3231 3912 
Q 2928 4141 2469 4141 
Q 1941 4141 1586 3887 
Q 1231 3634 1087 3207 
Q 944 2781 944 2328 
Q 944 1744 1114 1308 
Q 1284 872 1643 656 
Q 2003 441 2422 441 
Q 2931 441 3284 734 
Q 3638 1028 3763 1606 
z
" id="ArialMT-43" transform="scale(0.015625)"/>
      </defs>
      <use xlink:href="#ArialMT-41"/>
      <use x="66.699219" xlink:href="#ArialMT-63"/>
      <use x="116.699219" xlink:href="#ArialMT-74"/>
      <use x="144.482422" xlink:href="#ArialMT-75"/>
      <use x="200.097656" xlink:href="#ArialMT-61"/>
      <use x="255.712891" xlink:href="#ArialMT-6c"/>
      <use x="277.929688" xlink:href="#ArialMT-20"/>
      <use x="305.712891" xlink:href="#ArialMT-4c"/>
      <use x="361.328125" xlink:href="#ArialMT-6f"/>
      <use x="416.943359" xlink:href="#ArialMT-67"/>
      <use x="472.558594" xlink:href="#ArialMT-32"/>
      <use x="528.173828" xlink:href="#ArialMT-48"/>
      <use x="600.390625" xlink:href="#ArialMT-43"/>
      <use x="672.607422" xlink:href="#ArialMT-31"/>
      <use x="728.222656" xlink:href="#ArialMT-30"/>
     </g>
    </g>
   </g>
   <g id="matplotlib.axis_2">
    <g id="ytick_1">
     <g id="line2d_8">
      <defs>
       <path d="M 0 0 
L -3.5 0 
" id="mcdc3dd813e" style="stroke:#000000;stroke-width:1.5;"/>
      </defs>
      <g>
       <use style="stroke:#000000;stroke-width:1.5;" x="55.11125" xlink:href="#mcdc3dd813e" y="224.64"/>
      </g>
     </g>
     <g id="text_9">
      <!-- 0 -->
      <g transform="translate(38.101562 231.082031)scale(0.18 -0.18)">
       <use xlink:href="#ArialMT-30"/>
      </g>
     </g>
    </g>
    <g id="ytick_2">
     <g id="line2d_9">
      <g>
       <use style="stroke:#000000;stroke-width:1.5;" x="55.11125" xlink:href="#mcdc3dd813e" y="189.8496"/>
      </g>
     </g>
     <g id="text_10">
      <!-- 2 -->
      <g transform="translate(38.101562 196.291631)scale(0.18 -0.18)">
       <use xlink:href="#ArialMT-32"/>
      </g>
     </g>
    </g>
    <g id="ytick_3">
     <g id="line2d_10">
      <g>
       <use style="stroke:#000000;stroke-width:1.5;" x="55.11125" xlink:href="#mcdc3dd813e" y="155.0592"/>
      </g>
     </g>
     <g id="text_11">
      <!-- 4 -->
      <g transform="translate(38.101562 161.501231)scale(0.18 -0.18)">
       <use xlink:href="#ArialMT-34"/>
      </g>
     </g>
    </g>
    <g id="ytick_4">
     <g id="line2d_11">
      <g>
       <use style="stroke:#000000;stroke-width:1.5;" x="55.11125" xlink:href="#mcdc3dd813e" y="120.2688"/>
      </g>
     </g>
     <g id="text_12">
      <!-- 6 -->
      <g transform="translate(38.101562 126.710831)scale(0.18 -0.18)">
       <use xlink:href="#ArialMT-36"/>
      </g>
     </g>
    </g>
    <g id="ytick_5">
     <g id="line2d_12">
      <g>
       <use style="stroke:#000000;stroke-width:1.5;" x="55.11125" xlink:href="#mcdc3dd813e" y="85.4784"/>
      </g>
     </g>
     <g id="text_13">
      <!-- 8 -->
      <g transform="translate(38.101562 91.920431)scale(0.18 -0.18)">
       <use xlink:href="#ArialMT-38"/>
      </g>
     </g>
    </g>
    <g id="ytick_6">
     <g id="line2d_13">
      <g>
       <use style="stroke:#000000;stroke-width:1.5;" x="55.11125" xlink:href="#mcdc3dd813e" y="50.688"/>
      </g>
     </g>
     <g id="text_14">
      <!-- 10 -->
      <g transform="translate(28.091875 57.130031)scale(0.18 -0.18)">
       <use xlink:href="#ArialMT-31"/>
       <use x="55.615234" xlink:href="#ArialMT-30"/>
      </g>
     </g>
    </g>
    <g id="ytick_7">
     <g id="line2d_14">
      <g>
       <use style="stroke:#000000;stroke-width:1.5;" x="55.11125" xlink:href="#mcdc3dd813e" y="15.8976"/>
      </g>
     </g>
     <g id="text_15">
      <!-- 12 -->
      <g transform="translate(28.091875 22.339631)scale(0.18 -0.18)">
       <use xlink:href="#ArialMT-31"/>
       <use x="55.615234" xlink:href="#ArialMT-32"/>
      </g>
     </g>
    </g>
    <g id="text_16">
     <!-- Predicted Log2HC10 -->
     <g transform="translate(20.303437 199.468125)rotate(-90)scale(0.18 -0.18)">
      <defs>
       <path d="M 494 0 
L 494 4581 
L 2222 4581 
Q 2678 4581 2919 4538 
Q 3256 4481 3484 4323 
Q 3713 4166 3852 3881 
Q 3991 3597 3991 3256 
Q 3991 2672 3619 2267 
Q 3247 1863 2275 1863 
L 1100 1863 
L 1100 0 
L 494 0 
z
M 1100 2403 
L 2284 2403 
Q 2872 2403 3119 2622 
Q 3366 2841 3366 3238 
Q 3366 3525 3220 3729 
Q 3075 3934 2838 4000 
Q 2684 4041 2272 4041 
L 1100 4041 
L 1100 2403 
z
" id="ArialMT-50" transform="scale(0.015625)"/>
       <path d="M 416 0 
L 416 3319 
L 922 3319 
L 922 2816 
Q 1116 3169 1280 3281 
Q 1444 3394 1641 3394 
Q 1925 3394 2219 3213 
L 2025 2691 
Q 1819 2813 1613 2813 
Q 1428 2813 1281 2702 
Q 1134 2591 1072 2394 
Q 978 2094 978 1738 
L 978 0 
L 416 0 
z
" id="ArialMT-72" transform="scale(0.015625)"/>
       <path d="M 2694 1069 
L 3275 997 
Q 3138 488 2766 206 
Q 2394 -75 1816 -75 
Q 1088 -75 661 373 
Q 234 822 234 1631 
Q 234 2469 665 2931 
Q 1097 3394 1784 3394 
Q 2450 3394 2872 2941 
Q 3294 2488 3294 1666 
Q 3294 1616 3291 1516 
L 816 1516 
Q 847 969 1125 678 
Q 1403 388 1819 388 
Q 2128 388 2347 550 
Q 2566 713 2694 1069 
z
M 847 1978 
L 2700 1978 
Q 2663 2397 2488 2606 
Q 2219 2931 1791 2931 
Q 1403 2931 1139 2672 
Q 875 2413 847 1978 
z
" id="ArialMT-65" transform="scale(0.015625)"/>
       <path d="M 2575 0 
L 2575 419 
Q 2259 -75 1647 -75 
Q 1250 -75 917 144 
Q 584 363 401 755 
Q 219 1147 219 1656 
Q 219 2153 384 2558 
Q 550 2963 881 3178 
Q 1213 3394 1622 3394 
Q 1922 3394 2156 3267 
Q 2391 3141 2538 2938 
L 2538 4581 
L 3097 4581 
L 3097 0 
L 2575 0 
z
M 797 1656 
Q 797 1019 1065 703 
Q 1334 388 1700 388 
Q 2069 388 2326 689 
Q 2584 991 2584 1609 
Q 2584 2291 2321 2609 
Q 2059 2928 1675 2928 
Q 1300 2928 1048 2622 
Q 797 2316 797 1656 
z
" id="ArialMT-64" transform="scale(0.015625)"/>
       <path d="M 425 3934 
L 425 4581 
L 988 4581 
L 988 3934 
L 425 3934 
z
M 425 0 
L 425 3319 
L 988 3319 
L 988 0 
L 425 0 
z
" id="ArialMT-69" transform="scale(0.015625)"/>
      </defs>
      <use xlink:href="#ArialMT-50"/>
      <use x="66.699219" xlink:href="#ArialMT-72"/>
      <use x="100" xlink:href="#ArialMT-65"/>
      <use x="155.615234" xlink:href="#ArialMT-64"/>
      <use x="211.230469" xlink:href="#ArialMT-69"/>
      <use x="233.447266" xlink:href="#ArialMT-63"/>
      <use x="283.447266" xlink:href="#ArialMT-74"/>
      <use x="311.230469" xlink:href="#ArialMT-65"/>
      <use x="366.845703" xlink:href="#ArialMT-64"/>
      <use x="422.460938" xlink:href="#ArialMT-20"/>
      <use x="450.244141" xlink:href="#ArialMT-4c"/>
      <use x="505.859375" xlink:href="#ArialMT-6f"/>
      <use x="561.474609" xlink:href="#ArialMT-67"/>
      <use x="617.089844" xlink:href="#ArialMT-32"/>
      <use x="672.705078" xlink:href="#ArialMT-48"/>
      <use x="744.921875" xlink:href="#ArialMT-43"/>
      <use x="817.138672" xlink:href="#ArialMT-31"/>
      <use x="872.753906" xlink:href="#ArialMT-30"/>
     </g>
    </g>
   </g>
   <g id="line2d_15">
    <path clip-path="url(#pc8df87fe10)" d="M 55.11125 224.64 
L 272.55125 7.2 
" style="fill:none;stroke:#000000;stroke-dasharray:14.8,6.4;stroke-dashoffset:0;stroke-width:4;"/>
   </g>
   <g id="patch_3">
    <path d="M 55.11125 224.64 
L 55.11125 7.2 
" style="fill:none;stroke:#000000;stroke-linecap:square;stroke-linejoin:miter;stroke-width:0.8;"/>
   </g>
   <g id="patch_4">
    <path d="M 272.55125 224.64 
L 272.55125 7.2 
" style="fill:none;stroke:#000000;stroke-linecap:square;stroke-linejoin:miter;stroke-width:0.8;"/>
   </g>
   <g id="patch_5">
    <path d="M 55.11125 224.64 
L 272.55125 224.64 
" style="fill:none;stroke:#000000;stroke-linecap:square;stroke-linejoin:miter;stroke-width:0.8;"/>
   </g>
   <g id="patch_6">
    <path d="M 55.11125 7.2 
L 272.55125 7.2 
" style="fill:none;stroke:#000000;stroke-linecap:square;stroke-linejoin:miter;stroke-width:0.8;"/>
   </g>
   <g id="legend_1">
    <g id="PathCollection_3">
     <path d="M 158.304688 203.299778 
C 159.143333 203.299778 159.947743 202.96658 160.540755 202.373568 
C 161.133768 201.780556 161.466965 200.976146 161.466965 200.1375 
C 161.466965 199.298854 161.133768 198.494444 160.540755 197.901432 
C 159.947743 197.30842 159.143333 196.975222 158.304688 196.975222 
C 157.466042 196.975222 156.661632 197.30842 156.06862 197.901432 
C 155.475607 198.494444 155.14241 199.298854 155.14241 200.1375 
C 155.14241 200.976146 155.475607 201.780556 156.06862 202.373568 
C 156.661632 202.96658 157.466042 203.299778 158.304688 203.299778 
z
" style="fill:none;stroke:#0000ff;"/>
    </g>
    <g id="text_17">
     <!-- R² = 0.866 -->
     <g transform="translate(171.804688 204.8625)scale(0.18 -0.18)">
      <defs>
       <path d="M 503 0 
L 503 4581 
L 2534 4581 
Q 3147 4581 3465 4457 
Q 3784 4334 3975 4021 
Q 4166 3709 4166 3331 
Q 4166 2844 3850 2509 
Q 3534 2175 2875 2084 
Q 3116 1969 3241 1856 
Q 3506 1613 3744 1247 
L 4541 0 
L 3778 0 
L 3172 953 
Q 2906 1366 2734 1584 
Q 2563 1803 2427 1890 
Q 2291 1978 2150 2013 
Q 2047 2034 1813 2034 
L 1109 2034 
L 1109 0 
L 503 0 
z
M 1109 2559 
L 2413 2559 
Q 2828 2559 3062 2645 
Q 3297 2731 3419 2920 
Q 3541 3109 3541 3331 
Q 3541 3656 3305 3865 
Q 3069 4075 2559 4075 
L 1109 4075 
L 1109 2559 
z
" id="ArialMT-52" transform="scale(0.015625)"/>
       <path d="M 78 2291 
Q 97 2469 225 2647 
Q 422 2916 872 3242 
Q 1322 3569 1406 3663 
Q 1522 3791 1522 3925 
Q 1522 4075 1412 4172 
Q 1303 4269 1091 4269 
Q 884 4269 782 4195 
Q 681 4122 616 3913 
L 144 3963 
Q 234 4309 457 4473 
Q 681 4638 1100 4638 
Q 1572 4638 1792 4453 
Q 2013 4269 2013 4003 
Q 2013 3741 1828 3506 
Q 1688 3331 1188 2972 
Q 928 2781 819 2669 
L 2025 2669 
L 2025 2291 
L 78 2291 
z
" id="ArialMT-b2" transform="scale(0.015625)"/>
       <path d="M 3381 2694 
L 356 2694 
L 356 3219 
L 3381 3219 
L 3381 2694 
z
M 3381 1303 
L 356 1303 
L 356 1828 
L 3381 1828 
L 3381 1303 
z
" id="ArialMT-3d" transform="scale(0.015625)"/>
       <path d="M 581 0 
L 581 641 
L 1222 641 
L 1222 0 
L 581 0 
z
" id="ArialMT-2e" transform="scale(0.015625)"/>
      </defs>
      <use xlink:href="#ArialMT-52"/>
      <use x="72.216797" xlink:href="#ArialMT-b2"/>
      <use x="105.517578" xlink:href="#ArialMT-20"/>
      <use x="133.300781" xlink:href="#ArialMT-3d"/>
      <use x="191.699219" xlink:href="#ArialMT-20"/>
      <use x="219.482422" xlink:href="#ArialMT-30"/>
      <use x="275.097656" xlink:href="#ArialMT-2e"/>
      <use x="302.880859" xlink:href="#ArialMT-38"/>
      <use x="358.496094" xlink:href="#ArialMT-36"/>
      <use x="414.111328" xlink:href="#ArialMT-36"/>
     </g>
    </g>
   </g>
  </g>
 </g>
 <defs>
  <clipPath id="pc8df87fe10">
   <rect height="217.44" width="217.44" x="55.11125" y="7.2"/>
  </clipPath>
 </defs>
</svg>
